<svg width="115" height="56" viewBox="0 0 115 56" fill="none" xmlns="http://www.w3.org/2000/svg">
<g opacity="0.8">
<mask id="mask0_107_1946" style="mask-type:luminance" maskUnits="userSpaceOnUse" x="54" y="9" width="60" height="30">
<path d="M113.445 9.33325H54.3906V38.8888H113.445V9.33325Z" fill="white"/>
</mask>
<g mask="url(#mask0_107_1946)">
<path d="M108.118 14.4395C109.01 14.4395 110.014 14.6626 111.128 15.2206L112.578 11.6498C110.906 10.7571 109.233 10.3108 107.45 10.3108C102.991 10.3108 99.8691 12.9889 99.8691 17.7871V18.6796H96.8594V22.4736H99.8691V37.6492H104.44V22.4736H110.348V18.6796H104.44V17.8986C104.44 15.5553 105.777 14.4395 108.118 14.4395Z" fill="white"/>
<path d="M94.1839 18.5681H89.6133V37.5376H94.1839V18.5681Z" fill="white"/>
<path d="M91.9551 16.3364C93.6273 16.3364 94.8534 15.1089 94.8534 13.4352C94.8534 11.7614 93.6273 10.5339 91.9551 10.5339C90.2829 10.5339 89.0566 11.7614 89.0566 13.4352C89.0566 15.1089 90.2829 16.3364 91.9551 16.3364Z" fill="white"/>
<path d="M84.932 10.9802H80.3613V37.5376H84.932V10.9802Z" fill="white"/>
<path d="M71.666 18.4565V20.465C69.8824 19.0144 67.9873 18.2334 65.5348 18.2334C59.8495 18.2334 55.6133 22.362 55.6133 28.1644C55.6133 33.8552 59.6265 38.0955 65.5348 38.0955C67.8758 38.0955 69.8824 37.3145 71.666 35.7522V37.6492H76.0137V18.5682H71.666V18.4565ZM65.8691 34.0784C62.1903 34.0784 59.8495 31.4004 59.8495 28.0528C59.8495 24.7053 62.1903 22.0272 65.8691 22.0272C69.4364 22.0272 71.7775 24.7053 71.7775 28.0528C71.889 31.4004 69.4364 34.0784 65.8691 34.0784Z" fill="white"/>
</g>
<mask id="mask1_107_1946" style="mask-type:luminance" maskUnits="userSpaceOnUse" x="0" y="0" width="47" height="56">
<path d="M46.6216 0H0V56H46.6216V0Z" fill="white"/>
</mask>
<g mask="url(#mask1_107_1946)">
<path d="M31.6474 15.1648H24.5128L14.9258 38.2629H21.057L28.0801 20.4093L34.9918 38.2629H41.123L31.6474 15.1648Z" fill="white"/>
<path d="M43.7978 44.0654C42.0142 45.4044 40.0076 46.4087 37.778 47.3013C26.1845 51.8763 13.253 47.0782 8.79391 36.2543C4.3348 25.3191 9.90868 12.4867 21.5024 7.91172C23.8434 7.01903 26.1845 6.46111 28.5255 6.23794L26.2959 0.770264C23.7319 0.993435 21.168 1.66292 18.7154 2.66719C4.44627 8.35804 -2.35383 24.5379 3.44299 38.4861C9.12836 52.4343 25.1812 58.7946 39.4503 53.2153C41.7914 52.3226 44.1322 51.0953 46.0274 49.7562L43.7978 44.0654Z" fill="white"/>
</g>
</g>
</svg>
