<svg width="81" height="79" viewBox="0 0 81 79" fill="none" xmlns="http://www.w3.org/2000/svg">
<path d="M80.2671 41.8219C79.6157 49.0478 77.0198 55.9626 72.755 61.832C68.4902 67.7014 62.7157 72.3066 56.0445 75.1585C49.3733 78.0105 42.0543 79.0028 34.8646 78.0302C27.6748 77.0576 20.8826 74.1563 15.2089 69.6343C9.53521 65.1124 5.19184 59.1385 2.63984 52.3469C0.087841 45.5553 -0.577537 38.1994 0.714339 31.0601C2.00622 23.9207 5.20713 17.2645 9.97729 11.7978C14.7475 6.33115 20.9088 2.25815 27.8074 0.0111656L29.1847 4.23977C23.0498 6.23804 17.5704 9.86021 13.3282 14.7218C9.08603 19.5833 6.23941 25.5029 5.09053 31.8519C3.94165 38.201 4.53338 44.7427 6.8029 50.7826C9.07243 56.8224 12.935 62.1351 17.9807 66.1565C23.0264 70.1779 29.0668 72.7581 35.4608 73.6231C41.8547 74.488 48.3636 73.6055 54.2964 71.0693C60.2292 68.533 65.3645 64.4376 69.1572 59.2178C72.9499 53.998 75.2585 47.8487 75.8378 41.4226L80.2671 41.8219Z" fill="url(#paint0_linear_107_2160)"/>
<defs>
<linearGradient id="paint0_linear_107_2160" x1="34.358" y1="0.714278" x2="70.7866" y2="58.0357" gradientUnits="userSpaceOnUse">
<stop stop-color="#09D9FF"/>
<stop offset="1" stop-color="#3561F6"/>
</linearGradient>
</defs>
</svg>
