<svg width="56" height="56" viewBox="0 0 56 56" fill="none" xmlns="http://www.w3.org/2000/svg">
<g clip-path="url(#clip0_107_1997)">
<path d="M4.40651 55.4125L21.346 38.4731C25.076 41.2589 29.6042 42.7691 34.2597 42.7799H34.2642L34.511 42.7822C40.0041 42.7822 45.2722 40.6001 49.1563 36.7159C53.0405 32.8317 55.2227 27.5636 55.2227 22.0705L55.2204 21.81V21.8237C55.2204 16.1895 52.9822 10.786 48.9981 6.80195C45.0141 2.81792 39.6106 0.579712 33.9763 0.579712C28.3421 0.579712 22.9386 2.81792 18.9545 6.80195C14.9705 10.786 12.7323 16.1895 12.7323 21.8237C12.7913 26.4992 14.3125 31.0389 17.0826 34.806L17.0391 34.7443L0.0996704 51.6837L4.40651 55.4125ZM33.9763 6.31912C38.0664 6.18687 42.0418 7.68369 45.0289 10.4807C48.0161 13.2777 49.7707 17.1462 49.9074 21.2362C50.044 25.3261 48.5515 29.303 45.7576 32.2932C42.9638 35.2834 39.0973 37.0422 35.0074 37.1832C30.9176 37.3242 26.9391 35.8359 23.9459 33.0453C20.9528 30.2547 19.1898 26.39 19.0444 22.3004C18.899 18.2107 20.383 14.2306 23.1704 11.2345C25.9578 8.23831 29.8206 6.47121 33.9101 6.3214L33.9763 6.31912Z" fill="#5C9EFF"/>
</g>
<defs>
<clipPath id="clip0_107_1997">
<rect width="54.8351" height="54.8351" fill="white" transform="matrix(-1 0 0 1 55.2227 0.577393)"/>
</clipPath>
</defs>
</svg>
