<svg width="55" height="55" viewBox="0 0 55 55" fill="none" xmlns="http://www.w3.org/2000/svg">
<g clip-path="url(#clip0_107_2060)">
<path d="M4.19075 54.2801L20.8154 37.6555C24.4761 40.3895 28.9201 41.8717 33.4891 41.8823H33.4936L33.7357 41.8845C39.1267 41.8845 44.2969 39.743 48.1089 35.931C51.9209 32.1189 54.0625 26.9488 54.0625 21.5578L54.0603 21.3021V21.3156C54.0603 15.786 51.8636 10.483 47.9537 6.57297C44.0437 2.66298 38.7406 0.46637 33.211 0.46637C27.6815 0.46637 22.3784 2.66298 18.4684 6.57297C14.5584 10.483 12.3618 15.786 12.3618 21.3156C12.4197 25.9042 13.9127 30.3595 16.6312 34.0565L16.5886 33.996L-0.0360451 50.6207L4.19075 54.2801ZM33.211 6.09911C37.2251 5.96932 41.1266 7.43832 44.0582 10.1834C46.9899 12.9284 48.7119 16.725 48.846 20.7389C48.9801 24.7529 47.5153 28.6559 44.7734 31.5905C42.0315 34.5251 38.2368 36.2512 34.223 36.3896C30.2092 36.528 26.3046 35.0674 23.3671 32.3286C20.4295 29.5899 18.6993 25.797 18.5566 21.7834C18.4139 17.7697 19.8703 13.8636 22.6059 10.9231C25.3415 7.98263 29.1325 6.24838 33.146 6.10135L33.211 6.09911Z" fill="#5C9EFF"/>
</g>
<defs>
<clipPath id="clip0_107_2060">
<rect width="53.816" height="53.816" fill="white" transform="matrix(-1 0 0 1 54.0625 0.464111)"/>
</clipPath>
</defs>
</svg>
