<svg width="32" height="32" viewBox="0 0 32 32" fill="none" xmlns="http://www.w3.org/2000/svg">
<g clip-path="url(#clip0_111_171)">
<path fill-rule="evenodd" clip-rule="evenodd" d="M14.1146 2.8C14.5866 2.32863 15.2181 2.05127 15.8846 2.02264C16.551 1.99401 17.204 2.21618 17.7146 2.64533L17.8853 2.80133L20.4186 5.33333H24C24.6725 5.33346 25.3202 5.5877 25.8132 6.04512C26.3062 6.50254 26.6082 7.12936 26.6586 7.8L26.6666 8V11.5813L29.2 14.1147C29.6717 14.5867 29.9493 15.2185 29.9779 15.8852C30.0066 16.552 29.7842 17.2052 29.3546 17.716L29.1986 17.8853L26.6653 20.4187V24C26.6655 24.6728 26.4114 25.3208 25.954 25.8141C25.4965 26.3074 24.8695 26.6095 24.1986 26.66L24 26.6667H20.42L17.8866 29.2C17.4146 29.6717 16.7828 29.9493 16.1161 29.978C15.4493 30.0066 14.7961 29.7842 14.2853 29.3547L14.116 29.2L11.5826 26.6667H7.99996C7.32719 26.6669 6.6792 26.4128 6.1859 25.9553C5.69259 25.4979 5.39042 24.8709 5.33996 24.2L5.33329 24V20.4187L2.79996 17.8853C2.32822 17.4133 2.05062 16.7815 2.02199 16.1148C1.99335 15.448 2.21576 14.7948 2.64529 14.284L2.79996 14.1147L5.33329 11.5813V8C5.33342 7.32746 5.58766 6.67981 6.04508 6.18678C6.5025 5.69375 7.12932 5.39177 7.79996 5.34133L7.99996 5.33333H11.5813L14.1146 2.8ZM20.1053 11.9773L14.4466 17.636L12.0893 15.2787C11.8391 15.0287 11.4999 14.8883 11.1462 14.8884C10.7925 14.8885 10.4533 15.0291 10.2033 15.2793C9.95328 15.5295 9.8129 15.8688 9.81302 16.2225C9.81315 16.5762 9.95377 16.9153 10.204 17.1653L13.4093 20.3707C13.5455 20.5069 13.7072 20.615 13.8852 20.6888C14.0632 20.7625 14.254 20.8005 14.4466 20.8005C14.6393 20.8005 14.8301 20.7625 15.0081 20.6888C15.186 20.615 15.3478 20.5069 15.484 20.3707L21.9906 13.8627C22.2335 13.6112 22.3679 13.2744 22.3649 12.9248C22.3618 12.5752 22.2216 12.2408 21.9744 11.9936C21.7272 11.7464 21.3928 11.6061 21.0432 11.6031C20.6936 11.6001 20.3568 11.7345 20.1053 11.9773Z" fill="white"/>
</g>
<defs>
<clipPath id="clip0_111_171">
<rect width="32" height="32" fill="white"/>
</clipPath>
</defs>
</svg>
