<svg width="1436" height="176" viewBox="0 0 1436 176" fill="none" xmlns="http://www.w3.org/2000/svg">
<path d="M0 29.0629C43.0486 7.92709 114.975 3.95368 176.788 10.361C238.6 16.7684 294.095 31.7605 351.568 43.9163C409.042 56.0721 472.855 65.6588 535.116 60.2215C595.239 54.9709 644.906 36.6126 696.471 21.625C748.036 6.63748 810.862 -5.71208 869.17 2.76757C941.342 13.2636 974.596 49.95 1026.44 75.0495C1053.23 88.0221 1085.99 98.1555 1122.38 104.73C1158.78 111.304 1197.91 114.157 1237.01 113.087C1276.11 112.017 1314.21 107.05 1348.6 98.5385C1382.99 90.027 1412.83 78.1803 1436 63.8403V176H3.78198L0 29.0629Z" fill="#3601A7" fill-opacity="0.2"/>
</svg>
