<svg width="33" height="39" viewBox="0 0 33 39" fill="none" xmlns="http://www.w3.org/2000/svg">
<path d="M32.6785 11.0099H26.9716C26.0576 9.33904 24.7985 7.87705 23.2753 6.83278L26.5857 3.51199L23.7221 0.567139L19.315 5.09929C17.4265 4.62816 15.4559 4.62816 13.5674 5.09929L9.13999 0.567139L6.27638 3.51199L9.56649 6.83278C8.04329 7.87705 6.80442 9.35992 5.89051 11.0099H0.183594V15.187H4.42824C4.30638 15.8762 4.24545 16.5654 4.24545 17.2755V19.3641H0.183594V23.5412H4.24545V25.6297C4.24545 26.3398 4.30638 27.029 4.42824 27.7183H0.183594V31.8954H5.89051C6.69102 33.3184 7.75652 34.5653 9.02606 35.5645C10.2956 36.5637 11.7443 37.2956 13.2892 37.7185C14.8341 38.1414 16.4449 38.2469 18.0295 38.029C19.614 37.811 21.1413 37.2739 22.5238 36.4484C24.372 35.3623 25.9155 33.775 26.9716 31.8954H32.6785V27.7183H28.4338C28.5557 27.029 28.6166 26.3398 28.6166 25.6297V23.5412H32.6785V19.3641H28.6166V17.2755C28.6166 16.5654 28.5557 15.8762 28.4338 15.187H32.6785V11.0099ZM24.5548 25.6297C24.5548 27.8454 23.6989 29.9703 22.1754 31.537C20.6519 33.1037 18.5856 33.9839 16.431 33.9839C14.2765 33.9839 12.2102 33.1037 10.6867 31.537C9.1632 29.9703 8.30731 27.8454 8.30731 25.6297V17.2755C8.30731 15.0598 9.1632 12.9349 10.6867 11.3682C12.2102 9.8015 14.2765 8.92133 16.431 8.92133C18.5856 8.92133 20.6519 9.8015 22.1754 11.3682C23.6989 12.9349 24.5548 15.0598 24.5548 17.2755V25.6297ZM20.4929 15.187V19.3641H12.3692V15.187H20.4929ZM12.3692 23.5412H20.4929V27.7183H12.3692V23.5412Z" fill="#5C9EFF"/>
</svg>
