<svg width="40" height="44" viewBox="0 0 40 44" fill="none" xmlns="http://www.w3.org/2000/svg">
<path d="M39.864 12.5129H33.0107C31.9132 10.5758 30.4011 8.88082 28.5719 7.67013L32.5473 3.82014L29.1085 0.406006L23.8161 5.66039C21.5483 5.11419 19.1819 5.11419 16.9141 5.66039L11.5973 0.406006L8.15846 3.82014L12.1095 7.67013C10.2803 8.88082 8.79257 10.6 7.69507 12.5129H0.841797V17.3556H5.93907C5.79274 18.1547 5.71957 18.9537 5.71957 19.777V22.1984H0.841797V27.0411H5.71957V29.4625C5.71957 30.2858 5.79274 31.0848 5.93907 31.8839H0.841797V36.7266H7.69507C8.65638 38.3765 9.93592 39.822 11.4605 40.9804C12.985 42.1389 14.7247 42.9875 16.5799 43.4778C18.4351 43.9681 20.3695 44.0904 22.2724 43.8377C24.1753 43.585 26.0093 42.9623 27.6695 42.0052C29.8889 40.7461 31.7425 38.9059 33.0107 36.7266H39.864V31.8839H34.7667C34.913 31.0848 34.9862 30.2858 34.9862 29.4625V27.0411H39.864V22.1984H34.9862V19.777C34.9862 18.9537 34.913 18.1547 34.7667 17.3556H39.864V12.5129ZM30.1084 29.4625C30.1084 32.0313 29.0806 34.4948 27.2511 36.3112C25.4216 38.1276 22.9402 39.148 20.3529 39.148C17.7656 39.148 15.2842 38.1276 13.4547 36.3112C11.6252 34.4948 10.5973 32.0313 10.5973 29.4625V19.777C10.5973 17.2083 11.6252 14.7447 13.4547 12.9283C15.2842 11.1119 17.7656 10.0915 20.3529 10.0915C22.9402 10.0915 25.4216 11.1119 27.2511 12.9283C29.0806 14.7447 30.1084 17.2083 30.1084 19.777V29.4625ZM25.2307 17.3556V22.1984H15.4751V17.3556H25.2307ZM15.4751 27.0411H25.2307V31.8839H15.4751V27.0411Z" fill="#5C9EFF"/>
</svg>
