<svg width="10" height="10" viewBox="0 0 10 10" fill="none" xmlns="http://www.w3.org/2000/svg">
<path d="M8.69079 9.32149L6.05676 6.67352C5.47676 7.109 4.77265 7.34508 4.04874 7.34676H4.04802L4.00965 7.34712C3.1555 7.34712 2.33633 7.00601 1.73235 6.39884C1.12837 5.79167 0.789063 4.96816 0.789062 4.10949L0.789418 4.06877V4.07091C0.789418 3.19017 1.13745 2.3455 1.75695 1.72272C2.37646 1.09994 3.21668 0.750061 4.09279 0.750061C4.9689 0.750061 5.80912 1.09994 6.42863 1.72272C7.04813 2.3455 7.39616 3.19017 7.39616 4.07091C7.38699 4.80178 7.15044 5.51142 6.71971 6.10028L6.72646 6.09064L9.36049 8.73861L8.69079 9.32149ZM4.09279 1.64724C3.45679 1.62657 2.83864 1.86055 2.37415 2.29778C1.90966 2.73501 1.63682 3.33972 1.61557 3.97906C1.59432 4.6184 1.82641 5.24007 2.26084 5.70749C2.69527 6.17491 3.2965 6.44985 3.93246 6.47189C4.56841 6.49394 5.18705 6.26129 5.65248 5.82506C6.1179 5.38884 6.39204 4.78471 6.41465 4.14542C6.43726 3.50613 6.2065 2.88396 5.77307 2.4156C5.33964 1.94725 4.739 1.67102 4.10309 1.6476L4.09279 1.64724Z" fill="white"/>
</svg>
