<svg width="40" height="45" viewBox="0 0 40 45" fill="none" xmlns="http://www.w3.org/2000/svg">
<path d="M39.7487 12.6933H32.8955C31.798 10.7562 30.2859 9.06124 28.4567 7.85055L32.4321 4.00056L28.9933 0.586426L23.7009 5.84081C21.4331 5.29461 19.0666 5.29461 16.7988 5.84081L11.4821 0.586426L8.04322 4.00056L11.9942 7.85055C10.1651 9.06124 8.67733 10.7804 7.57983 12.6933H0.726562L0.726562 17.5361H5.82384C5.6775 18.3351 5.60434 19.1342 5.60434 19.9574V22.3788H0.726562L0.726562 27.2216H5.60434V29.6429C5.60434 30.4662 5.6775 31.2653 5.82384 32.0643H0.726562L0.726562 36.9071H7.57983C8.54115 38.5569 9.82068 40.0024 11.3452 41.1609C12.8698 42.3193 14.6094 43.1679 16.4647 43.6582C18.3199 44.1485 20.2543 44.2708 22.1572 44.0181C24.06 43.7654 25.8941 43.1427 27.5543 42.1857C29.7737 40.9265 31.6273 39.0863 32.8955 36.9071H39.7487V32.0643H34.6515C34.7978 31.2653 34.871 30.4662 34.871 29.6429V27.2216H39.7487V22.3788H34.871V19.9574C34.871 19.1342 34.7978 18.3351 34.6515 17.5361H39.7487V12.6933ZM29.9932 29.6429C29.9932 32.2117 28.9654 34.6752 27.1359 36.4916C25.3063 38.308 22.825 39.3284 20.2377 39.3284C17.6503 39.3284 15.169 38.308 13.3394 36.4916C11.5099 34.6752 10.4821 32.2117 10.4821 29.6429V19.9574C10.4821 17.3887 11.5099 14.9251 13.3394 13.1087C15.169 11.2924 17.6503 10.2719 20.2377 10.2719C22.825 10.2719 25.3063 11.2924 27.1359 13.1087C28.9654 14.9251 29.9932 17.3887 29.9932 19.9574V29.6429ZM25.1154 17.5361V22.3788H15.3599V17.5361H25.1154ZM15.3599 27.2216H25.1154V32.0643H15.3599V27.2216Z" fill="#5C9EFF"/>
</svg>
