<svg width="11" height="11" viewBox="0 0 11 11" fill="none" xmlns="http://www.w3.org/2000/svg">
<path d="M10.0273 5.64414V9.84844C10.0273 10.0714 9.93871 10.2853 9.78102 10.443C9.62333 10.6007 9.40945 10.6893 9.18644 10.6893H1.19828C0.975271 10.6893 0.761395 10.6007 0.603704 10.443C0.446012 10.2853 0.357422 10.0714 0.357422 9.84844V1.86028C0.357422 1.63727 0.446012 1.42339 0.603704 1.2657C0.761395 1.10801 0.975271 1.01942 1.19828 1.01942H5.40258C5.51408 1.01942 5.62102 1.06371 5.69986 1.14256C5.77871 1.2214 5.82301 1.32834 5.82301 1.43985C5.82301 1.55135 5.77871 1.65829 5.69986 1.73714C5.62102 1.81598 5.51408 1.86028 5.40258 1.86028H1.19828V9.84844H9.18644V5.64414C9.18644 5.53264 9.23074 5.4257 9.30958 5.34685C9.38843 5.26801 9.49537 5.22371 9.60687 5.22371C9.71838 5.22371 9.82531 5.26801 9.90416 5.34685C9.98301 5.4257 10.0273 5.53264 10.0273 5.64414ZM8.97623 0.178558C8.60204 0.178558 8.23625 0.289518 7.92512 0.497407C7.614 0.705295 7.3715 1.00077 7.22831 1.34648C7.08511 1.69219 7.04765 2.07259 7.12065 2.43959C7.19365 2.80659 7.37384 3.1437 7.63843 3.40829C7.90302 3.67288 8.24013 3.85307 8.60713 3.92607C8.97413 3.99907 9.35453 3.96161 9.70024 3.81841C10.0459 3.67521 10.3414 3.43272 10.5493 3.12159C10.7572 2.81047 10.8682 2.44468 10.8682 2.07049C10.8682 1.56872 10.6688 1.0875 10.314 0.732693C9.95922 0.377886 9.478 0.178558 8.97623 0.178558Z" fill="#3879C5"/>
</svg>
