<svg width="33" height="41" viewBox="0 0 33 41" fill="none" xmlns="http://www.w3.org/2000/svg">
<path d="M4.47594 41.0053C3.39384 41.0053 2.46782 40.6269 1.69788 39.8699C0.92795 39.113 0.542327 38.202 0.541016 37.1369V17.7947C0.541016 16.7309 0.926638 15.8205 1.69788 15.0636C2.46913 14.3066 3.39515 13.9275 4.47594 13.9263H6.4434V10.0578C6.4434 7.38214 7.40287 5.1017 9.3218 3.21648C11.2407 1.33126 13.5604 0.388008 16.2807 0.386719C19.0024 0.386719 21.3227 1.32997 23.2416 3.21648C25.1605 5.10299 26.1193 7.38343 26.118 10.0578V13.9263H28.0855C29.1676 13.9263 30.0943 14.3054 30.8655 15.0636C31.6368 15.8218 32.0217 16.7322 32.0204 17.7947V37.1369C32.0204 38.2007 31.6355 39.1117 30.8655 39.8699C30.0956 40.6281 29.1689 41.0066 28.0855 41.0053H4.47594ZM4.47594 37.1369H28.0855V17.7947H4.47594V37.1369ZM16.2807 31.3342C17.3628 31.3342 18.2895 30.9558 19.0607 30.1988C19.832 29.4419 20.217 28.5309 20.2156 27.4658C20.2156 26.402 19.8307 25.4916 19.0607 24.7347C18.2908 23.9777 17.3641 23.5986 16.2807 23.5973C15.1986 23.5973 14.2726 23.9765 13.5027 24.7347C12.7327 25.4929 12.3471 26.4032 12.3458 27.4658C12.3458 28.5296 12.7314 29.4406 13.5027 30.1988C14.2739 30.957 15.1999 31.3355 16.2807 31.3342ZM10.3783 13.9263H22.1831V10.0578C22.1831 8.44596 21.6093 7.07589 20.4616 5.9476C19.3139 4.8193 17.9203 4.25516 16.2807 4.25516C14.6412 4.25516 13.2475 4.8193 12.0999 5.9476C10.9522 7.07589 10.3783 8.44596 10.3783 10.0578V13.9263Z" fill="white"/>
</svg>
