<svg width="6" height="6" viewBox="0 0 6 6" fill="none" xmlns="http://www.w3.org/2000/svg">
<path d="M2.94055 5.18249C2.44163 5.18249 1.95391 5.03454 1.53908 4.75736C1.12424 4.48017 0.800918 4.0862 0.60999 3.62526C0.419062 3.16432 0.369106 2.65711 0.466441 2.16778C0.563775 1.67845 0.804027 1.22897 1.15682 0.876176C1.5096 0.523387 1.95909 0.283135 2.44842 0.185801C2.93775 0.0884666 3.44496 0.138422 3.9059 0.32935C4.36684 0.520278 4.76081 0.843603 5.03799 1.25844C5.31518 1.67327 5.46313 2.16099 5.46313 2.65991C5.4665 2.99212 5.40355 3.32166 5.27798 3.62923C5.1524 3.93681 4.96672 4.21624 4.7318 4.45116C4.49688 4.68608 4.21745 4.87176 3.90987 4.99734C3.6023 5.12291 3.27276 5.18586 2.94055 5.18249ZM2.94055 0.97819C2.71829 0.973012 2.49728 1.01297 2.29091 1.09565C2.08453 1.17834 1.89707 1.30202 1.73986 1.45922C1.58266 1.61643 1.45897 1.80389 1.37629 2.01027C1.29361 2.21664 1.25365 2.43765 1.25883 2.65991C1.25365 2.88217 1.29361 3.10317 1.37629 3.30955C1.45897 3.51593 1.58266 3.70339 1.73986 3.86059C1.89707 4.0178 2.08453 4.14148 2.29091 4.22416C2.49728 4.30684 2.71829 4.34681 2.94055 4.34163C3.16281 4.34681 3.38381 4.30684 3.59019 4.22416C3.79657 4.14148 3.98403 4.0178 4.14123 3.86059C4.29844 3.70339 4.42212 3.51593 4.5048 3.30955C4.58748 3.10317 4.62744 2.88217 4.62227 2.65991C4.62744 2.43765 4.58748 2.21664 4.5048 2.01027C4.42212 1.80389 4.29844 1.61643 4.14123 1.45922C3.98403 1.30202 3.79657 1.17834 3.59019 1.09565C3.38381 1.01297 3.16281 0.973012 2.94055 0.97819Z" fill="#3879C5"/>
</svg>
