<svg width="101" height="100" viewBox="0 0 101 100" fill="none" xmlns="http://www.w3.org/2000/svg">
<path d="M92.3822 99.3441L61.7059 68.7858C54.9511 73.8114 46.7509 76.5357 38.3201 76.5552H38.3118L37.8649 76.5593C27.9173 76.5593 18.3771 72.6228 11.3431 65.6159C4.3091 58.6089 0.357422 49.1054 0.357422 39.1961L0.361559 38.7262V38.7509C0.361559 28.5869 4.4148 18.8391 11.6296 11.6521C18.8444 4.46502 28.6298 0.427368 38.8331 0.427368C49.0364 0.427368 58.8218 4.46502 66.0367 11.6521C73.2515 18.8391 77.3047 28.5869 77.3047 38.7509C77.1979 47.1854 74.4431 55.3749 69.4267 62.1705L69.5053 62.0592L100.182 92.6175L92.3822 99.3441ZM38.8331 10.7811C31.4262 10.5425 24.2272 13.2427 18.8176 18.2885C13.4081 23.3342 10.2305 30.3128 9.98307 37.6909C9.73562 45.0691 12.4385 52.2434 17.498 57.6375C22.5574 63.0317 29.5595 66.2045 36.9659 66.4589C44.3723 66.7133 51.5771 64.0285 56.9975 58.9943C62.418 53.9602 65.6105 46.9884 65.8739 39.6108C66.1372 32.2332 63.4498 25.0532 58.402 19.6482C53.3542 14.2432 46.359 11.0555 38.9531 10.7852L38.8331 10.7811Z" fill="#5C9EFF"/>
</svg>
