<svg width="9" height="10" viewBox="0 0 9 10" fill="none" xmlns="http://www.w3.org/2000/svg">
<path d="M8.92885 2.72124H7.42349C7.18242 2.29155 6.85028 1.91558 6.44849 1.64702L7.32171 0.793025L6.56635 0.0357056L5.40385 1.20123C4.90572 1.08007 4.38591 1.08007 3.88778 1.20123L2.71992 0.0357056L1.96456 0.793025L2.83242 1.64702C2.43064 1.91558 2.10385 2.29692 1.86278 2.72124H0.357422V3.79545H1.47706C1.44492 3.97269 1.42885 4.14994 1.42885 4.33255V4.86966H0.357422V5.94387H1.42885V6.48098C1.42885 6.66359 1.44492 6.84084 1.47706 7.01808H0.357422V8.09229H1.86278C2.07394 8.45827 2.35499 8.77891 2.68987 9.03587C3.02475 9.29283 3.40687 9.48107 3.81438 9.58983C4.22189 9.69858 4.64679 9.72571 5.06477 9.66966C5.48274 9.61361 5.8856 9.47548 6.25028 9.26319C6.73778 8.98389 7.14492 8.57569 7.42349 8.09229H8.92885V7.01808H7.80921C7.84135 6.84084 7.85742 6.66359 7.85742 6.48098V5.94387H8.92885V4.86966H7.85742V4.33255C7.85742 4.14994 7.84135 3.97269 7.80921 3.79545H8.92885V2.72124ZM6.78599 6.48098C6.78599 7.05077 6.56023 7.59723 6.15836 8.00014C5.7565 8.40305 5.21146 8.6294 4.64314 8.6294C4.07482 8.6294 3.52977 8.40305 3.12791 8.00014C2.72604 7.59723 2.50028 7.05077 2.50028 6.48098V4.33255C2.50028 3.76276 2.72604 3.2163 3.12791 2.81339C3.52977 2.41048 4.07482 2.18413 4.64314 2.18413C5.21146 2.18413 5.7565 2.41048 6.15836 2.81339C6.56023 3.2163 6.78599 3.76276 6.78599 4.33255V6.48098ZM5.71456 3.79545V4.86966H3.57171V3.79545H5.71456ZM3.57171 5.94387H5.71456V7.01808H3.57171V5.94387Z" fill="#3879C5"/>
</svg>
