<svg width="173" height="173" viewBox="0 0 173 173" fill="none" xmlns="http://www.w3.org/2000/svg">
<circle cx="86.5" cy="86.5" r="55.5" fill="black" fill-opacity="0.2"/>
<circle cx="86.5" cy="86.5" r="66" stroke="#3561F6" stroke-opacity="0.6"/>
<circle cx="86.5" cy="86.5" r="77" stroke="#3561F6" stroke-opacity="0.4"/>
<circle cx="86.5" cy="86.5" r="86" stroke="#3561F6" stroke-opacity="0.2"/>
<path d="M102.274 80H96.0427V75.3333C96.0427 72.858 95.0579 70.484 93.3048 68.7337C91.5518 66.9833 89.1742 66 86.6951 66C84.216 66 81.8384 66.9833 80.0854 68.7337C78.3324 70.484 77.3476 72.858 77.3476 75.3333V80H71.1159C70.2895 80 69.4969 80.3278 68.9126 80.9112C68.3283 81.4947 68 82.286 68 83.1111V104.889C68 105.714 68.3283 106.505 68.9126 107.089C69.4969 107.672 70.2895 108 71.1159 108H102.274C103.101 108 103.893 107.672 104.478 107.089C105.062 106.505 105.39 105.714 105.39 104.889V83.1111C105.39 82.286 105.062 81.4947 104.478 80.9112C103.893 80.3278 103.101 80 102.274 80ZM88.253 95.2892V100.222C88.253 100.635 88.0889 101.03 87.7967 101.322C87.5046 101.614 87.1083 101.778 86.6951 101.778C86.2819 101.778 85.8857 101.614 85.5935 101.322C85.3013 101.03 85.1372 100.635 85.1372 100.222V95.2892C84.0977 94.9222 83.2216 94.2002 82.6638 93.2506C82.1059 92.3011 81.9022 91.1852 82.0886 90.1003C82.2751 89.0153 82.8397 88.031 83.6826 87.3214C84.5256 86.6119 85.5926 86.2227 86.6951 86.2227C87.7976 86.2227 88.8647 86.6119 89.7076 87.3214C90.5506 88.031 91.1152 89.0153 91.3016 90.1003C91.488 91.1852 91.2843 92.3011 90.7265 93.2506C90.1686 94.2002 89.2925 94.9222 88.253 95.2892ZM92.9268 80H80.4634V75.3333C80.4634 73.6831 81.12 72.1005 82.2886 70.9336C83.4573 69.7667 85.0424 69.1111 86.6951 69.1111C88.3479 69.1111 89.9329 69.7667 91.1016 70.9336C92.2703 72.1005 92.9268 73.6831 92.9268 75.3333V80Z" fill="url(#paint0_linear_1560_916)"/>
<defs>
<linearGradient id="paint0_linear_1560_916" x1="109" y1="60" x2="81" y2="97" gradientUnits="userSpaceOnUse">
<stop stop-color="#0FD3FE"/>
<stop offset="1" stop-color="#0084FF"/>
</linearGradient>
</defs>
</svg>
