<svg width="32" height="32" viewBox="0 0 32 32" fill="none" xmlns="http://www.w3.org/2000/svg">
<path d="M16.0003 13.3333C17.4148 13.3333 18.7714 12.7714 19.7716 11.7712C20.7718 10.771 21.3337 9.41445 21.3337 7.99996C21.3337 6.58547 20.7718 5.22892 19.7716 4.22872C18.7714 3.22853 17.4148 2.66663 16.0003 2.66663C14.5858 2.66663 13.2293 3.22853 12.2291 4.22872C11.2289 5.22892 10.667 6.58547 10.667 7.99996C10.667 9.41445 11.2289 10.771 12.2291 11.7712C13.2293 12.7714 14.5858 13.3333 16.0003 13.3333ZM7.33366 17.3333C8.21771 17.3333 9.06556 16.9821 9.69068 16.357C10.3158 15.7319 10.667 14.884 10.667 14C10.667 13.1159 10.3158 12.2681 9.69068 11.6429C9.06556 11.0178 8.21771 10.6666 7.33366 10.6666C6.4496 10.6666 5.60176 11.0178 4.97664 11.6429C4.35152 12.2681 4.00033 13.1159 4.00033 14C4.00033 14.884 4.35152 15.7319 4.97664 16.357C5.60176 16.9821 6.4496 17.3333 7.33366 17.3333ZM28.0003 14C28.0003 14.884 27.6491 15.7319 27.024 16.357C26.3989 16.9821 25.551 17.3333 24.667 17.3333C23.7829 17.3333 22.9351 16.9821 22.31 16.357C21.6848 15.7319 21.3337 14.884 21.3337 14C21.3337 13.1159 21.6848 12.2681 22.31 11.6429C22.9351 11.0178 23.7829 10.6666 24.667 10.6666C25.551 10.6666 26.3989 11.0178 27.024 11.6429C27.6491 12.2681 28.0003 13.1159 28.0003 14ZM16.0003 14.6666C17.7684 14.6666 19.4641 15.369 20.7144 16.6192C21.9646 17.8695 22.667 19.5652 22.667 21.3333V29.3333H9.33366V21.3333C9.33366 19.5652 10.036 17.8695 11.2863 16.6192C12.5365 15.369 14.2322 14.6666 16.0003 14.6666ZM6.66699 21.3333C6.66699 20.4093 6.80033 19.5173 7.05099 18.6746L6.82433 18.6933C5.6815 18.8188 4.62521 19.3617 3.85801 20.218C3.09081 21.0743 2.66669 22.1836 2.66699 23.3333V29.3333H6.66699V21.3333ZM29.3337 29.3333V23.3333C29.3338 22.1444 28.8802 21.0004 28.0655 20.1346C27.2508 19.2688 26.1363 18.7466 24.9497 18.6746C25.199 19.5173 25.3337 20.4093 25.3337 21.3333V29.3333H29.3337Z" fill="white"/>
</svg>
