<svg width="32" height="32" viewBox="0 0 32 32" fill="none" xmlns="http://www.w3.org/2000/svg">
<path d="M4.00033 4H28.0003C28.3539 4 28.6931 4.14048 28.9431 4.39052C29.1932 4.64057 29.3337 4.97971 29.3337 5.33333V26.6667C29.3337 27.0203 29.1932 27.3594 28.9431 27.6095C28.6931 27.8595 28.3539 28 28.0003 28H4.00033C3.6467 28 3.30756 27.8595 3.05752 27.6095C2.80747 27.3594 2.66699 27.0203 2.66699 26.6667V5.33333C2.66699 4.97971 2.80747 4.64057 3.05752 4.39052C3.30756 4.14048 3.6467 4 4.00033 4ZM26.667 13.3333H5.33366V25.3333H26.667V13.3333ZM6.66699 8V10.6667H9.33366V8H6.66699ZM12.0003 8V10.6667H14.667V8H12.0003Z" fill="white"/>
</svg>
