<svg width="32" height="32" viewBox="0 0 32 32" fill="none" xmlns="http://www.w3.org/2000/svg">
<path d="M14.9864 14.3911C18.1577 14.3911 20.7286 11.8202 20.7286 8.64884C20.7286 5.4775 18.1577 2.90662 14.9864 2.90662C11.815 2.90662 9.24414 5.4775 9.24414 8.64884C9.24414 11.8202 11.815 14.3911 14.9864 14.3911Z" fill="white"/>
<path d="M18.667 24.8889H24.8892V26.1334H18.667V24.8889Z" fill="white"/>
<path d="M13.3338 26.6666V29.3333C13.3338 29.569 13.4274 29.7951 13.5941 29.9618C13.7608 30.1285 13.9869 30.2222 14.2227 30.2222H29.3338C29.5695 30.2222 29.7956 30.1285 29.9623 29.9618C30.129 29.7951 30.2227 29.569 30.2227 29.3333V20.4444C30.2227 20.2087 30.129 19.9826 29.9623 19.8159C29.7956 19.6492 29.5695 19.5555 29.3338 19.5555H23.1116V18.2489C23.1116 18.0131 23.0179 17.787 22.8512 17.6203C22.6845 17.4536 22.4584 17.36 22.2227 17.36C21.9869 17.36 21.7608 17.4536 21.5941 17.6203C21.4274 17.787 21.3338 18.0131 21.3338 18.2489V19.5555H19.556V16.3733C18.0455 16.1266 16.5176 16.0017 14.9871 16C11.6118 15.9856 8.27437 16.7107 5.20935 18.1244C4.70489 18.3625 4.27931 18.7402 3.98311 19.2129C3.6869 19.6856 3.53251 20.2333 3.53824 20.7911V26.6666H13.3338ZM28.4449 28.4444H15.1116V21.3333H21.3338V21.7066C21.3338 21.9424 21.4274 22.1685 21.5941 22.3352C21.7608 22.5019 21.9869 22.5955 22.2227 22.5955C22.4584 22.5955 22.6845 22.5019 22.8512 22.3352C23.0179 22.1685 23.1116 21.9424 23.1116 21.7066V21.3333H28.4449V28.4444Z" fill="white"/>
</svg>
