<svg width="32" height="32" viewBox="0 0 32 32" fill="none" xmlns="http://www.w3.org/2000/svg">
<path d="M6 23.3334H8.66667V27.3334H6V23.3334Z" fill="white"/>
<path d="M27.997 18.6667H4.00234C3.29439 18.6667 2.61543 18.9479 2.11484 19.4485C1.61424 19.9491 1.33301 20.6281 1.33301 21.336V29.3307C1.33301 29.6813 1.40205 30.0284 1.5362 30.3522C1.67035 30.6761 1.86697 30.9703 2.11484 31.2182C2.36271 31.4661 2.65697 31.6627 2.98083 31.7969C3.30469 31.931 3.6518 32 4.00234 32H27.997C28.705 32 29.3839 31.7188 29.8845 31.2182C30.3851 30.7176 30.6663 30.0387 30.6663 29.3307V21.336C30.6663 20.6281 30.3851 19.9491 29.8845 19.4485C29.3839 18.9479 28.705 18.6667 27.997 18.6667ZM10.6663 27.3334C10.6712 27.5974 10.6228 27.8596 10.5241 28.1045C10.4253 28.3493 10.2781 28.5718 10.0914 28.7585C9.90474 28.9452 9.68231 29.0923 9.43745 29.1911C9.19259 29.2899 8.93033 29.3383 8.66634 29.3334H3.99967V21.3334H8.66634C8.93033 21.3285 9.19259 21.3769 9.43745 21.4757C9.68231 21.5744 9.90474 21.7216 10.0914 21.9083C10.2781 22.095 10.4253 22.3174 10.5241 22.5623C10.6228 22.8071 10.6712 23.0694 10.6663 23.3334V27.3334ZM19.333 29.3334H17.733L14.333 24.6667V29.3334H12.6663V21.3334H14.333L17.6663 26V21.3334H19.333V29.3334ZM27.9997 23.36H23.333V24.3467H26.6663C27.02 24.3467 27.3591 24.4872 27.6092 24.7372C27.8592 24.9873 27.9997 25.3264 27.9997 25.68V28C27.9997 28.3537 27.8592 28.6928 27.6092 28.9429C27.3591 29.1929 27.02 29.3334 26.6663 29.3334H21.333V27.3334H26.013V26.3467H22.6663C22.3127 26.3467 21.9736 26.2062 21.7235 25.9562C21.4735 25.7061 21.333 25.367 21.333 25.0134V22.6667C21.333 22.3131 21.4735 21.974 21.7235 21.7239C21.9736 21.4739 22.3127 21.3334 22.6663 21.3334H27.9997V23.36ZM5.67968 16C5.4554 15.1287 5.33897 14.2331 5.33301 13.3334C5.33897 12.4337 5.4554 11.5381 5.67968 10.6667H10.1863C10.0702 11.551 10.0078 12.4415 9.99967 13.3334C10.0078 14.2252 10.0702 15.1158 10.1863 16H12.8797C12.748 15.117 12.6767 14.2261 12.6663 13.3334C12.6761 12.4406 12.7474 11.5496 12.8797 10.6667H19.1197C19.2519 11.5497 19.3232 12.4406 19.333 13.3334C19.3226 14.2261 19.2514 15.117 19.1197 16H21.813C21.9292 15.1158 21.9915 14.2252 21.9997 13.3334C21.9915 12.4415 21.9292 11.551 21.813 10.6667H26.3197C26.544 11.5381 26.6604 12.4336 26.6663 13.3334C26.6604 14.2331 26.544 15.1287 26.3197 16H29.065C29.4588 14.0634 29.4171 12.0634 28.943 10.1448C28.4689 8.22627 27.5742 6.43708 26.3237 4.90674C25.0732 3.3764 23.4981 2.14318 21.7125 1.29632C19.9269 0.449457 17.9753 0.0101318 15.999 0.0101318C14.0227 0.0101318 12.0712 0.449457 10.2855 1.29632C8.49987 2.14318 6.92481 3.3764 5.67431 4.90674C4.42381 6.43708 3.52913 8.22627 3.05503 10.1448C2.58093 12.0634 2.53925 14.0634 2.93301 16H5.67968ZM25.2263 8.00005H21.293C20.8757 6.34866 20.2578 4.75457 19.453 3.25338C21.8852 4.09072 23.9346 5.77568 25.2263 8.00005ZM15.9997 2.72005C17.1197 4.3359 17.979 6.1176 18.5463 8.00005H13.453C14.0203 6.1176 14.8797 4.3359 15.9997 2.72005ZM12.5463 3.25338C11.7416 4.75456 11.1236 6.34865 10.7063 8.00005H6.77301C8.06078 5.77228 10.1116 4.08614 12.5463 3.25338Z" fill="white"/>
</svg>
