<svg width="32" height="32" viewBox="0 0 32 32" fill="none" xmlns="http://www.w3.org/2000/svg">
<path fill-rule="evenodd" clip-rule="evenodd" d="M6.66709 14.6667C6.66709 13.6161 6.87402 12.5758 7.27606 11.6052C7.6781 10.6346 8.26737 9.75268 9.01024 9.00981C9.75311 8.26694 10.635 7.67767 11.6056 7.27563C12.5762 6.87359 13.6165 6.66667 14.6671 6.66667C15.7177 6.66667 16.758 6.87359 17.7286 7.27563C18.6992 7.67767 19.5811 8.26694 20.3239 9.00981C21.0668 9.75268 21.6561 10.6346 22.0581 11.6052C22.4602 12.5758 22.6671 13.6161 22.6671 14.6667C22.6671 16.7884 21.8242 18.8232 20.3239 20.3235C18.8237 21.8238 16.7888 22.6667 14.6671 22.6667C12.5454 22.6667 10.5105 21.8238 9.01024 20.3235C7.50995 18.8232 6.66709 16.7884 6.66709 14.6667ZM14.6671 4C12.9696 4.00024 11.2966 4.40562 9.78728 5.18245C8.27794 5.95928 6.9758 7.08512 5.98907 8.46641C5.00235 9.84769 4.35954 11.4445 4.11407 13.1242C3.8686 14.8039 4.02755 16.5179 4.57773 18.1238C5.1279 19.7297 6.0534 21.1811 7.27732 22.3573C8.50123 23.5336 9.98821 24.4008 11.6147 24.8868C13.2411 25.3728 14.9601 25.4636 16.6287 25.1517C18.2973 24.8398 19.8674 24.1341 21.2084 23.0933L25.7244 27.6093C25.9759 27.8522 26.3127 27.9866 26.6623 27.9836C27.0119 27.9805 27.3463 27.8403 27.5935 27.5931C27.8407 27.3459 27.981 27.0115 27.984 26.6619C27.987 26.3123 27.8526 25.9755 27.6098 25.724L23.0938 21.208C24.3179 19.6313 25.075 17.7427 25.2791 15.757C25.4831 13.7713 25.1259 11.7683 24.248 9.97553C23.3701 8.18281 22.0068 6.67239 20.3131 5.61603C18.6194 4.55968 16.6632 3.99978 14.6671 4ZM14.6671 20C16.0816 20 17.4381 19.4381 18.4383 18.4379C19.4385 17.4377 20.0004 16.0812 20.0004 14.6667C20.0004 13.2522 19.4385 11.8956 18.4383 10.8954C17.4381 9.89524 16.0816 9.33333 14.6671 9.33333C13.2526 9.33333 11.8961 9.89524 10.8959 10.8954C9.89566 11.8956 9.33376 13.2522 9.33376 14.6667C9.33376 16.0812 9.89566 17.4377 10.8959 18.4379C11.8961 19.4381 13.2526 20 14.6671 20Z" fill="white"/>
</svg>
