<svg width="32" height="32" viewBox="0 0 32 32" fill="none" xmlns="http://www.w3.org/2000/svg">
<path d="M22.667 29.3334L22.267 27.3334C22.0003 27.2223 21.7505 27.1058 21.5177 26.984C21.2848 26.8623 21.0457 26.712 20.8003 26.5334L18.867 27.1334L17.5337 24.8667L19.067 23.5334C19.0225 23.2667 19.0003 22.9778 19.0003 22.6667C19.0003 22.3556 19.0225 22.0667 19.067 21.8L17.5337 20.4667L18.867 18.2L20.8003 18.8C21.0448 18.6223 21.2839 18.4725 21.5177 18.3507C21.7514 18.2289 22.0012 18.112 22.267 18L22.667 16H25.3337L25.7337 18C26.0003 18.1112 26.2505 18.228 26.4843 18.3507C26.7181 18.4734 26.9568 18.6232 27.2003 18.8L29.1337 18.2L30.467 20.4667L28.9337 21.8C28.9781 22.0667 29.0003 22.3556 29.0003 22.6667C29.0003 22.9778 28.9781 23.2667 28.9337 23.5334L30.467 24.8667L29.1337 27.1334L27.2003 26.5334C26.9559 26.7112 26.7172 26.8614 26.4843 26.984C26.2514 27.1067 26.0012 27.2232 25.7337 27.3334L25.3337 29.3334H22.667ZM24.0003 25.3334C24.7337 25.3334 25.3617 25.0725 25.8843 24.5507C26.407 24.0289 26.6679 23.4009 26.667 22.6667C26.667 21.9334 26.4061 21.3058 25.8843 20.784C25.3625 20.2623 24.7345 20.0009 24.0003 20C23.267 20 22.6394 20.2614 22.1177 20.784C21.5959 21.3067 21.3345 21.9343 21.3337 22.6667C21.3337 23.4 21.595 24.028 22.1177 24.5507C22.6403 25.0734 23.2679 25.3343 24.0003 25.3334ZM2.66699 26.6667V5.33337H13.3337L16.0003 8.00004H29.3337V15.0334C28.5559 14.4778 27.7114 14.0556 26.8003 13.7667C25.8892 13.4778 24.9448 13.3334 23.967 13.3334C21.3448 13.3334 19.1394 14.2503 17.351 16.084C15.5625 17.9178 14.6679 20.1009 14.667 22.6334C14.667 23.3445 14.7448 24.0334 14.9003 24.7C15.0559 25.3667 15.2892 26.0223 15.6003 26.6667H2.66699Z" fill="white"/>
</svg>
