<svg width="32" height="32" viewBox="0 0 32 32" fill="none" xmlns="http://www.w3.org/2000/svg">
<path d="M18.6665 10.6667H23.9999L18.6665 5.33333V10.6667ZM8.81987 28C8.22787 28 7.72121 27.7889 7.29987 27.3667C6.87765 26.9453 6.66654 26.4387 6.66654 25.8467V22H25.3332V25.8467C25.3332 26.4387 25.1221 26.9453 24.6999 27.3667C24.2785 27.7889 23.7719 28 23.1799 28H8.81987ZM2.10254 19.3333V18H29.8972V19.3333H2.10254ZM6.66654 15.3333V6.15333C6.66654 5.56133 6.87765 5.05467 7.29987 4.63333C7.72121 4.21111 8.22787 4 8.81987 4H19.3332L25.3332 10V15.3333H6.66654Z" fill="white"/>
</svg>
