<svg width="32" height="32" viewBox="0 0 32 32" fill="none" xmlns="http://www.w3.org/2000/svg">
<path d="M4.27547 21.9925C4.96922 20.7975 6.00047 17.4162 6.00047 13C6.00047 10.3478 7.05404 7.8043 8.92941 5.92893C10.8048 4.05357 13.3483 3 16.0005 3C18.6526 3 21.1962 4.05357 23.0715 5.92893C24.9469 7.8043 26.0005 10.3478 26.0005 13C26.0005 17.4175 27.033 20.7975 27.7267 21.9925C27.9039 22.2963 27.9978 22.6415 27.999 22.9931C28.0002 23.3448 27.9087 23.6906 27.7336 23.9956C27.5585 24.3006 27.3061 24.5541 27.0018 24.7304C26.6976 24.9068 26.3522 24.9997 26.0005 25H20.8992C20.6685 26.1289 20.0549 27.1436 19.1623 27.8722C18.2697 28.6009 17.1528 28.9989 16.0005 28.9989C14.8482 28.9989 13.7313 28.6009 12.8386 27.8722C11.946 27.1436 11.3324 26.1289 11.1017 25H6.00047C5.6489 24.9995 5.30365 24.9064 4.99954 24.73C4.69544 24.5535 4.44321 24.3 4.26829 23.9951C4.09336 23.6901 4.00192 23.3444 4.00319 22.9928C4.00445 22.6412 4.09837 22.2962 4.27547 21.9925ZM16.0005 27C16.6207 26.9998 17.2256 26.8074 17.732 26.4492C18.2383 26.0911 18.6212 25.5848 18.828 25H13.173C13.3797 25.5848 13.7626 26.0911 14.269 26.4492C14.7753 26.8074 15.3802 26.9998 16.0005 27Z" fill="white"/>
</svg>
