<svg width="32" height="32" viewBox="0 0 32 32" fill="none" xmlns="http://www.w3.org/2000/svg">
<path d="M28.5 5V10C28.5 10.3978 28.342 10.7794 28.0607 11.0607C27.7794 11.342 27.3978 11.5 27 11.5C26.6022 11.5 26.2206 11.342 25.9393 11.0607C25.658 10.7794 25.5 10.3978 25.5 10V6.5H22C21.6022 6.5 21.2206 6.34196 20.9393 6.06066C20.658 5.77936 20.5 5.39782 20.5 5C20.5 4.60218 20.658 4.22064 20.9393 3.93934C21.2206 3.65804 21.6022 3.5 22 3.5H27C27.3978 3.5 27.7794 3.65804 28.0607 3.93934C28.342 4.22064 28.5 4.60218 28.5 5ZM10 25.5H6.5V22C6.5 21.6022 6.34196 21.2206 6.06066 20.9393C5.77936 20.658 5.39782 20.5 5 20.5C4.60218 20.5 4.22064 20.658 3.93934 20.9393C3.65804 21.2206 3.5 21.6022 3.5 22V27C3.5 27.3978 3.65804 27.7794 3.93934 28.0607C4.22064 28.342 4.60218 28.5 5 28.5H10C10.3978 28.5 10.7794 28.342 11.0607 28.0607C11.342 27.7794 11.5 27.3978 11.5 27C11.5 26.6022 11.342 26.2206 11.0607 25.9393C10.7794 25.658 10.3978 25.5 10 25.5ZM27 20.5C26.6022 20.5 26.2206 20.658 25.9393 20.9393C25.658 21.2206 25.5 21.6022 25.5 22V25.5H22C21.6022 25.5 21.2206 25.658 20.9393 25.9393C20.658 26.2206 20.5 26.6022 20.5 27C20.5 27.3978 20.658 27.7794 20.9393 28.0607C21.2206 28.342 21.6022 28.5 22 28.5H27C27.3978 28.5 27.7794 28.342 28.0607 28.0607C28.342 27.7794 28.5 27.3978 28.5 27V22C28.5 21.6022 28.342 21.2206 28.0607 20.9393C27.7794 20.658 27.3978 20.5 27 20.5ZM5 11.5C5.39782 11.5 5.77936 11.342 6.06066 11.0607C6.34196 10.7794 6.5 10.3978 6.5 10V6.5H10C10.3978 6.5 10.7794 6.34196 11.0607 6.06066C11.342 5.77936 11.5 5.39782 11.5 5C11.5 4.60218 11.342 4.22064 11.0607 3.93934C10.7794 3.65804 10.3978 3.5 10 3.5H5C4.60218 3.5 4.22064 3.65804 3.93934 3.93934C3.65804 4.22064 3.5 4.60218 3.5 5V10C3.5 10.3978 3.65804 10.7794 3.93934 11.0607C4.22064 11.342 4.60218 11.5 5 11.5ZM20.5 23H11.5C10.837 23 10.2011 22.7366 9.73223 22.2678C9.26339 21.7989 9 21.163 9 20.5V11.5C9 10.837 9.26339 10.2011 9.73223 9.73223C10.2011 9.26339 10.837 9 11.5 9H20.5C21.163 9 21.7989 9.26339 22.2678 9.73223C22.7366 10.2011 23 10.837 23 11.5V20.5C23 21.163 22.7366 21.7989 22.2678 22.2678C21.7989 22.7366 21.163 23 20.5 23ZM20 12H12V20H20V12Z" fill="white"/>
</svg>
