<svg width="34" height="33" viewBox="0 0 34 33" fill="none" xmlns="http://www.w3.org/2000/svg">
<path d="M28.6667 28.5667H28.8167V28.4167V18.7C28.8167 17.0751 28.1712 15.5168 27.0222 14.3678C25.8732 13.2188 24.3149 12.5733 22.69 12.5733C21.2311 12.5733 19.5622 13.3784 18.5867 14.6289V13.0717V12.9217H18.4367H13.3217H13.1717V13.0717V28.4167V28.5667H13.3217H18.4367H18.5867V28.4167V19.3783C18.5867 18.0481 19.6576 16.9617 20.985 16.9617C21.6259 16.9617 22.2406 17.2163 22.6938 17.6695C23.1471 18.1227 23.4017 18.7374 23.4017 19.3783V28.4167V28.5667H23.5517H28.6667ZM9.91167 28.5667H10.0617V28.4167V13.0717V12.9217H9.91167H4.83333H4.68333V13.0717V28.4167V28.5667H4.83333H9.91167ZM29.5833 0.15C30.516 0.15 31.4105 0.520505 32.07 1.18001C32.7295 1.83951 33.1 2.73399 33.1 3.66667V29.3333C33.1 30.266 32.7295 31.1605 32.07 31.82C31.4105 32.4795 30.516 32.85 29.5833 32.85H3.91667C2.98399 32.85 2.08951 32.4795 1.43001 31.82C0.770505 31.1605 0.4 30.266 0.4 29.3333V3.66667C0.4 2.73399 0.770505 1.83951 1.43001 1.18001C2.08951 0.520505 2.98399 0.15 3.91667 0.15H29.5833ZM7.36333 10.3433C8.21998 10.3433 9.04155 10.003 9.64729 9.39729C10.253 8.79155 10.5933 7.96998 10.5933 7.11333C10.5933 5.32665 9.15233 3.865 7.36333 3.865C6.50182 3.865 5.6756 4.20723 5.06641 4.81641C4.45723 5.4256 4.115 6.25182 4.115 7.11333C4.115 8.90233 5.57665 10.3433 7.36333 10.3433Z" fill="url(#paint0_linear_499_3258)" fill-opacity="0.2" stroke="white" stroke-width="0.3"/>
<defs>
<linearGradient id="paint0_linear_499_3258" x1="3.25" y1="2.00501" x2="30.3236" y2="31.5114" gradientUnits="userSpaceOnUse">
<stop stop-color="white"/>
<stop offset="1" stop-color="white" stop-opacity="0"/>
</linearGradient>
</defs>
</svg>
