<svg width="46" height="33" viewBox="0 0 46 33" fill="none" xmlns="http://www.w3.org/2000/svg">
<path d="M44.9639 7.28644C44.9639 3.41936 42.0835 0.308507 38.5243 0.308507C33.7032 0.0859349 28.7864 0 23.7617 0H22.1953C17.1828 0 12.2573 0.085935 7.43628 0.309366C3.88576 0.309366 1.0053 3.43741 1.0053 7.30449C0.787747 10.3629 0.695503 13.4222 0.700725 16.4815C0.692022 19.5408 0.790648 22.603 0.996602 25.668C0.996602 29.5351 3.87705 32.6717 7.42758 32.6717C12.4923 32.9037 17.6876 33.0068 22.9698 32.9982C28.2608 33.0154 33.4416 32.9066 38.5121 32.6717C42.0713 32.6717 44.9518 29.5351 44.9518 25.668C45.1606 22.6001 45.2563 19.5408 45.2476 16.4729C45.2674 13.4136 45.1728 10.3515 44.9639 7.28644ZM18.7144 24.9117V8.02549L31.3327 16.4643L18.7144 24.9117Z" fill="url(#paint0_linear_1178_3592)"/>
<defs>
<linearGradient id="paint0_linear_1178_3592" x1="-4" y1="31.5789" x2="48.8175" y2="18.8893" gradientUnits="userSpaceOnUse">
<stop stop-color="#0084FF"/>
<stop offset="1" stop-color="#0FD3FE"/>
</linearGradient>
</defs>
</svg>
