<svg width="352" height="274" viewBox="0 0 352 274" fill="none" xmlns="http://www.w3.org/2000/svg">
<g filter="url(#filter0_b_897_1494)">
<rect width="188.698" height="243.069" rx="14" transform="matrix(1 0 0 -1 88.2299 243.069)" fill="#6660A0" fill-opacity="0.2"/>
<rect x="0.267857" y="-0.267857" width="188.163" height="242.533" rx="13.7321" transform="matrix(1 0 0 -1 88.2299 242.533)" stroke="url(#paint0_linear_897_1494)" stroke-width="0.535714"/>
</g>
<path d="M324.91 206.397H39.629V41.1263C39.631 39.3919 40.3209 37.7291 41.5474 36.5027C42.7738 35.2763 44.4367 34.5864 46.1711 34.5845H318.368C320.103 34.5864 321.765 35.2763 322.992 36.5027C324.218 37.7291 324.908 39.3919 324.91 41.1263V206.397Z" fill="#232868"/>
<path d="M307.872 194.402H56.668C55.3308 194.401 54.0489 193.869 53.1034 192.923C52.1579 191.978 51.626 190.696 51.6245 189.359V51.6232C51.626 50.2861 52.1578 49.0041 53.1033 48.0585C54.0488 47.113 55.3308 46.5811 56.668 46.5796H307.872C309.209 46.5811 310.491 47.113 311.436 48.0585C312.382 49.0041 312.914 50.2861 312.915 51.6232V189.359C312.914 190.696 312.382 191.978 311.436 192.923C310.491 193.869 309.209 194.401 307.872 194.402Z" fill="#191D4B"/>
<path opacity="0.1" d="M305.19 68.8472H244.538V115.184H305.19V68.8472Z" fill="#F2F2F2"/>
<path d="M302.176 71.1497H247.552V112.881H302.176V71.1497Z" fill="#191D4B"/>
<path d="M275.823 102.104C275.83 102.104 275.837 102.104 275.845 102.104C279.542 101.91 283.027 100.316 285.591 97.6445C288.155 94.9731 289.605 91.4255 289.647 87.7231C289.688 84.0206 288.318 80.4414 285.815 77.7132C283.311 74.9851 279.863 73.3128 276.17 73.0365C276.125 73.033 276.079 73.0388 276.036 73.0538C275.992 73.0688 275.953 73.0926 275.919 73.1237C275.885 73.1542 275.859 73.1914 275.84 73.2328C275.822 73.2743 275.812 73.3191 275.812 73.3644L275.493 101.768C275.492 101.856 275.527 101.941 275.588 102.004C275.65 102.067 275.735 102.103 275.823 102.104Z" fill="#2250F3"/>
<path d="M264.401 77.7332C264.514 77.7346 264.623 77.7808 264.702 77.8617L274.48 87.8616C274.52 87.9016 274.551 87.949 274.571 88.0011C274.592 88.0531 274.603 88.1088 274.602 88.1649L274.45 101.756C274.449 101.814 274.437 101.872 274.413 101.925C274.389 101.979 274.355 102.026 274.311 102.066C274.268 102.105 274.217 102.136 274.162 102.155C274.106 102.174 274.047 102.182 273.989 102.178C271.27 101.974 268.662 101.017 266.458 99.4124C264.253 97.8083 262.54 95.6211 261.51 93.0968C260.48 90.5725 260.174 87.811 260.628 85.1226C261.081 82.4342 262.275 79.9255 264.075 77.8783C264.114 77.8341 264.162 77.7985 264.215 77.7736C264.268 77.7486 264.326 77.7349 264.385 77.7333C264.391 77.7332 264.396 77.7331 264.401 77.7332Z" fill="#E6E6E6"/>
<path d="M274.344 72.9204C274.453 72.9218 274.558 72.9645 274.637 73.04C274.679 73.0803 274.713 73.1288 274.735 73.1827C274.758 73.2365 274.769 73.2944 274.768 73.3528L274.631 85.6157C274.63 85.7001 274.604 85.7823 274.556 85.852C274.508 85.9217 274.441 85.9757 274.363 86.0071C274.284 86.0385 274.198 86.046 274.116 86.0286C274.033 86.0113 273.957 85.9697 273.898 85.9094L265.366 77.1833C265.325 77.1418 265.294 77.0925 265.273 77.0384C265.252 76.9842 265.242 76.9264 265.244 76.8685C265.246 76.8105 265.26 76.7536 265.285 76.7012C265.31 76.6487 265.345 76.6019 265.389 76.5635C267.87 74.3792 271.016 73.0958 274.318 72.921C274.326 72.9205 274.335 72.9203 274.344 72.9204Z" fill="url(#paint1_linear_897_1494)"/>
<path d="M269.949 107.994C269.943 108.511 269.784 109.015 269.492 109.442C269.199 109.869 268.787 110.2 268.307 110.393C267.827 110.585 267.3 110.631 266.794 110.524C266.288 110.418 265.825 110.164 265.463 109.794C265.101 109.424 264.857 108.955 264.762 108.446C264.667 107.938 264.724 107.412 264.928 106.937C265.131 106.461 265.471 106.056 265.904 105.774C266.338 105.491 266.845 105.343 267.362 105.349C268.056 105.358 268.718 105.641 269.202 106.137C269.687 106.633 269.956 107.301 269.949 107.994Z" fill="url(#paint2_linear_897_1494)"/>
<path d="M277.422 108.078C277.416 108.595 277.257 109.099 276.965 109.526C276.672 109.953 276.26 110.284 275.78 110.476C275.3 110.669 274.773 110.715 274.267 110.608C273.761 110.502 273.298 110.247 272.936 109.877C272.574 109.507 272.33 109.039 272.235 108.53C272.14 108.022 272.197 107.496 272.401 107.021C272.604 106.545 272.944 106.14 273.377 105.857C273.811 105.575 274.318 105.427 274.835 105.433C275.529 105.441 276.191 105.725 276.676 106.221C277.16 106.716 277.429 107.384 277.422 108.078Z" fill="#3F3D56"/>
<path d="M284.895 108.162C284.889 108.679 284.73 109.183 284.438 109.61C284.145 110.037 283.733 110.368 283.253 110.56C282.773 110.753 282.246 110.799 281.74 110.692C281.234 110.585 280.771 110.331 280.409 109.961C280.047 109.591 279.803 109.122 279.708 108.614C279.613 108.105 279.67 107.58 279.874 107.104C280.077 106.629 280.417 106.224 280.85 105.941C281.284 105.659 281.791 105.511 282.308 105.517C283.002 105.525 283.664 105.809 284.149 106.304C284.633 106.8 284.902 107.468 284.895 108.162Z" fill="#E6E6E6"/>
<path opacity="0.1" d="M304.551 122.476H243.899V168.813H304.551V122.476Z" fill="#F2F2F2"/>
<path d="M301.537 124.779H246.913V166.51H301.537V124.779Z" fill="#191D4B"/>
<path d="M256.181 138.495C257.434 138.495 258.449 137.479 258.449 136.227C258.449 134.974 257.434 133.959 256.181 133.959C254.929 133.959 253.913 134.974 253.913 136.227C253.913 137.479 254.929 138.495 256.181 138.495Z" fill="#2250F3"/>
<path d="M292.623 134.462C292.825 134.461 293.025 134.501 293.212 134.578C293.399 134.655 293.569 134.768 293.712 134.911C293.855 135.054 293.969 135.224 294.046 135.411C294.124 135.597 294.164 135.798 294.164 136C294.164 136.202 294.124 136.402 294.046 136.589C293.969 136.776 293.855 136.945 293.712 137.088C293.569 137.231 293.399 137.344 293.212 137.422C293.025 137.499 292.825 137.538 292.623 137.538H268.769C268.361 137.538 267.97 137.376 267.681 137.087C267.393 136.799 267.231 136.408 267.231 136C267.231 135.592 267.393 135.201 267.681 134.912C267.97 134.624 268.361 134.462 268.769 134.462H292.623ZM292.623 134.085H268.769C268.517 134.085 268.268 134.134 268.035 134.23C267.803 134.326 267.591 134.467 267.413 134.645C267.235 134.823 267.094 135.034 266.997 135.266C266.901 135.499 266.851 135.748 266.851 136C266.851 136.252 266.901 136.501 266.997 136.733C267.094 136.966 267.235 137.177 267.413 137.355C267.591 137.533 267.803 137.674 268.035 137.77C268.268 137.866 268.517 137.915 268.769 137.915H292.623C292.875 137.915 293.124 137.866 293.357 137.77C293.589 137.674 293.801 137.533 293.979 137.355C294.157 137.177 294.298 136.966 294.395 136.733C294.491 136.501 294.541 136.252 294.541 136C294.541 135.748 294.491 135.499 294.395 135.266C294.298 135.034 294.157 134.823 293.979 134.645C293.801 134.467 293.589 134.326 293.357 134.23C293.124 134.134 292.875 134.085 292.623 134.085Z" fill="#3F3D56"/>
<path d="M283.21 137.915H265.254C264.746 137.915 264.259 137.713 263.899 137.354C263.54 136.995 263.339 136.508 263.339 136C263.339 135.492 263.54 135.005 263.899 134.646C264.259 134.287 264.746 134.085 265.254 134.085H283.21C283.718 134.085 284.205 134.287 284.564 134.646C284.924 135.005 285.125 135.492 285.125 136C285.125 136.508 284.924 136.995 284.564 137.354C284.205 137.713 283.718 137.915 283.21 137.915Z" fill="url(#paint3_linear_897_1494)"/>
<path d="M256.181 147.913C257.434 147.913 258.449 146.897 258.449 145.645C258.449 144.392 257.434 143.377 256.181 143.377C254.929 143.377 253.913 144.392 253.913 145.645C253.913 146.897 254.929 147.913 256.181 147.913Z" fill="#2250F3"/>
<path d="M292.623 143.88C292.825 143.879 293.025 143.919 293.212 143.996C293.399 144.073 293.569 144.186 293.712 144.329C293.855 144.472 293.969 144.642 294.046 144.829C294.123 145.015 294.163 145.216 294.163 145.418C294.163 145.62 294.123 145.82 294.046 146.007C293.969 146.194 293.855 146.363 293.712 146.506C293.569 146.649 293.399 146.762 293.212 146.84C293.025 146.917 292.825 146.956 292.623 146.956H268.769C268.361 146.956 267.97 146.794 267.681 146.505C267.393 146.217 267.231 145.826 267.231 145.418C267.231 145.01 267.393 144.619 267.681 144.33C267.97 144.042 268.361 143.88 268.769 143.88H292.623ZM292.623 143.503H268.769C268.261 143.503 267.774 143.705 267.415 144.064C267.056 144.423 266.854 144.91 266.854 145.418C266.854 145.926 267.056 146.413 267.415 146.772C267.774 147.131 268.261 147.333 268.769 147.333H292.623C293.13 147.333 293.618 147.131 293.977 146.772C294.336 146.413 294.537 145.926 294.537 145.418C294.537 144.91 294.336 144.423 293.977 144.064C293.618 143.705 293.13 143.503 292.623 143.503Z" fill="#3F3D56"/>
<path d="M289.991 147.333H265.253C264.746 147.333 264.259 147.131 263.899 146.772C263.54 146.413 263.339 145.926 263.339 145.418C263.339 144.91 263.54 144.423 263.899 144.064C264.259 143.705 264.746 143.503 265.253 143.503H289.991C290.499 143.503 290.986 143.705 291.345 144.064C291.704 144.423 291.906 144.91 291.906 145.418C291.906 145.926 291.704 146.413 291.345 146.772C290.986 147.131 290.499 147.333 289.991 147.333Z" fill="url(#paint4_linear_897_1494)"/>
<path d="M256.181 157.331C257.434 157.331 258.449 156.315 258.449 155.063C258.449 153.81 257.434 152.795 256.181 152.795C254.929 152.795 253.913 153.81 253.913 155.063C253.913 156.315 254.929 157.331 256.181 157.331Z" fill="#2250F3"/>
<path d="M292.623 153.298C292.825 153.297 293.025 153.337 293.212 153.414C293.399 153.491 293.569 153.604 293.712 153.747C293.855 153.89 293.969 154.06 294.046 154.247C294.123 154.433 294.163 154.634 294.163 154.836C294.163 155.038 294.123 155.238 294.046 155.425C293.969 155.612 293.855 155.781 293.712 155.924C293.569 156.067 293.399 156.18 293.212 156.258C293.025 156.335 292.825 156.374 292.623 156.374H268.769C268.361 156.374 267.97 156.212 267.681 155.923C267.393 155.635 267.231 155.244 267.231 154.836C267.231 154.428 267.393 154.037 267.681 153.748C267.97 153.46 268.361 153.298 268.769 153.298H292.623ZM292.623 152.921H268.769C268.261 152.921 267.774 153.123 267.415 153.482C267.056 153.841 266.854 154.328 266.854 154.836C266.854 155.344 267.056 155.831 267.415 156.19C267.774 156.549 268.261 156.751 268.769 156.751H292.623C293.13 156.751 293.618 156.549 293.977 156.19C294.336 155.831 294.537 155.344 294.537 154.836C294.537 154.328 294.336 153.841 293.977 153.482C293.618 153.123 293.13 152.921 292.623 152.921Z" fill="#3F3D56"/>
<path d="M275.299 156.751H265.253C265.002 156.751 264.752 156.702 264.52 156.606C264.287 156.51 264.076 156.369 263.898 156.191C263.719 156.013 263.578 155.802 263.482 155.569C263.385 155.337 263.336 155.087 263.336 154.836C263.336 154.584 263.385 154.335 263.482 154.102C263.578 153.87 263.719 153.659 263.898 153.481C264.076 153.303 264.287 153.162 264.52 153.066C264.752 152.97 265.002 152.921 265.253 152.921H275.299C275.807 152.922 276.293 153.124 276.651 153.483C277.01 153.842 277.211 154.328 277.211 154.836C277.211 155.343 277.01 155.83 276.651 156.189C276.293 156.548 275.807 156.75 275.299 156.751Z" fill="url(#paint5_linear_897_1494)"/>
<path opacity="0.99" d="M230.492 77.0453H61.0411V163.889H230.492V77.0453Z" fill="white"/>
<path d="M224.844 81.3606H66.6897V159.574H224.844V81.3606Z" fill="#191D4B"/>
<path d="M205.229 147.641H89.938C89.8423 147.641 89.7505 147.603 89.6828 147.536C89.6152 147.468 89.5772 147.376 89.5771 147.281V92.0214C89.5771 91.9258 89.6152 91.834 89.6828 91.7663C89.7505 91.6987 89.8423 91.6606 89.938 91.6606C90.0337 91.6606 90.1254 91.6987 90.1931 91.7663C90.2608 91.834 90.2988 91.9258 90.2988 92.0214V146.92H205.229C205.325 146.92 205.417 146.958 205.484 147.025C205.552 147.093 205.59 147.185 205.59 147.281C205.59 147.376 205.552 147.468 205.484 147.536C205.417 147.603 205.325 147.641 205.229 147.641Z" fill="#2250F3"/>
<path d="M114.571 143.673H104.084C103.801 143.672 103.528 143.559 103.328 143.359C103.127 143.158 103.014 142.886 103.013 142.602V128.146C103.014 127.862 103.127 127.59 103.328 127.389C103.528 127.189 103.801 127.076 104.084 127.075H114.571C114.855 127.076 115.127 127.189 115.328 127.389C115.528 127.59 115.641 127.862 115.642 128.146V142.602C115.641 142.886 115.528 143.158 115.328 143.359C115.127 143.559 114.855 143.672 114.571 143.673Z" fill="url(#paint6_linear_897_1494)"/>
<path d="M133.694 143.672H123.208C122.924 143.672 122.651 143.559 122.451 143.358C122.25 143.158 122.137 142.885 122.137 142.602V114.435C122.137 114.152 122.25 113.879 122.451 113.679C122.651 113.478 122.924 113.365 123.208 113.365H133.694C133.978 113.365 134.25 113.478 134.451 113.679C134.652 113.879 134.765 114.152 134.765 114.435V142.602C134.765 142.885 134.652 143.158 134.451 143.358C134.25 143.559 133.978 143.672 133.694 143.672Z" fill="url(#paint7_linear_897_1494)"/>
<path d="M152.816 143.673H142.33C142.046 143.672 141.774 143.559 141.573 143.359C141.372 143.158 141.259 142.886 141.259 142.602V128.146C141.259 127.862 141.372 127.59 141.573 127.389C141.774 127.189 142.046 127.076 142.33 127.075H152.816C153.1 127.076 153.372 127.189 153.573 127.389C153.774 127.59 153.887 127.862 153.887 128.146V142.602C153.887 142.886 153.774 143.158 153.573 143.359C153.372 143.559 153.1 143.672 152.816 143.673Z" fill="url(#paint8_linear_897_1494)"/>
<path d="M171.939 143.673H161.453C161.176 143.678 160.907 143.574 160.706 143.383C160.505 143.191 160.389 142.928 160.382 142.65V108.975C160.389 108.697 160.505 108.434 160.706 108.242C160.907 108.051 161.176 107.946 161.453 107.952H171.939C172.217 107.946 172.485 108.051 172.686 108.242C172.887 108.434 173.003 108.697 173.01 108.975V142.65C173.003 142.928 172.887 143.191 172.686 143.383C172.485 143.574 172.217 143.678 171.939 143.673Z" fill="url(#paint9_linear_897_1494)"/>
<path d="M191.062 143.673H180.576C180.292 143.672 180.02 143.559 179.819 143.359C179.618 143.158 179.505 142.886 179.505 142.602V99.2815C179.505 98.9976 179.618 98.7254 179.819 98.5246C180.02 98.3238 180.292 98.2109 180.576 98.2106H191.062C191.346 98.2109 191.618 98.3238 191.819 98.5246C192.02 98.7254 192.133 98.9976 192.133 99.2815V142.602C192.133 142.886 192.02 143.158 191.819 143.359C191.618 143.559 191.346 143.672 191.062 143.673Z" fill="url(#paint10_linear_897_1494)"/>
<path d="M109.327 122.746C110.523 122.746 111.492 121.776 111.492 120.581C111.492 119.385 110.523 118.416 109.327 118.416C108.132 118.416 107.163 119.385 107.163 120.581C107.163 121.776 108.132 122.746 109.327 122.746Z" fill="#2250F3"/>
<path d="M128.45 108.674C129.646 108.674 130.615 107.705 130.615 106.509C130.615 105.313 129.646 104.344 128.45 104.344C127.255 104.344 126.286 105.313 126.286 106.509C126.286 107.705 127.255 108.674 128.45 108.674Z" fill="#2250F3"/>
<path d="M147.573 122.746C148.769 122.746 149.738 121.776 149.738 120.581C149.738 119.385 148.769 118.416 147.573 118.416C146.378 118.416 145.409 119.385 145.409 120.581C145.409 121.776 146.378 122.746 147.573 122.746Z" fill="#2250F3"/>
<path d="M166.697 101.819C167.892 101.819 168.861 100.849 168.861 99.6539C168.861 98.4583 167.892 97.489 166.697 97.489C165.501 97.489 164.532 98.4583 164.532 99.6539C164.532 100.849 165.501 101.819 166.697 101.819Z" fill="#2250F3"/>
<path d="M185.819 93.8809C187.015 93.8809 187.984 92.9116 187.984 91.716C187.984 90.5204 187.015 89.5511 185.819 89.5511C184.623 89.5511 183.654 90.5204 183.654 91.716C183.654 92.9116 184.623 93.8809 185.819 93.8809Z" fill="#2250F3"/>
<path d="M147.619 121.066L128.451 106.708L109.544 120.869L109.111 120.292L128.451 105.806L147.528 120.096L166.485 99.3499L166.561 99.3189L185.684 91.6143L185.954 92.2835L166.907 99.9577L147.619 121.066Z" fill="#2250F3"/>
<path d="M6.25052 92L30.8348 67.5946C36.2481 71.6083 42.8199 73.7841 49.5764 73.7996H49.583L49.9411 73.8029C57.9132 73.8029 65.5588 70.659 71.196 65.0629C76.8331 59.4668 80 51.8768 80 43.9627L79.9967 43.5874V43.6072C79.9967 35.4897 76.7484 27.7046 70.9664 21.9646C65.1843 16.2247 57.3422 13 49.1652 13C40.9882 13 33.1461 16.2247 27.3641 21.9646C21.5821 27.7046 18.3337 35.4897 18.3337 43.6072C18.4194 50.3434 20.6271 56.8839 24.6473 62.3112L24.5843 62.2223L0 86.6278L6.25052 92ZM49.1652 21.269C55.1012 21.0785 60.8706 23.235 65.2058 27.2648C69.5411 31.2946 72.0876 36.868 72.2859 42.7606C72.4842 48.6532 70.3181 54.3829 66.2634 58.691C62.2088 62.999 56.5972 65.533 50.6617 65.7362C44.7261 65.9394 38.9521 63.7952 34.6081 59.7746C30.2641 55.7541 27.7056 50.1861 27.4945 44.2939C27.2835 38.4018 29.4372 32.6674 33.4826 28.3507C37.5279 24.0341 43.134 21.4881 49.0691 21.2723L49.1652 21.269Z" fill="url(#paint11_linear_897_1494)"/>
<path d="M49.5764 73.7996H49.583M49.5764 73.7996C42.8199 73.7841 36.2481 71.6083 30.8348 67.5946L49.583 73.7996M49.5764 73.7996L49.577 73.516L49.583 73.5159L49.5856 73.516L49.9411 73.5192C49.9416 73.5192 49.942 73.5192 49.9425 73.5192C57.8395 73.5189 65.4127 70.4044 70.9961 64.8616C76.5795 59.3188 79.716 51.8017 79.7163 43.964C79.7163 43.9635 79.7163 43.9631 79.7163 43.9627L79.7132 43.6072H79.713C79.713 35.5656 76.4951 27.8529 70.7665 22.166C65.0378 16.479 57.2677 13.2837 49.1652 13.2837C41.0628 13.2837 33.2926 16.479 27.5639 22.166C21.8358 27.8525 18.6179 35.5644 18.6174 43.6054C18.7008 50.1359 20.7965 56.481 24.6176 61.7896L24.622 61.7851L24.8157 62.0583L24.8787 62.1472L24.664 62.3027L24.7841 62.4237L0.417755 86.6128L6.23666 91.614L30.6349 67.3933L30.8079 67.2215L31.0037 67.3667C36.3681 71.344 42.8805 73.5004 49.5764 73.5159V73.7996ZM49.583 73.7996L49.9411 73.8029L49.583 73.7996ZM79.9969 43.6072H79.9967H79.9969ZM79.9967 43.5862C79.9911 35.4762 76.7434 27.6997 70.9664 21.9646C65.1843 16.2247 57.3422 13 49.1652 13C40.9882 13 33.1461 16.2247 27.3641 21.9646C21.5821 27.7046 18.3337 35.4897 18.3337 43.6072C18.4177 50.2118 20.5417 56.6283 24.4137 61.9919L79.9967 43.5862ZM49.1555 20.9855L49.1561 20.9855C55.1666 20.7926 61.0087 22.9761 65.399 27.057C69.7893 31.138 72.3686 36.7827 72.5694 42.7511C72.7703 48.7195 70.5762 54.5225 66.47 58.8854C62.3638 63.2482 56.6814 65.814 50.6714 66.0197C44.6614 66.2254 38.8145 64.0543 34.4154 59.9828C30.0163 55.9112 27.4248 50.272 27.211 44.3041C26.9973 38.3361 29.1788 32.5284 33.2756 28.1568C37.3723 23.7852 43.0492 21.2074 49.0587 20.9888L49.0593 20.9888L49.1555 20.9855Z" stroke="white" stroke-opacity="0.7" stroke-width="0.567342"/>
<g filter="url(#filter1_b_897_1494)">
<rect x="246" y="174" width="106" height="100" rx="16" fill="url(#paint12_linear_897_1494)" fill-opacity="0.3"/>
</g>
<g filter="url(#filter2_b_897_1494)">
<rect width="74" height="74" rx="37" transform="matrix(1 0 0 -1 260 260)" fill="url(#paint13_linear_897_1494)"/>
</g>
<path d="M309.571 243.5H309.572C311.67 243.498 313.684 242.684 315.171 241.234C316.658 239.784 317.498 237.815 317.5 235.758V235.757V229.443V228.943H317H312.81H312.31V229.443V235.757C312.31 236.458 312.024 237.132 311.512 237.632C310.999 238.131 310.302 238.414 309.571 238.414H303.095H302.595V238.914V243V243.5H303.095H309.571ZM317 218.057H317.5V217.557V211.243V211.242C317.498 209.185 316.658 207.216 315.171 205.766C313.684 204.316 311.67 203.502 309.572 203.5H309.571H303.095H302.595V204V208.086V208.586H303.095H309.571C310.302 208.586 310.999 208.869 311.512 209.368L311.861 209.01L311.512 209.368C312.024 209.868 312.31 210.542 312.31 211.243V217.557V218.057H312.81H317ZM290.905 243.5H291.405V243V238.914V238.414H290.905H284.429C283.698 238.414 283.001 238.131 282.488 237.632C281.976 237.132 281.69 236.458 281.69 235.757V229.443V228.943H281.19H277H276.5V229.443L276.5 235.757L276.5 235.758C276.502 237.815 277.342 239.784 278.829 241.234L279.178 240.876L278.829 241.234C280.316 242.684 282.33 243.498 284.428 243.5H284.429H290.905ZM281.19 218.057H281.69V217.557V211.243C281.69 210.542 281.976 209.868 282.488 209.368C283.001 208.869 283.698 208.586 284.429 208.586H290.905H291.405V208.086V204V203.5H290.905L284.429 203.5L284.428 203.5C282.33 203.502 280.316 204.316 278.829 205.766C277.342 207.216 276.502 209.185 276.5 211.242V211.243V217.557V218.057H277H281.19Z" fill="white" stroke="white"/>
<path d="M326 14.1748H318.273C317.035 11.9069 315.33 9.92238 313.267 8.5049L317.75 3.9973L313.873 0L307.905 6.15188C305.348 5.51238 302.68 5.51238 300.123 6.15188L294.127 0L290.25 3.9973L294.705 8.5049C292.642 9.92238 290.965 11.9352 289.727 14.1748H282V19.8448H287.748C287.583 20.7803 287.5 21.7158 287.5 22.6797V25.5147H282V31.1846H287.5V34.0196C287.5 34.9835 287.583 35.919 287.748 36.8546H282V42.5245H289.727C290.811 44.4562 292.254 46.1486 293.973 47.5049C295.692 48.8612 297.654 49.8548 299.746 50.4288C301.838 51.0028 304.019 51.146 306.164 50.8502C308.31 50.5543 310.378 49.8253 312.25 48.7047C314.752 47.2305 316.843 45.076 318.273 42.5245H326V36.8546H320.252C320.417 35.919 320.5 34.9835 320.5 34.0196V31.1846H326V25.5147H320.5V22.6797C320.5 21.7158 320.417 20.7803 320.252 19.8448H326V14.1748ZM315 34.0196C315 37.0271 313.841 39.9115 311.778 42.0381C309.715 44.1647 306.917 45.3595 304 45.3595C301.083 45.3595 298.285 44.1647 296.222 42.0381C294.159 39.9115 293 37.0271 293 34.0196V22.6797C293 19.6722 294.159 16.7879 296.222 14.6612C298.285 12.5346 301.083 11.3399 304 11.3399C306.917 11.3399 309.715 12.5346 311.778 14.6612C313.841 16.7879 315 19.6722 315 22.6797V34.0196ZM309.5 19.8448V25.5147H298.5V19.8448H309.5ZM298.5 31.1846H309.5V36.8546H298.5V31.1846Z" fill="url(#paint14_linear_897_1494)"/>
<path d="M320.5 25.7349H325.78V30.9644H320.5H320.28V31.1846V34.0196C320.28 34.9707 320.198 35.8934 320.036 36.8163L319.99 37.0748H320.252H325.78V42.3043H318.273H318.143L318.08 42.4168C316.669 44.9351 314.606 47.061 312.138 48.515L312.137 48.5158C310.29 49.6213 308.25 50.3403 306.134 50.632C304.018 50.9238 301.867 50.7826 299.804 50.2165C297.741 49.6503 295.806 48.6703 294.11 47.332C292.413 45.9938 290.99 44.3236 289.92 42.4167L289.856 42.3043H289.727H282.22V37.0748H287.748H288.01L287.964 36.8163C287.802 35.8934 287.72 34.9707 287.72 34.0196V31.1846V30.9644H287.5H282.22V25.7349H287.5H287.72V25.5147V22.6797C287.72 21.7287 287.802 20.8059 287.964 19.883L288.01 19.6246H287.748H282.22V14.395H289.727H289.857L289.92 14.2813C291.145 12.0653 292.801 10.0808 294.83 8.68636L295.047 8.5373L294.862 8.35012L290.558 3.99586L294.128 0.315867L299.965 6.30555L300.053 6.39619L300.176 6.36549C302.698 5.73476 305.33 5.73476 307.852 6.36549L307.975 6.39628L308.063 6.30519L313.873 0.31624L317.441 3.99538L313.111 8.34964L312.925 8.53683L313.143 8.68636C315.173 10.0819 316.856 12.0388 318.079 14.2803L318.142 14.395H318.273H325.78V19.6246H320.252H319.99L320.036 19.883C320.198 20.8059 320.28 21.7287 320.28 22.6797V25.5147V25.7349H320.5ZM311.936 42.1914C314.04 40.023 315.22 37.0834 315.22 34.0196V22.6797C315.22 19.6159 314.04 16.6763 311.936 14.5079C309.833 12.3393 306.978 11.1197 304 11.1197C301.022 11.1197 298.167 12.3393 296.064 14.5079C293.96 16.6763 292.78 19.6159 292.78 22.6797V34.0196C292.78 37.0834 293.96 40.023 296.064 42.1914C298.167 44.36 301.022 45.5797 304 45.5797C306.978 45.5797 309.833 44.36 311.936 42.1914ZM309.28 25.2945H298.72V20.065H309.28V25.2945ZM309.28 31.4048V36.6344H298.72V31.4048H309.28Z" stroke="white" stroke-opacity="0.7" stroke-width="0.440377"/>
<defs>
<filter id="filter0_b_897_1494" x="53.9441" y="-34.2857" width="257.27" height="311.64" filterUnits="userSpaceOnUse" color-interpolation-filters="sRGB">
<feFlood flood-opacity="0" result="BackgroundImageFix"/>
<feGaussianBlur in="BackgroundImageFix" stdDeviation="17.1429"/>
<feComposite in2="SourceAlpha" operator="in" result="effect1_backgroundBlur_897_1494"/>
<feBlend mode="normal" in="SourceGraphic" in2="effect1_backgroundBlur_897_1494" result="shape"/>
</filter>
<filter id="filter1_b_897_1494" x="242" y="170" width="114" height="108" filterUnits="userSpaceOnUse" color-interpolation-filters="sRGB">
<feFlood flood-opacity="0" result="BackgroundImageFix"/>
<feGaussianBlur in="BackgroundImageFix" stdDeviation="2"/>
<feComposite in2="SourceAlpha" operator="in" result="effect1_backgroundBlur_897_1494"/>
<feBlend mode="normal" in="SourceGraphic" in2="effect1_backgroundBlur_897_1494" result="shape"/>
</filter>
<filter id="filter2_b_897_1494" x="255.714" y="181.714" width="82.5714" height="82.5714" filterUnits="userSpaceOnUse" color-interpolation-filters="sRGB">
<feFlood flood-opacity="0" result="BackgroundImageFix"/>
<feGaussianBlur in="BackgroundImageFix" stdDeviation="2.14286"/>
<feComposite in2="SourceAlpha" operator="in" result="effect1_backgroundBlur_897_1494"/>
<feBlend mode="normal" in="SourceGraphic" in2="effect1_backgroundBlur_897_1494" result="shape"/>
</filter>
<linearGradient id="paint0_linear_897_1494" x1="0" y1="243.069" x2="241.607" y2="158.959" gradientUnits="userSpaceOnUse">
<stop stop-color="#0084FF" stop-opacity="0.4"/>
<stop offset="0.407091" stop-color="white" stop-opacity="0.726314"/>
<stop offset="1" stop-color="white" stop-opacity="0"/>
</linearGradient>
<linearGradient id="paint1_linear_897_1494" x1="270.006" y1="72.9204" x2="270.006" y2="86.0378" gradientUnits="userSpaceOnUse">
<stop stop-color="#0FD3FE"/>
<stop offset="1" stop-color="#0084FF"/>
</linearGradient>
<linearGradient id="paint2_linear_897_1494" x1="267.333" y1="105.349" x2="267.333" y2="110.581" gradientUnits="userSpaceOnUse">
<stop stop-color="#0FD3FE"/>
<stop offset="1" stop-color="#0084FF"/>
</linearGradient>
<linearGradient id="paint3_linear_897_1494" x1="274.232" y1="134.085" x2="274.232" y2="137.915" gradientUnits="userSpaceOnUse">
<stop stop-color="#0FD3FE"/>
<stop offset="1" stop-color="#0084FF"/>
</linearGradient>
<linearGradient id="paint4_linear_897_1494" x1="277.622" y1="143.503" x2="277.622" y2="147.333" gradientUnits="userSpaceOnUse">
<stop stop-color="#0FD3FE"/>
<stop offset="1" stop-color="#0084FF"/>
</linearGradient>
<linearGradient id="paint5_linear_897_1494" x1="270.273" y1="152.921" x2="270.273" y2="156.751" gradientUnits="userSpaceOnUse">
<stop stop-color="#0FD3FE"/>
<stop offset="1" stop-color="#0084FF"/>
</linearGradient>
<linearGradient id="paint6_linear_897_1494" x1="109.328" y1="127.075" x2="109.328" y2="143.673" gradientUnits="userSpaceOnUse">
<stop stop-color="#0FD3FE"/>
<stop offset="1" stop-color="#0084FF"/>
</linearGradient>
<linearGradient id="paint7_linear_897_1494" x1="128.451" y1="113.365" x2="128.451" y2="143.672" gradientUnits="userSpaceOnUse">
<stop stop-color="#0FD3FE"/>
<stop offset="1" stop-color="#0084FF"/>
</linearGradient>
<linearGradient id="paint8_linear_897_1494" x1="147.573" y1="127.075" x2="147.573" y2="143.673" gradientUnits="userSpaceOnUse">
<stop stop-color="#0FD3FE"/>
<stop offset="1" stop-color="#0084FF"/>
</linearGradient>
<linearGradient id="paint9_linear_897_1494" x1="166.696" y1="107.952" x2="166.696" y2="143.673" gradientUnits="userSpaceOnUse">
<stop stop-color="#0FD3FE"/>
<stop offset="1" stop-color="#0084FF"/>
</linearGradient>
<linearGradient id="paint10_linear_897_1494" x1="185.819" y1="98.2106" x2="185.819" y2="143.673" gradientUnits="userSpaceOnUse">
<stop stop-color="#0FD3FE"/>
<stop offset="1" stop-color="#0084FF"/>
</linearGradient>
<linearGradient id="paint11_linear_897_1494" x1="39.9804" y1="17.4534" x2="39.9804" y2="99.6629" gradientUnits="userSpaceOnUse">
<stop stop-color="white" stop-opacity="0.12"/>
<stop offset="0.5" stop-color="white" stop-opacity="0.73"/>
<stop offset="1" stop-color="#353535" stop-opacity="0"/>
</linearGradient>
<linearGradient id="paint12_linear_897_1494" x1="242.508" y1="174" x2="341.122" y2="286.765" gradientUnits="userSpaceOnUse">
<stop stop-color="white"/>
<stop offset="1" stop-color="white" stop-opacity="0"/>
</linearGradient>
<linearGradient id="paint13_linear_897_1494" x1="71.9214" y1="69.7308" x2="14.3431" y2="-9.42489" gradientUnits="userSpaceOnUse">
<stop offset="0.00104141" stop-color="#0FD3FE"/>
<stop offset="0.730208" stop-color="#0E41ED"/>
</linearGradient>
<linearGradient id="paint14_linear_897_1494" x1="304.011" y1="2.87501" x2="304.011" y2="55.9469" gradientUnits="userSpaceOnUse">
<stop stop-color="white" stop-opacity="0.12"/>
<stop offset="0.5" stop-color="white" stop-opacity="0.73"/>
<stop offset="1" stop-color="#353535" stop-opacity="0"/>
</linearGradient>
</defs>
</svg>
