<svg width="348" height="274" viewBox="0 0 348 274" fill="none" xmlns="http://www.w3.org/2000/svg">
<g filter="url(#filter0_b_897_1433)">
<rect width="202" height="260" rx="14" transform="matrix(1 0 0 -1 64 260)" fill="#6660A0" fill-opacity="0.2"/>
<rect x="0.267857" y="-0.267857" width="201.464" height="259.464" rx="13.7321" transform="matrix(1 0 0 -1 64 259.464)" stroke="url(#paint0_linear_897_1433)" stroke-width="0.535714"/>
</g>
<path d="M299.926 224.729H28.9763C27.1267 224.727 25.3535 223.991 24.0456 222.683C22.7378 221.375 22.0021 219.602 22 217.753V50.6797C22.0015 49.3247 22.5404 48.0256 23.4986 47.0675C24.4567 46.1093 25.7558 45.5703 27.1108 45.5687H301.703C303.081 45.5703 304.403 46.1186 305.378 47.0933C306.352 48.0681 306.9 49.3896 306.902 50.7681V217.753C306.9 219.602 306.164 221.375 304.856 222.683C303.549 223.991 301.775 224.727 299.926 224.729Z" fill="#232868"/>
<path d="M291.231 215.438H38.7132C35.0116 215.438 32.0001 212.618 32.0001 209.151V63.6622C32.0001 61.0915 34.2317 59 36.9747 59H292.887C295.676 59 297.944 61.126 297.944 63.739V209.151C297.944 212.618 294.933 215.438 291.231 215.438Z" fill="#191D4B"/>
<path d="M306.903 51.5491H22V47.9973C22.0027 46.1416 22.7414 44.3627 24.054 43.0509C25.3666 41.7391 27.1459 41.0015 29.0016 41H299.901C301.757 41.0015 303.536 41.7391 304.849 43.0509C306.161 44.3627 306.9 46.1416 306.903 47.9973V51.5491Z" fill="white"/>
<path d="M34.7245 48.0961C35.7247 48.0961 36.5355 47.2853 36.5355 46.285C36.5355 45.2848 35.7247 44.474 34.7245 44.474C33.7243 44.474 32.9135 45.2848 32.9135 46.285C32.9135 47.2853 33.7243 48.0961 34.7245 48.0961Z" fill="#0971BB"/>
<path d="M41.5988 48.0961C42.599 48.0961 43.4098 47.2853 43.4098 46.285C43.4098 45.2848 42.599 44.474 41.5988 44.474C40.5986 44.474 39.7877 45.2848 39.7877 46.285C39.7877 47.2853 40.5986 48.0961 41.5988 48.0961Z" fill="#0971BB"/>
<path d="M48.473 48.0961C49.4733 48.0961 50.2841 47.2853 50.2841 46.285C50.2841 45.2848 49.4733 44.474 48.473 44.474C47.4728 44.474 46.662 45.2848 46.662 46.285C46.662 47.2853 47.4728 48.0961 48.473 48.0961Z" fill="#0971BB"/>
<path d="M159.014 91.2946H109.627C108.89 91.2946 108.184 91.0021 107.664 90.4814C107.143 89.9608 106.85 89.2547 106.85 88.5184C106.85 87.7821 107.143 87.076 107.664 86.5553C108.184 86.0347 108.89 85.7422 109.627 85.7422H159.014C159.75 85.7422 160.456 86.0347 160.977 86.5553C161.497 87.076 161.79 87.7821 161.79 88.5184C161.79 89.2547 161.497 89.9608 160.977 90.4814C160.456 91.0021 159.75 91.2946 159.014 91.2946Z" fill="white" fill-opacity="0.7"/>
<path d="M220.382 91.2946H170.995C170.259 91.2946 169.553 91.0021 169.032 90.4814C168.511 89.9608 168.219 89.2547 168.219 88.5184C168.219 87.7821 168.511 87.076 169.032 86.5553C169.553 86.0347 170.259 85.7422 170.995 85.7422H220.382C221.118 85.7422 221.825 86.0347 222.345 86.5553C222.866 87.076 223.158 87.7821 223.158 88.5184C223.158 89.2547 222.866 89.9608 222.345 90.4814C221.825 91.0021 221.118 91.2946 220.382 91.2946Z" fill="white" fill-opacity="0.7"/>
<path d="M220.382 101.815H134.466C133.73 101.815 133.024 101.522 132.503 101.002C131.983 100.481 131.69 99.7749 131.69 99.0386C131.69 98.3024 131.983 97.5962 132.503 97.0756C133.024 96.5549 133.73 96.2625 134.466 96.2625H220.382C221.118 96.2625 221.825 96.5549 222.345 97.0756C222.866 97.5962 223.158 98.3024 223.158 99.0386C223.158 99.7749 222.866 100.481 222.345 101.002C221.825 101.522 221.118 101.815 220.382 101.815Z" fill="white" fill-opacity="0.7"/>
<path d="M159.014 80.6279H109.627C108.891 80.627 108.186 80.3341 107.666 79.8136C107.146 79.2931 106.854 78.5875 106.854 77.8518C106.854 77.1161 107.146 76.4104 107.666 75.8899C108.186 75.3694 108.891 75.0765 109.627 75.0756H159.014C159.378 75.0751 159.74 75.1466 160.077 75.2859C160.414 75.4252 160.721 75.6296 160.979 75.8875C161.237 76.1453 161.442 76.4515 161.582 76.7886C161.721 77.1256 161.793 77.4869 161.793 77.8518C161.793 78.2166 161.721 78.5779 161.582 78.9149C161.442 79.252 161.237 79.5582 160.979 79.816C160.721 80.0739 160.414 80.2783 160.077 80.4176C159.74 80.5569 159.378 80.6284 159.014 80.6279Z" fill="white" fill-opacity="0.7"/>
<path d="M186.191 80.7742H172.164C171.428 80.7742 170.722 80.4817 170.201 79.9611C169.68 79.4404 169.388 78.7343 169.388 77.998C169.388 77.2617 169.68 76.5556 170.201 76.0349C170.722 75.5143 171.428 75.2218 172.164 75.2218H186.191C186.927 75.2218 187.634 75.5143 188.154 76.0349C188.675 76.5556 188.967 77.2617 188.967 77.998C188.967 78.7343 188.675 79.4404 188.154 79.9611C187.634 80.4817 186.927 80.7742 186.191 80.7742Z" fill="white" fill-opacity="0.7"/>
<path d="M123.654 101.815H109.627C108.891 101.814 108.186 101.521 107.666 101.001C107.146 100.48 106.854 99.7743 106.854 99.0386C106.854 98.3029 107.146 97.5973 107.666 97.0768C108.186 96.5562 108.891 96.2634 109.627 96.2625H123.654C124.018 96.262 124.38 96.3335 124.717 96.4728C125.054 96.6121 125.361 96.8165 125.619 97.0744C125.877 97.3322 126.082 97.6384 126.222 97.9755C126.361 98.3125 126.433 98.6738 126.433 99.0386C126.433 99.4035 126.361 99.7648 126.222 100.102C126.082 100.439 125.877 100.745 125.619 101.003C125.361 101.261 125.054 101.465 124.717 101.604C124.38 101.744 124.018 101.815 123.654 101.815Z" fill="white" fill-opacity="0.7"/>
<path d="M159.014 189.808H109.627C108.89 189.808 108.184 189.516 107.664 188.995C107.143 188.474 106.85 187.768 106.85 187.032C106.85 186.296 107.143 185.589 107.664 185.069C108.184 184.548 108.89 184.256 109.627 184.256H159.014C159.378 184.256 159.739 184.327 160.076 184.467C160.413 184.606 160.719 184.811 160.977 185.069C161.235 185.327 161.439 185.633 161.579 185.969C161.718 186.306 161.79 186.667 161.79 187.032C161.79 187.396 161.718 187.757 161.579 188.094C161.439 188.431 161.235 188.737 160.977 188.995C160.719 189.253 160.413 189.457 160.076 189.597C159.739 189.736 159.378 189.808 159.014 189.808Z" fill="white" fill-opacity="0.7"/>
<path d="M220.382 189.808H170.995C170.259 189.808 169.553 189.516 169.032 188.995C168.511 188.474 168.219 187.768 168.219 187.032C168.219 186.296 168.511 185.589 169.032 185.069C169.553 184.548 170.259 184.256 170.995 184.256H220.382C220.747 184.256 221.108 184.327 221.444 184.467C221.781 184.606 222.087 184.811 222.345 185.069C222.603 185.327 222.807 185.633 222.947 185.969C223.086 186.306 223.158 186.667 223.158 187.032C223.158 187.396 223.086 187.757 222.947 188.094C222.807 188.431 222.603 188.737 222.345 188.995C222.087 189.253 221.781 189.457 221.444 189.597C221.108 189.736 220.747 189.808 220.382 189.808Z" fill="white" fill-opacity="0.7"/>
<path d="M220.382 200.328H134.466C133.73 200.328 133.024 200.036 132.503 199.515C131.983 198.995 131.69 198.288 131.69 197.552C131.69 196.816 131.983 196.11 132.503 195.589C133.024 195.068 133.73 194.776 134.466 194.776H220.382C220.747 194.775 221.108 194.847 221.446 194.986C221.783 195.126 222.089 195.33 222.347 195.588C222.606 195.846 222.81 196.152 222.95 196.489C223.09 196.826 223.162 197.187 223.162 197.552C223.162 197.917 223.09 198.278 222.95 198.615C222.81 198.952 222.606 199.259 222.347 199.516C222.089 199.774 221.783 199.979 221.446 200.118C221.108 200.257 220.747 200.329 220.382 200.328Z" fill="white" fill-opacity="0.7"/>
<path d="M159.014 179.142H109.627C108.89 179.142 108.184 178.849 107.664 178.328C107.143 177.808 106.85 177.102 106.85 176.365C106.85 175.629 107.143 174.923 107.664 174.402C108.184 173.882 108.89 173.589 109.627 173.589H159.014C159.75 173.589 160.456 173.882 160.977 174.402C161.497 174.923 161.79 175.629 161.79 176.365C161.79 177.102 161.497 177.808 160.977 178.328C160.456 178.849 159.75 179.142 159.014 179.142Z" fill="white" fill-opacity="0.7"/>
<path d="M186.191 179.288H172.164C171.428 179.288 170.722 178.995 170.201 178.474C169.68 177.954 169.388 177.248 169.388 176.511C169.388 175.775 169.68 175.069 170.201 174.548C170.722 174.028 171.428 173.735 172.164 173.735H186.191C186.927 173.735 187.634 174.028 188.154 174.548C188.675 175.069 188.967 175.775 188.967 176.511C188.967 177.248 188.675 177.954 188.154 178.474C187.634 178.995 186.927 179.288 186.191 179.288Z" fill="white" fill-opacity="0.7"/>
<path d="M123.654 200.328H109.627C108.89 200.328 108.184 200.036 107.664 199.515C107.143 198.995 106.85 198.288 106.85 197.552C106.85 196.816 107.143 196.11 107.664 195.589C108.184 195.068 108.89 194.776 109.627 194.776H123.654C124.019 194.775 124.38 194.847 124.717 194.986C125.054 195.126 125.361 195.33 125.619 195.588C125.877 195.846 126.082 196.152 126.222 196.489C126.361 196.826 126.433 197.187 126.433 197.552C126.433 197.917 126.361 198.278 126.222 198.615C126.082 198.952 125.877 199.259 125.619 199.516C125.361 199.774 125.054 199.979 124.717 200.118C124.38 200.257 124.019 200.329 123.654 200.328Z" fill="white" fill-opacity="0.7"/>
<g filter="url(#filter1_b_897_1433)">
<rect x="248" y="179" width="99.7116" height="94.3699" rx="16" fill="url(#paint1_linear_897_1433)" fill-opacity="0.3"/>
</g>
<g filter="url(#filter2_b_897_1433)">
<rect width="69.7509" height="69.7509" rx="34.8754" transform="matrix(1 0 0 -1 262 260)" fill="url(#paint2_linear_897_1433)"/>
</g>
<path d="M5.34578 168.997L26.3717 148.3C31.0015 151.704 36.6221 153.549 42.4007 153.562H42.4063L42.7126 153.565C49.5309 153.565 56.0698 150.899 60.891 146.153C65.7122 141.407 68.4208 134.97 68.4208 128.258L68.4179 127.94V127.957C68.4179 121.073 65.6398 114.47 60.6947 109.603C55.7495 104.735 49.0425 102 42.049 102C35.0555 102 28.3485 104.735 23.4034 109.603C18.4582 114.47 15.6801 121.073 15.6801 127.957C15.7533 133.67 17.6415 139.216 21.0798 143.819L21.0259 143.744L-4.57764e-05 164.441L5.34578 168.997ZM42.049 109.013C47.1258 108.851 52.0601 110.68 55.7679 114.097C59.4757 117.515 61.6536 122.242 61.8232 127.239C61.9928 132.236 60.1402 137.095 56.6724 140.749C53.2046 144.402 48.4053 146.551 43.3289 146.724C38.2524 146.896 33.3141 145.078 29.5989 141.668C25.8837 138.258 23.6954 133.536 23.5149 128.539C23.3344 123.542 25.1764 118.679 28.6363 115.018C32.0961 111.358 36.8907 109.199 41.9668 109.015L42.049 109.013Z" fill="url(#paint3_linear_897_1433)"/>
<path d="M42.4007 153.562H42.4063M42.4007 153.562C36.6221 153.549 31.0015 151.704 26.3717 148.3L42.4063 153.562M42.4007 153.562L42.4013 153.278L42.4063 153.278L42.4089 153.278L42.7126 153.281C42.7131 153.281 42.7135 153.281 42.714 153.281C49.4579 153.281 55.9247 150.644 60.692 145.951C65.4593 141.258 68.1368 134.894 68.1371 128.26C68.1371 128.259 68.1371 128.259 68.1371 128.258L68.1344 127.957H68.1343C68.1343 121.149 65.3871 114.62 60.4957 109.805C55.6041 104.99 48.9687 102.284 42.049 102.284C35.1293 102.284 28.494 104.99 23.6024 109.805C18.7113 114.619 15.9642 121.148 15.9638 127.955C16.0348 133.468 17.8142 138.826 21.0595 143.313L21.0635 143.309L21.2567 143.579L21.3106 143.654L21.0937 143.813L21.2249 143.946L0.419617 164.426L5.33198 168.613L26.1727 148.098L26.345 147.928L26.5397 148.071C31.1206 151.439 36.6822 153.265 42.4007 153.278V153.562ZM42.4063 153.562L42.7126 153.565L42.4063 153.562ZM68.4181 127.957H68.4179H68.4181ZM68.4179 127.939C68.4131 121.061 65.6355 114.466 60.6947 109.603C55.7495 104.735 49.0425 102 42.049 102C35.0555 102 28.3485 104.735 23.4034 109.603C18.4582 114.47 15.6801 121.073 15.6801 127.957C15.7517 133.544 17.5593 138.972 20.855 143.514L68.4179 127.939ZM42.0394 108.729L42.04 108.729C47.1905 108.565 52.1973 110.421 55.9602 113.889C59.7232 117.357 61.9345 122.155 62.1067 127.229C62.2789 132.303 60.3979 137.236 56.8782 140.944C53.3586 144.652 48.4886 146.832 43.3385 147.007C38.1883 147.182 33.1775 145.337 29.4071 141.877C25.6365 138.416 23.4147 133.623 23.2314 128.55C23.0482 123.476 24.9185 118.539 28.4301 114.824C31.9415 111.108 36.8068 108.918 41.9565 108.732L41.9571 108.732L42.0394 108.729Z" stroke="white" stroke-opacity="0.7" stroke-width="0.567342"/>
<path d="M190.855 114.795L188.205 112.144C188.105 112.044 187.979 112 187.848 112C187.717 112 187.592 112.05 187.492 112.144L182.735 116.902C180.668 115.5 178.226 114.753 175.729 114.757C172.529 114.757 169.328 115.976 166.884 118.421L160.515 124.792C160.422 124.886 160.37 125.013 160.37 125.145C160.37 125.278 160.422 125.405 160.515 125.499L177.498 142.486C177.598 142.586 177.723 142.63 177.854 142.63C177.979 142.63 178.11 142.58 178.21 142.486L184.579 136.115C188.886 131.801 189.392 125.13 186.098 120.266L190.855 115.508C191.048 115.307 191.048 114.989 190.855 114.795ZM169.678 139.673C169.584 139.58 169.457 139.527 169.325 139.527C169.193 139.527 169.066 139.58 168.972 139.673L164.809 143.837L159.165 138.191L163.334 134.021C163.528 133.827 163.528 133.508 163.334 133.314L161.059 131.038C160.965 130.945 160.838 130.893 160.706 130.893C160.574 130.893 160.447 130.945 160.353 131.038L156.184 135.209L153.496 132.52C153.449 132.473 153.394 132.437 153.333 132.412C153.271 132.387 153.206 132.375 153.14 132.376C153.015 132.376 152.884 132.426 152.784 132.52L146.421 138.891C142.114 143.199 141.608 149.876 144.902 154.741L140.145 159.499C140.052 159.593 140 159.72 140 159.852C140 159.984 140.052 160.111 140.145 160.205L142.795 162.856C142.895 162.956 143.02 163 143.152 163C143.283 163 143.408 162.95 143.508 162.856L148.265 158.098C150.371 159.53 152.821 160.243 155.271 160.243C158.471 160.243 161.672 159.024 164.116 156.579L170.485 150.208C170.678 150.014 170.678 149.695 170.485 149.501L167.797 146.813L171.966 142.643C172.16 142.449 172.16 142.13 171.966 141.936L169.678 139.673Z" fill="url(#paint4_linear_897_1433)"/>
<path d="M313.652 222.17L312.987 222.67L313.06 223.499C313.104 224.009 313.127 224.494 313.127 225C313.127 225.507 313.104 225.967 313.043 226.437L312.929 227.304L313.628 227.83L318.115 231.208C318.485 231.497 318.58 231.987 318.354 232.387C318.353 232.388 318.352 232.39 318.352 232.391L313.838 240.133L313.838 240.132L313.832 240.143C313.608 240.535 313.119 240.697 312.708 240.519L312.701 240.516L312.694 240.513L307.498 238.329L306.736 238.009L306.058 238.482C305.229 239.061 304.364 239.566 303.462 239.981L302.705 240.33L302.601 241.156L301.9 246.7L301.899 246.708C301.846 247.147 301.453 247.5 300.995 247.5H291.98C291.523 247.5 291.13 247.147 291.077 246.708L291.076 246.7L290.375 241.156L290.271 240.33L289.514 239.981C288.612 239.566 287.747 239.061 286.917 238.482L286.24 238.009L285.478 238.329L280.282 240.513L280.275 240.516L280.268 240.519C279.856 240.697 279.368 240.535 279.144 240.143L279.144 240.143L279.138 240.133L274.624 232.391C274.623 232.39 274.623 232.388 274.622 232.387C274.387 231.972 274.506 231.473 274.847 231.219L274.847 231.219L274.853 231.214L279.348 227.83L280.017 227.327L279.94 226.493C279.848 225.508 279.848 224.516 279.94 223.531L280.017 222.697L279.348 222.194L274.86 218.815C274.491 218.527 274.395 218.037 274.622 217.636L279.139 209.866L279.139 209.866L279.144 209.857C279.368 209.465 279.856 209.303 280.268 209.481L280.275 209.484L280.282 209.487L285.478 211.671L286.24 211.991L286.917 211.518C287.747 210.939 288.612 210.434 289.514 210.019L290.271 209.67L290.375 208.844L291.076 203.3L291.076 203.3L291.077 203.292C291.129 202.862 291.514 202.5 292.005 202.5H301.02C301.477 202.5 301.87 202.853 301.923 203.292L301.923 203.292L301.924 203.3L302.625 208.844L302.729 209.67L303.486 210.019C304.388 210.434 305.253 210.939 306.083 211.518L306.76 211.991L307.522 211.671L312.718 209.487L312.718 209.487L312.728 209.483C312.93 209.396 313.158 209.387 313.367 209.456C313.576 209.526 313.749 209.669 313.855 209.855L313.859 209.861L313.862 209.868L318.376 217.609C318.377 217.61 318.377 217.612 318.378 217.613C318.613 218.028 318.494 218.527 318.153 218.781L318.147 218.786L313.652 222.17ZM286.638 225C286.638 230.47 291.114 234.9 296.597 234.9C302.08 234.9 306.556 230.47 306.556 225C306.556 219.53 302.08 215.1 296.597 215.1C291.114 215.1 286.638 219.53 286.638 225Z" fill="#0F7DF4" stroke="white" stroke-width="3"/>
<defs>
<filter id="filter0_b_897_1433" x="29.7143" y="-34.2857" width="270.571" height="328.571" filterUnits="userSpaceOnUse" color-interpolation-filters="sRGB">
<feFlood flood-opacity="0" result="BackgroundImageFix"/>
<feGaussianBlur in="BackgroundImageFix" stdDeviation="17.1429"/>
<feComposite in2="SourceAlpha" operator="in" result="effect1_backgroundBlur_897_1433"/>
<feBlend mode="normal" in="SourceGraphic" in2="effect1_backgroundBlur_897_1433" result="shape"/>
</filter>
<filter id="filter1_b_897_1433" x="244" y="175" width="107.712" height="102.37" filterUnits="userSpaceOnUse" color-interpolation-filters="sRGB">
<feFlood flood-opacity="0" result="BackgroundImageFix"/>
<feGaussianBlur in="BackgroundImageFix" stdDeviation="2"/>
<feComposite in2="SourceAlpha" operator="in" result="effect1_backgroundBlur_897_1433"/>
<feBlend mode="normal" in="SourceGraphic" in2="effect1_backgroundBlur_897_1433" result="shape"/>
</filter>
<filter id="filter2_b_897_1433" x="257.714" y="185.963" width="78.3223" height="78.3223" filterUnits="userSpaceOnUse" color-interpolation-filters="sRGB">
<feFlood flood-opacity="0" result="BackgroundImageFix"/>
<feGaussianBlur in="BackgroundImageFix" stdDeviation="2.14286"/>
<feComposite in2="SourceAlpha" operator="in" result="effect1_backgroundBlur_897_1433"/>
<feBlend mode="normal" in="SourceGraphic" in2="effect1_backgroundBlur_897_1433" result="shape"/>
</filter>
<linearGradient id="paint0_linear_897_1433" x1="0" y1="260" x2="258.595" y2="169.905" gradientUnits="userSpaceOnUse">
<stop stop-color="#0084FF" stop-opacity="0.4"/>
<stop offset="0.407091" stop-color="white" stop-opacity="0.726314"/>
<stop offset="1" stop-color="white" stop-opacity="0"/>
</linearGradient>
<linearGradient id="paint1_linear_897_1433" x1="244.716" y1="179" x2="337.817" y2="285.12" gradientUnits="userSpaceOnUse">
<stop stop-color="white"/>
<stop offset="1" stop-color="white" stop-opacity="0"/>
</linearGradient>
<linearGradient id="paint2_linear_897_1433" x1="67.7916" y1="65.7268" x2="13.5196" y2="-8.88371" gradientUnits="userSpaceOnUse">
<stop offset="0.00104141" stop-color="#0FD3FE"/>
<stop offset="0.730208" stop-color="#0E41ED"/>
</linearGradient>
<linearGradient id="paint3_linear_897_1433" x1="34.1936" y1="105.777" x2="34.1936" y2="175.496" gradientUnits="userSpaceOnUse">
<stop stop-color="white" stop-opacity="0.12"/>
<stop offset="0.5" stop-color="white" stop-opacity="0.73"/>
<stop offset="1" stop-color="#353535" stop-opacity="0"/>
</linearGradient>
<linearGradient id="paint4_linear_897_1433" x1="140" y1="163" x2="190.914" y2="112" gradientUnits="userSpaceOnUse">
<stop stop-color="#0084FF"/>
<stop offset="1" stop-color="#0FD3FE"/>
</linearGradient>
</defs>
</svg>
