<svg width="358" height="277" viewBox="0 0 358 277" fill="none" xmlns="http://www.w3.org/2000/svg">
<g filter="url(#filter0_b_897_1375)">
<rect x="281.712" y="260" width="202" height="260" rx="14" transform="rotate(-180 281.712 260)" fill="#6660A0" fill-opacity="0.2"/>
<rect x="281.444" y="259.732" width="201.464" height="259.464" rx="13.7321" transform="rotate(-180 281.444 259.732)" stroke="url(#paint0_linear_897_1375)" stroke-width="0.535714"/>
</g>
<path d="M45.7858 224.729H316.735C318.585 224.727 320.358 223.991 321.666 222.683C322.974 221.375 323.709 219.602 323.712 217.752V50.6796C323.71 49.3246 323.171 48.0255 322.213 47.0673C321.255 46.1092 319.956 45.5702 318.601 45.5686H44.0088C42.6303 45.5702 41.3087 46.1185 40.334 47.0932C39.3593 48.0679 38.8111 49.3895 38.8095 50.768V217.752C38.8116 219.602 39.5472 221.375 40.8551 222.683C42.163 223.991 43.9362 224.727 45.7858 224.729Z" fill="#232868"/>
<path d="M54.7691 215.438H307.287C310.989 215.438 314 212.618 314 209.151V63.6622C314 61.0915 311.768 59 309.025 59H53.1129C50.3244 59 48.0559 61.126 48.0559 63.739V209.151C48.0559 212.618 51.0675 215.438 54.7691 215.438Z" fill="#191D4B"/>
<path d="M38.8087 51.5491H323.712V47.9973C323.709 46.1416 322.97 44.3627 321.658 43.0509C320.345 41.7391 318.566 41.0015 316.71 41H45.8104C43.9547 41.0015 42.1753 41.7391 40.8627 43.0509C39.55 44.3627 38.8114 46.1416 38.8087 47.9973V51.5491Z" fill="white"/>
<path d="M310.987 48.0962C309.987 48.0962 309.176 47.2854 309.176 46.2852C309.176 45.285 309.987 44.4741 310.987 44.4741C311.987 44.4741 312.798 45.285 312.798 46.2852C312.798 47.2854 311.987 48.0962 310.987 48.0962Z" fill="#0971BB"/>
<path d="M304.113 48.0962C303.113 48.0962 302.302 47.2854 302.302 46.2852C302.302 45.285 303.113 44.4741 304.113 44.4741C305.113 44.4741 305.924 45.285 305.924 46.2852C305.924 47.2854 305.113 48.0962 304.113 48.0962Z" fill="#0971BB"/>
<path d="M297.239 48.0962C296.238 48.0962 295.427 47.2854 295.427 46.2852C295.427 45.285 296.238 44.4741 297.239 44.4741C298.239 44.4741 299.05 45.285 299.05 46.2852C299.05 47.2854 298.239 48.0962 297.239 48.0962Z" fill="#0971BB"/>
<g filter="url(#filter1_b_897_1375)">
<rect width="99.7116" height="94.3699" rx="16" transform="matrix(1.39071e-07 1 1 -1.39071e-07 0.671143 176.329)" fill="url(#paint1_linear_897_1375)" fill-opacity="0.3"/>
</g>
<path d="M351.124 152L324.082 125.432C318.127 129.801 310.898 132.17 303.466 132.187H303.459L303.065 132.191C294.295 132.191 285.885 128.768 279.684 122.676C273.483 116.584 270 108.322 270 99.7062L270.004 99.2977V99.3192C270.004 90.4824 273.577 82.0075 279.937 75.759C286.297 69.5104 294.923 66 303.918 66C312.913 66 321.539 69.5104 327.899 75.759C334.26 82.0075 337.833 90.4824 337.833 99.3192C337.739 106.652 335.31 113.772 330.888 119.681L330.957 119.584L358 146.152L351.124 152ZM303.918 75.0017C297.389 74.7943 291.042 77.1419 286.273 81.5288C281.505 85.9156 278.703 91.9829 278.485 98.3976C278.267 104.812 280.65 111.05 285.11 115.74C289.57 120.429 295.743 123.188 302.272 123.409C308.801 123.63 315.153 121.296 319.931 116.919C324.709 112.542 327.524 106.481 327.756 100.067C327.988 93.6526 325.619 87.4101 321.169 82.7109C316.719 78.0118 310.553 75.2403 304.024 75.0053L303.918 75.0017Z" fill="url(#paint2_linear_897_1375)"/>
<path d="M303.466 132.187H303.459M303.466 132.187C310.898 132.17 318.127 129.801 324.082 125.432L303.459 132.187M303.466 132.187V131.903H303.465M303.466 132.187L303.465 131.903M303.459 132.187L303.065 132.191L303.459 132.187ZM303.465 131.903L303.459 131.903L303.456 131.903L303.065 131.907C303.064 131.907 303.063 131.907 303.063 131.907C294.368 131.906 286.03 128.513 279.883 122.474C273.736 116.435 270.284 108.246 270.284 99.7075C270.284 99.7071 270.284 99.7067 270.284 99.7062L270.287 99.3192H270.287C270.287 90.5593 273.829 82.1571 280.136 75.9613C286.442 69.7654 294.997 66.2837 303.918 66.2837C312.839 66.2837 321.394 69.7654 327.701 75.9613C334.007 82.1567 337.549 90.5581 337.549 99.3174C337.457 106.442 335.143 113.365 330.924 119.154L330.92 119.149L330.727 119.419L330.657 119.515L330.871 119.672L330.758 119.786L357.58 146.137L351.138 151.616L324.28 125.23L324.108 125.061L323.914 125.203C318.008 129.537 310.838 131.886 303.465 131.903ZM270.003 99.3192H270.004H270.003ZM270.004 99.2965C270.01 90.4679 273.582 82.0022 279.937 75.759C286.297 69.5104 294.923 66 303.918 66C312.913 66 321.539 69.5104 327.899 75.759C334.26 82.0075 337.833 90.4824 337.833 99.3192C337.74 106.518 335.398 113.512 331.129 119.355L270.004 99.2965ZM303.928 74.7182L303.927 74.7182C297.324 74.5084 290.905 76.8824 286.081 81.32C281.257 85.7578 278.423 91.8965 278.202 98.388C277.981 104.879 280.392 111.191 284.905 115.935C289.416 120.679 295.66 123.469 302.262 123.693C308.865 123.916 315.289 121.556 320.123 117.128C324.956 112.701 327.804 106.568 328.039 100.077C328.274 93.586 325.877 87.2698 321.375 82.5159C316.873 77.7621 310.636 74.9594 304.034 74.7218L304.034 74.7218L303.928 74.7182Z" stroke="white" stroke-opacity="0.7" stroke-width="0.567342"/>
<g filter="url(#filter2_b_897_1375)">
<rect x="83.9999" y="260" width="69.7509" height="69.7509" rx="34.8754" transform="rotate(-180 83.9999 260)" fill="url(#paint3_linear_897_1375)"/>
</g>
<path d="M36.9348 245.619C35.8527 245.619 34.9267 245.24 34.1567 244.483C33.3868 243.726 33.0012 242.815 32.9999 241.75V222.408C32.9999 221.344 33.3855 220.434 34.1567 219.677C34.928 218.92 35.854 218.541 36.9348 218.54H38.9023V214.671C38.9023 211.995 39.8617 209.715 41.7807 207.83C43.6996 205.945 46.0192 205.001 48.7396 205C51.4612 205 53.7815 205.943 55.7005 207.83C57.6194 209.716 58.5782 211.997 58.5769 214.671V218.54H60.5444C61.6265 218.54 62.5531 218.919 63.3244 219.677C64.0956 220.435 64.4806 221.345 64.4793 222.408V241.75C64.4793 242.814 64.0943 243.725 63.3244 244.483C62.5544 245.241 61.6278 245.62 60.5444 245.619H36.9348ZM36.9348 241.75H60.5444V222.408H36.9348V241.75ZM48.7396 235.948C49.8217 235.948 50.7484 235.569 51.5196 234.812C52.2909 234.055 52.6758 233.144 52.6745 232.079C52.6745 231.015 52.2895 230.105 51.5196 229.348C50.7497 228.591 49.823 228.212 48.7396 228.211C47.6575 228.211 46.7315 228.59 45.9615 229.348C45.1916 230.106 44.806 231.017 44.8047 232.079C44.8047 233.143 45.1903 234.054 45.9615 234.812C46.7328 235.57 47.6588 235.949 48.7396 235.948ZM42.8372 218.54H54.642V214.671C54.642 213.059 54.0681 211.689 52.9204 210.561C51.7728 209.433 50.3791 208.868 48.7396 208.868C47.1 208.868 45.7064 209.433 44.5587 210.561C43.411 211.689 42.8372 213.059 42.8372 214.671V218.54Z" fill="white"/>
<path d="M138.04 133.726C138.519 125.268 141.985 117.255 147.822 111.116C153.659 104.977 161.486 101.11 169.908 100.205C178.331 99.2996 186.801 101.415 193.809 106.174C200.817 110.934 205.907 118.027 208.171 126.19C208.604 126.174 209.037 126.157 209.473 126.157C210.964 126.171 212.442 126.422 213.853 126.902C231.633 132.74 226.951 159.286 208.237 159.286H162.246C158.993 159.295 155.772 158.648 152.775 157.383C149.778 156.118 147.068 154.261 144.805 151.924C142.543 149.587 140.776 146.817 139.609 143.781C138.442 140.744 137.9 137.504 138.015 134.253C138.022 134.078 138.031 133.902 138.04 133.726Z" fill="url(#paint4_linear_897_1375)"/>
<path d="M185.167 131.37V146H177.289V131.37H171L176.114 122.511L181.229 113.654L186.342 122.511L191.456 131.37H185.167Z" fill="white"/>
<path d="M115.597 83H64.4031C64.2962 83 64.1937 82.6839 64.1181 82.1213C64.0425 81.5587 64 80.7956 64 80C64 79.2044 64.0425 78.4413 64.1181 77.8787C64.1937 77.3161 64.2962 77 64.4031 77H115.597C115.704 77 115.806 77.3161 115.882 77.8787C115.958 78.4413 116 79.2044 116 80C116 80.7956 115.958 81.5587 115.882 82.1213C115.806 82.6839 115.704 83 115.597 83Z" fill="#F2F2F2" fill-opacity="0.5"/>
<path d="M295.597 166H244.403C244.296 166 244.194 165.684 244.118 165.121C244.042 164.559 244 163.796 244 163C244 162.204 244.042 161.441 244.118 160.879C244.194 160.316 244.296 160 244.403 160H295.597C295.704 160 295.806 160.316 295.882 160.879C295.958 161.441 296 162.204 296 163C296 163.796 295.958 164.559 295.882 165.121C295.806 165.684 295.704 166 295.597 166Z" fill="#F2F2F2" fill-opacity="0.5"/>
<path d="M115.597 102H64.4031C64.2962 102 64.1937 101.684 64.1181 101.121C64.0425 100.559 64 99.7956 64 99C64 98.2044 64.0425 97.4413 64.1181 96.8787C64.1937 96.3161 64.2962 96 64.4031 96H115.597C115.704 96 115.806 96.3161 115.882 96.8787C115.958 97.4413 116 98.2044 116 99C116 99.7956 115.958 100.559 115.882 101.121C115.806 101.684 115.704 102 115.597 102Z" fill="#F2F2F2" fill-opacity="0.5"/>
<path d="M295.597 185H244.403C244.296 185 244.194 184.684 244.118 184.121C244.042 183.559 244 182.796 244 182C244 181.204 244.042 180.441 244.118 179.879C244.194 179.316 244.296 179 244.403 179H295.597C295.704 179 295.806 179.316 295.882 179.879C295.958 180.441 296 181.204 296 182C296 182.796 295.958 183.559 295.882 184.121C295.806 184.684 295.704 185 295.597 185Z" fill="#F2F2F2" fill-opacity="0.5"/>
<path d="M115.596 122H64.4043C64.3513 122.001 64.2987 121.912 64.2497 121.737C64.2006 121.561 64.156 121.304 64.1185 120.979C64.0809 120.653 64.0511 120.267 64.0308 119.842C64.0105 119.416 64 118.961 64 118.5C64 118.039 64.0105 117.584 64.0308 117.158C64.0511 116.733 64.0809 116.347 64.1185 116.021C64.156 115.696 64.2006 115.439 64.2497 115.263C64.2987 115.088 64.3513 114.999 64.4043 115H115.596C115.649 114.999 115.701 115.088 115.75 115.263C115.799 115.439 115.844 115.696 115.882 116.021C115.919 116.347 115.949 116.733 115.969 117.158C115.99 117.584 116 118.039 116 118.5C116 118.961 115.99 119.416 115.969 119.842C115.949 120.267 115.919 120.653 115.882 120.979C115.844 121.304 115.799 121.561 115.75 121.737C115.701 121.912 115.649 122.001 115.596 122Z" fill="#F2F2F2" fill-opacity="0.5"/>
<path d="M295.596 205H244.404C244.351 205.001 244.299 204.912 244.25 204.737C244.201 204.561 244.156 204.304 244.118 203.979C244.081 203.653 244.051 203.267 244.031 202.842C244.01 202.416 244 201.961 244 201.5C244 201.039 244.01 200.584 244.031 200.158C244.051 199.733 244.081 199.347 244.118 199.021C244.156 198.696 244.201 198.439 244.25 198.263C244.299 198.088 244.351 197.999 244.404 198H295.596C295.649 197.999 295.701 198.088 295.75 198.263C295.799 198.439 295.844 198.696 295.882 199.021C295.919 199.347 295.949 199.733 295.969 200.158C295.99 200.584 296 201.039 296 201.5C296 201.961 295.99 202.416 295.969 202.842C295.949 203.267 295.919 203.653 295.882 203.979C295.844 204.304 295.799 204.561 295.75 204.737C295.701 204.912 295.649 205.001 295.596 205Z" fill="#F2F2F2" fill-opacity="0.5"/>
<defs>
<filter id="filter0_b_897_1375" x="45.4258" y="-34.2857" width="270.571" height="328.571" filterUnits="userSpaceOnUse" color-interpolation-filters="sRGB">
<feFlood flood-opacity="0" result="BackgroundImageFix"/>
<feGaussianBlur in="BackgroundImageFix" stdDeviation="17.1429"/>
<feComposite in2="SourceAlpha" operator="in" result="effect1_backgroundBlur_897_1375"/>
<feBlend mode="normal" in="SourceGraphic" in2="effect1_backgroundBlur_897_1375" result="shape"/>
</filter>
<filter id="filter1_b_897_1375" x="-3.32886" y="172.329" width="102.37" height="107.712" filterUnits="userSpaceOnUse" color-interpolation-filters="sRGB">
<feFlood flood-opacity="0" result="BackgroundImageFix"/>
<feGaussianBlur in="BackgroundImageFix" stdDeviation="2"/>
<feComposite in2="SourceAlpha" operator="in" result="effect1_backgroundBlur_897_1375"/>
<feBlend mode="normal" in="SourceGraphic" in2="effect1_backgroundBlur_897_1375" result="shape"/>
</filter>
<filter id="filter2_b_897_1375" x="9.96331" y="185.963" width="78.3223" height="78.3224" filterUnits="userSpaceOnUse" color-interpolation-filters="sRGB">
<feFlood flood-opacity="0" result="BackgroundImageFix"/>
<feGaussianBlur in="BackgroundImageFix" stdDeviation="2.14286"/>
<feComposite in2="SourceAlpha" operator="in" result="effect1_backgroundBlur_897_1375"/>
<feBlend mode="normal" in="SourceGraphic" in2="effect1_backgroundBlur_897_1375" result="shape"/>
</filter>
<linearGradient id="paint0_linear_897_1375" x1="281.712" y1="520" x2="540.306" y2="429.905" gradientUnits="userSpaceOnUse">
<stop stop-color="#0084FF" stop-opacity="0.4"/>
<stop offset="0.407091" stop-color="white" stop-opacity="0.726314"/>
<stop offset="1" stop-color="white" stop-opacity="0"/>
</linearGradient>
<linearGradient id="paint1_linear_897_1375" x1="-3.28442" y1="1.03921e-07" x2="89.8165" y2="106.12" gradientUnits="userSpaceOnUse">
<stop stop-color="white"/>
<stop offset="1" stop-color="white" stop-opacity="0"/>
</linearGradient>
<linearGradient id="paint2_linear_897_1375" x1="314.021" y1="70.8481" x2="314.021" y2="160.342" gradientUnits="userSpaceOnUse">
<stop stop-color="white" stop-opacity="0.12"/>
<stop offset="0.5" stop-color="white" stop-opacity="0.73"/>
<stop offset="1" stop-color="#353535" stop-opacity="0"/>
</linearGradient>
<linearGradient id="paint3_linear_897_1375" x1="151.791" y1="325.727" x2="97.5194" y2="251.116" gradientUnits="userSpaceOnUse">
<stop offset="0.00104141" stop-color="#0FD3FE"/>
<stop offset="0.730208" stop-color="#0E41ED"/>
</linearGradient>
<linearGradient id="paint4_linear_897_1375" x1="181.5" y1="100" x2="181.5" y2="159.286" gradientUnits="userSpaceOnUse">
<stop stop-color="#0FB7FB"/>
<stop offset="1" stop-color="#0E41ED"/>
</linearGradient>
</defs>
</svg>
