<svg width="32" height="32" viewBox="0 0 32 32" fill="none" xmlns="http://www.w3.org/2000/svg">
<g clip-path="url(#clip0_269_1378)">
<path fill-rule="evenodd" clip-rule="evenodd" d="M14.1147 2.80002C14.5867 2.32865 15.2182 2.05129 15.8846 2.02266C16.551 1.99403 17.204 2.21621 17.7147 2.64536L17.8853 2.80136L20.4187 5.33336H24C24.6725 5.33348 25.3202 5.58772 25.8132 6.04514C26.3063 6.50256 26.6082 7.12938 26.6587 7.80002L26.6667 8.00002V11.5814L29.2 14.1147C29.6717 14.5867 29.9493 15.2185 29.978 15.8853C30.0066 16.552 29.7842 17.2053 29.3547 17.716L29.1987 17.8854L26.6653 20.4187V24C26.6656 24.6728 26.4115 25.3208 25.954 25.8141C25.4966 26.3074 24.8695 26.6096 24.1987 26.66L24 26.6667H20.42L17.8867 29.2C17.4146 29.6718 16.7828 29.9494 16.1161 29.978C15.4493 30.0066 14.7961 29.7842 14.2853 29.3547L14.116 29.2L11.5827 26.6667H8.00001C7.32724 26.6669 6.67925 26.4128 6.18594 25.9554C5.69263 25.4979 5.39046 24.8709 5.34001 24.2L5.33334 24V20.4187L2.80001 17.8854C2.32827 17.4133 2.05067 16.7815 2.02203 16.1148C1.9934 15.448 2.21581 14.7948 2.64534 14.284L2.80001 14.1147L5.33334 11.5814V8.00002C5.33346 7.32748 5.5877 6.67983 6.04512 6.1868C6.50254 5.69378 7.12936 5.3918 7.80001 5.34136L8.00001 5.33336H11.5813L14.1147 2.80002ZM20.1053 11.9774L14.4467 17.636L12.0893 15.2787C11.8392 15.0287 11.4999 14.8883 11.1462 14.8884C10.7925 14.8885 10.4534 15.0292 10.2033 15.2794C9.95333 15.5295 9.81294 15.8688 9.81307 16.2225C9.81319 16.5762 9.95382 16.9153 10.204 17.1654L13.4093 20.3707C13.5455 20.507 13.7073 20.6151 13.8852 20.6888C14.0632 20.7626 14.254 20.8005 14.4467 20.8005C14.6393 20.8005 14.8301 20.7626 15.0081 20.6888C15.1861 20.6151 15.3478 20.507 15.484 20.3707L21.9907 13.8627C22.2336 13.6112 22.3679 13.2744 22.3649 12.9248C22.3619 12.5752 22.2216 12.2408 21.9744 11.9936C21.7272 11.7464 21.3928 11.6062 21.0432 11.6031C20.6936 11.6001 20.3568 11.7345 20.1053 11.9774Z" fill="white"/>
</g>
<defs>
<clipPath id="clip0_269_1378">
<rect width="32" height="32" fill="white"/>
</clipPath>
</defs>
</svg>
