<svg width="29" height="32" viewBox="0 0 29 32" fill="none" xmlns="http://www.w3.org/2000/svg">
<path d="M26.1138 10.6667H21.3659V7.11111C21.3659 5.22513 20.6155 3.41639 19.2799 2.0828C17.9443 0.749204 16.1328 0 14.2439 0C12.355 0 10.5435 0.749204 9.20792 2.0828C7.8723 3.41639 7.12195 5.22513 7.12195 7.11111V10.6667H2.37398C1.74436 10.6667 1.14053 10.9164 0.695324 11.3609C0.250115 11.8055 0 12.4084 0 13.037V29.6296C0 30.2583 0.250115 30.8612 0.695324 31.3057C1.14053 31.7503 1.74436 32 2.37398 32H26.1138C26.7434 32 27.3473 31.7503 27.7925 31.3057C28.2377 30.8612 28.4878 30.2583 28.4878 29.6296V13.037C28.4878 12.4084 28.2377 11.8055 27.7925 11.3609C27.3473 10.9164 26.7434 10.6667 26.1138 10.6667ZM15.4309 22.3156V26.0741C15.4309 26.3884 15.3058 26.6899 15.0832 26.9121C14.8606 27.1344 14.5587 27.2593 14.2439 27.2593C13.9291 27.2593 13.6272 27.1344 13.4046 26.9121C13.182 26.6899 13.0569 26.3884 13.0569 26.0741V22.3156C12.2649 22.036 11.5974 21.4858 11.1724 20.7624C10.7474 20.0389 10.5922 19.1888 10.7342 18.3621C10.8763 17.5354 11.3064 16.7855 11.9487 16.2449C12.5909 15.7043 13.4039 15.4078 14.2439 15.4078C15.0839 15.4078 15.8969 15.7043 16.5391 16.2449C17.1814 16.7855 17.6115 17.5354 17.7536 18.3621C17.8956 19.1888 17.7404 20.0389 17.3154 20.7624C16.8904 21.4858 16.2229 22.036 15.4309 22.3156ZM18.9919 10.6667H9.49593V7.11111C9.49593 5.85379 9.99617 4.64796 10.8866 3.7589C11.777 2.86984 12.9847 2.37037 14.2439 2.37037C15.5031 2.37037 16.7108 2.86984 17.6012 3.7589C18.4916 4.64796 18.9919 5.85379 18.9919 7.11111V10.6667Z" fill="#0084FF"/>
</svg>
