<svg width="250" height="160" viewBox="0 0 250 160" fill="none" xmlns="http://www.w3.org/2000/svg">
<path d="M143.071 81.0431C142.905 81.0445 142.744 80.9851 142.619 80.876C142.493 80.7669 142.412 80.6156 142.391 80.4508C139.225 57.6778 155.85 43.7826 172.462 38.3702C189.795 32.7263 202.036 40.2424 202.553 40.5624C202.708 40.659 202.818 40.8129 202.858 40.9904C202.899 41.1679 202.868 41.3543 202.771 41.5087C202.675 41.6631 202.521 41.7728 202.343 41.8136C202.166 41.8545 201.979 41.8231 201.825 41.7265C201.702 41.6517 189.57 34.2377 172.891 39.6841C156.803 44.9263 140.695 58.3382 143.752 80.2738C143.766 80.3633 143.761 80.4546 143.739 80.5424C143.717 80.6301 143.677 80.7125 143.622 80.7848C143.568 80.8571 143.5 80.9178 143.421 80.9633C143.343 81.0088 143.256 81.0383 143.167 81.0499L143.071 81.0431Z" fill="#3561F6"/>
<path d="M248.494 0L204.8 25.2239L193.676 47.6905L204.8 57.3307L206.053 58.0524L249.781 32.8421V0.721654L248.494 0ZM203.275 43.5716C203.325 42.6444 203.592 41.742 204.056 40.9376C204.519 40.1332 205.166 39.4495 205.944 38.9421C206.292 38.7292 206.687 38.6075 207.094 38.5881C207.278 38.9505 207.37 39.3528 207.36 39.7591C207.309 40.6859 207.041 41.5877 206.577 42.3919C206.114 43.1961 205.468 43.88 204.691 44.3886C204.338 44.5997 203.938 44.7212 203.527 44.7426C203.346 44.3748 203.259 43.9677 203.275 43.558V43.5716Z" fill="#176EF8"/>
<path d="M206.053 25.9524L194.929 48.419L206.053 58.0524L249.781 32.8421V0.72168L206.053 25.9524ZM205.944 45.0966C204.467 45.9545 203.275 45.26 203.275 43.558C203.325 42.6308 203.592 41.7284 204.056 40.924C204.52 40.1196 205.167 39.4359 205.944 38.9285C207.415 38.0775 208.613 38.7719 208.613 40.4672C208.563 41.3942 208.295 42.2965 207.832 43.1008C207.368 43.9051 206.721 44.5889 205.944 45.0966Z" fill="url(#paint0_linear_1976_914)"/>
<path opacity="0.3" d="M208.613 40.4672C208.563 41.3942 208.295 42.2965 207.832 43.1008C207.368 43.9051 206.721 44.5889 205.944 45.0966C204.875 45.7162 203.956 45.5255 203.527 44.729C203.94 44.7114 204.341 44.5871 204.692 44.3682C205.469 43.8619 206.115 43.1794 206.579 42.3761C207.043 41.5729 207.31 40.6716 207.36 39.7455C207.371 39.3435 207.28 38.9453 207.095 38.5881C207.279 38.5789 207.464 38.6073 207.637 38.6717C207.81 38.7361 207.969 38.835 208.102 38.9626C208.284 39.1665 208.422 39.4048 208.51 39.6632C208.598 39.9216 208.633 40.195 208.613 40.4672Z" fill="black"/>
<path opacity="0.6" d="M249.747 0.721654L248.494 0L204.8 25.2239L206.052 25.9523L249.747 0.721654Z" fill="#44A9F2"/>
<path opacity="0.3" d="M194.928 48.4394L206.053 58.0728L204.8 57.3512L193.676 47.7109L194.928 48.4394Z" fill="black"/>
<path d="M219.56 27.3481C219.592 27.3203 219.633 27.3051 219.676 27.3051C219.718 27.3051 219.759 27.3203 219.792 27.3481C219.861 27.4344 219.895 27.544 219.887 27.6545V29.6493C219.885 29.7907 219.852 29.9299 219.792 30.0577C219.746 30.175 219.665 30.275 219.56 30.3437L215.904 32.4542V35.0276L219.308 33.0601C219.341 33.0336 219.382 33.0191 219.424 33.0191C219.466 33.0191 219.507 33.0336 219.54 33.0601C219.609 33.1436 219.644 33.2512 219.635 33.3597V35.3544C219.632 35.4979 219.6 35.6393 219.54 35.7697C219.492 35.884 219.412 35.9813 219.308 36.0488L215.904 38.0232V42.108C215.903 42.2517 215.87 42.3933 215.809 42.5233C215.759 42.6381 215.679 42.737 215.577 42.8092L213.971 43.7351C213.938 43.7617 213.897 43.7762 213.855 43.7762C213.813 43.7762 213.772 43.7617 213.739 43.7351C213.669 43.6516 213.635 43.5441 213.644 43.4356V31.2628C213.647 31.1193 213.679 30.9779 213.739 30.8475C213.789 30.7327 213.869 30.6338 213.971 30.5615L219.56 27.3481Z" fill="#FAFAFA"/>
<path d="M225.129 24.1348C225.571 23.8577 226.06 23.6639 226.572 23.5629C226.939 23.4858 227.321 23.5438 227.648 23.7263C227.98 23.9539 228.221 24.2914 228.329 24.6794C228.504 25.2526 228.584 25.8505 228.567 26.4495C228.577 27.3176 228.448 28.1818 228.186 29.0094C227.952 29.7489 227.588 30.4406 227.11 31.0518L228.635 34.6669C228.659 34.725 228.671 34.7877 228.669 34.8507C228.668 34.9681 228.642 35.084 228.594 35.1911C228.555 35.2856 228.489 35.3662 228.404 35.4226L226.742 36.3825C226.579 36.4778 226.463 36.4846 226.395 36.3825C226.324 36.3116 226.267 36.2286 226.225 36.1374L224.863 32.8968L223.74 33.5776V37.6011C223.738 37.7447 223.705 37.8862 223.645 38.0164C223.595 38.1312 223.515 38.2301 223.413 38.3024L221.813 39.2215C221.78 39.2498 221.738 39.2653 221.694 39.2653C221.651 39.2653 221.608 39.2498 221.575 39.2215C221.505 39.1379 221.471 39.0304 221.48 38.9219V26.7423C221.482 26.5987 221.515 26.4572 221.575 26.327C221.625 26.2102 221.707 26.1106 221.813 26.041L225.129 24.1348ZM223.767 30.6297L225.129 29.8331C225.458 29.6336 225.739 29.364 225.953 29.0434C226.187 28.6563 226.303 28.209 226.286 27.7567C226.286 27.2256 226.171 26.9329 225.953 26.858C225.805 26.8307 225.654 26.8335 225.508 26.8662C225.361 26.899 225.223 26.961 225.102 27.0486L223.74 27.8452L223.767 30.6297Z" fill="#FAFAFA"/>
<path d="M236.403 27.7771C236.435 27.7493 236.477 27.7341 236.519 27.7341C236.562 27.7341 236.603 27.7493 236.635 27.7771C236.672 27.8171 236.7 27.8644 236.718 27.916C236.735 27.9676 236.742 28.0224 236.737 28.0767V30.0715C236.735 30.2158 236.7 30.3578 236.635 30.4867C236.59 30.6024 236.509 30.7004 236.403 30.7659L230.616 34.1086C230.584 34.1364 230.543 34.1517 230.501 34.1517C230.458 34.1517 230.417 34.1364 230.385 34.1086C230.348 34.0687 230.32 34.0214 230.302 33.9697C230.284 33.9181 230.278 33.8634 230.283 33.8091V21.6635C230.284 21.519 230.319 21.3769 230.385 21.2482C230.43 21.1307 230.511 21.0306 230.616 20.9623L236.308 17.6808C236.34 17.653 236.381 17.6377 236.424 17.6377C236.466 17.6377 236.507 17.653 236.539 17.6808C236.575 17.7213 236.602 17.7689 236.619 17.8205C236.635 17.8721 236.641 17.9265 236.635 17.9803V19.9751C236.636 20.119 236.603 20.2612 236.539 20.3904C236.49 20.5051 236.41 20.6041 236.308 20.6763L232.543 22.8481V24.8905L236.036 22.8481C236.069 22.8198 236.111 22.8043 236.155 22.8043C236.198 22.8043 236.241 22.8198 236.274 22.8481C236.344 22.9316 236.378 23.0392 236.369 23.1477V25.1424C236.368 25.2861 236.335 25.4277 236.274 25.5577C236.225 25.6745 236.142 25.774 236.036 25.8436L232.543 27.8861V29.9966L236.403 27.7771Z" fill="#FAFAFA"/>
<path d="M244.566 23.0931C244.598 23.0653 244.639 23.05 244.682 23.05C244.724 23.05 244.765 23.0653 244.798 23.0931C244.833 23.1336 244.861 23.1812 244.877 23.2328C244.893 23.2844 244.899 23.3388 244.893 23.3927V25.3874C244.894 25.5292 244.861 25.6692 244.798 25.7959C244.752 25.9131 244.671 26.0132 244.566 26.0818L238.772 29.4246C238.74 29.4524 238.699 29.4677 238.657 29.4677C238.614 29.4677 238.573 29.4524 238.541 29.4246C238.471 29.3411 238.437 29.2335 238.446 29.125V16.9658C238.448 16.8222 238.48 16.6807 238.541 16.5505C238.59 16.4358 238.671 16.3369 238.772 16.2646L244.471 12.9763C244.504 12.9498 244.544 12.9353 244.587 12.9353C244.629 12.9353 244.67 12.9498 244.702 12.9763C244.772 13.0598 244.806 13.1674 244.798 13.2759V15.2706C244.795 15.4141 244.762 15.5555 244.702 15.6859C244.655 15.8002 244.574 15.8975 244.471 15.9651L240.706 18.1436V20.1861L244.198 18.1436C244.231 18.1158 244.272 18.1006 244.314 18.1006C244.357 18.1006 244.398 18.1158 244.43 18.1436C244.467 18.1836 244.495 18.2309 244.513 18.2825C244.531 18.3341 244.537 18.3889 244.532 18.4432V20.438C244.531 20.5825 244.496 20.7249 244.43 20.8532C244.383 20.9694 244.302 21.0689 244.198 21.1392L240.706 23.1816V25.2853L244.566 23.0931Z" fill="#FAFAFA"/>
<path d="M199.987 52.9668C199.335 52.9654 198.685 52.8831 198.053 52.7217C197.873 52.6784 197.717 52.5651 197.62 52.4068C197.523 52.2484 197.493 52.0581 197.536 51.8775C197.579 51.6969 197.693 51.541 197.851 51.444C198.009 51.3469 198.2 51.3167 198.38 51.3601C199.684 51.7398 201.082 51.6279 202.309 51.0457C203.537 50.4635 204.508 49.4514 205.038 48.2011C205.719 46.54 205.78 44.1163 203.547 42.6798C203.394 42.5814 203.286 42.4261 203.247 42.2479C203.208 42.0698 203.241 41.8836 203.34 41.7301C203.438 41.5766 203.594 41.4685 203.772 41.4296C203.95 41.3906 204.136 41.424 204.29 41.5224C207.054 43.2857 207.292 46.4174 206.332 48.739C205.817 49.9964 204.938 51.071 203.807 51.8245C202.676 52.5779 201.346 52.9757 199.987 52.9668Z" fill="#6586F7"/>
<g clip-path="url(#clip0_1976_914)">
<g filter="url(#filter0_b_1976_914)">
<rect width="151.531" height="115.642" rx="7.97533" transform="matrix(1 0 0 -1 33.6104 140.138)" fill="#6660A0" fill-opacity="0.2"/>
<rect x="0.152589" y="-0.152589" width="151.226" height="115.337" rx="7.82274" transform="matrix(1 0 0 -1 33.6104 139.833)" stroke="url(#paint1_linear_1976_914)" stroke-width="0.305178"/>
</g>
<path d="M201.749 76.248H197.345C196.639 74.9909 195.668 73.8909 194.492 73.1052L197.047 70.6067L194.837 68.3911L191.436 71.801C189.978 71.4465 188.458 71.4465 187 71.801L183.584 68.3911L181.374 70.6067L183.913 73.1052C182.737 73.8909 181.781 75.0066 181.076 76.248H176.672V79.3907H179.948C179.853 79.9093 179.806 80.4278 179.806 80.9621V82.5334H176.672V85.6762H179.806V87.2476C179.806 87.7818 179.853 88.3004 179.948 88.8189H176.672V91.9617H181.076C181.694 93.0324 182.516 93.9704 183.496 94.7222C184.475 95.474 185.593 96.0247 186.786 96.3429C187.978 96.6611 189.221 96.7404 190.444 96.5764C191.667 96.4125 192.845 96.0084 193.912 95.3873C195.338 94.5701 196.53 93.3759 197.345 91.9617H201.749V88.8189H198.473C198.567 88.3004 198.614 87.7818 198.614 87.2476V85.6762H201.749V82.5334H198.614V80.9621C198.614 80.4278 198.567 79.9093 198.473 79.3907H201.749V76.248ZM195.479 87.2476C195.479 88.9146 194.819 90.5133 193.643 91.6921C192.468 92.8708 190.873 93.533 189.21 93.533C187.548 93.533 185.953 92.8708 184.777 91.6921C183.602 90.5133 182.941 88.9146 182.941 87.2476V80.9621C182.941 79.2951 183.602 77.6963 184.777 76.5176C185.953 75.3388 187.548 74.6766 189.21 74.6766C190.873 74.6766 192.468 75.3388 193.643 76.5176C194.819 77.6963 195.479 79.2951 195.479 80.9621V87.2476ZM192.345 79.3907V82.5334H186.076V79.3907H192.345ZM186.076 85.6762H192.345V88.8189H186.076V85.6762Z" fill="url(#paint2_linear_1976_914)"/>
<path d="M196.844 70.6055L194.392 73.0034L194.267 73.1261L194.413 73.2236C195.568 73.9955 196.525 75.0779 197.22 76.3176L197.261 76.3904H197.345H201.606V79.2483H198.473H198.302L198.333 79.4161C198.425 79.9263 198.472 80.4363 198.472 80.9621V82.5334V82.6759H198.614H201.606V85.5338H198.614H198.472V85.6762V87.2476C198.472 87.7733 198.425 88.2833 198.333 88.7935L198.302 88.9613H198.473H201.606V91.8193H197.345H197.262L197.221 91.8906C196.419 93.2831 195.246 94.4592 193.841 95.2637L193.841 95.2642C192.79 95.8759 191.629 96.2738 190.425 96.4353C189.221 96.5968 187.996 96.5186 186.822 96.2053C185.648 95.892 184.547 95.3496 183.582 94.6092C182.618 93.8689 181.808 92.945 181.199 91.8905L181.158 91.8193H181.076H176.814V88.9613H179.948H180.118L180.088 88.7935C179.995 88.2833 179.949 87.7733 179.949 87.2476V85.6762V85.5338H179.806H176.814V82.6759H179.806H179.949V82.5334V80.9621C179.949 80.4363 179.995 79.9263 180.088 79.4161L180.118 79.2483H179.948H176.814V76.3904H181.076H181.159L181.2 76.3183C181.896 75.0924 182.838 73.9948 183.992 73.2236L184.137 73.1264L184.013 73.0037L181.576 70.6058L183.584 68.5926L186.9 71.9018L186.956 71.9583L187.034 71.9394C188.469 71.5903 189.967 71.5903 191.402 71.9394L191.48 71.9583L191.537 71.9016L194.837 68.5928L196.844 70.6055ZM193.744 91.7926C194.946 90.5871 195.622 88.9522 195.622 87.2476V80.9621C195.622 79.2574 194.946 77.6225 193.744 76.417C192.542 75.2115 190.911 74.5342 189.21 74.5342C187.51 74.5342 185.879 75.2115 184.676 76.417C183.474 77.6225 182.799 79.2574 182.799 80.9621V87.2476C182.799 88.9522 183.474 90.5871 184.676 91.7926C185.879 92.9981 187.51 93.6755 189.21 93.6755C190.911 93.6755 192.542 92.9981 193.744 91.7926ZM192.202 82.391H186.218V79.5331H192.202V82.391ZM192.202 85.8186V88.6765H186.218V85.8186H192.202Z" stroke="white" stroke-opacity="0.7" stroke-width="0.284833"/>
<path d="M163.782 44.3648H53.6895C53.845 43.483 54.1486 42.6488 54.5731 41.8932C55.9287 39.4784 58.5136 37.8429 61.4755 37.8429H155.996C158.956 37.8429 161.543 39.4784 162.897 41.8932C163.321 42.6488 163.627 43.483 163.782 44.3648Z" fill="#F2F2F2" fill-opacity="0.8"/>
<path d="M134.468 76.4694H83.0041C82.5258 76.4694 82.1367 75.977 82.1367 75.3717C82.1367 74.7664 82.5258 74.274 83.0041 74.274H134.468C134.947 74.274 135.336 74.7664 135.336 75.3717C135.336 75.977 134.947 76.4694 134.468 76.4694Z" fill="#E6E6E6"/>
<path d="M163.783 44.3649C163.627 43.4831 163.322 42.6489 162.897 41.8934C161.543 39.4785 158.957 37.843 155.997 37.843H61.476C58.5141 37.843 55.9292 39.4785 54.5736 41.8934C54.1491 42.6489 53.8455 43.4831 53.69 44.3649C53.6095 44.8149 53.5674 45.2778 53.5674 45.7516V113.153C53.5674 117.514 57.1146 121.062 61.476 121.062H155.997C156.9 121.062 157.771 120.908 158.582 120.626C161.677 119.554 163.905 116.609 163.905 113.153V45.7516C163.905 45.2796 163.863 44.8149 163.783 44.3649ZM163.539 113.153C163.539 116.969 160.704 120.125 157.025 120.626C156.688 120.672 156.346 120.696 155.997 120.696H72.7104C62.3395 120.696 53.9333 112.288 53.9333 101.917V45.7516C53.9333 45.2778 53.9772 44.8149 54.0613 44.3649C54.226 43.4758 54.5461 42.6434 54.9943 41.8934C56.3097 39.6871 58.7209 38.2089 61.476 38.2089H155.997C158.752 38.2089 161.163 39.6871 162.478 41.8934C162.926 42.6434 163.247 43.4758 163.411 44.3649C163.495 44.8149 163.539 45.2778 163.539 45.7516V113.153Z" fill="white" fill-opacity="0.8"/>
<path d="M107.755 94.3062H95.3777C94.6224 94.3062 94.0078 93.6916 94.0078 92.9363V91.6984C94.0078 90.943 94.6224 90.3286 95.3777 90.3286H107.755C108.51 90.3286 109.125 90.943 109.125 91.6984V92.9363C109.125 93.6916 108.51 94.3062 107.755 94.3062Z" fill="#0084FF"/>
<path d="M155.32 53.8523H142.943C142.188 53.8523 141.573 53.2377 141.573 52.4824V51.2445C141.573 50.4891 142.188 49.8748 142.943 49.8748H155.32C156.076 49.8748 156.69 50.4891 156.69 51.2445V52.4824C156.69 53.2377 156.076 53.8523 155.32 53.8523Z" fill="#0084FF"/>
<path d="M126.118 94.3976H113.741C112.935 94.3976 112.279 93.7419 112.279 92.9362V91.6983C112.279 90.8925 112.935 90.2371 113.741 90.2371H126.118C126.924 90.2371 127.579 90.8925 127.579 91.6983V92.9362C127.579 93.7419 126.924 94.3976 126.118 94.3976ZM113.741 90.6029C113.137 90.6029 112.645 91.0942 112.645 91.6983V92.9362C112.645 93.5402 113.137 94.0317 113.741 94.0317H126.118C126.722 94.0317 127.213 93.5402 127.213 92.9362V91.6983C127.213 91.0942 126.722 90.6029 126.118 90.6029H113.741Z" fill="#0084FF"/>
<path d="M141.299 70.7981H76.1719C75.5666 70.7981 75.0742 70.3057 75.0742 69.7004C75.0742 69.0952 75.5666 68.6028 76.1719 68.6028H141.299C141.905 68.6028 142.397 69.0952 142.397 69.7004C142.397 70.3057 141.905 70.7981 141.299 70.7981Z" fill="#E6E6E6"/>
<path d="M72.0254 52.9613H63.793C63.1877 52.9613 62.6953 52.4689 62.6953 51.8636C62.6953 51.2584 63.1877 50.766 63.793 50.766H72.0254C72.6306 50.766 73.123 51.2584 73.123 51.8636C73.123 52.4689 72.6306 52.9613 72.0254 52.9613Z" fill="#E6E6E6"/>
<path d="M121.236 52.9613H113.004C112.399 52.9613 111.906 52.4689 111.906 51.8636C111.906 51.2584 112.399 50.766 113.004 50.766H121.236C121.842 50.766 122.334 51.2584 122.334 51.8636C122.334 52.4689 121.842 52.9613 121.236 52.9613Z" fill="#E6E6E6"/>
<path d="M136.786 52.9613H128.554C127.948 52.9613 127.456 52.4689 127.456 51.8636C127.456 51.2584 127.948 50.766 128.554 50.766H136.786C137.391 50.766 137.884 51.2584 137.884 51.8636C137.884 52.4689 137.391 52.9613 136.786 52.9613Z" fill="#E6E6E6"/>
<path d="M126.848 82.1405H90.625C90.0197 82.1405 89.5273 81.6481 89.5273 81.0428C89.5273 80.4376 90.0197 79.9452 90.625 79.9452H126.848C127.453 79.9452 127.945 80.4376 127.945 81.0428C127.945 81.6481 127.453 82.1405 126.848 82.1405Z" fill="#E6E6E6"/>
<path d="M128.425 106.153H89.0455C88.6795 106.153 88.3818 105.855 88.3818 105.489C88.3818 105.123 88.6796 104.825 89.0455 104.825H128.425C128.791 104.825 129.089 105.123 129.089 105.489C129.089 105.855 128.791 106.153 128.425 106.153Z" fill="#E6E6E6"/>
<g filter="url(#filter1_b_1976_914)">
<rect x="113.934" y="101.97" width="56.8023" height="53.7594" rx="9.11467" fill="url(#paint3_linear_1976_914)" fill-opacity="0.3"/>
</g>
<g clip-path="url(#clip1_1976_914)">
<path d="M3.9165 58.0009L20.4262 41.4912C24.0616 44.2064 28.4748 45.6783 33.0122 45.6888H33.0167L33.2572 45.691C38.6109 45.691 43.7453 43.5643 47.531 39.7786C51.3166 35.993 53.4434 30.8586 53.4434 25.5049L53.4411 25.251V25.2644C53.4411 19.773 51.2597 14.5066 47.3768 10.6237C43.4938 6.74074 38.2274 4.55933 32.7361 4.55933C27.2448 4.55933 21.9784 6.74074 18.0954 10.6237C14.2125 14.5066 12.0311 19.773 12.0311 25.2644C12.0886 29.8212 13.5712 34.2457 16.2709 37.9172L16.2286 37.8571L-0.281067 54.3668L3.9165 58.0009ZM32.7361 10.1531C36.7224 10.0242 40.5969 11.4831 43.5083 14.2091C46.4196 16.9352 48.1298 20.7055 48.2629 24.6917C48.3961 28.6779 46.9414 32.5539 44.2185 35.4682C41.4956 38.3825 37.7271 40.0967 33.741 40.2341C29.755 40.3716 25.8774 38.921 22.9602 36.2012C20.043 33.4814 18.3248 29.7148 18.183 25.7289C18.0413 21.743 19.4877 17.8639 22.2043 14.9437C24.921 12.0236 28.6858 10.3013 32.6715 10.1553L32.7361 10.1531Z" fill="url(#paint4_linear_1976_914)"/>
<path d="M53.3009 25.5049L53.2988 25.2644H53.2987C53.2987 19.8108 51.1323 14.5806 47.2761 10.7244C43.4198 6.86816 38.1896 4.70174 32.7361 4.70174C27.2826 4.70174 22.0524 6.86816 18.1961 10.7244C14.3401 14.5804 12.1737 19.8102 12.1735 25.2635C12.2298 29.7105 13.6522 34.0306 16.245 37.6393L16.2477 37.6366L16.3451 37.7751L16.3857 37.8328L16.3874 37.8352L16.2824 37.9108L16.3293 37.9578L-0.072155 54.3593L3.90952 57.8065L20.3255 41.3905L20.4127 41.3034L20.5114 41.3771C24.1223 44.074 28.5058 45.5359 33.0126 45.5464L33.0167 45.5464L33.018 45.5464L33.2572 45.5486C33.2573 45.5486 33.2575 45.5486 33.2577 45.5486C38.5734 45.5485 43.6714 43.4368 47.4303 39.6779C51.189 35.9192 53.3008 30.8212 53.3009 25.5055C53.3009 25.5053 53.3009 25.5051 53.3009 25.5049ZM32.7312 10.0108L32.7315 10.0108C36.7556 9.88066 40.6667 11.3533 43.6056 14.1052C46.5445 16.857 48.2708 20.663 48.4053 24.6869C48.5397 28.7108 47.0713 32.6235 44.3225 35.5654C41.5738 38.5073 37.7697 40.2377 33.746 40.3764C29.7222 40.5152 25.8079 39.0509 22.8631 36.3054C19.9183 33.5599 18.1838 29.7576 18.0407 25.734C17.8976 21.7104 19.3577 17.7945 22.1001 14.8467C24.8424 11.899 28.6428 10.1604 32.6663 10.013L32.6666 10.013L32.7312 10.0108Z" stroke="white" stroke-opacity="0.7" stroke-width="0.284833"/>
</g>
</g>
<g filter="url(#filter2_b_1976_914)">
<rect width="39.7347" height="39.7347" rx="19.8674" transform="matrix(1 0 0 -1 122.043 148.735)" fill="url(#paint5_linear_1976_914)"/>
</g>
<path d="M149.95 119.217L139.546 132.934L133.395 126.787L130.557 129.626L140.016 139.085L153.262 122.056L149.95 119.217Z" fill="white"/>
<defs>
<filter id="filter0_b_1976_914" x="14.0789" y="4.96418" width="190.594" height="154.705" filterUnits="userSpaceOnUse" color-interpolation-filters="sRGB">
<feFlood flood-opacity="0" result="BackgroundImageFix"/>
<feGaussianBlur in="BackgroundImageFix" stdDeviation="9.76571"/>
<feComposite in2="SourceAlpha" operator="in" result="effect1_backgroundBlur_1976_914"/>
<feBlend mode="normal" in="SourceGraphic" in2="effect1_backgroundBlur_1976_914" result="shape"/>
</filter>
<filter id="filter1_b_1976_914" x="111.655" y="99.6914" width="61.3601" height="58.3167" filterUnits="userSpaceOnUse" color-interpolation-filters="sRGB">
<feFlood flood-opacity="0" result="BackgroundImageFix"/>
<feGaussianBlur in="BackgroundImageFix" stdDeviation="1.13933"/>
<feComposite in2="SourceAlpha" operator="in" result="effect1_backgroundBlur_1976_914"/>
<feBlend mode="normal" in="SourceGraphic" in2="effect1_backgroundBlur_1976_914" result="shape"/>
</filter>
<filter id="filter2_b_1976_914" x="119.602" y="106.559" width="44.6172" height="44.6176" filterUnits="userSpaceOnUse" color-interpolation-filters="sRGB">
<feFlood flood-opacity="0" result="BackgroundImageFix"/>
<feGaussianBlur in="BackgroundImageFix" stdDeviation="1.22071"/>
<feComposite in2="SourceAlpha" operator="in" result="effect1_backgroundBlur_1976_914"/>
<feBlend mode="normal" in="SourceGraphic" in2="effect1_backgroundBlur_1976_914" result="shape"/>
</filter>
<linearGradient id="paint0_linear_1976_914" x1="195.103" y1="47.9968" x2="256.376" y2="12.9353" gradientUnits="userSpaceOnUse">
<stop stop-color="#3561F6"/>
<stop offset="1" stop-color="#0FD3FE"/>
</linearGradient>
<linearGradient id="paint1_linear_1976_914" x1="0" y1="115.642" x2="161.7" y2="20.6261" gradientUnits="userSpaceOnUse">
<stop stop-color="#0084FF" stop-opacity="0.4"/>
<stop offset="0.407091" stop-color="white" stop-opacity="0.726314"/>
<stop offset="1" stop-color="white" stop-opacity="0"/>
</linearGradient>
<linearGradient id="paint2_linear_1976_914" x1="189.216" y1="69.9847" x2="189.216" y2="99.4015" gradientUnits="userSpaceOnUse">
<stop stop-color="white" stop-opacity="0.12"/>
<stop offset="0.5" stop-color="white" stop-opacity="0.73"/>
<stop offset="1" stop-color="#353535" stop-opacity="0"/>
</linearGradient>
<linearGradient id="paint3_linear_1976_914" x1="112.063" y1="101.97" x2="165.099" y2="162.423" gradientUnits="userSpaceOnUse">
<stop stop-color="white"/>
<stop offset="1" stop-color="white" stop-opacity="0"/>
</linearGradient>
<linearGradient id="paint4_linear_1976_914" x1="26.568" y1="7.57198" x2="26.568" y2="63.1847" gradientUnits="userSpaceOnUse">
<stop stop-color="white" stop-opacity="0.12"/>
<stop offset="0.5" stop-color="white" stop-opacity="0.73"/>
<stop offset="1" stop-color="#353535" stop-opacity="0"/>
</linearGradient>
<linearGradient id="paint5_linear_1976_914" x1="38.6186" y1="37.4424" x2="7.70164" y2="-5.06075" gradientUnits="userSpaceOnUse">
<stop offset="0.00104141" stop-color="#0FD3FE"/>
<stop offset="0.730208" stop-color="#0E41ED"/>
</linearGradient>
<clipPath id="clip0_1976_914">
<rect width="214" height="159.507" fill="white"/>
</clipPath>
<clipPath id="clip1_1976_914">
<rect width="53.4438" height="53.4438" fill="white" transform="matrix(-1 0 0 1 53.4434 4.55713)"/>
</clipPath>
</defs>
</svg>
