<svg width="32" height="32" viewBox="0 0 32 32" fill="none" xmlns="http://www.w3.org/2000/svg">
<g clip-path="url(#clip0_269_1389)">
<path d="M16.936 2.92668L26.2693 6.42668C26.7777 6.61726 27.2159 6.95849 27.5251 7.40476C27.8344 7.85103 28.0001 8.38106 28 8.92402V16.0747C28 18.3033 27.3795 20.4878 26.2079 22.3836C25.0363 24.2793 23.3599 25.8114 21.3667 26.808L16.8947 29.0427C16.6169 29.1816 16.3106 29.254 16 29.254C15.6894 29.254 15.3831 29.1816 15.1053 29.0427L10.6333 26.8067C8.64005 25.81 6.96369 24.278 5.79209 22.3822C4.62049 20.4865 3.99995 18.3019 4 16.0734V8.92535C3.99966 8.38217 4.16521 7.85184 4.47449 7.40531C4.78377 6.95877 5.22204 6.61734 5.73067 6.42668L15.064 2.92668C15.6675 2.70046 16.3325 2.70046 16.936 2.92668ZM16 10.6667C15.6734 10.6667 15.3582 10.7866 15.1142 11.0036C14.8701 11.2207 14.7142 11.5197 14.676 11.844L14.6667 12V14.6667H12C11.6602 14.6671 11.3333 14.7972 11.0862 15.0305C10.8391 15.2638 10.6904 15.5826 10.6704 15.9219C10.6505 16.2611 10.7609 16.5952 10.979 16.8558C11.1971 17.1164 11.5065 17.2839 11.844 17.324L12 17.3334H14.6667V20C14.667 20.3399 14.7972 20.6667 15.0305 20.9138C15.2638 21.161 15.5826 21.3097 15.9219 21.3296C16.2611 21.3495 16.5952 21.2391 16.8558 21.021C17.1164 20.8029 17.2839 20.4935 17.324 20.156L17.3333 20V17.3334H20C20.3398 17.333 20.6667 17.2028 20.9138 16.9696C21.1609 16.7363 21.3096 16.4174 21.3296 16.0782C21.3495 15.7389 21.2391 15.4048 21.021 15.1442C20.8029 14.8836 20.4935 14.7162 20.156 14.676L20 14.6667H17.3333V12C17.3333 11.6464 17.1929 11.3073 16.9428 11.0572C16.6928 10.8072 16.3536 10.6667 16 10.6667Z" fill="white"/>
</g>
<defs>
<clipPath id="clip0_269_1389">
<rect width="32" height="32" fill="white"/>
</clipPath>
</defs>
</svg>
