<svg width="32" height="32" viewBox="0 0 32 32" fill="none" xmlns="http://www.w3.org/2000/svg">
<path d="M26.0021 9.33335C24.9037 7.68934 23.416 6.34222 21.6714 5.41176C19.9268 4.48131 17.9793 3.99636 16.0021 4.00002C14.0283 3.99881 12.0847 4.48499 10.344 5.41538C8.60322 6.34577 7.11911 7.69159 6.02344 9.33335" stroke="white" stroke-width="2" stroke-linecap="round" stroke-linejoin="round"/>
<path d="M15.3354 4C14.2963 5.66481 13.4779 7.4576 12.9008 9.33333M16.6688 4C17.7089 5.66467 18.5282 7.45746 19.1061 9.33333M26.0021 22.6667C24.9037 24.3107 23.416 25.6578 21.6714 26.5883C19.9268 27.5187 17.9793 28.0037 16.0021 28C14.0283 28.0012 12.0847 27.515 10.344 26.5846C8.60322 25.6542 7.11911 24.3084 6.02344 22.6667" stroke="white" stroke-width="2" stroke-linecap="round" stroke-linejoin="round"/>
<path d="M15.3346 28C14.2955 26.3352 13.4771 24.5424 12.9 22.6667M16.668 28C17.7081 26.3354 18.5274 24.5426 19.1053 22.6667M2.66797 13.3334L4.0013 18.6667L6.0013 13.3334L8.0013 18.6667L9.33464 13.3334M22.668 13.3334L24.0013 18.6667L26.0013 13.3334L28.0013 18.6667L29.3346 13.3334M12.668 13.3334L14.0013 18.6667L16.0013 13.3334L18.0013 18.6667L19.3346 13.3334" stroke="white" stroke-width="2" stroke-linecap="round" stroke-linejoin="round"/>
</svg>
