<svg width="350" height="280" viewBox="0 0 350 280" fill="none" xmlns="http://www.w3.org/2000/svg">
<g filter="url(#filter0_b_269_1486)">
<rect width="240.15" height="222.434" rx="14" transform="matrix(1 0 0 -1 68.8945 266.724)" fill="#6660A0" fill-opacity="0.2"/>
<rect x="0.267857" y="-0.267857" width="239.614" height="221.898" rx="13.7321" transform="matrix(1 0 0 -1 68.8945 266.188)" stroke="url(#paint0_linear_269_1486)" stroke-width="0.535714"/>
</g>
<path d="M93 138.731H84.57C83.22 136.374 81.36 134.311 79.11 132.838L84 128.154L79.77 124L73.26 130.393C70.4705 129.729 67.5595 129.729 64.77 130.393L58.23 124L54 128.154L58.86 132.838C56.61 134.311 54.78 136.403 53.43 138.731H45V144.623H51.27C51.09 145.595 51 146.567 51 147.569V150.515H45V156.408H51V159.354C51 160.355 51.09 161.328 51.27 162.3H45V168.192H53.43C54.6125 170.2 56.1864 171.958 58.0617 173.368C59.937 174.777 62.0769 175.81 64.359 176.406C66.641 177.003 69.0205 177.152 71.3611 176.844C73.7018 176.537 75.9578 175.779 78 174.615C80.73 173.083 83.01 170.844 84.57 168.192H93V162.3H86.73C86.91 161.328 87 160.355 87 159.354V156.408H93V150.515H87V147.569C87 146.567 86.91 145.595 86.73 144.623H93V138.731ZM81 159.354C81 162.479 79.7357 165.477 77.4853 167.687C75.2348 169.897 72.1826 171.138 69 171.138C65.8174 171.138 62.7652 169.897 60.5147 167.687C58.2643 165.477 57 162.479 57 159.354V147.569C57 144.444 58.2643 141.446 60.5147 139.236C62.7652 137.026 65.8174 135.785 69 135.785C72.1826 135.785 75.2348 137.026 77.4853 139.236C79.7357 141.446 81 144.444 81 147.569V159.354ZM75 144.623V150.515H63V144.623H75ZM63 156.408H75V162.3H63V156.408Z" fill="url(#paint1_linear_269_1486)"/>
<path d="M83.6409 128.152L78.9371 132.658L78.71 132.875L78.9731 133.048C81.1868 134.497 83.0206 136.529 84.3531 138.855L84.4251 138.981H84.57H92.75V144.373H86.73H86.4295L86.4842 144.669C86.6614 145.626 86.75 146.583 86.75 147.569V150.515V150.765H87H92.75V156.158H87H86.75V156.408V159.354C86.75 160.34 86.6614 161.297 86.4842 162.254L86.4295 162.55H86.73H92.75V167.942H84.57H84.427L84.3545 168.065C82.8171 170.679 80.5693 172.886 77.8777 174.397L77.8762 174.398C75.8622 175.546 73.6373 176.293 71.3286 176.596C69.0199 176.9 66.673 176.753 64.4222 176.165C62.1714 175.576 60.0611 174.558 58.2119 173.168C56.3627 171.778 54.8111 170.044 53.6454 168.065L53.5729 167.942H53.43H45.25V162.55H51.27H51.5705L51.5158 162.254C51.3386 161.297 51.25 160.34 51.25 159.354V156.408V156.158H51H45.25V150.765H51H51.25V150.515V147.569C51.25 146.583 51.3386 145.626 51.5158 144.669L51.5705 144.373H51.27H45.25V138.981H53.43H53.574L53.6463 138.856C54.9804 136.556 56.7851 134.496 58.9969 133.048L59.2591 132.876L59.0335 132.658L54.3585 128.152L58.2304 124.35L64.5952 130.572L64.6938 130.668L64.8279 130.636C67.5794 129.981 70.4506 129.981 73.2021 130.636L73.3365 130.668L73.4352 130.571L79.77 124.35L83.6409 128.152ZM77.6604 167.865C79.9583 165.608 81.25 162.547 81.25 159.354V147.569C81.25 144.376 79.9583 141.314 77.6604 139.058C75.3628 136.801 72.2475 135.535 69 135.535C65.7525 135.535 62.6372 136.801 60.3396 139.058C58.0417 141.314 56.75 144.376 56.75 147.569V159.354C56.75 162.547 58.0417 165.608 60.3396 167.865C62.6372 170.121 65.7525 171.388 69 171.388C72.2475 171.388 75.3628 170.121 77.6604 167.865ZM74.75 150.265H63.25V144.873H74.75V150.265ZM74.75 156.658V162.05H63.25V156.658H74.75Z" stroke="white" stroke-opacity="0.7" stroke-width="0.5"/>
<path d="M126.83 199.916H120.085C119.005 198.009 117.517 196.341 115.716 195.15L119.629 191.36L116.245 188L111.036 193.171C108.804 192.634 106.475 192.634 104.242 193.171L99.0096 188L95.625 191.36L99.5137 195.15C97.7134 196.341 96.2491 198.033 95.169 199.916H88.4238V204.682H93.4407C93.2966 205.469 93.2246 206.255 93.2246 207.065V209.449H88.4238V214.215H93.2246V216.598C93.2246 217.408 93.2966 218.195 93.4407 218.981H88.4238V223.748H95.169C96.1151 225.371 97.3745 226.794 98.875 227.934C100.375 229.074 102.088 229.91 103.914 230.392C105.74 230.875 107.643 230.995 109.516 230.746C111.389 230.498 113.194 229.885 114.828 228.943C117.013 227.704 118.837 225.892 120.085 223.748H126.83V218.981H121.813C121.957 218.195 122.029 217.408 122.029 216.598V214.215H126.83V209.449H122.029V207.065C122.029 206.255 121.957 205.469 121.813 204.682H126.83V199.916ZM117.229 216.598C117.229 219.126 116.217 221.551 114.416 223.339C112.616 225.126 110.174 226.131 107.627 226.131C105.081 226.131 102.638 225.126 100.838 223.339C99.037 221.551 98.0254 219.126 98.0254 216.598V207.065C98.0254 204.537 99.037 202.112 100.838 200.325C102.638 198.537 105.081 197.533 107.627 197.533C110.174 197.533 112.616 198.537 114.416 200.325C116.217 202.112 117.229 204.537 117.229 207.065V216.598ZM112.428 204.682V209.449H102.826V204.682H112.428ZM102.826 214.215H112.428V218.981H102.826V214.215Z" fill="url(#paint2_linear_269_1486)"/>
<path d="M119.272 191.358L115.543 194.97L115.319 195.186L115.578 195.358C117.342 196.526 118.805 198.163 119.868 200.039L119.939 200.166H120.085H126.58V204.432H121.813H121.514L121.568 204.727C121.709 205.499 121.779 206.27 121.779 207.065V209.449V209.699H122.029H126.58V213.965H122.029H121.779V214.215V216.598C121.779 217.393 121.709 218.165 121.568 218.936L121.514 219.231H121.813H126.58V223.498H120.085H119.941L119.869 223.622C118.643 225.728 116.851 227.508 114.705 228.725L114.703 228.726C113.098 229.652 111.324 230.254 109.483 230.499C107.643 230.743 105.772 230.625 103.977 230.15C102.183 229.676 100.501 228.855 99.0262 227.735C97.5518 226.615 96.3145 225.217 95.385 223.622L95.3126 223.498H95.169H88.6738V219.231H93.4407H93.7406L93.6866 218.936C93.5453 218.165 93.4746 217.393 93.4746 216.598V214.215V213.965H93.2246H88.6738V209.699H93.2246H93.4746V209.449V207.065C93.4746 206.27 93.5453 205.499 93.6866 204.727L93.7406 204.432H93.4407H88.6738V200.166H95.169H95.3138L95.3858 200.04C96.4503 198.185 97.8896 196.524 99.6517 195.358L99.9102 195.187L99.6882 194.97L95.9816 191.359L99.01 188.352L104.067 193.349L104.166 193.447L104.301 193.415C106.495 192.886 108.784 192.886 110.977 193.415L111.113 193.447L111.212 193.349L116.245 188.352L119.272 191.358ZM114.593 223.516C116.44 221.682 117.479 219.193 117.479 216.598V207.065C117.479 204.47 116.44 201.982 114.593 200.147C112.745 198.313 110.239 197.283 107.627 197.283C105.015 197.283 102.509 198.313 100.662 200.147C98.8138 201.982 97.7754 204.47 97.7754 207.065V216.598C97.7754 219.193 98.8138 221.682 100.662 223.516C102.509 225.35 105.015 226.381 107.627 226.381C110.239 226.381 112.745 225.35 114.593 223.516ZM112.178 209.199H103.076V204.932H112.178V209.199ZM112.178 214.465V218.731H103.076V214.465H112.178Z" stroke="white" stroke-opacity="0.7" stroke-width="0.5"/>
<path d="M228.911 232.395H162.273C152.58 232.395 144.695 224.51 144.695 214.817V40.7999C144.695 31.1072 152.58 23.2225 162.273 23.2225H228.911C238.604 23.2225 246.488 31.1072 246.488 40.7999V214.817C246.488 224.51 238.604 232.395 228.911 232.395Z" fill="white"/>
<path d="M228.96 227.636H162.225C155.051 227.636 149.213 221.798 149.213 214.624V40.6515C149.213 33.4777 155.051 27.6393 162.225 27.6393H228.96C236.133 27.6393 241.972 33.4777 241.972 40.6515V214.624C241.972 221.798 236.133 227.636 228.96 227.636Z" fill="#151545" fill-opacity="0.89"/>
<path d="M205.029 39.2195H186.157C183.666 39.2195 181.641 37.194 181.641 34.7026C181.641 32.2113 183.666 30.1858 186.157 30.1858H205.029C207.52 30.1858 209.546 32.2113 209.546 34.7026C209.546 37.194 207.52 39.2195 205.029 39.2195Z" fill="white"/>
<path d="M227.134 163.03H164.054C161.199 163.03 158.885 165.343 158.885 168.197C158.885 171.051 161.199 173.364 164.054 173.364H227.134C229.989 173.364 232.303 171.051 232.303 168.197C232.303 165.343 229.989 163.03 227.134 163.03Z" fill="#00A3FF"/>
<path d="M182.183 153.946H161.311C160.813 153.946 160.41 154.349 160.41 154.847C160.41 155.344 160.813 155.747 161.311 155.747H182.183C182.681 155.747 183.084 155.344 183.084 154.847C183.084 154.349 182.681 153.946 182.183 153.946Z" fill="#00A3FF"/>
<path d="M227.134 127.838H164.054C161.199 127.838 158.885 130.151 158.885 133.005C158.885 135.859 161.199 138.173 164.054 138.173H227.134C229.989 138.173 232.303 135.859 232.303 133.005C232.303 130.151 229.989 127.838 227.134 127.838Z" fill="white"/>
<path d="M182.183 119.246H161.311C160.813 119.246 160.41 119.649 160.41 120.147C160.41 120.644 160.813 121.047 161.311 121.047H182.183C182.681 121.047 183.084 120.644 183.084 120.147C183.084 119.649 182.681 119.246 182.183 119.246Z" fill="white"/>
<path d="M227.134 92.8523H164.054C161.199 92.8523 158.885 95.1658 158.885 98.0196C158.885 100.873 161.199 103.187 164.054 103.187H227.134C229.989 103.187 232.303 100.873 232.303 98.0196C232.303 95.1658 229.989 92.8523 227.134 92.8523Z" fill="white"/>
<path d="M182.183 84.2637H161.311C160.813 84.2637 160.41 84.6669 160.41 85.1643C160.41 85.6617 160.813 86.0649 161.311 86.0649H182.183C182.681 86.0649 183.084 85.6617 183.084 85.1643C183.084 84.6669 182.681 84.2637 182.183 84.2637Z" fill="white"/>
<g filter="url(#filter1_b_269_1486)">
<rect width="160.771" height="108.967" rx="16" fill="url(#paint3_linear_269_1486)" fill-opacity="0.12"/>
</g>
<rect opacity="0.2" x="21.4376" y="25.902" width="117.899" height="58.0563" rx="4" fill="url(#paint4_linear_269_1486)"/>
<path d="M110.573 41.1035C112.474 41.1035 114.266 41.5665 115.842 42.3882L116.708 41.5222C116.84 41.3857 116.998 41.2769 117.172 41.202C117.347 41.1271 117.534 41.0876 117.724 41.086C117.914 41.0843 118.102 41.1205 118.277 41.1924C118.453 41.2642 118.613 41.3703 118.747 41.5045C118.881 41.6387 118.987 41.7982 119.059 41.9739C119.131 42.1495 119.167 42.3377 119.165 42.5274C119.164 42.7172 119.124 42.9047 119.049 43.0791C118.974 43.2534 118.865 43.4111 118.729 43.5429L118.229 44.0431C119.419 45.1142 120.371 46.424 121.022 47.8873C121.673 49.3507 122.008 50.9346 122.006 52.5361V63.9687C122.006 65.1058 121.554 66.1963 120.75 67.0003C119.946 67.8043 118.856 68.256 117.719 68.256H103.428C102.291 68.256 101.2 67.8043 100.396 67.0003C99.5923 66.1963 99.1406 65.1058 99.1406 63.9687V52.5361C99.1389 50.9348 99.4745 49.351 100.126 47.8879C100.777 46.4249 101.728 45.1153 102.919 44.0445L102.418 43.5444C102.149 43.2764 101.999 42.9129 101.998 42.5338C101.998 42.1547 102.149 41.7911 102.417 41.5229C102.685 41.2548 103.048 41.1041 103.427 41.1039C103.806 41.1038 104.17 41.2543 104.438 41.5222L105.304 42.3882C106.931 41.5418 108.739 41.101 110.573 41.1035ZM119.148 56.8234H101.999V63.9687C101.999 64.3478 102.149 64.7113 102.417 64.9793C102.685 65.2473 103.049 65.3978 103.428 65.3978H117.719C118.098 65.3978 118.461 65.2473 118.729 64.9793C118.997 64.7113 119.148 64.3478 119.148 63.9687V56.8234ZM110.573 43.9617C108.355 43.9616 106.223 44.8213 104.625 46.3603C103.027 47.8993 102.088 49.9977 102.005 52.2146L101.999 52.5361V53.9652H119.148V52.5361C119.148 50.262 118.244 48.0811 116.636 46.4731C115.028 44.865 112.847 43.9617 110.573 43.9617ZM106.286 48.2489C106.665 48.2489 107.029 48.3995 107.297 48.6675C107.565 48.9355 107.715 49.299 107.715 49.678C107.715 50.057 107.565 50.4205 107.297 50.6885C107.029 50.9565 106.665 51.107 106.286 51.107C105.907 51.107 105.544 50.9565 105.276 50.6885C105.008 50.4205 104.857 50.057 104.857 49.678C104.857 49.299 105.008 48.9355 105.276 48.6675C105.544 48.3995 105.907 48.2489 106.286 48.2489ZM114.86 48.2489C115.24 48.2489 115.603 48.3995 115.871 48.6675C116.139 48.9355 116.29 49.299 116.29 49.678C116.29 50.057 116.139 50.4205 115.871 50.6885C115.603 50.9565 115.24 51.107 114.86 51.107C114.481 51.107 114.118 50.9565 113.85 50.6885C113.582 50.4205 113.431 50.057 113.431 49.678C113.431 49.299 113.582 48.9355 113.85 48.6675C114.118 48.3995 114.481 48.2489 114.86 48.2489Z" fill="white"/>
<g filter="url(#filter2_b_269_1486)">
<rect x="225.973" y="175.062" width="110.878" height="104.938" rx="16" fill="url(#paint5_linear_269_1486)" fill-opacity="0.3"/>
</g>
<g filter="url(#filter3_b_269_1486)">
<rect width="77.7535" height="77.7535" rx="38.8767" transform="matrix(1 0 0 -1 244.086 266.724)" fill="url(#paint6_linear_269_1486)"/>
</g>
<path d="M264.756 226.34C264.756 240.094 282.619 247.954 282.619 247.954C282.619 247.954 300.483 240.094 300.483 226.34V214.55L282.619 208.655L264.756 214.55V226.34Z" stroke="white" stroke-width="6"/>
<path d="M343.169 96.4538L318.67 72.1294C313.276 76.1297 306.727 78.2983 299.994 78.3138H299.987L299.63 78.3171C291.686 78.3171 284.067 75.1837 278.449 69.6061C272.832 64.0286 269.676 56.4638 269.676 48.576L269.679 48.2019V48.2216C269.679 40.1311 272.916 32.3718 278.678 26.6509C284.44 20.93 292.255 17.7161 300.403 17.7161C308.552 17.7161 316.367 20.93 322.129 26.6509C327.891 32.3718 331.128 40.1311 331.128 48.2216C331.042 54.9354 328.842 61.4543 324.836 66.8636L324.899 66.775L349.398 91.0994L343.169 96.4538ZM300.403 25.9576C294.488 25.7677 288.739 27.9171 284.419 31.9335C280.098 35.9499 277.561 41.5049 277.363 47.3779C277.165 53.2509 279.324 58.9616 283.365 63.2553C287.405 67.5491 292.997 70.0747 298.912 70.2772C304.827 70.4797 310.581 68.3426 314.91 64.3354C319.239 60.3282 321.788 54.7787 321.999 48.9061C322.209 43.0335 320.063 37.3182 316.032 33.0158C312 28.7135 306.414 26.176 300.499 25.9609L300.403 25.9576Z" fill="url(#paint7_linear_269_1486)"/>
<path d="M269.926 48.576L269.929 48.2216H269.929C269.929 40.1979 273.139 32.5025 278.854 26.8283C284.569 21.1541 292.321 17.9661 300.403 17.9661C308.486 17.9661 316.238 21.1541 321.953 26.8283C327.667 32.5021 330.877 40.1969 330.878 48.22C330.794 54.7484 328.696 61.0911 324.87 66.3938L324.866 66.3896L324.695 66.6304L324.635 66.7148L324.632 66.719L324.82 66.8548L324.723 66.9524L349.03 91.0862L343.181 96.1136L318.846 71.952L318.694 71.8006L318.521 71.9286C313.17 75.897 306.673 78.0484 299.993 78.0638L299.987 78.0638L299.985 78.0638L299.63 78.0671C299.63 78.0671 299.629 78.0671 299.629 78.0671C291.751 78.0668 284.196 74.9593 278.625 69.4287C273.055 63.8982 269.926 56.3976 269.926 48.5771C269.926 48.5767 269.926 48.5763 269.926 48.576ZM300.412 25.7078L300.411 25.7077C294.43 25.5157 288.617 27.6889 284.248 31.7504C279.88 35.8119 277.313 41.4297 277.113 47.3695C276.913 53.3093 279.097 59.0846 283.183 63.4267C287.269 67.7687 292.923 70.3223 298.904 70.527C304.884 70.7318 310.702 68.571 315.08 64.5188C319.457 60.4666 322.036 54.8544 322.249 48.915C322.461 42.9756 320.291 37.1957 316.214 32.8449C312.137 28.4942 306.488 25.9286 300.508 25.7111L300.508 25.711L300.412 25.7078Z" stroke="white" stroke-opacity="0.7" stroke-width="0.5"/>
<path d="M65.9434 40.353H44.2906C42.6607 40.353 41.3379 41.6758 41.3379 43.3057V64.9586C41.3379 66.5884 42.6607 67.9112 44.2906 67.9112H65.9434C67.5733 67.9112 68.8961 66.5884 68.8961 64.9586V43.3057C68.8961 41.6758 67.5733 40.353 65.9434 40.353ZM49.1506 62.0364C48.9875 62.3186 48.7189 62.5244 48.404 62.6086C48.0892 62.6927 47.7537 62.6484 47.4716 62.4852C47.1894 62.3221 46.9836 62.0535 46.8994 61.7386C46.8152 61.4237 46.8596 61.0883 47.0228 60.8061L47.9026 59.2865C48.8928 58.9853 49.7048 59.2186 50.3386 59.9873L49.1506 62.0364ZM57.6947 58.7215H46.5051C45.8279 58.7215 45.2748 58.1674 45.2748 57.4913C45.2748 56.8151 45.8289 56.261 46.5051 56.261H49.6427L53.6653 49.2976L52.4045 47.1205C52.2422 46.8382 52.1983 46.503 52.2824 46.1884C52.3665 45.8738 52.5718 45.6052 52.8533 45.4415C53.1357 45.2792 53.4708 45.2353 53.7854 45.3194C54.1001 45.4035 54.3686 45.6087 54.5324 45.8903L55.0796 46.8371L55.6268 45.8903C55.7076 45.7505 55.8151 45.6281 55.9432 45.5299C56.0713 45.4318 56.2175 45.3598 56.3734 45.3181C56.5293 45.2764 56.6919 45.2659 56.8519 45.287C57.0119 45.3082 57.1662 45.3607 57.3059 45.4415C57.4456 45.5222 57.5681 45.6297 57.6662 45.7578C57.7644 45.8859 57.8364 46.0321 57.878 46.188C57.9197 46.344 57.9303 46.5066 57.9091 46.6666C57.888 46.8266 57.8355 46.9808 57.7547 47.1205L52.4773 56.262H56.2971C57.5392 56.262 58.235 57.7196 57.6937 58.7225L57.6947 58.7215ZM63.7289 58.7215H61.9445L63.1502 60.8071C63.4888 61.3976 63.285 62.1486 62.7014 62.4862C62.1109 62.8248 61.3599 62.621 61.0223 62.0374C58.9988 58.5375 57.485 55.9047 56.4703 54.1577C55.4428 52.3733 56.175 50.5899 56.9073 49.9876C57.7134 51.3842 58.919 53.4756 60.5302 56.262H63.7289C64.0552 56.262 64.3681 56.3916 64.5989 56.6223C64.8296 56.853 64.9592 57.166 64.9592 57.4923C64.9592 57.8185 64.8296 58.1315 64.5989 58.3622C64.3681 58.5929 64.0552 58.7215 63.7289 58.7215Z" fill="white"/>
<defs>
<filter id="filter0_b_269_1486" x="34.6088" y="10.0043" width="308.721" height="291.006" filterUnits="userSpaceOnUse" color-interpolation-filters="sRGB">
<feFlood flood-opacity="0" result="BackgroundImageFix"/>
<feGaussianBlur in="BackgroundImageFix" stdDeviation="17.1429"/>
<feComposite in2="SourceAlpha" operator="in" result="effect1_backgroundBlur_269_1486"/>
<feBlend mode="normal" in="SourceGraphic" in2="effect1_backgroundBlur_269_1486" result="shape"/>
</filter>
<filter id="filter1_b_269_1486" x="-4" y="-4" width="168.771" height="116.967" filterUnits="userSpaceOnUse" color-interpolation-filters="sRGB">
<feFlood flood-opacity="0" result="BackgroundImageFix"/>
<feGaussianBlur in="BackgroundImageFix" stdDeviation="2"/>
<feComposite in2="SourceAlpha" operator="in" result="effect1_backgroundBlur_269_1486"/>
<feBlend mode="normal" in="SourceGraphic" in2="effect1_backgroundBlur_269_1486" result="shape"/>
</filter>
<filter id="filter2_b_269_1486" x="221.973" y="171.062" width="118.878" height="112.938" filterUnits="userSpaceOnUse" color-interpolation-filters="sRGB">
<feFlood flood-opacity="0" result="BackgroundImageFix"/>
<feGaussianBlur in="BackgroundImageFix" stdDeviation="2"/>
<feComposite in2="SourceAlpha" operator="in" result="effect1_backgroundBlur_269_1486"/>
<feBlend mode="normal" in="SourceGraphic" in2="effect1_backgroundBlur_269_1486" result="shape"/>
</filter>
<filter id="filter3_b_269_1486" x="239.8" y="184.685" width="86.3249" height="86.3248" filterUnits="userSpaceOnUse" color-interpolation-filters="sRGB">
<feFlood flood-opacity="0" result="BackgroundImageFix"/>
<feGaussianBlur in="BackgroundImageFix" stdDeviation="2.14286"/>
<feComposite in2="SourceAlpha" operator="in" result="effect1_backgroundBlur_269_1486"/>
<feBlend mode="normal" in="SourceGraphic" in2="effect1_backgroundBlur_269_1486" result="shape"/>
</filter>
<linearGradient id="paint0_linear_269_1486" x1="0" y1="222.434" x2="279.285" y2="87.2175" gradientUnits="userSpaceOnUse">
<stop stop-color="#0084FF" stop-opacity="0.4"/>
<stop offset="0.407091" stop-color="white" stop-opacity="0.726314"/>
<stop offset="1" stop-color="white" stop-opacity="0"/>
</linearGradient>
<linearGradient id="paint1_linear_269_1486" x1="69.0117" y1="126.988" x2="69.0117" y2="182.141" gradientUnits="userSpaceOnUse">
<stop stop-color="white" stop-opacity="0.12"/>
<stop offset="0.5" stop-color="white" stop-opacity="0.73"/>
<stop offset="1" stop-color="#353535" stop-opacity="0"/>
</linearGradient>
<linearGradient id="paint2_linear_269_1486" x1="107.636" y1="190.417" x2="107.636" y2="235.031" gradientUnits="userSpaceOnUse">
<stop stop-color="white" stop-opacity="0.12"/>
<stop offset="0.5" stop-color="white" stop-opacity="0.73"/>
<stop offset="1" stop-color="#353535" stop-opacity="0"/>
</linearGradient>
<linearGradient id="paint3_linear_269_1486" x1="-5.29567" y1="1.19995e-07" x2="92.3872" y2="155.475" gradientUnits="userSpaceOnUse">
<stop stop-color="white"/>
<stop offset="1" stop-color="white" stop-opacity="0"/>
</linearGradient>
<linearGradient id="paint4_linear_269_1486" x1="23.1267" y1="25.902" x2="145.697" y2="60.8299" gradientUnits="userSpaceOnUse">
<stop stop-color="#FA00FF"/>
<stop offset="1" stop-color="#0084FF"/>
</linearGradient>
<linearGradient id="paint5_linear_269_1486" x1="222.32" y1="175.062" x2="325.847" y2="293.066" gradientUnits="userSpaceOnUse">
<stop stop-color="white"/>
<stop offset="1" stop-color="white" stop-opacity="0"/>
</linearGradient>
<linearGradient id="paint6_linear_269_1486" x1="75.5694" y1="73.2677" x2="15.0706" y2="-9.90294" gradientUnits="userSpaceOnUse">
<stop offset="0.00104141" stop-color="#0FD3FE"/>
<stop offset="0.730208" stop-color="#0E41ED"/>
</linearGradient>
<linearGradient id="paint7_linear_269_1486" x1="309.556" y1="22.1547" x2="309.556" y2="104.091" gradientUnits="userSpaceOnUse">
<stop stop-color="white" stop-opacity="0.12"/>
<stop offset="0.5" stop-color="white" stop-opacity="0.73"/>
<stop offset="1" stop-color="#353535" stop-opacity="0"/>
</linearGradient>
</defs>
</svg>
