<svg width="32" height="32" viewBox="0 0 32 32" fill="none" xmlns="http://www.w3.org/2000/svg">
<g clip-path="url(#clip0_269_1368)">
<path d="M16.0007 12C14.9398 12 13.9224 12.4214 13.1722 13.1716C12.4221 13.9217 12.0007 14.9391 12.0007 16C12.0007 17.0609 12.4221 18.0783 13.1722 18.8284C13.9224 19.5786 14.9398 20 16.0007 20C17.0615 20 18.0789 19.5786 18.8291 18.8284C19.5792 18.0783 20.0007 17.0609 20.0007 16C20.0007 14.9391 19.5792 13.9217 18.8291 13.1716C18.0789 12.4214 17.0615 12 16.0007 12ZM16.0007 22.6667C14.2325 22.6667 12.5368 21.9643 11.2866 20.714C10.0364 19.4638 9.33398 17.7681 9.33398 16C9.33398 14.2319 10.0364 12.5362 11.2866 11.286C12.5368 10.0357 14.2325 9.33333 16.0007 9.33333C17.7688 9.33333 19.4645 10.0357 20.7147 11.286C21.9649 12.5362 22.6673 14.2319 22.6673 16C22.6673 17.7681 21.9649 19.4638 20.7147 20.714C19.4645 21.9643 17.7688 22.6667 16.0007 22.6667ZM16.0007 6C9.33398 6 3.64065 10.1467 1.33398 16C3.64065 21.8533 9.33398 26 16.0007 26C22.6673 26 28.3607 21.8533 30.6673 16C28.3607 10.1467 22.6673 6 16.0007 6Z" fill="white"/>
</g>
<defs>
<clipPath id="clip0_269_1368">
<rect width="32" height="32" fill="white"/>
</clipPath>
</defs>
</svg>
