<svg width="1440" height="663" viewBox="0 0 1440 663" fill="none" xmlns="http://www.w3.org/2000/svg">
<path d="M-1.99805 662.694C89.324 612.324 207.187 488.813 327.809 362.392C371.155 316.966 414.854 271.163 457.813 228.248C628.557 57.6664 787.49 -67.2759 865.392 58.1651C1164.7 540.117 1340.17 660.311 1442.19 646.664V646.947C1340.08 660.565 1164.53 540.309 865.213 58.343C787.432 -66.8997 628.6 57.9901 457.954 228.476C415.007 271.385 371.303 317.188 327.957 362.617C207.291 489.082 89.3876 612.639 -1.99805 663V662.694Z" fill="#3561F6"/>
<path d="M-1.99805 644.106C88.004 595.655 203.314 478.174 321.515 357.737C536.088 139.107 760.18 -89.2234 859.916 67.9913C1164.29 555.566 1340.62 658.503 1442.19 631.503V631.862C1340.53 658.82 1164.13 555.779 859.737 68.1721C760.146 -88.8151 536.143 139.419 321.657 357.962C203.415 478.442 88.0647 595.964 -1.99805 644.409V644.106Z" fill="#3561F6"/>
<path d="M-1.99805 625.562C86.6782 579.048 199.455 467.49 315.259 352.925C528.743 141.718 752.46 -79.6132 854.44 77.8115V77.8145C1163.72 570.598 1340.98 655.005 1442.19 614.867V615.217C1340.9 655.32 1163.56 570.808 854.261 77.9953C752.422 -79.2078 528.795 142.033 315.398 353.152C199.556 467.758 86.736 579.357 -1.99805 625.865V625.562Z" fill="#3561F6"/>
<path d="M-1.99805 607.109C85.338 562.549 195.625 456.757 309.035 347.961C521.412 144.226 744.727 -70 848.963 87.6347V87.6376C1163.09 585.357 1341.25 649.543 1442.19 596.521V596.874C1341.17 649.858 1162.93 585.552 848.787 87.8185C744.693 -69.6063 521.464 144.535 309.173 348.188C195.721 457.028 85.3958 562.855 -1.99805 607.412V607.109Z" fill="#3561F6"/>
<path d="M-1.99805 588.705C83.9892 546.116 191.807 445.986 302.848 342.848C514.101 146.635 736.984 -60.3838 843.487 97.458L843.49 97.4609C1162.28 599.63 1341.4 642.143 1442.19 576.796V577.123C1341.31 642.429 1162.08 599.788 843.314 97.6475C736.949 -59.9901 514.153 146.947 302.984 343.084C191.902 446.257 84.044 546.422 -1.99805 589.011V588.705Z" fill="#3561F6"/>
<path d="M-1.99805 570.38C82.6316 529.774 188.009 435.174 296.69 337.592C506.805 148.942 729.228 -50.7649 838.011 107.281L838.013 107.284C1161.26 613.394 1341.41 632.641 1442.19 555.691V556.033C1341.31 632.941 1161.06 613.537 837.837 107.471C729.191 -50.377 506.854 149.251 296.82 337.831C188.101 435.445 82.6865 530.081 -1.99805 570.683V570.38Z" fill="#3561F6"/>
<path d="M-1.99805 552.145C81.2625 513.535 184.231 424.321 290.564 332.194C499.524 151.147 721.464 -41.1458 832.534 117.104L832.537 117.11C1160.03 626.618 1341.26 620.983 1442.19 533.374V533.724C1341.16 621.298 1159.82 626.764 832.364 117.3C721.427 -40.7637 499.57 151.456 290.691 332.433C184.32 424.595 81.3145 513.838 -1.99805 552.445V552.145Z" fill="#3561F6"/>
<path d="M-1.99805 533.957C79.8848 497.353 180.461 413.439 284.463 326.649C492.254 153.25 713.683 -31.5269 827.058 126.927L827.061 126.933C1158.48 639.157 1340.93 607.185 1442.19 510.128V510.493C1340.82 607.523 1158.27 639.291 826.89 127.123C713.648 -31.1477 492.303 153.559 284.59 326.891C180.548 413.71 79.9339 497.657 -1.99805 534.257V533.957Z" fill="#3561F6"/>
<path d="M-1.99805 515.871C78.4926 481.283 176.709 402.516 278.392 320.965C485.001 155.257 705.893 -21.9049 821.581 136.754L821.587 136.759C1156.61 650.981 1340.39 591.21 1442.19 486.127V486.5C1340.29 591.569 1156.4 651.115 821.411 136.94C705.85 -21.5316 485.041 155.563 278.513 321.207C176.796 402.79 78.5417 481.586 -1.99805 516.171V515.871Z" fill="#3561F6"/>
<path d="M-1.99805 497.855C77.0917 465.288 172.969 391.565 272.344 315.14C477.754 157.164 698.089 -12.2858 816.105 146.574L816.111 146.58C1149.63 654.819 1334.47 575.469 1437.88 466.297C1439.33 464.76 1440.77 463.22 1442.19 461.674V462.056C1440.82 463.55 1439.43 465.037 1438.02 466.522C1334.54 575.77 1149.59 655.201 815.938 146.775C698.045 -11.9154 477.794 157.47 272.459 315.388C173.05 391.839 77.1408 465.591 -1.99805 498.155V497.855Z" fill="#3561F6"/>
<path d="M-1.99805 479.926C75.6822 449.386 169.237 380.583 266.316 309.175C470.521 158.969 690.27 -2.66699 810.629 156.4L810.634 156.406C1151.63 672.108 1338.65 552.923 1442.19 436.959V437.349C1338.56 553.341 1151.44 672.278 810.461 156.595C690.224 -2.29948 470.559 159.279 266.428 309.426C169.318 380.857 75.7255 449.687 -1.99805 480.224V479.926Z" fill="#3561F6"/>
<path d="M-1.99805 462.091C74.2553 433.581 165.517 369.567 260.308 303.071C463.292 160.676 682.436 6.9464 805.152 166.22L805.158 166.226C1148.47 681.322 1337.43 530.74 1442.19 412.284V412.672C1337.34 531.174 1148.28 681.497 804.985 166.422C682.39 7.31097 463.326 160.985 260.417 303.328C165.595 369.844 74.3015 433.882 -1.99805 462.392V462.091Z" fill="#3561F6"/>
<path d="M-1.99805 444.335C72.8198 417.858 161.802 358.531 254.314 296.835C456.071 162.289 674.589 16.5625 799.676 176.046L799.682 176.055C1144.81 689.582 1335.97 506.657 1442.19 387.878V388.263C1335.88 507.115 1144.63 689.751 799.511 176.245C674.54 16.9183 456.103 162.592 254.421 297.089C161.874 358.808 72.8631 418.155 -1.99805 444.632V444.335Z" fill="#3561F6"/>
<path d="M-1.99805 426.689C71.3698 402.239 158.094 347.459 248.335 290.457C448.85 163.797 666.724 26.1727 794.2 185.867L794.205 185.875C1138.18 693.216 1331.55 483.805 1439.91 366.449L1442.19 363.979V364.358L1440.06 366.668C1331.63 484.091 1138.15 693.621 794.035 186.068C666.674 26.5227 448.879 164.097 248.436 290.713C158.166 347.739 71.4102 402.54 -1.99805 426.987V426.689Z" fill="#3561F6"/>
<path d="M-1.99805 409.117C69.9083 386.697 154.385 336.37 242.368 283.944C441.635 165.205 658.841 35.7771 788.723 195.693L788.729 195.701C1119.03 678.411 1312.92 475.779 1425.59 358.026C1431.33 352.024 1436.87 346.246 1442.19 340.786V341.159C1436.91 346.575 1431.43 352.304 1425.74 358.251C1313 476.071 1119.01 678.814 788.561 195.9C658.792 36.1271 441.661 165.509 242.463 284.206C154.451 336.65 69.9487 386.994 -1.99805 409.414V409.117Z" fill="#3561F6"/>
<path d="M-1.99805 391.666C68.4323 371.265 150.682 325.252 236.403 277.294C434.414 166.518 650.939 45.3786 783.247 205.516L783.25 205.519L783.256 205.525C1100.41 664.54 1294.38 467.752 1410.99 349.454C1422.08 338.205 1432.47 327.667 1442.2 318.468V318.827C1432.51 327.994 1422.17 338.485 1411.14 349.679C1294.47 468.041 1100.39 664.934 783.091 205.723C650.892 45.7228 434.44 166.818 236.496 277.559C150.746 325.532 68.467 371.559 -1.99805 391.961V391.666Z" fill="#3561F6"/>
<path d="M-1.99805 374.301C66.939 355.912 146.97 314.113 230.445 270.504C427.19 167.722 643.022 54.9714 777.773 215.336L777.776 215.339L777.782 215.348C1082.27 651.526 1275.93 459.787 1396.12 340.795C1412.87 324.211 1428.19 309.041 1442.2 297.177V297.524C1428.24 309.368 1412.96 324.491 1396.26 341.022C1276.01 460.079 1082.24 651.917 777.617 215.546C642.975 55.3097 427.216 168.023 230.534 270.772C147.031 314.393 66.9737 356.206 -1.99805 374.595V374.301Z" fill="#3561F6"/>
<path d="M-1.99805 357.055C65.4284 340.666 143.259 302.946 224.48 263.577C419.957 168.828 635.078 64.5555 772.294 225.162L772.297 225.165L772.303 225.174C1064.55 639.305 1257.56 451.936 1380.99 332.106C1403.68 310.083 1424.02 290.34 1442.19 277.023V277.355C1424.06 290.661 1403.76 310.363 1381.13 332.337C1257.63 452.23 1064.53 639.696 772.138 225.378C635.026 64.8968 419.975 169.134 224.561 263.854C143.314 303.232 65.4602 340.961 -1.99805 357.35V357.055Z" fill="#3561F6"/>
<path d="M-1.99805 339.911C63.9033 325.509 139.533 291.761 218.51 256.51C412.713 169.828 627.115 74.1309 766.818 234.986L766.821 234.988L766.826 234.997C1047.24 627.817 1239.26 444.23 1365.62 323.423C1394.47 295.835 1419.9 271.522 1442.19 258.082V258.403C1419.95 271.843 1394.56 296.118 1365.75 323.657C1239.33 444.524 1047.21 628.205 766.662 235.201C627.06 74.4633 412.725 170.132 218.582 256.787C139.585 292.043 63.9322 325.803 -1.99805 340.206V339.911Z" fill="#3561F6"/>
<path d="M-1.99805 322.89C62.3552 310.459 135.798 280.549 212.522 249.297C405.449 170.718 619.123 83.6915 761.341 244.806L761.344 244.809L761.347 244.815C1030.29 617.005 1221.02 436.708 1350 314.793C1385.22 281.503 1415.83 252.567 1442.19 240.399V240.708C1415.88 252.879 1385.31 281.78 1350.14 315.026C1221.1 437.003 1030.26 617.39 761.185 245.016C619.065 84.0153 405.461 171.015 212.592 249.572C135.844 280.835 62.384 310.751 -1.99805 323.184V322.89Z" fill="#3561F6"/>
<path d="M-1.99805 305.979C60.7868 295.497 132.04 269.314 206.517 241.942C398.167 171.502 611.108 93.2376 755.868 254.629L755.871 254.632L755.877 254.638C1013.69 606.84 1202.87 429.408 1334.15 306.268C1375.9 267.118 1411.79 233.454 1442.2 224.019V224.316C1411.85 233.758 1375.99 267.389 1334.29 306.501C1202.93 429.702 1013.66 607.225 755.715 254.845C611.047 93.5613 398.176 171.8 206.581 242.219C132.087 269.6 60.8128 295.788 -1.99805 306.271V305.979Z" fill="#3561F6"/>
<path d="M-1.99805 289.203C59.1953 280.645 128.265 258.056 200.478 234.437C390.854 172.173 603.055 102.769 750.389 264.455L750.394 264.461L750.397 264.464C997.4 597.283 1184.76 422.352 1318.07 297.88C1366.47 252.692 1407.74 214.158 1442.19 208.94V209.232C1407.81 214.455 1366.56 252.961 1318.21 298.113C1184.83 422.647 997.377 597.665 750.235 264.668C602.991 103.087 390.854 172.471 200.535 234.717C128.306 258.342 59.2184 280.934 -1.99805 289.491L-1.99805 289.203Z" fill="#3561F6"/>
<path d="M-1.99805 272.54C57.5749 265.878 124.455 246.769 194.401 226.778C383.503 172.724 594.97 112.28 744.915 274.281L744.921 274.287L744.924 274.293C981.419 588.299 1166.71 415.568 1301.76 289.666C1354.8 240.227 1400.09 198.003 1437.73 195.276C1439.23 195.168 1440.72 195.144 1442.19 195.162V195.451C1440.72 195.43 1439.24 195.454 1437.74 195.561C1400.17 198.283 1354.9 240.483 1301.9 289.897C1166.78 415.86 981.39 588.676 744.759 274.494C594.901 112.592 383.497 173.019 194.447 227.058C124.49 247.054 57.5951 266.17 -1.99805 272.829V272.54Z" fill="#3561F6"/>
<path d="M-1.99805 256.02C55.9256 251.222 120.611 235.449 188.269 218.953C376.106 173.15 586.843 121.762 739.439 284.104L739.442 284.107L739.447 284.113C965.715 579.85 1148.71 409.067 1285.23 281.657C1340.92 229.677 1388.89 184.913 1428.93 181.95C1433.45 181.614 1437.88 181.824 1442.2 182.606V182.9C1437.88 182.116 1433.47 181.903 1428.95 182.238C1388.97 185.196 1341.03 229.937 1285.37 281.891C1148.78 409.365 965.695 580.232 739.294 284.323C586.779 122.071 376.103 173.445 188.318 219.236C120.64 235.738 55.943 251.511 -1.99805 256.309V256.02Z" fill="#3561F6"/>
<path d="M-1.99805 239.626C54.2388 236.654 116.715 224.098 182.067 210.958C368.651 173.442 578.665 131.215 733.962 293.927L733.965 293.93L733.971 293.939C950.276 571.928 1130.75 402.884 1268.46 273.896C1326.86 219.204 1377.56 171.709 1420.08 168.504C1427.72 167.926 1435.09 168.807 1442.19 171.307V171.607C1435.09 169.102 1427.73 168.218 1420.09 168.793C1377.64 171.992 1326.96 219.463 1268.6 274.127C1130.82 403.178 950.256 572.305 733.815 294.149C578.599 131.521 368.639 173.736 182.105 211.244C116.741 224.386 54.259 236.945 -1.99516 239.917V239.626H-1.99805Z" fill="#3561F6"/>
<path d="M-1.99711 223.38C52.5154 222.187 112.761 212.705 175.78 202.78C361.122 173.593 570.435 140.63 728.484 303.751L728.49 303.757L728.493 303.762C935.087 564.503 1112.83 397.033 1251.47 266.412C1312.59 208.826 1366.11 158.401 1411.18 154.942C1422.01 154.11 1432.35 156 1442.19 161.145V161.457C1432.36 156.298 1422.02 154.402 1411.19 155.23C1366.19 158.684 1312.69 209.086 1251.6 266.645C1112.9 397.331 935.067 564.882 728.334 303.972C570.362 140.933 361.099 173.888 175.806 203.069C112.779 212.994 52.5269 222.479 -2 223.672V223.38H-1.99711Z" fill="#3561F6"/>
<path d="M-1.99805 207.283C50.741 207.82 108.731 201.263 169.381 194.406C353.499 173.591 562.141 150.001 723.007 313.574L723.01 313.577L723.012 313.583C920.136 557.555 1094.95 391.532 1234.24 259.246C1298.13 198.574 1354.55 144.996 1402.25 141.274C1416.34 140.175 1429.66 143.433 1442.19 152.133V152.462C1429.67 143.736 1416.35 140.466 1402.26 141.563C1354.63 145.279 1298.24 198.834 1234.38 259.476C1095.02 391.83 920.122 557.931 722.859 313.796C562.069 150.298 353.475 173.882 169.402 194.695C108.745 201.552 50.7496 208.109 -1.99805 207.572V207.283Z" fill="#3561F6"/>
<path d="M-1.99711 191.332C48.9135 193.537 104.607 189.766 162.846 185.817C345.764 173.418 553.771 159.316 717.531 323.397L717.537 323.403V323.406C905.415 551.074 1077.1 386.408 1216.79 252.43C1283.48 188.471 1342.87 131.501 1393.29 127.511C1410.69 126.134 1427.01 131.075 1442.19 144.2V144.547C1427.01 131.381 1410.69 126.423 1393.3 127.799C1342.95 131.786 1283.58 188.731 1216.92 252.66C1077.17 386.702 905.397 551.451 717.381 323.616C553.69 159.608 345.733 173.704 162.855 186.103C104.613 190.052 48.9164 193.823 -2 191.618V191.332H-1.99711Z" fill="#3561F6"/>
<path d="M-1.99805 175.542C47.0149 179.342 100.363 178.19 156.129 176.986C337.884 173.054 545.307 168.565 712.054 333.22L712.06 333.226L712.063 333.229C890.917 545.046 1059.28 381.674 1199.1 246.007C1268.62 178.546 1331.09 117.933 1384.31 113.66C1405.06 111.994 1424.4 118.898 1442.19 137.293V137.652C1424.4 119.207 1405.07 112.283 1384.32 113.949C1331.17 118.216 1268.73 178.806 1199.23 246.238C1059.35 381.972 890.903 545.422 711.909 333.445C545.229 168.854 337.849 173.343 156.135 177.274C100.369 178.482 47.0207 179.631 -1.99805 175.833V175.542Z" fill="#3561F6"/>
<path d="M-1.99805 159.92C45.0364 165.234 95.9702 166.529 149.189 167.88C329.822 172.471 536.735 177.726 706.58 343.046L706.589 343.055C876.625 539.461 1041.49 377.36 1181.16 240.02C1253.56 168.834 1319.19 104.297 1375.31 99.7329C1399.45 97.77 1421.81 106.931 1442.2 131.396V131.778C1421.82 107.249 1399.46 98.0588 1375.33 100.022C1319.28 104.58 1253.67 169.093 1181.3 240.25C1041.56 377.658 876.62 539.84 706.442 343.277C536.651 178.012 329.782 172.756 149.183 168.169C95.9702 166.815 45.0364 165.52 -1.99805 160.209V159.92Z" fill="#3561F6"/>
<path d="M-1.99805 144.462C42.951 151.185 91.3834 154.74 141.95 158.45C321.521 171.625 528.018 186.777 701.101 352.867L701.107 352.875C862.53 534.304 1023.7 373.475 1162.97 234.495C1238.27 159.352 1307.17 90.5893 1366.29 85.7214C1393.84 83.4523 1419.25 95.0925 1442.19 126.382V126.79C1419.26 95.4163 1393.85 83.741 1366.3 86.0102C1307.26 90.8722 1238.38 159.608 1163.11 234.723C1023.77 373.77 862.524 534.677 700.963 353.1C527.934 187.062 321.478 171.913 141.939 158.742C91.3776 155.032 42.951 151.477 -1.99805 144.754V144.462Z" fill="#3561F6"/>
<path d="M-1.99805 129.185C40.7327 137.197 86.5425 142.8 134.328 148.642C312.914 170.479 519.119 195.69 695.628 362.693L695.633 362.699C848.637 529.576 1005.93 370.051 1144.52 229.491C1222.76 150.141 1295.05 76.8287 1357.27 71.6458C1388.25 69.0646 1416.72 83.3823 1442.19 122.217V122.643C1416.73 83.7061 1388.26 69.3534 1357.29 71.9346C1295.13 77.1145 1222.88 150.398 1144.66 229.718C1006 370.349 848.634 529.949 695.489 362.926C519.032 195.973 312.862 170.764 134.305 148.931C86.528 143.089 40.7298 137.486 -1.99805 129.477V129.185Z" fill="#3561F6"/>
<path d="M-1.99805 114.089C38.3411 123.232 81.3607 130.638 126.188 138.355C303.891 168.942 509.985 204.414 690.151 372.516L690.157 372.522C834.929 525.268 988.166 367.109 1125.81 225.046C1207.02 141.231 1282.8 63.0156 1348.25 57.5032C1382.67 54.6041 1414.22 71.853 1442.19 118.921V119.376C1414.23 72.1884 1382.68 54.8928 1348.26 57.7919C1282.89 63.2985 1207.13 141.484 1125.95 225.27C988.244 367.403 834.932 525.639 690.016 372.749C509.896 204.691 303.833 169.224 126.16 138.644C81.3434 130.929 38.3354 123.524 -1.99805 114.383V114.089Z" fill="#3561F6"/>
<path d="M-1.99805 99.1875C35.7156 109.264 75.7168 118.183 117.341 127.461C294.301 166.909 500.535 212.883 684.675 382.339L684.681 382.345C821.402 521.377 970.405 364.676 1106.82 221.216C1191.02 132.664 1270.42 49.1557 1339.22 43.3021C1377.1 40.0792 1411.74 60.4285 1442.19 116.372V116.848C1411.75 60.7668 1377.11 40.368 1339.24 43.5908C1270.51 49.4387 1191.13 132.918 1106.96 221.441C970.483 364.971 821.408 521.751 684.542 382.575C500.442 213.16 294.238 167.191 117.304 127.75C75.6937 118.472 35.7069 109.559 -1.99805 99.485V99.1875Z" fill="#3561F6"/>
<path d="M-1.99805 84.4818C32.7637 95.2296 69.4201 105.301 107.495 115.757C283.909 164.211 490.636 220.994 679.198 392.162L679.201 392.165C808.052 517.904 952.642 362.777 1087.53 218.052C1174.75 124.477 1257.91 35.2521 1330.19 29.0397C1371.52 25.4902 1409.28 49.0769 1442.19 114.497V114.996C1409.29 49.4182 1371.54 25.7789 1330.21 29.3314C1258 35.535 1174.87 124.731 1087.68 218.273C952.72 363.069 808.061 518.271 679.063 392.396C490.538 221.263 283.836 164.488 107.443 116.037C69.3913 105.589 32.7492 95.5241 -1.99805 84.7793V84.4818Z" fill="#3561F6"/>
<path d="M-1.99805 69.9863C29.3294 81.0345 62.1645 91.7822 96.181 102.915C272.338 160.574 480.091 228.578 673.722 401.986L673.725 401.988C794.881 514.85 934.87 361.45 1067.95 215.622C1158.2 116.728 1245.27 21.3166 1321.18 14.7338C1365.96 10.8518 1406.85 37.9209 1442.2 113.4V113.934C1406.86 38.2768 1365.98 11.1405 1321.19 15.0225C1245.36 21.5966 1158.32 116.979 1068.1 215.841C934.954 361.739 794.893 515.218 673.592 402.222C479.99 228.843 272.26 160.848 96.1233 103.195C62.1299 92.068 29.3149 81.3261 -1.99805 70.2867V69.9863Z" fill="#3561F6"/>
<path d="M-1.99805 55.7036C25.1585 66.5009 53.4214 77.2632 82.597 88.3727C258.93 155.519 468.54 235.341 668.246 411.809C781.875 512.213 917.083 360.721 1048.04 213.989C1141.33 109.46 1232.47 7.34887 1312.16 0.378141C1360.4 -3.84221 1404.43 26.8582 1442.19 112.936V113.494C1404.44 27.2169 1360.42 -3.55347 1312.17 0.666884C1232.56 7.62886 1141.45 109.711 1048.19 214.205C917.167 361.01 781.889 512.581 668.113 412.045C468.436 235.604 258.846 155.79 82.5305 88.6497C53.3809 77.552 25.1383 66.7955 -1.99805 56.0098V55.7036Z" fill="#3561F6"/>
</svg>
