<svg width="62" height="62" viewBox="0 0 62 62" fill="none" xmlns="http://www.w3.org/2000/svg">
<path d="M17.6203 25.982C17.6203 26.7376 17.7017 27.3503 17.8456 27.7984C18.0083 28.2469 18.2127 28.7371 18.498 29.267C18.5983 29.4297 18.64 29.5925 18.64 29.7364C18.64 29.9388 18.5169 30.1432 18.2525 30.3472L16.9674 31.2045C16.7838 31.3256 16.6002 31.3881 16.438 31.3881C16.2336 31.3881 16.0292 31.2859 15.8248 31.1023C15.5505 30.8063 15.3046 30.4852 15.0905 30.1432C14.8635 29.7508 14.6528 29.3493 14.4588 28.9396C12.8691 30.8165 10.8696 31.7552 8.46227 31.7552C6.75 31.7552 5.38406 31.265 4.38334 30.2866C3.38408 29.3067 2.875 28.0013 2.875 26.3699C2.875 24.6369 3.48628 23.2293 4.73161 22.1699C5.97452 21.1082 7.62623 20.5783 9.72842 20.5783C10.4211 20.5783 11.1341 20.6388 11.8887 20.741C12.6444 20.8432 13.4198 21.006 14.2355 21.1896V19.7006C14.2355 18.1506 13.9081 17.0704 13.2765 16.4388C12.6226 15.8067 11.5216 15.5001 9.95123 15.5001C9.23775 15.5001 8.50392 15.5815 7.74878 15.765C6.99904 15.9437 6.26302 16.1756 5.54633 16.4592C5.21889 16.6011 4.97477 16.6824 4.83284 16.7241C4.68947 16.7638 4.58727 16.7847 4.50589 16.7847C4.22011 16.7847 4.07819 16.5802 4.07819 16.153V15.1538C4.07819 14.8263 4.11791 14.5822 4.22011 14.4388C4.32183 14.2969 4.50589 14.155 4.79167 14.0111C5.50467 13.644 6.36202 13.3378 7.3608 13.0932C8.36006 12.8283 9.42133 12.7057 10.5431 12.7057C12.9689 12.7057 14.7436 13.256 15.8868 14.3574C17.0086 15.4584 17.5782 17.131 17.5782 19.3751V25.982H17.6203ZM9.34044 29.0834C10.0123 29.0834 10.7064 28.9604 11.4407 28.7163C12.175 28.4702 12.8275 28.0222 13.3782 27.4109C13.7037 27.0234 13.9497 26.5952 14.0708 26.1055C14.1939 25.6153 14.2752 25.0253 14.2752 24.3302V23.4753C13.6574 23.3235 13.0314 23.2073 12.4002 23.1271C11.7638 23.0468 11.1231 23.0064 10.4816 23.006C9.11569 23.006 8.11642 23.2709 7.44266 23.8217C6.77083 24.3719 6.44388 25.1459 6.44388 26.166C6.44388 27.1251 6.688 27.8386 7.19853 28.3283C7.68872 28.8374 8.4022 29.0834 9.34044 29.0834ZM25.7167 31.2859C25.3495 31.2859 25.1054 31.2253 24.9426 31.0815C24.778 30.9584 24.636 30.6746 24.513 30.2871L19.7206 14.5217C19.5995 14.1133 19.5365 13.8484 19.5365 13.7045C19.5365 13.379 19.6998 13.1959 20.0272 13.1959H22.0252C22.4128 13.1959 22.6777 13.256 22.8216 13.3998C22.9843 13.5209 23.1073 13.8067 23.2284 14.1942L26.6549 27.6967L29.8372 14.1947C29.938 13.7878 30.061 13.5214 30.2233 13.4003C30.388 13.2768 30.6738 13.1954 31.0409 13.1954H32.6718C33.0593 13.1954 33.3248 13.256 33.4875 13.3998C33.6502 13.5209 33.7941 13.8067 33.875 14.1942L37.0975 27.8594L40.6262 14.1947C40.7473 13.7878 40.8912 13.5214 41.0331 13.4003C41.1958 13.2768 41.4627 13.1954 41.8294 13.1954H43.7253C44.0527 13.1954 44.2363 13.3582 44.2363 13.7045C44.2363 13.8062 44.2154 13.9089 44.1946 14.0319C44.1738 14.155 44.1341 14.3177 44.0527 14.5405L39.1373 30.3074C39.0142 30.7143 38.8723 30.9793 38.7076 31.1018C38.5449 31.2253 38.2799 31.3067 37.9336 31.3067H36.1801C35.7922 31.3067 35.5272 31.2437 35.3645 31.1023C35.1998 30.9584 35.0578 30.6935 34.9765 30.2866L31.815 17.131L28.6738 30.2658C28.5721 30.6746 28.451 30.9395 28.2863 31.0815C28.123 31.2253 27.8377 31.2859 27.4706 31.2859H25.7167ZM51.9238 31.8366C50.8645 31.8366 49.8027 31.7136 48.7831 31.4694C47.763 31.2253 46.9686 30.9584 46.4387 30.6538C46.1113 30.4702 45.888 30.2663 45.8066 30.0822C45.7262 29.9023 45.6843 29.7076 45.6836 29.5106V28.4702C45.6836 28.043 45.8463 27.8386 46.1534 27.8386C46.2745 27.8386 46.3971 27.8594 46.5201 27.9011C46.6412 27.9408 46.8248 28.0222 47.0287 28.1035C47.7496 28.4201 48.502 28.6598 49.2733 28.8185C50.0885 28.9812 50.8833 29.0626 51.7005 29.0626C52.9855 29.0626 53.9843 28.8374 54.677 28.3893C55.3711 27.9408 55.7382 27.2878 55.7382 26.4518C55.7382 25.8802 55.5547 25.4128 55.188 25.0248C54.8208 24.6373 54.1262 24.2905 53.1275 23.9636L50.1699 23.0457C48.6809 22.5763 47.5794 21.8842 46.9081 20.9663C46.2348 20.0677 45.888 19.0685 45.888 18.0092C45.888 17.1518 46.072 16.3972 46.4387 15.7442C46.8028 15.0881 47.3035 14.5178 47.9069 14.0717C48.5181 13.6042 49.2127 13.256 50.0284 13.0119C50.8436 12.7677 51.7005 12.6655 52.5975 12.6655C53.0461 12.6655 53.515 12.6864 53.9635 12.7469C54.4328 12.8074 54.8605 12.8888 55.2897 12.9702C55.6966 13.0724 56.0846 13.1746 56.4517 13.2976C56.8189 13.4207 57.1047 13.5418 57.3091 13.6648C57.5948 13.8275 57.7988 13.9903 57.9199 14.1734C58.0429 14.3381 58.1034 14.5619 58.1034 14.8472V15.8062C58.1034 16.2344 57.9407 16.4592 57.6341 16.4592C57.4713 16.4592 57.2064 16.3763 56.8605 16.2136C55.6966 15.6837 54.3912 15.4187 52.9439 15.4187C51.7819 15.4187 50.8645 15.6023 50.2323 15.9903C49.5983 16.3763 49.2733 16.9687 49.2733 17.8047C49.2733 18.3763 49.4772 18.866 49.8841 19.2521C50.2929 19.6396 51.048 20.028 52.1282 20.3739L55.0247 21.2918C56.4934 21.7611 57.5532 22.4136 58.1848 23.2501C58.8169 24.0866 59.1235 25.0457 59.1235 26.1055C59.1235 26.9832 58.9395 27.778 58.5936 28.4702C58.2265 29.1648 57.7363 29.7761 57.1047 30.2658C56.4725 30.7749 55.7174 31.142 54.8417 31.4089C53.9238 31.6927 52.9647 31.8366 51.9238 31.8366Z" fill="white"/>
<path d="M57.1562 35.528C55.0095 35.5585 52.4752 36.0375 50.5586 37.3841C49.9662 37.8118 50.0684 38.3829 50.7213 38.3015C52.9049 38.0366 57.7157 37.4655 58.573 38.5665C59.4304 39.6466 57.6159 44.1949 56.7988 46.2148C56.5546 46.8251 57.0846 47.0716 57.6348 46.6023C61.224 43.5841 62.1627 37.2819 61.4284 36.364C61.0618 35.916 59.303 35.497 57.1562 35.528ZM0.789524 36.7443C0.340509 36.8004 0.137071 37.3429 0.611274 37.7716C8.60734 44.9898 19.1914 49.3346 30.9394 49.3346C39.3216 49.3346 49.0696 46.7045 55.7787 41.7493C56.8797 40.9317 55.9225 39.6888 54.8002 40.1974C47.276 43.3797 39.0963 44.9297 31.6529 44.9297C20.6198 44.9297 9.95293 41.8912 1.30538 36.8731C1.11648 36.7612 0.93968 36.7258 0.790009 36.7443H0.789524Z" fill="#FF9900"/>
</svg>
