<svg width="86" height="86" viewBox="0 0 86 86" fill="none" xmlns="http://www.w3.org/2000/svg">
<path d="M60.95 51.2594C59.1158 51.1418 58.0495 50.0984 57.7673 48.1466C57.6921 47.6273 57.6921 47.6138 57.684 44.243L57.6766 40.9804H59.2999L59.3059 44.1362C59.3119 46.9802 59.3153 47.3142 59.3429 47.5137C59.453 48.326 59.6727 48.8722 60.0477 49.2639C60.3473 49.5777 60.698 49.7611 61.1838 49.8586C61.4122 49.9049 62.0646 49.9049 62.2736 49.8586C62.7425 49.7631 63.1724 49.5301 63.5085 49.1894C63.9056 48.793 64.1992 48.2306 64.3416 47.595L64.3886 47.3807L64.394 44.1987L64.3994 41.0153H66.0569V51.0222H64.4169V50.2281C64.4169 49.6892 64.4108 49.4366 64.398 49.4407C64.3608 49.4841 64.3294 49.5322 64.3047 49.5838C64.0057 50.115 63.5667 50.5539 63.0355 50.8529C62.4174 51.1922 61.7972 51.3132 60.95 51.2594ZM79.5609 51.2514C78.8929 51.1958 78.2472 50.9851 77.675 50.6359C76.5005 49.9103 75.8058 48.7144 75.6029 47.0696C75.5324 46.4999 75.5236 45.7353 75.5827 45.2515C75.7138 44.1698 76.1391 43.1082 76.7451 42.351C76.8996 42.1562 77.2524 41.8048 77.4465 41.6496C77.9703 41.2315 78.5832 40.9393 79.2377 40.7956C79.618 40.713 80.2872 40.674 80.691 40.711C81.7055 40.805 82.6341 41.2821 83.2656 42.0326C83.908 42.7951 84.26 43.8607 84.3057 45.1729C84.3129 45.44 84.3141 45.7073 84.3091 45.9745L84.3003 46.4018L80.7488 46.4058L77.1973 46.4105V46.5691C77.1973 47.0508 77.3142 47.5997 77.5171 48.0673C77.6918 48.4698 77.9934 48.9092 78.2393 49.1222C78.7447 49.5586 79.3748 49.8247 80.04 49.8827C80.2912 49.9063 80.9309 49.8814 81.2164 49.8377C82.0327 49.7121 82.8088 49.3923 83.4343 48.924C83.5082 48.8682 83.5787 48.8165 83.5915 48.8091C83.6096 48.7977 83.6143 48.9415 83.6137 49.5482V50.3006L83.445 50.4048C82.7205 50.8479 81.9087 51.1289 81.0653 51.2285C80.8086 51.2601 79.868 51.2742 79.5609 51.2514ZM82.6515 44.8988C82.6515 44.0919 82.3109 43.1949 81.8292 42.7333C81.4854 42.4039 81.0464 42.1913 80.5748 42.1259C80.341 42.0897 79.8485 42.1038 79.6019 42.1528C79.0982 42.2488 78.6352 42.4947 78.2736 42.8583C77.8755 43.2524 77.5745 43.7335 77.3941 44.2639C77.3269 44.4587 77.249 44.7778 77.2241 44.9552L77.2127 45.0399H82.6515V44.8988ZM34.4747 50.9994L37.1549 43.9669L39.8276 36.9565H41.5449L41.6161 37.1379C41.8338 37.6963 46.9662 51.0068 46.9662 51.0135C46.9662 51.0182 46.5551 51.0216 46.0525 51.0216H45.1387L44.3997 49.0543L43.6593 47.0871H37.7024L37.6769 47.1543C37.6628 47.1905 37.3463 48.0761 36.9741 49.1208L36.2982 51.0216H35.3825C34.6582 51.0216 34.4687 51.0175 34.4747 50.9994ZM43.1157 45.5861C43.1157 45.5827 42.6185 44.235 42.0098 42.5895C40.8717 39.5137 40.8078 39.3283 40.7178 38.8344C40.6755 38.6033 40.654 38.5966 40.6291 38.8076C40.5936 39.0364 40.542 39.2625 40.4746 39.4841C40.4444 39.5775 39.9317 40.9824 39.3351 42.607C38.9702 43.5957 38.6085 44.5856 38.25 45.5767C38.25 45.5848 39.3452 45.5915 40.6829 45.5915C42.0212 45.5915 43.1157 45.5888 43.1157 45.5861ZM47.5185 50.7663V50.5096L50.4862 46.4347L53.4539 42.3598L50.7664 42.351L48.0802 42.3423L48.0755 41.661L48.0708 40.9804H55.8431V41.44L52.8754 45.5371C51.2427 47.7905 49.907 49.6382 49.907 49.6422C49.907 49.6469 51.2266 49.6509 52.8391 49.6509H55.7718V51.0216H47.5185V50.7663ZM69.2947 51.0101C69.288 51.0034 69.2832 48.7439 69.2832 45.9892V40.9797H70.9052V42.0124C70.9052 42.5808 70.9119 43.0451 70.9199 43.0451C70.9287 43.0451 70.9683 42.9524 71.0079 42.8388C71.196 42.3092 71.5066 41.8315 71.9143 41.4447C72.2649 41.1046 72.7128 40.8822 73.1956 40.8084C73.3347 40.7862 73.4522 40.7815 73.7304 40.7889C74.0798 40.7983 74.2618 40.8239 74.4742 40.8931L74.5413 40.9146V42.5969L74.3499 42.5015C74.018 42.3334 73.6465 42.259 73.2755 42.2865C73.0142 42.3 72.8428 42.3336 72.6339 42.4115C72.2099 42.5679 71.8503 42.8613 71.612 43.2453C71.2484 43.8385 71.0169 44.503 70.9334 45.1937C70.9199 45.3127 70.9125 46.2835 70.9092 48.1963L70.9045 51.0229H70.1056C69.6662 51.0229 69.3014 51.0169 69.2947 51.0101Z" fill="white"/>
<path d="M10.9218 29.9499H19.1186L10.6098 55.1606C10.5224 55.4198 10.3559 55.6449 10.1337 55.8045C9.9116 55.964 9.64501 56.0497 9.37153 56.0497H2.99264C2.78547 56.0496 2.58128 56.0003 2.39695 55.9058C2.21261 55.8112 2.05342 55.6742 1.93251 55.5059C1.81164 55.3377 1.73258 55.1431 1.70189 54.9382C1.6712 54.7333 1.68976 54.524 1.75602 54.3277L9.6836 30.8387C9.77103 30.5796 9.93752 30.3544 10.1597 30.1949C10.3818 30.0354 10.6483 29.9495 10.9218 29.9495V29.9499Z" fill="url(#paint0_linear_2430_822)"/>
<path d="M22.8326 46.8599H9.83515C9.71427 46.8596 9.59612 46.8957 9.4961 46.9636C9.39608 47.0315 9.31883 47.1279 9.27444 47.2404C9.23005 47.3528 9.22057 47.476 9.24724 47.5939C9.27392 47.7118 9.3355 47.8189 9.42396 47.9013L17.776 55.697C18.0194 55.9239 18.3397 56.0499 18.6723 56.0498H26.032L22.8326 46.8599Z" fill="#0078D4"/>
<path d="M10.9219 29.95C10.6455 29.9489 10.3759 30.0363 10.1526 30.1993C9.92935 30.3624 9.76405 30.5925 9.68087 30.8562L1.76598 54.3065C1.69532 54.5035 1.67314 54.7146 1.70132 54.922C1.7295 55.1294 1.80722 55.3269 1.92788 55.4979C2.04855 55.6689 2.20863 55.8084 2.39457 55.9044C2.58051 56.0005 2.78685 56.0503 2.99614 56.0498H9.53984C9.78355 56.0063 10.0113 55.8988 10.1999 55.7385C10.3885 55.5781 10.5312 55.3705 10.6133 55.1369L12.1916 50.4852L17.8297 55.7438C18.0659 55.9392 18.3622 56.0473 18.6688 56.0498H26.0014L22.7854 46.8596L13.4104 46.8618L19.1483 29.95H10.9219Z" fill="url(#paint1_linear_2430_822)"/>
<path d="M21.3911 30.8376C21.3038 30.5789 21.1375 30.354 20.9157 30.1948C20.6938 30.0355 20.4276 29.9499 20.1545 29.95H11.0195C11.2926 29.95 11.5587 30.0356 11.7805 30.1949C12.0023 30.3541 12.1686 30.5789 12.2559 30.8376L20.1837 54.3276C20.2501 54.524 20.2687 54.7333 20.2381 54.9382C20.2075 55.1432 20.1285 55.3379 20.0077 55.5063C19.8868 55.6746 19.7276 55.8118 19.5432 55.9064C19.3588 56.001 19.1546 56.0503 18.9473 56.0502H28.0827C28.2899 56.05 28.494 56.0006 28.6783 55.906C28.8626 55.8113 29.0217 55.6742 29.1424 55.5059C29.2632 55.3376 29.3422 55.1429 29.3729 54.938C29.4036 54.7332 29.3851 54.5239 29.3189 54.3276L21.3911 30.8376Z" fill="url(#paint2_linear_2430_822)"/>
<defs>
<linearGradient id="paint0_linear_2430_822" x1="13.9094" y1="31.884" x2="5.39696" y2="57.0315" gradientUnits="userSpaceOnUse">
<stop stop-color="#114A8B"/>
<stop offset="1" stop-color="#0669BC"/>
</linearGradient>
<linearGradient id="paint1_linear_2430_822" x1="16.5685" y1="43.6035" x2="14.5995" y2="44.2693" gradientUnits="userSpaceOnUse">
<stop stop-opacity="0.3"/>
<stop offset="0.071" stop-opacity="0.2"/>
<stop offset="0.321" stop-opacity="0.1"/>
<stop offset="0.623" stop-opacity="0.05"/>
<stop offset="1" stop-opacity="0"/>
</linearGradient>
<linearGradient id="paint2_linear_2430_822" x1="15.4855" y1="31.1505" x2="24.8296" y2="56.0447" gradientUnits="userSpaceOnUse">
<stop stop-color="#3CCBF4"/>
<stop offset="1" stop-color="#2892DF"/>
</linearGradient>
</defs>
</svg>
