<svg width="98" height="32" viewBox="0 0 98 32" fill="none" xmlns="http://www.w3.org/2000/svg">
<g clip-path="url(#clip0_2430_795)">
<path d="M94.3984 19.5565L97.1014 21.3602C96.2241 22.6535 94.1259 24.8725 90.4982 24.8725C85.9934 24.8725 82.6387 21.384 82.6387 16.9461C82.6387 12.2236 86.029 9.01978 90.1189 9.01978C94.2324 9.01978 96.2477 12.2946 96.8998 14.0626L97.2555 14.9645L86.6574 19.3548C87.4635 20.9449 88.7202 21.7518 90.4982 21.7518C92.2765 21.7518 93.5093 20.8737 94.3984 19.5565ZM86.0884 16.6971L93.1656 13.7543C92.7744 12.7695 91.6128 12.0695 90.2255 12.0695C88.4593 12.0695 86.0054 13.6358 86.0884 16.6971Z" fill="#FF302F"/>
<path d="M77.5293 0.939209H80.9432V24.1487H77.5293V0.939209Z" fill="#20B15A"/>
<path d="M72.1462 9.63682H75.4418V23.7334C75.4418 29.5831 71.9921 31.9919 67.914 31.9919C64.0732 31.9919 61.7616 29.4052 60.8961 27.305L63.919 26.0471C64.4642 27.3404 65.7801 28.8713 67.914 28.8713C70.5338 28.8713 72.1462 27.2456 72.1462 24.2081V23.069H72.0276C71.2451 24.0182 69.7515 24.8724 67.8548 24.8724C63.8952 24.8724 60.2676 21.4195 60.2676 16.97C60.2676 12.4964 63.8952 9.00806 67.8548 9.00806C69.7397 9.00806 71.2451 9.85053 72.0276 10.7761H72.1462V9.63682ZM72.3831 16.97C72.3831 14.1696 70.522 12.1286 68.1511 12.1286C65.7564 12.1286 63.7411 14.1696 63.7411 16.97C63.7411 19.7345 65.7564 21.7399 68.1511 21.7399C70.5222 21.7519 72.3833 19.7345 72.3833 16.97" fill="#3686F7"/>
<path d="M41.5253 16.9105C41.5253 21.4789 37.969 24.8368 33.6064 24.8368C29.244 24.8368 25.6875 21.4671 25.6875 16.9105C25.6875 12.3185 29.244 8.97241 33.6064 8.97241C37.969 8.97241 41.5253 12.3185 41.5253 16.9105ZM38.0638 16.9105C38.0638 14.0629 36.0009 12.1048 33.6064 12.1048C31.2119 12.1048 29.149 14.0629 29.149 16.9105C29.149 19.7345 31.2119 21.7162 33.6064 21.7162C36.0011 21.7162 38.0638 19.7345 38.0638 16.9105Z" fill="#FF302F"/>
<path d="M58.8222 16.9461C58.8222 21.5144 55.2657 24.8723 50.9033 24.8723C46.5407 24.8723 42.9844 21.5143 42.9844 16.9461C42.9844 12.3541 46.5407 9.01978 50.9033 9.01978C55.2657 9.01978 58.8222 12.3423 58.8222 16.9461ZM55.3486 16.9461C55.3486 14.0984 53.286 12.1403 50.8913 12.1403C48.4967 12.1403 46.4339 14.0984 46.4339 16.9461C46.4339 19.7701 48.4967 21.7518 50.8913 21.7518C53.2978 21.7518 55.3486 19.7583 55.3486 16.9461Z" fill="#FFBA40"/>
<path d="M12.671 21.3957C7.70385 21.3957 3.81567 17.3851 3.81567 12.4133C3.81567 7.44164 7.70385 3.43098 12.671 3.43098C15.3502 3.43098 17.3061 4.48698 18.7524 5.83974L21.1353 3.45479C19.12 1.52069 16.429 0.0490723 12.671 0.0490723C5.86652 0.0492627 0.140625 5.6026 0.140625 12.4133C0.140625 19.2243 5.86652 24.7775 12.671 24.7775C16.3461 24.7775 19.12 23.5672 21.2895 21.3127C23.518 19.0818 24.2056 15.9493 24.2056 13.41C24.2056 12.615 24.1108 11.7963 24.0041 11.1912H12.671V14.4898H20.7441C20.5069 16.5546 19.855 17.9666 18.8947 18.9275C17.733 20.1024 15.8956 21.3957 12.671 21.3957Z" fill="#3686F7"/>
</g>
<defs>
<clipPath id="clip0_2430_795">
<rect width="97.4328" height="32" fill="white"/>
</clipPath>
</defs>
</svg>
