<svg width="44" height="44" viewBox="0 0 44 44" fill="none" xmlns="http://www.w3.org/2000/svg">
<g clip-path="url(#clip0_2430_828)">
<path d="M39.7039 32.7421C39.1195 33.0515 38.518 33.3265 37.8992 33.5499C35.9227 34.289 33.843 34.6671 31.7289 34.6671C23.5992 34.6671 16.518 29.0812 16.518 21.8968C16.5352 19.9374 17.618 18.1327 19.3367 17.2046C11.9805 17.514 10.0898 25.1796 10.0898 29.6655C10.0898 42.3671 21.7945 43.6562 24.3211 43.6562C25.6789 43.6562 27.7242 43.2608 28.9617 42.8655L29.1852 42.7968C33.9289 41.164 37.9508 37.9671 40.632 33.7218C40.8383 33.3952 40.7352 32.9827 40.4258 32.7765C40.2023 32.639 39.9273 32.6218 39.7039 32.7421Z" fill="url(#paint0_linear_2430_828)"/>
<path opacity="0.35" d="M39.7039 32.7421C39.1195 33.0515 38.518 33.3265 37.8992 33.5499C35.9227 34.289 33.843 34.6671 31.7289 34.6671C23.5992 34.6671 16.518 29.0812 16.518 21.8968C16.5352 19.9374 17.618 18.1327 19.3367 17.2046C11.9805 17.514 10.0898 25.1796 10.0898 29.6655C10.0898 42.3671 21.7945 43.6562 24.3211 43.6562C25.6789 43.6562 27.7242 43.2608 28.9617 42.8655L29.1852 42.7968C33.9289 41.164 37.9508 37.9671 40.632 33.7218C40.8383 33.3952 40.7352 32.9827 40.4258 32.7765C40.2023 32.639 39.9273 32.6218 39.7039 32.7421Z" fill="url(#paint1_radial_2430_828)"/>
<path d="M18.1668 41.4907C16.6371 40.5454 15.3137 39.2907 14.2652 37.8297C9.74492 31.6422 11.1027 22.9626 17.2902 18.4422C17.9434 17.9782 18.6137 17.5485 19.3355 17.2047C19.8684 16.9469 20.7793 16.5 21.9996 16.5172C23.7355 16.5344 25.3684 17.3594 26.4168 18.7516C27.1043 19.6797 27.4996 20.7969 27.5168 21.9657C27.5168 21.9313 31.7277 8.28442 13.7668 8.28442C6.22148 8.28442 0.0167979 15.4516 0.0167979 21.725C-0.0175771 25.0422 0.704298 28.3422 2.09649 31.35C6.84024 41.4563 18.3902 46.4063 28.9777 42.8829C25.3512 44.0172 21.398 43.5188 18.1668 41.4907Z" fill="url(#paint2_linear_2430_828)"/>
<path opacity="0.41" d="M18.1668 41.4907C16.6371 40.5454 15.3137 39.2907 14.2652 37.8297C9.74492 31.6422 11.1027 22.9626 17.2902 18.4422C17.9434 17.9782 18.6137 17.5485 19.3355 17.2047C19.8684 16.9469 20.7793 16.5 21.9996 16.5172C23.7355 16.5344 25.3684 17.3594 26.4168 18.7516C27.1043 19.6797 27.4996 20.7969 27.5168 21.9657C27.5168 21.9313 31.7277 8.28442 13.7668 8.28442C6.22148 8.28442 0.0167979 15.4516 0.0167979 21.725C-0.0175771 25.0422 0.704298 28.3422 2.09649 31.35C6.84024 41.4563 18.3902 46.4063 28.9777 42.8829C25.3512 44.0172 21.398 43.5188 18.1668 41.4907Z" fill="url(#paint3_radial_2430_828)"/>
<path d="M26.1766 25.5922C26.0391 25.7641 25.6094 26.0219 25.6094 26.5719C25.6094 27.0188 25.9016 27.4484 26.4172 27.8094C28.8922 29.5281 33.55 29.3047 33.5672 29.3047C35.4062 29.3047 37.1938 28.8062 38.775 27.8781C42.0063 25.9875 44 22.5328 44 18.7859C44.0516 14.9359 42.625 12.375 42.0578 11.2406C38.4141 4.10781 30.5422 0 22 0C9.96875 0 0.171875 9.65937 0 21.6906C0.0859375 15.4172 6.325 10.3469 13.75 10.3469C14.3516 10.3469 17.7891 10.3984 20.9688 12.0828C23.7703 13.5609 25.2484 15.3313 26.2625 17.1016C27.3281 18.9406 27.5172 21.2437 27.5172 22.1719C27.5172 23.0828 27.0531 24.4578 26.1766 25.5922Z" fill="url(#paint4_radial_2430_828)"/>
<path d="M26.1766 25.5922C26.0391 25.7641 25.6094 26.0219 25.6094 26.5719C25.6094 27.0188 25.9016 27.4484 26.4172 27.8094C28.8922 29.5281 33.55 29.3047 33.5672 29.3047C35.4062 29.3047 37.1938 28.8062 38.775 27.8781C42.0063 25.9875 44 22.5328 44 18.7859C44.0516 14.9359 42.625 12.375 42.0578 11.2406C38.4141 4.10781 30.5422 0 22 0C9.96875 0 0.171875 9.65937 0 21.6906C0.0859375 15.4172 6.325 10.3469 13.75 10.3469C14.3516 10.3469 17.7891 10.3984 20.9688 12.0828C23.7703 13.5609 25.2484 15.3313 26.2625 17.1016C27.3281 18.9406 27.5172 21.2437 27.5172 22.1719C27.5172 23.0828 27.0531 24.4578 26.1766 25.5922Z" fill="url(#paint5_radial_2430_828)"/>
</g>
<defs>
<linearGradient id="paint0_linear_2430_828" x1="10.0905" y1="30.4252" x2="40.7329" y2="30.4252" gradientUnits="userSpaceOnUse">
<stop stop-color="#0C59A4"/>
<stop offset="1" stop-color="#114A8B"/>
</linearGradient>
<radialGradient id="paint1_radial_2430_828" cx="0" cy="0" r="1" gradientUnits="userSpaceOnUse" gradientTransform="translate(27.0181 30.6686) scale(16.3918 15.5705)">
<stop offset="0.72" stop-opacity="0"/>
<stop offset="0.95" stop-opacity="0.53"/>
<stop offset="1"/>
</radialGradient>
<linearGradient id="paint2_linear_2430_828" x1="26.2571" y1="17.1439" x2="7.11489" y2="37.9944" gradientUnits="userSpaceOnUse">
<stop stop-color="#1B9DE2"/>
<stop offset="0.16" stop-color="#1595DF"/>
<stop offset="0.67" stop-color="#0680D7"/>
<stop offset="1" stop-color="#0078D4"/>
</linearGradient>
<radialGradient id="paint3_radial_2430_828" cx="0" cy="0" r="1" gradientUnits="userSpaceOnUse" gradientTransform="translate(12.1355 34.2048) rotate(-81.3826) scale(24.6465 19.9158)">
<stop offset="0.76" stop-opacity="0"/>
<stop offset="0.95" stop-opacity="0.5"/>
<stop offset="1"/>
</radialGradient>
<radialGradient id="paint4_radial_2430_828" cx="0" cy="0" r="1" gradientUnits="userSpaceOnUse" gradientTransform="translate(4.44324 8.14564) rotate(92.2911) scale(34.8135 74.1569)">
<stop stop-color="#35C1F1"/>
<stop offset="0.11" stop-color="#34C1ED"/>
<stop offset="0.23" stop-color="#2FC2DF"/>
<stop offset="0.31" stop-color="#2BC3D2"/>
<stop offset="0.67" stop-color="#36C752"/>
</radialGradient>
<radialGradient id="paint5_radial_2430_828" cx="0" cy="0" r="1" gradientUnits="userSpaceOnUse" gradientTransform="translate(41.2604 13.3041) rotate(73.7366) scale(16.7271 13.6051)">
<stop stop-color="#66EB6E"/>
<stop offset="1" stop-color="#66EB6E" stop-opacity="0"/>
</radialGradient>
<clipPath id="clip0_2430_828">
<rect width="44" height="44" fill="white"/>
</clipPath>
</defs>
</svg>
