<svg width="107" height="23" viewBox="0 0 107 23" fill="none" xmlns="http://www.w3.org/2000/svg">
<g clip-path="url(#clip0_2430_805)">
<path d="M107.001 10.3392V8.45635H104.664V5.5295L104.585 5.55354L102.39 6.22556L102.347 6.23873V8.45635H98.8829V7.22104C98.8829 6.64583 99.0114 6.20549 99.2649 5.91213C99.5165 5.62191 99.8764 5.47451 100.335 5.47451C100.665 5.47451 101.007 5.55229 101.351 5.70555L101.437 5.74402V3.76142L101.397 3.74679C101.076 3.63116 100.639 3.57324 100.099 3.57324C99.417 3.57324 98.7978 3.72149 98.2576 4.01568C97.7252 4.3021 97.2866 4.73591 96.9943 5.26521C96.6975 5.79922 96.547 6.41583 96.547 7.09831V8.45656H94.9199V10.3394H96.547V18.2709H98.8829V10.3392H102.347V15.3796C102.347 17.4554 103.326 18.5076 105.256 18.5076C105.589 18.5056 105.922 18.4686 106.248 18.3972C106.595 18.3225 106.831 18.2479 106.97 18.1682L107.001 18.15V16.2498L106.906 16.3127C106.779 16.3974 106.621 16.4664 106.436 16.5176C106.25 16.5699 106.095 16.5963 105.975 16.5963C105.522 16.5963 105.188 16.4744 104.98 16.2337C104.77 15.9912 104.664 15.5665 104.664 14.9727V10.3392H107.001ZM89.7034 16.5965C88.8556 16.5965 88.1872 16.315 87.716 15.7612C87.2422 15.2041 87.0019 14.4104 87.0019 13.4016C87.0019 12.3609 87.2422 11.5465 87.7164 10.9797C88.1877 10.4168 88.8497 10.131 89.6844 10.131C90.4942 10.131 91.1389 10.4038 91.6008 10.9427C92.0649 11.484 92.3005 12.2919 92.3005 13.3447C92.3005 14.4104 92.0789 15.2292 91.6422 15.7768C91.2085 16.3205 90.5563 16.5965 89.7034 16.5965ZM89.8075 8.21987C88.19 8.21987 86.9051 8.69409 85.9893 9.62935C85.0738 10.5648 84.6096 11.8591 84.6096 13.477C84.6096 15.0137 85.0627 16.2496 85.9563 17.1501C86.85 18.0509 88.0662 18.5071 89.5707 18.5071C91.1387 18.5071 92.3979 18.0264 93.3136 17.0782C94.229 16.131 94.6929 14.8489 94.6929 13.2686C94.6929 11.7081 94.2576 10.463 93.3989 9.56851C92.5396 8.6736 91.331 8.21987 89.8075 8.21987ZM80.8433 8.21987C79.743 8.21987 78.8329 8.50151 78.1376 9.05665C77.4383 9.61513 77.0835 10.3478 77.0835 11.2341C77.0835 11.6948 77.16 12.1039 77.3109 12.451C77.4624 12.7994 77.6971 13.1059 78.0089 13.3633C78.3182 13.6186 78.7957 13.886 79.4287 14.1578C79.9606 14.377 80.3574 14.5624 80.6095 14.7084C80.8559 14.8516 81.0308 14.9955 81.1294 15.1356C81.2253 15.2725 81.274 15.4603 81.274 15.6917C81.274 16.3512 80.7806 16.672 79.7652 16.672C79.3884 16.672 78.9587 16.5933 78.4881 16.4382C78.0208 16.2853 77.5798 16.0616 77.1805 15.7747L77.0835 15.7053V17.9551L77.119 17.9719C77.4496 18.1245 77.8663 18.2531 78.3575 18.3545C78.8477 18.4557 79.2929 18.5073 79.6799 18.5073C80.8738 18.5073 81.8354 18.2244 82.5367 17.666C83.2431 17.1035 83.6009 16.3539 83.6009 15.4366C83.6009 14.7753 83.4082 14.2078 83.0283 13.7503C82.6515 13.2966 81.9969 12.8799 81.0841 12.5117C80.3568 12.2196 79.8908 11.9772 79.6987 11.7911C79.5133 11.6113 79.4193 11.3571 79.4193 11.0353C79.4193 10.7497 79.5355 10.5211 79.7739 10.3359C80.0143 10.1498 80.3487 10.0551 80.7679 10.0551C81.1572 10.0551 81.5553 10.1165 81.9514 10.237C82.3472 10.3576 82.6945 10.5192 82.9848 10.7166L83.0801 10.7819V8.64746L83.0435 8.63178C82.776 8.51678 82.4228 8.41851 81.9944 8.33905C81.5672 8.26001 81.18 8.21987 80.8433 8.21987ZM70.9939 16.5965C70.1462 16.5965 69.4777 16.315 69.0067 15.7612C68.5327 15.2041 68.293 14.4104 68.293 13.4016C68.293 12.3609 68.5329 11.5465 69.0073 10.9797C69.4781 10.4168 70.14 10.131 70.9751 10.131C71.7849 10.131 72.4296 10.4038 72.8915 10.9427C73.3556 11.484 73.5911 12.2919 73.5911 13.3447C73.5911 14.4104 73.3696 15.2292 72.9328 15.7768C72.499 16.3205 71.847 16.5965 70.9939 16.5965ZM71.0982 8.21987C69.4802 8.21987 68.1954 8.69409 67.28 9.62935C66.3647 10.5648 65.9001 11.8591 65.9001 13.477C65.9001 15.0143 66.3536 16.2496 67.247 17.1501C68.1406 18.0509 69.3567 18.5071 70.8616 18.5071C72.429 18.5071 73.6887 18.0264 74.6045 17.0782C75.5197 16.131 75.9838 14.8489 75.9838 13.2686C75.9838 11.7081 75.5483 10.463 74.6894 9.56851C73.8298 8.6736 72.6215 8.21987 71.0982 8.21987ZM62.3543 10.1561V8.45635H60.0469V18.2705H62.3541V13.25C62.3541 12.3963 62.5476 11.695 62.9294 11.1653C63.3062 10.642 63.8086 10.3766 64.4215 10.3766C64.6295 10.3766 64.8627 10.4109 65.1154 10.4789C65.3655 10.5462 65.5467 10.6194 65.6535 10.6963L65.7505 10.7668V8.43962L65.7129 8.42352C65.4982 8.33215 65.1942 8.28615 64.8096 8.28615C64.2297 8.28615 63.7108 8.47245 63.2665 8.83941C62.8763 9.16203 62.5942 9.60447 62.3787 10.1561H62.3543ZM55.9148 8.21987C54.8563 8.21987 53.9119 8.44715 53.1088 8.89481C52.3042 9.34331 51.6816 9.98418 51.2582 10.7986C50.8367 11.6113 50.6227 12.5606 50.6227 13.6192C50.6227 14.5463 50.8302 15.3973 51.2403 16.1471C51.6507 16.8984 52.2317 17.4862 52.9669 17.8939C53.7013 18.301 54.55 18.5073 55.4893 18.5073C56.5859 18.5073 57.5221 18.288 58.273 17.8556L58.3031 17.8381V15.7231L58.2063 15.794C57.861 16.0444 57.4806 16.2425 57.0774 16.3819C56.6695 16.5243 56.2979 16.5963 55.9719 16.5963C55.0664 16.5963 54.3397 16.3129 53.812 15.7543C53.2833 15.1945 53.0152 14.409 53.0152 13.4202C53.0152 12.4253 53.2948 11.6195 53.8457 11.0246C54.3951 10.4318 55.1232 10.1312 56.0099 10.1312C56.7683 10.1312 57.5073 10.3881 58.2063 10.8956L58.3031 10.9659V8.73737L58.272 8.71981C58.0086 8.5724 57.65 8.45071 57.2045 8.3585C56.761 8.2665 56.3272 8.21987 55.9148 8.21987ZM49.0336 8.45635H46.726V18.2705H49.0336V8.45635ZM47.9034 4.27558C47.5237 4.27558 47.1925 4.40501 46.9204 4.66114C46.647 4.91832 46.5082 5.242 46.5082 5.6238C46.5082 5.99974 46.6453 6.31735 46.9158 6.56763C47.1847 6.81708 47.517 6.94358 47.9034 6.94358C48.2896 6.94358 48.6232 6.81708 48.8953 6.56805C49.169 6.31735 49.308 5.99974 49.308 5.6238C49.308 5.25538 49.1728 4.93484 48.9065 4.6716C48.6405 4.40877 48.3028 4.27558 47.9034 4.27558ZM42.1463 7.73248V18.2702H44.5011V4.57604H41.242L37.0993 14.7477L33.0793 4.57604H29.6875V18.2705H31.9004V7.73143H31.9765L36.2216 18.2705H37.8914L42.0702 7.73227L42.1463 7.73248Z" fill="white"/>
<path d="M10.8544 10.86H0V0H10.8544V10.86Z" fill="#F1511B"/>
<path d="M22.8388 10.86H11.9844V0H22.8388V10.86Z" fill="#80CC28"/>
<path d="M10.8542 22.8551H0V11.9951H10.8542V22.8551Z" fill="#00ADEF"/>
<path d="M22.8388 22.8551H11.9844V11.9951H22.8388V22.8551Z" fill="#FBBC09"/>
</g>
<defs>
<clipPath id="clip0_2430_805">
<rect width="107" height="23" fill="white"/>
</clipPath>
</defs>
</svg>
