<svg width="99" height="99" viewBox="0 0 99 99" fill="none" xmlns="http://www.w3.org/2000/svg">
<path d="M18.3439 51.7521L13.3856 43.7414H9.82162V55.2625H13.3856V47.2518L18.3439 55.2625H21.8749V43.7414H18.315L18.3439 51.7521ZM46.5094 47.623V46.4721H44.649V44.9211H41.1799V46.4721H39.2906V47.623H41.1799V55.2625H44.649V47.623H46.5094ZM23.859 55.2295H27.2992V47.59H23.859V55.2295ZM23.859 46.1009H27.3281V43.7414H23.859V46.1009ZM84.3439 47.062C81.5554 47.062 79.2949 48.9884 79.2949 51.3479C79.2949 53.7074 81.5554 55.6338 84.3439 55.6338C87.1324 55.6338 89.397 53.7074 89.397 51.3479C89.397 48.9884 87.1324 47.062 84.3439 47.062ZM85.7381 52.9649C85.7381 54.1735 85.0245 54.6726 84.3439 54.6726C83.6633 54.6726 82.9166 54.1735 82.9166 52.9649V49.735C82.9166 48.5223 83.6302 48.0273 84.3439 48.0273C85.0245 48.0273 85.7381 48.5223 85.7381 49.735V52.9649ZM74.7697 47.9654C74.1812 47.5891 73.5133 47.3547 72.8186 47.2806C70.3395 47.062 68.4173 49.2689 68.4173 51.286C68.4173 53.959 70.4632 54.9201 70.7726 55.0769C71.9482 55.6049 73.4374 55.6338 74.7367 54.7964V55.2295H78.1481V43.7414H74.7367C74.7698 43.7414 74.7697 46.1958 74.7697 47.9654ZM74.8027 51.3809V52.7463C74.8027 53.926 73.9942 54.2354 73.4374 54.2354C72.8805 54.2354 72.072 53.926 72.072 52.7463V50.0155C72.072 48.8316 72.8805 48.5223 73.4374 48.5223C73.9654 48.5223 74.7986 48.8316 74.7986 50.0155L74.8027 51.3809ZM35.3843 47.2518C34.3565 47.2845 33.3763 47.6924 32.6287 48.3985V47.59H29.1885V55.2295H32.6287V50.2011C32.6287 49.5494 33.3382 48.8028 34.2705 48.8028C35.1986 48.8028 35.8504 49.5494 35.8504 50.2011V55.2295H39.2906V51.0715C39.2906 48.0561 36.6878 47.1858 35.3843 47.2518ZM63.426 47.2518C62.3974 47.2806 61.4159 47.6891 60.6705 48.3985V47.59H57.2302V55.2295H60.6705V50.2011C60.6705 49.5494 61.3841 48.8028 62.3122 48.8028C63.2404 48.8028 63.8921 49.5494 63.8921 50.2011V55.2295H67.3324V51.0715C67.3324 48.0561 64.7295 47.1858 63.426 47.2518ZM56.2073 51.4428C56.2073 49.0833 53.9137 47.095 51.1253 47.095C48.3079 47.095 46.0432 49.0214 46.0432 51.3809C46.0432 53.7404 48.3079 55.6668 51.1253 55.6668C53.4518 55.6668 55.4318 54.3303 56.0216 52.5318H52.5814V52.9938C52.5814 54.3921 51.6533 54.7015 51.1583 54.7015C50.6303 54.7015 49.7021 54.3921 49.7021 52.9979V51.4098L56.2073 51.4428ZM49.9496 48.7409C50.0761 48.5333 50.2535 48.3614 50.465 48.2416C50.6765 48.1217 50.9152 48.0579 51.1583 48.0561C51.6203 48.0561 52.0864 48.2748 52.3669 48.7409C52.5814 49.1121 52.5814 49.5783 52.5814 50.23H49.7021C49.7021 49.5783 49.731 49.1451 49.9496 48.7409ZM90.7583 45.1686C90.7583 44.7974 90.4778 44.6118 89.9209 44.6118H89.1454V46.567H89.6115V45.7585H89.859L90.2303 46.567H90.7583L90.3251 45.6966C90.6015 45.6059 90.7583 45.4161 90.7583 45.1686ZM89.859 45.4491H89.6115V44.8881H89.826C90.1065 44.8881 90.2591 44.983 90.2591 45.1686C90.2591 45.3873 90.1395 45.4491 89.859 45.4491ZM89.8879 43.8321C89.4199 43.8375 88.9727 44.0264 88.6425 44.3581C88.3124 44.6898 88.1256 45.1379 88.1224 45.6059C88.1224 46.567 88.9309 47.3755 89.892 47.3755C90.3619 47.3755 90.8125 47.1889 91.1448 46.8566C91.477 46.5243 91.6637 46.0737 91.6637 45.6038C91.6637 45.1339 91.477 44.6833 91.1448 44.3511C90.8125 44.0188 90.3578 43.8321 89.8879 43.8321ZM89.8879 47.0331C89.5114 47.0278 89.1519 46.8756 88.886 46.6089C88.6202 46.3423 88.469 45.9824 88.4647 45.6059C88.468 45.228 88.6192 44.8664 88.8861 44.5988C89.1529 44.3311 89.5141 44.1788 89.892 44.1745C90.2692 44.1799 90.6293 44.3327 90.8953 44.6002C91.1612 44.8677 91.3119 45.2287 91.3151 45.6059C91.3109 45.9824 91.1597 46.3423 90.8938 46.6089C90.628 46.8756 90.2644 47.0278 89.8879 47.0331ZM86.0186 37.2816H12.9195C5.17275 37.2486 0 42.8421 0 49.5164C0 56.1906 5.17275 61.7223 12.9525 61.7223H86.0475C93.8273 61.7223 99 56.1948 99 49.5164C98.9711 42.8421 93.7654 37.2816 86.0186 37.2816ZM85.9856 58.7399H12.9525C6.78563 58.7729 3.036 54.6108 3.036 49.5164C3.036 44.422 6.81863 40.3259 12.9525 40.2929H85.9856C92.1195 40.2929 95.9021 44.422 95.9021 49.5164C95.9021 54.6108 92.1525 58.7399 85.9856 58.7399Z" fill="#FF0000"/>
</svg>
