<svg width="113" height="26" viewBox="0 0 113 26" fill="none" xmlns="http://www.w3.org/2000/svg">
<g clip-path="url(#clip0_2430_819)">
<path d="M65.5385 10.1614H61.0903V10.6365C62.4816 10.6365 62.7054 10.9367 62.7054 12.7134V15.9163C62.7054 17.6927 62.4818 18.0181 61.0903 18.0181C60.0221 17.8681 59.301 17.2923 58.3072 16.1914L57.164 14.9405C58.7045 14.665 59.5246 13.6894 59.5246 12.5883C59.5246 11.2125 58.3571 10.1616 56.1699 10.1616H51.7965V10.6365C53.1878 10.6365 53.4116 10.9367 53.4116 12.7134V15.9163C53.4116 17.6927 53.1878 18.0181 51.7965 18.0181V18.4934H56.7413V18.0178C55.35 18.0178 55.1264 17.6927 55.1264 15.9163V15.0156H55.5486L58.307 18.4934H65.5385C69.0919 18.4934 70.6326 16.5921 70.6326 14.3147C70.6326 12.0378 69.0921 10.1614 65.5385 10.1614ZM55.1267 14.2396V10.9121H56.1452C57.2633 10.9121 57.7605 11.6876 57.7605 12.5885C57.7605 13.4643 57.2633 14.2396 56.1452 14.2396H55.1267ZM65.6131 17.7178H65.439C64.5447 17.7178 64.4205 17.4927 64.4205 16.3416V10.9121H65.6131C68.1976 10.9121 68.6694 12.8134 68.6694 14.2898C68.6694 15.8161 68.1971 17.7178 65.6131 17.7178ZM37.9557 15.1658L39.6704 10.0612C40.1676 8.58496 39.9438 8.15985 38.3534 8.15985V7.65918H43.0251V8.15985C41.4596 8.15985 41.0871 8.53496 40.4658 10.3616L37.6326 18.9187H37.3097L34.7747 11.0867L32.1903 18.9187H31.8672L29.1093 10.3616C28.5129 8.53496 28.1152 8.15985 26.6738 8.15985V7.65918H32.1905V8.15985C30.7244 8.15985 30.3265 8.51007 30.8486 10.0612L32.5134 15.1656L35.0232 7.65918H35.4956L37.9557 15.1658ZM46.4042 18.8185C43.6708 18.8185 41.4345 16.7918 41.4345 14.3145C41.4345 11.8627 43.6711 9.83562 46.4042 9.83562C49.1379 9.83562 51.374 11.8627 51.374 14.3145C51.374 16.7918 49.1379 18.8185 46.4042 18.8185ZM46.4042 10.6118C44.1182 10.6118 43.323 12.6883 43.323 14.3147C43.323 15.9665 44.1182 18.0181 46.4042 18.0181C48.7155 18.0181 49.5106 15.9665 49.5106 14.3147C49.5106 12.6883 48.7155 10.6118 46.4042 10.6118Z" fill="#00749A"/>
<path d="M76.7694 17.9929V18.4933H71.0788V17.9929C72.744 17.9929 73.0421 17.5676 73.0421 15.0651V11.0622C73.0421 8.55956 72.744 8.15956 71.0788 8.15956V7.65889H76.2227C78.782 7.65889 80.1989 8.98511 80.1989 10.7618C80.1989 12.4884 78.782 13.8393 76.2227 13.8393H74.8062V15.0649C74.8062 17.5676 75.1042 17.9929 76.7694 17.9929ZM76.2227 8.55956H74.8062V12.9136H76.2227C77.6144 12.9136 78.2604 11.9378 78.2604 10.7618C78.2604 9.56089 77.6144 8.55956 76.2227 8.55956ZM97.2703 16.1413L97.146 16.5918C96.9224 17.4173 96.6488 17.7178 94.8845 17.7178H94.5364C93.2446 17.7178 93.0209 17.4173 93.0209 15.6411V14.49C94.9593 14.49 95.1085 14.6651 95.1085 15.9664H95.5806V12.2378H95.1083C95.1083 13.5389 94.9593 13.714 93.0209 13.714V10.9118H94.3872C96.152 10.9118 96.425 11.2122 96.6488 12.0378L96.7732 12.5129H97.1705L96.997 10.1611H89.6909V10.6362C91.0822 10.6362 91.3062 10.9364 91.3062 12.7131V15.916C91.3062 17.5411 91.1162 17.9504 90.0191 18.0089C88.9762 17.8484 88.2605 17.2758 87.2808 16.1911L86.1376 14.9402C87.6785 14.6647 88.4986 13.6891 88.4986 12.588C88.4986 11.2122 87.3307 10.1613 85.144 10.1613H80.7705V10.6362C82.1618 10.6362 82.3856 10.9364 82.3856 12.7131V15.916C82.3856 17.6924 82.162 18.0178 80.7705 18.0178V18.4931H85.7156V18.0176C84.3243 18.0176 84.1005 17.6924 84.1005 15.916V15.0156H84.5229L87.281 18.4933H97.4943L97.6435 16.1416L97.2703 16.1413ZM84.1003 14.2396V10.912H85.1188C86.2371 10.912 86.7343 11.6876 86.7343 12.5884C86.7343 13.4642 86.2371 14.2396 85.1188 14.2396H84.1003ZM102.315 18.8184C101.321 18.8184 100.451 18.2931 100.078 17.9676C99.9538 18.0929 99.7302 18.4682 99.6808 18.8184H99.2085V15.3658H99.7055C99.9044 17.0169 101.047 17.9929 102.514 17.9929C103.309 17.9929 103.955 17.5427 103.955 16.792C103.955 16.1416 103.383 15.6409 102.365 15.1658L100.948 14.4902C99.9538 14.0144 99.2085 13.1887 99.2085 12.088C99.2085 10.8871 100.327 9.86133 101.868 9.86133C102.688 9.86133 103.383 10.1616 103.806 10.5118C103.93 10.4118 104.054 10.1362 104.129 9.83578H104.601V12.7889H104.079C103.905 11.6127 103.259 10.6369 101.942 10.6369C101.246 10.6369 100.6 11.0373 100.6 11.6631C100.6 12.3136 101.122 12.6636 102.315 13.2142L103.681 13.8898C104.874 14.4651 105.346 15.3913 105.346 16.1418C105.346 17.718 103.979 18.8184 102.315 18.8184ZM109.968 18.8187C108.974 18.8187 108.104 18.2933 107.732 17.9678C107.607 18.0931 107.384 18.4684 107.335 18.8187H106.862V15.3658H107.359C107.558 17.0169 108.701 17.9929 110.167 17.9929C110.962 17.9929 111.608 17.5427 111.608 16.792C111.608 16.1416 111.037 15.6409 110.018 15.1658L108.601 14.4902C107.607 14.0144 106.862 13.1887 106.862 12.088C106.862 10.8871 107.98 9.86133 109.521 9.86133C110.341 9.86133 111.037 10.1616 111.459 10.5118C111.583 10.4118 111.708 10.1362 111.782 9.83578H112.254V12.7889H111.732C111.558 11.6127 110.912 10.6369 109.596 10.6369C108.9 10.6369 108.253 11.0373 108.253 11.6631C108.253 12.3136 108.775 12.6636 109.968 13.2142L111.335 13.8898C112.528 14.4651 113 15.3913 113 16.1418C113 17.718 111.633 18.8187 109.968 18.8187ZM1.82212 12.9073C1.82212 17.2904 4.35205 21.078 8.02035 22.8731L2.77424 8.40089C2.14535 9.81888 1.8209 11.3544 1.82212 12.9073ZM20.2438 12.3489C20.2438 10.9804 19.7556 10.0327 19.3367 9.29489C18.7792 8.38289 18.2568 7.61044 18.2568 6.69844C18.2568 5.68044 19.0235 4.73289 20.1034 4.73289C20.1522 4.73289 20.1983 4.73911 20.246 4.74178C18.2894 2.93689 15.6827 1.83511 12.8195 1.83511C8.97754 1.83511 5.59747 3.81978 3.63101 6.82622C3.88923 6.83378 4.13222 6.83933 4.3388 6.83933C5.48911 6.83933 7.26974 6.69867 7.26974 6.69867C7.86255 6.66356 7.93229 7.54022 7.34036 7.61089C7.34036 7.61089 6.74447 7.68156 6.08147 7.71644L10.0864 19.7104L12.4929 12.4429L10.7796 7.71622C10.1874 7.68111 9.62641 7.61045 9.62641 7.61045C9.0336 7.57556 9.10334 6.66311 9.69571 6.69844C9.69571 6.69844 11.5121 6.83889 12.5927 6.83889C13.7425 6.83889 15.5236 6.69844 15.5236 6.69844C16.1166 6.66311 16.1864 7.53978 15.594 7.61045C15.594 7.61045 14.997 7.68111 14.3353 7.716L18.3095 19.6191L19.4064 15.928C19.8818 14.3967 20.2438 13.2969 20.2438 12.3489ZM13.0124 13.876L9.71292 23.53C10.7217 23.8292 11.7679 23.9811 12.8195 23.9811C14.0634 23.9815 15.2983 23.7693 16.4715 23.3533C16.4411 23.3049 16.4149 23.2539 16.3934 23.2009L13.0124 13.876ZM22.4693 7.59489C22.5166 7.94756 22.5435 8.326 22.5435 8.73356C22.5435 9.85711 22.3349 11.1202 21.707 12.6996L18.3479 22.4789C21.6174 20.5591 23.8165 16.9927 23.8165 12.9078C23.8195 11.0508 23.3561 9.22317 22.4693 7.59489ZM12.8195 0C5.75108 0 0 5.79022 0 12.9073C0 20.0256 5.75108 25.8156 12.8195 25.8156C19.888 25.8156 25.6397 20.0256 25.6397 12.9073C25.6397 5.79022 19.888 0 12.8195 0ZM12.8195 25.2238C6.07529 25.2238 0.587732 19.6987 0.587732 12.9073C0.587732 6.11667 6.07507 0.591778 12.8195 0.591778C19.5638 0.591778 25.0509 6.11667 25.0509 12.9073C25.0509 19.6987 19.5638 25.2238 12.8195 25.2238Z" fill="white"/>
</g>
<defs>
<clipPath id="clip0_2430_819">
<rect width="113" height="26" fill="white"/>
</clipPath>
</defs>
</svg>
