<svg width="376" height="280" viewBox="0 0 376 280" fill="none" xmlns="http://www.w3.org/2000/svg">
<g filter="url(#filter0_b_269_1442)">
<rect width="266" height="203" rx="14" transform="matrix(1 0 0 -1 59 246)" fill="#6660A0" fill-opacity="0.2"/>
<rect x="0.267857" y="-0.267857" width="265.464" height="202.464" rx="13.7321" transform="matrix(1 0 0 -1 59 245.464)" stroke="url(#paint0_linear_269_1442)" stroke-width="0.535714"/>
</g>
<g clip-path="url(#clip0_269_1442)">
<path d="M17.1908 219.28L33.8154 202.656C37.4761 205.39 41.9201 206.872 46.4891 206.882H46.4936L46.7357 206.885C52.1267 206.885 57.2969 204.743 61.1089 200.931C64.9209 197.119 67.0625 191.949 67.0625 186.558L67.0603 186.302V186.316C67.0603 180.786 64.8637 175.483 60.9537 171.573C57.0437 167.663 51.7406 165.467 46.211 165.467C40.6815 165.467 35.3784 167.663 31.4684 171.573C27.5584 175.483 25.3618 180.786 25.3618 186.316C25.4197 190.904 26.9127 195.36 29.6312 199.057L29.5886 198.996L12.964 215.621L17.1908 219.28ZM46.211 171.099C50.2251 170.97 54.1266 172.439 57.0582 175.184C59.9899 177.929 61.7119 181.725 61.846 185.739C61.9801 189.753 60.5153 193.656 57.7734 196.591C55.0315 199.525 51.2368 201.251 47.223 201.39C43.2092 201.528 39.3046 200.068 36.3671 197.329C33.4295 194.59 31.6994 190.797 31.5566 186.784C31.4139 182.77 32.8703 178.864 35.6059 175.923C38.3415 172.983 42.1325 171.249 46.146 171.102L46.211 171.099Z" fill="url(#paint1_linear_269_1442)"/>
<path d="M66.8125 186.558L66.8104 186.316H66.8103C66.8103 180.853 64.64 175.613 60.7769 171.75C56.9138 167.887 51.6743 165.717 46.211 165.717C40.7478 165.717 35.5083 167.887 31.6452 171.75C27.7825 175.613 25.6123 180.851 25.6118 186.314C25.6678 190.728 27.067 195.017 29.6187 198.613L29.622 198.609L29.7931 198.852L29.8326 198.909L29.8357 198.913L29.6435 199.051L29.7654 199.173L13.3307 215.608L17.1785 218.939L33.6386 202.479L33.7916 202.326L33.965 202.455C37.5826 205.157 41.9744 206.622 46.4897 206.632L46.4936 206.632L46.4959 206.632L46.7357 206.635C46.7361 206.635 46.7365 206.635 46.7368 206.635C52.0611 206.634 57.1673 204.519 60.9322 200.754C64.697 196.989 66.8122 191.883 66.8125 186.559C66.8125 186.559 66.8125 186.558 66.8125 186.558ZM46.2024 170.849L46.203 170.849C50.2833 170.717 54.2491 172.211 57.2291 175.001C60.2091 177.791 61.9595 181.651 62.0959 185.731C62.2322 189.811 60.7432 193.778 57.9561 196.761C55.1689 199.744 51.3116 201.499 47.2316 201.64C43.1516 201.78 39.1826 200.296 36.1966 197.512C33.2106 194.728 31.4519 190.872 31.3068 186.792C31.1617 182.713 32.6422 178.742 35.4229 175.753C38.2036 172.764 42.0571 171.001 46.1369 170.852L46.1374 170.852L46.2024 170.849Z" stroke="white" stroke-opacity="0.7" stroke-width="0.5"/>
</g>
<path d="M354.153 133.847H346.422C345.184 131.64 343.478 129.709 341.415 128.33L345.899 123.944L342.02 120.055L336.05 126.041C333.491 125.418 330.822 125.418 328.264 126.041L322.266 120.055L318.387 123.944L322.844 128.33C320.78 129.709 319.102 131.668 317.864 133.847H310.133V139.364H315.883C315.718 140.274 315.635 141.184 315.635 142.122V144.881H310.133V150.397H315.635V153.156C315.635 154.094 315.718 155.004 315.883 155.914H310.133V161.431H317.864C318.948 163.311 320.392 164.957 322.112 166.277C323.831 167.597 325.794 168.563 327.887 169.122C329.979 169.68 332.162 169.82 334.308 169.532C336.455 169.244 338.524 168.535 340.397 167.444C342.9 166.01 344.991 163.914 346.422 161.431H354.153V155.914H348.403C348.568 155.004 348.65 154.094 348.65 153.156V150.397H354.153V144.881H348.65V142.122C348.65 141.184 348.568 140.274 348.403 139.364H354.153V133.847ZM343.148 153.156C343.148 156.082 341.988 158.889 339.925 160.958C337.861 163.027 335.062 164.189 332.143 164.189C329.224 164.189 326.425 163.027 324.361 160.958C322.297 158.889 321.138 156.082 321.138 153.156V142.122C321.138 139.196 322.297 136.389 324.361 134.32C326.425 132.251 329.224 131.089 332.143 131.089C335.062 131.089 337.861 132.251 339.925 134.32C341.988 136.389 343.148 139.196 343.148 142.122V153.156ZM337.645 139.364V144.881H326.64V139.364H337.645ZM326.64 150.397H337.645V155.914H326.64V150.397Z" fill="url(#paint2_linear_269_1442)"/>
<path d="M345.544 123.942L341.24 128.151L341.02 128.367L341.276 128.538C343.303 129.893 344.983 131.793 346.204 133.969L346.275 134.097H346.422H353.903V139.114H348.403H348.103L348.157 139.408C348.319 140.304 348.4 141.199 348.4 142.122V144.881V145.131H348.65H353.903V150.147H348.65H348.4V150.397V153.156C348.4 154.079 348.319 154.974 348.157 155.87L348.103 156.164H348.403H353.903V161.181H346.422H346.277L346.205 161.306C344.797 163.751 342.737 165.815 340.272 167.227L340.271 167.228C338.426 168.302 336.389 169.001 334.275 169.284C332.161 169.568 330.012 169.43 327.951 168.88C325.89 168.33 323.957 167.378 322.264 166.079C320.57 164.779 319.148 163.157 318.08 161.306L318.008 161.181H317.864H310.383V156.164H315.883H316.182L316.129 155.87C315.967 154.974 315.885 154.079 315.885 153.156V150.397V150.147H315.635H310.383V145.131H315.635H315.885V144.881V142.122C315.885 141.199 315.967 140.304 316.129 139.408L316.182 139.114H315.883H310.383V134.097H317.864H318.009L318.081 133.97C319.304 131.818 320.957 129.892 322.983 128.538L323.238 128.367L323.019 128.152L318.741 123.943L322.266 120.409L328.087 126.218L328.186 126.317L328.323 126.284C330.842 125.671 333.471 125.671 335.991 126.284L336.127 126.317L336.227 126.217L342.02 120.409L345.544 123.942ZM340.102 161.134C342.212 159.018 343.398 156.148 343.398 153.156V142.122C343.398 139.13 342.212 136.26 340.102 134.144C337.991 132.028 335.128 130.839 332.143 130.839C329.158 130.839 326.295 132.028 324.184 134.144C322.073 136.26 320.888 139.13 320.888 142.122V153.156C320.888 156.148 322.073 159.018 324.184 161.134C326.295 163.25 329.158 164.439 332.143 164.439C335.128 164.439 337.991 163.25 340.102 161.134ZM337.395 144.631H326.89V139.614H337.395V144.631ZM337.395 150.647V155.664H326.89V150.647H337.395Z" stroke="white" stroke-opacity="0.7" stroke-width="0.5"/>
<path d="M287.506 77.879H94.248C94.521 76.3311 95.0541 74.8667 95.7991 73.5404C98.1788 69.3014 102.716 66.4304 107.916 66.4304H273.839C279.035 66.4304 283.575 69.3014 285.952 73.5404C286.697 74.8667 287.233 76.3311 287.506 77.879Z" fill="#F2F2F2"/>
<path d="M236.047 134.236H145.706C144.867 134.236 144.184 133.371 144.184 132.309C144.184 131.246 144.867 130.382 145.706 130.382H236.047C236.887 130.382 237.57 131.246 237.57 132.309C237.57 133.371 236.887 134.236 236.047 134.236Z" fill="#E6E6E6"/>
<path d="M287.507 77.879C287.234 76.3311 286.697 74.8667 285.952 73.5404C283.576 69.3014 279.035 66.4304 273.839 66.4304H107.916C102.717 66.4304 98.1791 69.3014 95.7995 73.5404C95.0544 74.8667 94.5213 76.3311 94.2484 77.879C94.1071 78.669 94.0332 79.4815 94.0332 80.3132V198.63C94.0332 206.286 100.26 212.513 107.916 212.513H273.839C275.425 212.513 276.954 212.244 278.377 211.749C283.81 209.867 287.722 204.697 287.722 198.63V80.3132C287.722 79.4847 287.648 78.669 287.507 77.879ZM287.079 198.63C287.079 205.329 282.102 210.869 275.644 211.749C275.053 211.829 274.452 211.871 273.839 211.871H127.637C109.432 211.871 94.6755 197.111 94.6755 178.906V80.3132C94.6755 79.4815 94.7526 78.669 94.9003 77.879C95.1893 76.3183 95.7513 74.8571 96.5381 73.5404C98.8471 69.6675 103.08 67.0727 107.916 67.0727H273.839C278.675 67.0727 282.908 69.6675 285.217 73.5404C286.004 74.8571 286.566 76.3183 286.855 77.879C287.002 78.669 287.079 79.4815 287.079 80.3132V198.63Z" fill="white"/>
<path d="M189.155 165.547H167.428C166.102 165.547 165.023 164.468 165.023 163.142V160.969C165.023 159.643 166.102 158.564 167.428 158.564H189.155C190.481 158.564 191.56 159.643 191.56 160.969V163.142C191.56 164.468 190.481 165.547 189.155 165.547Z" fill="#0084FF"/>
<path d="M272.651 94.5337H250.924C249.598 94.5337 248.52 93.4548 248.52 92.1289V89.9559C248.52 88.6299 249.598 87.5514 250.924 87.5514H272.651C273.977 87.5514 275.056 88.6299 275.056 89.9559V92.1289C275.056 93.4548 273.977 94.5337 272.651 94.5337Z" fill="#0084FF"/>
<path d="M221.39 165.707H199.663C198.248 165.707 197.098 164.556 197.098 163.142V160.969C197.098 159.554 198.248 158.404 199.663 158.404H221.39C222.804 158.404 223.955 159.554 223.955 160.969V163.142C223.955 164.556 222.804 165.707 221.39 165.707ZM199.663 159.046C198.603 159.046 197.74 159.909 197.74 160.969V163.142C197.74 164.202 198.603 165.065 199.663 165.065H221.39C222.45 165.065 223.313 164.202 223.313 163.142V160.969C223.313 159.909 222.45 159.046 221.39 159.046H199.663Z" fill="#0084FF"/>
<path d="M248.039 124.28H133.714C132.652 124.28 131.787 123.416 131.787 122.354C131.787 121.291 132.652 120.427 133.714 120.427H248.039C249.102 120.427 249.966 121.291 249.966 122.354C249.966 123.416 249.102 124.28 248.039 124.28Z" fill="#E6E6E6"/>
<path d="M126.435 92.9694H111.983C110.921 92.9694 110.057 92.1051 110.057 91.0426C110.057 89.98 110.921 89.1157 111.983 89.1157H126.435C127.497 89.1157 128.362 89.98 128.362 91.0426C128.362 92.1051 127.497 92.9694 126.435 92.9694Z" fill="#E6E6E6"/>
<path d="M212.819 92.9694H198.368C197.306 92.9694 196.441 92.1051 196.441 91.0426C196.441 89.98 197.306 89.1157 198.368 89.1157H212.819C213.882 89.1157 214.746 89.98 214.746 91.0426C214.746 92.1051 213.882 92.9694 212.819 92.9694Z" fill="#E6E6E6"/>
<path d="M240.116 92.9694H225.665C224.603 92.9694 223.738 92.1051 223.738 91.0426C223.738 89.98 224.603 89.1157 225.665 89.1157H240.116C241.179 89.1157 242.043 89.98 242.043 91.0426C242.043 92.1051 241.179 92.9694 240.116 92.9694Z" fill="#E6E6E6"/>
<path d="M222.671 144.191H159.085C158.023 144.191 157.158 143.327 157.158 142.264C157.158 141.202 158.023 140.337 159.085 140.337H222.671C223.733 140.337 224.597 141.202 224.597 142.264C224.597 143.327 223.733 144.191 222.671 144.191Z" fill="#E6E6E6"/>
<path d="M225.439 186.342H156.312C155.669 186.342 155.146 185.82 155.146 185.177C155.146 184.535 155.669 184.012 156.312 184.012H225.439C226.081 184.012 226.604 184.535 226.604 185.177C226.604 185.82 226.081 186.342 225.439 186.342Z" fill="#E6E6E6"/>
<path d="M226.083 73.3014H156.956C156.314 73.3014 155.791 72.7788 155.791 72.1364C155.791 71.4939 156.314 70.9713 156.956 70.9713H226.083C226.726 70.9713 227.248 71.4939 227.248 72.1364C227.248 72.7788 226.726 73.3014 226.083 73.3014Z" fill="white"/>
<g filter="url(#filter1_b_269_1442)">
<rect x="200" y="179" width="99.7116" height="94.3699" rx="16" fill="url(#paint3_linear_269_1442)" fill-opacity="0.3"/>
</g>
<g filter="url(#filter2_b_269_1442)">
<rect width="190.364" height="97.9933" rx="16" fill="url(#paint4_linear_269_1442)" fill-opacity="0.12"/>
</g>
<rect opacity="0.2" x="24.9004" y="23.2935" width="140.156" height="51.8907" rx="4" fill="url(#paint5_linear_269_1442)"/>
<path d="M63.724 55.6903V42.3032C63.724 39.4009 58.8203 36.9484 53.0143 36.9484C47.2084 36.9484 42.3047 39.4009 42.3047 42.3032V55.6903C42.3047 58.5926 47.2084 61.0451 53.0143 61.0451C58.8203 61.0451 63.724 58.5926 63.724 55.6903ZM53.0143 39.6258C57.9555 39.6258 60.9542 41.6432 61.0466 42.2952C60.9542 42.9632 57.9555 44.9806 53.0143 44.9806C48.0732 44.9806 45.0745 42.9632 44.9821 42.3112C45.0745 41.6432 48.0732 39.6258 53.0143 39.6258ZM44.9821 45.7932C46.962 46.9271 49.851 47.658 53.0143 47.658C56.1777 47.658 59.0666 46.9271 61.0466 45.7932V48.9887C60.9542 49.6567 57.9555 51.6741 53.0143 51.6741C48.0732 51.6741 45.0745 49.6567 44.9821 48.9967V45.7932ZM44.9821 55.6903V52.4867C46.962 53.6206 49.851 54.3516 53.0143 54.3516C56.1777 54.3516 59.0666 53.6206 61.0466 52.4867V55.6822C60.9542 56.3502 57.9555 58.3677 53.0143 58.3677C48.0732 58.3677 45.0745 56.3502 44.9821 55.6903Z" fill="white"/>
<path d="M137.397 36.1601L146.342 39.4622C146.829 39.642 147.249 39.9639 147.545 40.3849C147.841 40.806 148 41.306 148 41.8183V48.5647C148 50.6672 147.406 52.7283 146.283 54.5168C145.16 56.3054 143.553 57.7508 141.643 58.6911L137.358 60.8007C137.091 60.9318 136.798 61 136.5 61C136.203 61 135.909 60.9318 135.643 60.8007L131.357 58.6911C129.447 57.7508 127.84 56.3054 126.718 54.5168C125.595 52.7283 125 50.6672 125 48.5647V41.8183C125 41.306 125.159 40.806 125.455 40.3849C125.752 39.9639 126.171 39.642 126.659 39.4622L135.603 36.1601C136.182 35.9466 136.819 35.9466 137.397 36.1601ZM136.5 38.5162L127.556 41.8183V48.5647C127.556 50.1998 128.019 51.8026 128.892 53.1934C129.766 54.5843 131.015 55.7082 132.501 56.4394L136.5 58.4106L140.5 56.4419C141.986 55.7106 143.235 54.5862 144.109 53.1949C144.982 51.8036 145.445 50.2002 145.445 48.5647V41.8183L136.5 38.5162ZM136.5 43.4624C136.839 43.4624 137.164 43.595 137.404 43.8309C137.643 44.0668 137.778 44.3868 137.778 44.7204V47.2363H140.333C140.672 47.2363 140.997 47.3688 141.237 47.6047C141.477 47.8406 141.611 48.1606 141.611 48.4942C141.611 48.8278 141.477 49.1478 141.237 49.3837C140.997 49.6196 140.672 49.7522 140.333 49.7522H137.778V52.268C137.778 52.6017 137.643 52.9216 137.404 53.1575C137.164 53.3935 136.839 53.526 136.5 53.526C136.161 53.526 135.836 53.3935 135.597 53.1575C135.357 52.9216 135.222 52.6017 135.222 52.268V49.7522H132.667C132.328 49.7522 132.003 49.6196 131.763 49.3837C131.524 49.1478 131.389 48.8278 131.389 48.4942C131.389 48.1606 131.524 47.8406 131.763 47.6047C132.003 47.3688 132.328 47.2363 132.667 47.2363H135.222V44.7204C135.222 44.3868 135.357 44.0668 135.597 43.8309C135.836 43.595 136.161 43.4624 136.5 43.4624Z" fill="white"/>
<g clip-path="url(#clip1_269_1442)">
<path d="M102.391 51.7424C102.61 51.6695 102.843 51.6543 103.07 51.6982L103.237 51.7424L107.253 53.0811C107.495 53.1616 107.708 53.3093 107.869 53.5068C108.029 53.7043 108.13 53.9435 108.159 54.1963L108.169 54.3516V56.5885C108.169 58.0204 107.641 59.4021 106.686 60.4692C105.731 61.5362 104.416 62.2136 102.993 62.3717C102.874 62.3851 102.754 62.3851 102.635 62.3717C101.261 62.2186 99.9863 61.5813 99.0394 60.5742C98.0926 59.567 97.5352 58.2557 97.4671 56.875L97.4591 56.5872V54.3516C97.459 54.097 97.5315 53.8477 97.6681 53.6329C97.8046 53.418 97.9996 53.2466 98.2302 53.1387L98.3748 53.0811L102.391 51.7424ZM91.4603 36.9484C91.8211 36.9482 92.1782 37.0209 92.5101 37.1621C92.8421 37.3034 93.1421 37.5102 93.3921 37.7703L93.5527 37.9537L95.4243 40.2951H105.491C106.167 40.2949 106.817 40.55 107.313 41.0093C107.808 41.4686 108.111 42.0982 108.162 42.7717L108.169 42.9725V50.3354H105.491V42.9725H95.4243C95.0637 42.9726 94.7069 42.8998 94.3752 42.7585C94.0435 42.6173 93.7437 42.4105 93.4938 42.1506L93.3332 41.9672L91.4617 39.6258H84.072V58.3677H94.7817V61.0451H84.072C83.3965 61.0453 82.7459 60.7902 82.2506 60.3309C81.7553 59.8716 81.452 59.2421 81.4013 58.5685L81.3946 58.3677V39.6258C81.3944 38.9503 81.6495 38.2997 82.1088 37.8044C82.5681 37.3091 83.1976 37.0057 83.8712 36.9551L84.072 36.9484H91.4603ZM102.814 54.4238L100.137 55.3168V56.5885C100.137 58.1508 101.281 59.4668 102.814 59.6957C103.521 59.59 104.17 59.2466 104.655 58.7221C105.141 58.1977 105.433 57.5235 105.483 56.8108L105.491 56.5872V55.3154L102.814 54.4238Z" fill="white"/>
</g>
<defs>
<filter id="filter0_b_269_1442" x="24.7143" y="8.71429" width="334.571" height="271.571" filterUnits="userSpaceOnUse" color-interpolation-filters="sRGB">
<feFlood flood-opacity="0" result="BackgroundImageFix"/>
<feGaussianBlur in="BackgroundImageFix" stdDeviation="17.1429"/>
<feComposite in2="SourceAlpha" operator="in" result="effect1_backgroundBlur_269_1442"/>
<feBlend mode="normal" in="SourceGraphic" in2="effect1_backgroundBlur_269_1442" result="shape"/>
</filter>
<filter id="filter1_b_269_1442" x="196" y="175" width="107.712" height="102.37" filterUnits="userSpaceOnUse" color-interpolation-filters="sRGB">
<feFlood flood-opacity="0" result="BackgroundImageFix"/>
<feGaussianBlur in="BackgroundImageFix" stdDeviation="2"/>
<feComposite in2="SourceAlpha" operator="in" result="effect1_backgroundBlur_269_1442"/>
<feBlend mode="normal" in="SourceGraphic" in2="effect1_backgroundBlur_269_1442" result="shape"/>
</filter>
<filter id="filter2_b_269_1442" x="-4" y="-4" width="198.364" height="105.993" filterUnits="userSpaceOnUse" color-interpolation-filters="sRGB">
<feFlood flood-opacity="0" result="BackgroundImageFix"/>
<feGaussianBlur in="BackgroundImageFix" stdDeviation="2"/>
<feComposite in2="SourceAlpha" operator="in" result="effect1_backgroundBlur_269_1442"/>
<feBlend mode="normal" in="SourceGraphic" in2="effect1_backgroundBlur_269_1442" result="shape"/>
</filter>
<linearGradient id="paint0_linear_269_1442" x1="0" y1="203" x2="283.851" y2="36.2072" gradientUnits="userSpaceOnUse">
<stop stop-color="#0084FF" stop-opacity="0.4"/>
<stop offset="0.407091" stop-color="white" stop-opacity="0.726314"/>
<stop offset="1" stop-color="white" stop-opacity="0"/>
</linearGradient>
<linearGradient id="paint1_linear_269_1442" x1="40" y1="168.5" x2="40" y2="224.5" gradientUnits="userSpaceOnUse">
<stop stop-color="white" stop-opacity="0.12"/>
<stop offset="0.5" stop-color="white" stop-opacity="0.73"/>
<stop offset="1" stop-color="#353535" stop-opacity="0"/>
</linearGradient>
<linearGradient id="paint2_linear_269_1442" x1="332.154" y1="122.852" x2="332.154" y2="174.491" gradientUnits="userSpaceOnUse">
<stop stop-color="white" stop-opacity="0.12"/>
<stop offset="0.5" stop-color="white" stop-opacity="0.73"/>
<stop offset="1" stop-color="#353535" stop-opacity="0"/>
</linearGradient>
<linearGradient id="paint3_linear_269_1442" x1="196.716" y1="179" x2="289.817" y2="285.12" gradientUnits="userSpaceOnUse">
<stop stop-color="white"/>
<stop offset="1" stop-color="white" stop-opacity="0"/>
</linearGradient>
<linearGradient id="paint4_linear_269_1442" x1="-6.27044" y1="1.07911e-07" x2="69.5254" y2="158.842" gradientUnits="userSpaceOnUse">
<stop stop-color="white"/>
<stop offset="1" stop-color="white" stop-opacity="0"/>
</linearGradient>
<linearGradient id="paint5_linear_269_1442" x1="26.9084" y1="23.2935" x2="164.661" y2="75.503" gradientUnits="userSpaceOnUse">
<stop stop-color="#FA00FF"/>
<stop offset="1" stop-color="#0084FF"/>
</linearGradient>
<clipPath id="clip0_269_1442">
<rect width="53.816" height="53.816" fill="white" transform="matrix(-1 0 0 1 67.0625 165.464)"/>
</clipPath>
<clipPath id="clip1_269_1442">
<rect width="32.129" height="32.129" fill="white" transform="translate(78.7169 32.9323)"/>
</clipPath>
</defs>
</svg>
