<svg width="376" height="280" viewBox="0 0 376 280" fill="none" xmlns="http://www.w3.org/2000/svg">
<g filter="url(#filter0_b_897_1144)">
<rect width="266" height="203" rx="14" transform="matrix(1 0 0 -1 59 246)" fill="#6660A0" fill-opacity="0.2"/>
<rect x="0.267857" y="-0.267857" width="265.464" height="202.464" rx="13.7321" transform="matrix(1 0 0 -1 59 245.464)" stroke="url(#paint0_linear_897_1144)" stroke-width="0.535714"/>
</g>
<path d="M354.153 133.847H346.422C345.184 131.64 343.478 129.709 341.415 128.33L345.899 123.944L342.02 120.055L336.05 126.041C333.491 125.418 330.822 125.418 328.264 126.041L322.266 120.055L318.387 123.944L322.844 128.33C320.78 129.709 319.102 131.668 317.864 133.847H310.133V139.364H315.883C315.718 140.274 315.635 141.184 315.635 142.122V144.881H310.133V150.397H315.635V153.156C315.635 154.094 315.718 155.004 315.883 155.914H310.133V161.431H317.864C318.948 163.31 320.392 164.957 322.112 166.277C323.831 167.596 325.794 168.563 327.887 169.122C329.979 169.68 332.162 169.82 334.308 169.532C336.455 169.244 338.524 168.535 340.397 167.444C342.9 166.01 344.991 163.913 346.422 161.431H354.153V155.914H348.403C348.568 155.004 348.65 154.094 348.65 153.156V150.397H354.153V144.881H348.65V142.122C348.65 141.184 348.568 140.274 348.403 139.364H354.153V133.847ZM343.148 153.156C343.148 156.082 341.988 158.888 339.925 160.958C337.861 163.027 335.062 164.189 332.143 164.189C329.224 164.189 326.425 163.027 324.361 160.958C322.297 158.888 321.138 156.082 321.138 153.156V142.122C321.138 139.196 322.297 136.389 324.361 134.32C326.425 132.251 329.224 131.088 332.143 131.088C335.062 131.088 337.861 132.251 339.925 134.32C341.988 136.389 343.148 139.196 343.148 142.122V153.156ZM337.645 139.364V144.881H326.64V139.364H337.645ZM326.64 150.397H337.645V155.914H326.64V150.397Z" fill="url(#paint1_linear_897_1144)"/>
<path d="M345.544 123.942L341.24 128.151L341.02 128.367L341.276 128.538C343.303 129.893 344.983 131.793 346.204 133.969L346.275 134.097H346.422H353.903V139.114H348.403H348.103L348.157 139.408C348.319 140.304 348.4 141.199 348.4 142.122V144.881V145.131H348.65H353.903V150.147H348.65H348.4V150.397V153.156C348.4 154.079 348.319 154.974 348.157 155.87L348.103 156.164H348.403H353.903V161.181H346.422H346.277L346.205 161.306C344.797 163.751 342.737 165.815 340.272 167.227L340.271 167.228C338.426 168.302 336.389 169.001 334.275 169.284C332.161 169.567 330.012 169.43 327.951 168.88C325.89 168.33 323.957 167.378 322.264 166.078C320.57 164.779 319.148 163.157 318.08 161.306L318.008 161.181H317.864H310.383V156.164H315.883H316.182L316.129 155.87C315.967 154.974 315.885 154.079 315.885 153.156V150.397V150.147H315.635H310.383V145.131H315.635H315.885V144.881V142.122C315.885 141.199 315.967 140.304 316.129 139.408L316.182 139.114H315.883H310.383V134.097H317.864H318.009L318.081 133.97C319.304 131.818 320.957 129.892 322.983 128.538L323.238 128.367L323.019 128.152L318.741 123.943L322.266 120.408L328.087 126.218L328.186 126.317L328.323 126.284C330.842 125.671 333.471 125.671 335.991 126.284L336.127 126.317L336.227 126.217L342.02 120.409L345.544 123.942ZM340.102 161.134C342.212 159.018 343.398 156.148 343.398 153.156V142.122C343.398 139.13 342.212 136.26 340.102 134.144C337.991 132.027 335.128 130.838 332.143 130.838C329.158 130.838 326.295 132.027 324.184 134.144C322.073 136.26 320.888 139.13 320.888 142.122V153.156C320.888 156.148 322.073 159.018 324.184 161.134C326.295 163.25 329.158 164.439 332.143 164.439C335.128 164.439 337.991 163.25 340.102 161.134ZM337.395 144.631H326.89V139.614H337.395V144.631ZM337.395 150.647V155.664H326.89V150.647H337.395Z" stroke="white" stroke-opacity="0.7" stroke-width="0.5"/>
<path d="M287.506 77.879H94.248C94.521 76.3311 95.0541 74.8667 95.7991 73.5404C98.1788 69.3013 102.716 66.4304 107.916 66.4304H273.839C279.035 66.4304 283.575 69.3013 285.952 73.5404C286.697 74.8667 287.233 76.3311 287.506 77.879Z" fill="#F2F2F2" fill-opacity="0.8"/>
<path d="M236.047 134.236H145.706C144.867 134.236 144.184 133.371 144.184 132.309C144.184 131.246 144.867 130.382 145.706 130.382H236.047C236.887 130.382 237.57 131.246 237.57 132.309C237.57 133.371 236.887 134.236 236.047 134.236Z" fill="#E6E6E6"/>
<path d="M287.507 77.879C287.234 76.3311 286.697 74.8667 285.952 73.5404C283.576 69.3013 279.035 66.4304 273.839 66.4304H107.916C102.717 66.4304 98.1791 69.3013 95.7995 73.5404C95.0544 74.8667 94.5213 76.3311 94.2484 77.879C94.1071 78.669 94.0332 79.4814 94.0332 80.3132V198.63C94.0332 206.286 100.26 212.513 107.916 212.513H273.839C275.425 212.513 276.954 212.243 278.377 211.749C283.81 209.867 287.722 204.697 287.722 198.63V80.3132C287.722 79.4847 287.648 78.669 287.507 77.879ZM287.079 198.63C287.079 205.329 282.102 210.869 275.644 211.749C275.053 211.829 274.452 211.871 273.839 211.871H127.637C109.432 211.871 94.6755 197.111 94.6755 178.906V80.3132C94.6755 79.4814 94.7526 78.669 94.9003 77.879C95.1893 76.3182 95.7513 74.857 96.5381 73.5404C98.8471 69.6674 103.08 67.0726 107.916 67.0726H273.839C278.675 67.0726 282.908 69.6674 285.217 73.5404C286.004 74.857 286.566 76.3182 286.855 77.879C287.002 78.669 287.079 79.4814 287.079 80.3132V198.63Z" fill="white" fill-opacity="0.8"/>
<path d="M189.155 165.547H167.428C166.102 165.547 165.023 164.468 165.023 163.142V160.969C165.023 159.643 166.102 158.564 167.428 158.564H189.155C190.481 158.564 191.56 159.643 191.56 160.969V163.142C191.56 164.468 190.481 165.547 189.155 165.547Z" fill="#0084FF"/>
<path d="M272.651 94.5336H250.924C249.598 94.5336 248.52 93.4548 248.52 92.1288V89.9558C248.52 88.6298 249.598 87.5513 250.924 87.5513H272.651C273.977 87.5513 275.056 88.6298 275.056 89.9558V92.1288C275.056 93.4548 273.977 94.5336 272.651 94.5336Z" fill="#0084FF"/>
<path d="M221.39 165.707H199.663C198.248 165.707 197.098 164.556 197.098 163.142V160.969C197.098 159.554 198.248 158.404 199.663 158.404H221.39C222.804 158.404 223.955 159.554 223.955 160.969V163.142C223.955 164.556 222.804 165.707 221.39 165.707ZM199.663 159.046C198.603 159.046 197.74 159.909 197.74 160.969V163.142C197.74 164.202 198.603 165.065 199.663 165.065H221.39C222.45 165.065 223.313 164.202 223.313 163.142V160.969C223.313 159.909 222.45 159.046 221.39 159.046H199.663Z" fill="#0084FF"/>
<path d="M248.04 124.28H133.714C132.652 124.28 131.787 123.416 131.787 122.354C131.787 121.291 132.652 120.427 133.714 120.427H248.04C249.102 120.427 249.966 121.291 249.966 122.354C249.966 123.416 249.102 124.28 248.04 124.28Z" fill="#E6E6E6"/>
<path d="M126.435 92.9693H111.983C110.921 92.9693 110.057 92.105 110.057 91.0424C110.057 89.9799 110.921 89.1156 111.983 89.1156H126.435C127.497 89.1156 128.362 89.9799 128.362 91.0424C128.362 92.105 127.497 92.9693 126.435 92.9693Z" fill="#E6E6E6"/>
<path d="M212.819 92.9693H198.368C197.306 92.9693 196.441 92.105 196.441 91.0424C196.441 89.9799 197.306 89.1156 198.368 89.1156H212.819C213.882 89.1156 214.746 89.9799 214.746 91.0424C214.746 92.105 213.882 92.9693 212.819 92.9693Z" fill="#E6E6E6"/>
<path d="M240.116 92.9693H225.665C224.603 92.9693 223.738 92.105 223.738 91.0424C223.738 89.9799 224.603 89.1156 225.665 89.1156H240.116C241.179 89.1156 242.043 89.9799 242.043 91.0424C242.043 92.105 241.179 92.9693 240.116 92.9693Z" fill="#E6E6E6"/>
<path d="M222.671 144.191H159.085C158.023 144.191 157.158 143.327 157.158 142.264C157.158 141.202 158.023 140.337 159.085 140.337H222.671C223.733 140.337 224.597 141.202 224.597 142.264C224.597 143.327 223.733 144.191 222.671 144.191Z" fill="#E6E6E6"/>
<path d="M225.439 186.342H156.312C155.669 186.342 155.146 185.82 155.146 185.177C155.146 184.535 155.669 184.012 156.312 184.012H225.439C226.081 184.012 226.604 184.535 226.604 185.177C226.604 185.82 226.081 186.342 225.439 186.342Z" fill="#E6E6E6"/>
<g filter="url(#filter1_b_897_1144)">
<rect x="200" y="179" width="99.7116" height="94.3699" rx="16" fill="url(#paint2_linear_897_1144)" fill-opacity="0.3"/>
</g>
<g clip-path="url(#clip0_897_1144)">
<path d="M6.87572 101.816L35.857 72.8347C42.2386 77.6009 49.9857 80.1847 57.9507 80.2032H57.9585L58.3807 80.2071C67.7787 80.2071 76.7917 76.4737 83.4371 69.8284C90.0825 63.183 93.8158 54.17 93.8158 44.772L93.8119 44.3264V44.3498C93.8119 34.7103 89.9826 25.4656 83.1664 18.6494C76.3502 11.8332 67.1055 8.00394 57.466 8.00394C47.8265 8.00394 38.5818 11.8332 31.7656 18.6494C24.9494 25.4656 21.1201 34.7103 21.1201 44.3498C21.221 52.349 23.8237 60.1158 28.5629 66.5608L28.4886 66.4552L-0.492744 95.4365L6.87572 101.816ZM57.466 17.8233C64.4637 17.5971 71.2649 20.158 76.3756 24.9433C81.4863 29.7287 84.4882 36.3471 84.722 43.3445C84.9558 50.3419 82.4022 57.146 77.6223 62.2617C72.8425 67.3775 66.2273 70.3866 59.2301 70.6279C52.2329 70.8692 45.4262 68.3229 40.3053 63.5485C35.1843 58.7742 32.1682 52.1622 31.9194 45.1653C31.6706 38.1684 34.2095 31.3589 38.9784 26.2329C43.7473 21.1068 50.356 18.0836 57.3526 17.8273L57.466 17.8233Z" fill="url(#paint3_linear_897_1144)"/>
<path d="M93.5658 44.772L93.5621 44.3498H93.5619C93.5619 34.7766 89.7589 25.5955 82.9896 18.8262C76.2204 12.0569 67.0392 8.25394 57.466 8.25394C47.8928 8.25394 38.7116 12.0569 31.9424 18.8262C25.1734 25.5951 21.3705 34.7757 21.3701 44.3485C21.469 52.1547 23.966 59.7383 28.5173 66.0729L28.522 66.0683L28.693 66.3113L28.7643 66.4127L28.7673 66.4169L28.5829 66.5495L28.6654 66.632L-0.126022 95.4234L6.86346 101.475L35.6803 72.6579L35.8333 72.5049L36.0066 72.6344C42.3452 77.3685 50.04 79.9348 57.9513 79.9532L57.9585 79.9532L57.9609 79.9532L58.3807 79.9571C58.3812 79.9571 58.3817 79.9571 58.3822 79.9571C67.7133 79.9567 76.6622 76.2497 83.2603 69.6516C89.8585 63.0534 93.5655 54.1044 93.5658 44.7731C93.5658 44.7727 93.5658 44.7724 93.5658 44.772ZM57.4574 17.5735L57.4579 17.5735C64.5218 17.3451 71.3875 19.9302 76.5465 24.7608C81.7055 29.5915 84.7359 36.2725 84.9719 43.3362C85.2078 50.3998 82.6301 57.2682 77.805 62.4324C72.9799 67.5966 66.3021 70.6342 59.2387 70.8778C52.1753 71.1213 45.3041 68.551 40.1348 63.7314C34.9654 58.9118 31.9207 52.2373 31.6695 45.1742C31.4184 38.1111 33.9814 31.2371 38.7954 26.0626C43.6094 20.888 50.2806 17.8362 57.3435 17.5774L57.344 17.5774L57.4574 17.5735Z" stroke="white" stroke-opacity="0.7" stroke-width="0.5"/>
</g>
<g filter="url(#filter2_b_897_1144)">
<rect width="69.7509" height="69.7509" rx="34.8754" transform="matrix(1 0 0 -1 214.236 260.071)" fill="url(#paint4_linear_897_1144)"/>
</g>
<path d="M263.224 208.256L244.961 232.334L234.164 221.545L229.182 226.527L245.786 243.132L269.039 213.238L263.224 208.256Z" fill="white"/>
<defs>
<filter id="filter0_b_897_1144" x="24.7143" y="8.71429" width="334.571" height="271.571" filterUnits="userSpaceOnUse" color-interpolation-filters="sRGB">
<feFlood flood-opacity="0" result="BackgroundImageFix"/>
<feGaussianBlur in="BackgroundImageFix" stdDeviation="17.1429"/>
<feComposite in2="SourceAlpha" operator="in" result="effect1_backgroundBlur_897_1144"/>
<feBlend mode="normal" in="SourceGraphic" in2="effect1_backgroundBlur_897_1144" result="shape"/>
</filter>
<filter id="filter1_b_897_1144" x="196" y="175" width="107.712" height="102.37" filterUnits="userSpaceOnUse" color-interpolation-filters="sRGB">
<feFlood flood-opacity="0" result="BackgroundImageFix"/>
<feGaussianBlur in="BackgroundImageFix" stdDeviation="2"/>
<feComposite in2="SourceAlpha" operator="in" result="effect1_backgroundBlur_897_1144"/>
<feBlend mode="normal" in="SourceGraphic" in2="effect1_backgroundBlur_897_1144" result="shape"/>
</filter>
<filter id="filter2_b_897_1144" x="209.951" y="186.035" width="78.3223" height="78.3223" filterUnits="userSpaceOnUse" color-interpolation-filters="sRGB">
<feFlood flood-opacity="0" result="BackgroundImageFix"/>
<feGaussianBlur in="BackgroundImageFix" stdDeviation="2.14286"/>
<feComposite in2="SourceAlpha" operator="in" result="effect1_backgroundBlur_897_1144"/>
<feBlend mode="normal" in="SourceGraphic" in2="effect1_backgroundBlur_897_1144" result="shape"/>
</filter>
<linearGradient id="paint0_linear_897_1144" x1="0" y1="203" x2="283.851" y2="36.2072" gradientUnits="userSpaceOnUse">
<stop stop-color="#0084FF" stop-opacity="0.4"/>
<stop offset="0.407091" stop-color="white" stop-opacity="0.726314"/>
<stop offset="1" stop-color="white" stop-opacity="0"/>
</linearGradient>
<linearGradient id="paint1_linear_897_1144" x1="332.154" y1="122.852" x2="332.154" y2="174.491" gradientUnits="userSpaceOnUse">
<stop stop-color="white" stop-opacity="0.12"/>
<stop offset="0.5" stop-color="white" stop-opacity="0.73"/>
<stop offset="1" stop-color="#353535" stop-opacity="0"/>
</linearGradient>
<linearGradient id="paint2_linear_897_1144" x1="196.716" y1="179" x2="289.817" y2="285.12" gradientUnits="userSpaceOnUse">
<stop stop-color="white"/>
<stop offset="1" stop-color="white" stop-opacity="0"/>
</linearGradient>
<linearGradient id="paint3_linear_897_1144" x1="46.6385" y1="13.2924" x2="46.6385" y2="110.916" gradientUnits="userSpaceOnUse">
<stop stop-color="white" stop-opacity="0.12"/>
<stop offset="0.5" stop-color="white" stop-opacity="0.73"/>
<stop offset="1" stop-color="#353535" stop-opacity="0"/>
</linearGradient>
<linearGradient id="paint4_linear_897_1144" x1="67.7916" y1="65.7268" x2="13.5196" y2="-8.88371" gradientUnits="userSpaceOnUse">
<stop offset="0.00104141" stop-color="#0FD3FE"/>
<stop offset="0.730208" stop-color="#0E41ED"/>
</linearGradient>
<clipPath id="clip0_897_1144">
<rect width="93.816" height="93.816" fill="white" transform="matrix(-1 0 0 1 93.8158 8)"/>
</clipPath>
</defs>
</svg>
