<svg width="321" height="263" viewBox="0 0 321 263" fill="none" xmlns="http://www.w3.org/2000/svg">
<g filter="url(#filter0_b_897_1180)">
<rect width="240.15" height="222.434" rx="14" transform="matrix(1 0 0 -1 39.8948 249.724)" fill="#6660A0" fill-opacity="0.2"/>
<rect x="0.267857" y="-0.267857" width="239.614" height="221.898" rx="13.7321" transform="matrix(1 0 0 -1 39.8948 249.188)" stroke="url(#paint0_linear_897_1180)" stroke-width="0.535714"/>
</g>
<path d="M41.5002 146.036C45.4071 146.036 49.0907 146.973 52.3308 148.636L54.1109 146.883C54.3819 146.607 54.706 146.386 55.0644 146.235C55.4228 146.083 55.8083 146.003 56.1983 146C56.5883 145.997 56.9751 146.07 57.3362 146.215C57.6972 146.361 58.0251 146.576 58.3009 146.847C58.5768 147.119 58.7949 147.442 58.9426 147.797C59.0903 148.153 59.1646 148.534 59.1612 148.918C59.1578 149.302 59.0768 149.682 58.9228 150.035C58.7689 150.388 58.5451 150.707 58.2645 150.974L57.2364 151.986C59.6838 154.154 61.64 156.806 62.9777 159.768C64.3153 162.73 65.0045 165.937 65.0002 169.178V192.321C65.0002 194.623 64.0718 196.831 62.4191 198.458C60.7664 200.086 58.5249 201 56.1877 201H26.8128C24.4755 201 22.234 200.086 20.5814 198.458C18.9287 196.831 18.0003 194.623 18.0003 192.321V169.178C17.9968 165.937 18.6866 162.731 20.0248 159.769C21.3629 156.808 23.3195 154.157 25.767 151.989L24.7359 150.977C24.1847 150.434 23.8749 149.698 23.8747 148.931C23.8744 148.163 24.1837 147.427 24.7345 146.885C25.2853 146.342 26.0325 146.037 26.8117 146.036C27.5909 146.036 28.3384 146.341 28.8896 146.883L30.6697 148.636C34.0144 146.923 37.73 146.031 41.5002 146.036ZM59.1252 177.857H23.8753V192.321C23.8753 193.089 24.1847 193.824 24.7356 194.367C25.2865 194.909 26.0337 195.214 26.8128 195.214H56.1877C56.9668 195.214 57.714 194.909 58.2649 194.367C58.8157 193.824 59.1252 193.089 59.1252 192.321V177.857ZM41.5002 151.821C36.9401 151.821 32.5574 153.562 29.273 156.677C25.9885 159.792 24.058 164.04 23.887 168.528L23.8753 169.178V172.071H59.1252V169.178C59.1252 164.575 57.2683 160.16 53.963 156.905C50.6577 153.65 46.1747 151.821 41.5002 151.821ZM32.6877 160.5C33.4668 160.5 34.214 160.805 34.7649 161.347C35.3158 161.89 35.6252 162.626 35.6252 163.393C35.6252 164.16 35.3158 164.896 34.7649 165.438C34.214 165.981 33.4668 166.286 32.6877 166.286C31.9087 166.286 31.1615 165.981 30.6106 165.438C30.0597 164.896 29.7502 164.16 29.7502 163.393C29.7502 162.626 30.0597 161.89 30.6106 161.347C31.1615 160.805 31.9087 160.5 32.6877 160.5ZM50.3127 160.5C51.0918 160.5 51.839 160.805 52.3899 161.347C52.9407 161.89 53.2502 162.626 53.2502 163.393C53.2502 164.16 52.9407 164.896 52.3899 165.438C51.839 165.981 51.0918 166.286 50.3127 166.286C49.5337 166.286 48.7865 165.981 48.2356 165.438C47.6847 164.896 47.3752 164.16 47.3752 163.393C47.3752 162.626 47.6847 161.89 48.2356 161.347C48.7865 160.805 49.5337 160.5 50.3127 160.5Z" fill="url(#paint1_linear_897_1180)"/>
<path d="M41.4999 146.256H41.5002C45.3716 146.256 49.0208 147.184 52.2302 148.832L52.3719 148.905L52.4853 148.793L54.2654 147.04L54.2654 147.04L54.2681 147.037C54.5186 146.782 54.8185 146.578 55.1502 146.438C55.482 146.297 55.8389 146.223 56.2002 146.22C56.5615 146.217 56.9197 146.285 57.2539 146.42C57.5881 146.554 57.8915 146.753 58.1464 147.004L58.3009 146.847L58.1465 147.004C58.4014 147.255 58.6029 147.554 58.7392 147.882C58.8756 148.21 58.9442 148.562 58.941 148.916C58.9379 149.27 58.8631 149.621 58.721 149.947C58.5789 150.272 58.3722 150.567 58.1128 150.814L58.1128 150.814L58.11 150.817L57.0819 151.829L56.914 151.995L57.0904 152.151C59.5147 154.299 61.4522 156.925 62.777 159.859C64.1018 162.792 64.7842 165.968 64.78 169.178V169.178V192.321C64.78 194.564 63.8756 196.715 62.2646 198.301C60.6535 199.888 58.4676 200.78 56.1877 200.78H26.8128C24.5329 200.78 22.347 199.888 20.7359 198.301C19.1249 196.715 18.2204 194.564 18.2204 192.321L18.2204 169.178L18.2204 169.178C18.217 165.968 18.9001 162.793 20.2254 159.86C21.5507 156.927 23.4886 154.301 25.913 152.154L26.0897 151.997L25.9213 151.832L24.8904 150.82C24.8904 150.82 24.8903 150.82 24.8903 150.82C24.3808 150.318 24.0951 149.639 24.0948 148.931C24.0946 148.223 24.3799 147.543 24.889 147.041C25.3983 146.54 26.0899 146.257 26.8118 146.257C27.5337 146.256 28.2254 146.539 28.7351 147.04C28.7351 147.04 28.7351 147.04 28.7351 147.04L30.5152 148.793L30.6285 148.905L30.7701 148.832C34.0835 147.135 37.7646 146.251 41.4999 146.256ZM59.3454 177.857V177.637H59.1252H23.8753H23.6551V177.857V192.321C23.6551 193.148 23.9886 193.94 24.5811 194.524C25.1736 195.107 25.9764 195.434 26.8128 195.434H56.1877C57.0241 195.434 57.8269 195.107 58.4194 194.524C59.0119 193.94 59.3454 193.148 59.3454 192.321V177.857ZM23.667 168.519L23.6669 168.519L23.6669 168.524L23.6551 169.174H23.6551V169.178V172.071V172.292H23.8753H59.1252H59.3454V172.071V169.178C59.3454 164.516 57.4645 160.044 54.1175 156.748C50.7706 153.452 46.232 151.601 41.5002 151.601C36.8842 151.601 32.4472 153.363 29.1215 156.517C25.7957 159.672 23.8402 163.974 23.667 168.519ZM32.6877 160.72C33.4095 160.72 34.101 161.002 34.6104 161.504C35.1196 162.006 35.4051 162.685 35.4051 163.393C35.4051 164.1 35.1196 164.78 34.6104 165.281C34.101 165.783 33.4095 166.065 32.6877 166.065C31.966 166.065 31.2745 165.783 30.7651 165.281C30.2559 164.78 29.9704 164.1 29.9704 163.393C29.9704 162.685 30.2559 162.006 30.7651 161.504C31.2745 161.002 31.966 160.72 32.6877 160.72ZM50.3127 160.72C51.0345 160.72 51.726 161.002 52.2354 161.504C52.7446 162.006 53.03 162.685 53.03 163.393C53.03 164.1 52.7446 164.78 52.2354 165.281C51.726 165.783 51.0345 166.065 50.3127 166.065C49.591 166.065 48.8995 165.783 48.3901 165.281C47.8809 164.78 47.5954 164.1 47.5954 163.393C47.5954 162.685 47.8809 162.006 48.3901 161.504C48.8995 161.002 49.591 160.72 50.3127 160.72Z" stroke="white" stroke-opacity="0.7" stroke-width="0.440377"/>
<path d="M199.911 215.395H133.273C123.58 215.395 115.696 207.51 115.696 197.817V23.7999C115.696 14.1072 123.58 6.22253 133.273 6.22253H199.911C209.604 6.22253 217.488 14.1072 217.488 23.7999V197.817C217.488 207.51 209.604 215.395 199.911 215.395Z" fill="white" fill-opacity="0.63"/>
<path d="M199.96 210.636H133.225C126.051 210.636 120.213 204.798 120.213 197.624V23.6515C120.213 16.4777 126.051 10.6393 133.225 10.6393H199.96C207.134 10.6393 212.972 16.4777 212.972 23.6515V197.624C212.972 204.798 207.134 210.636 199.96 210.636Z" fill="#151545" fill-opacity="0.89"/>
<path d="M176.029 22.2195H157.158C154.666 22.2195 152.641 20.194 152.641 17.7026C152.641 15.2113 154.666 13.1858 157.158 13.1858H176.029C178.52 13.1858 180.546 15.2113 180.546 17.7026C180.546 20.194 178.52 22.2195 176.029 22.2195Z" fill="white"/>
<path d="M198.135 146.03H135.054C132.199 146.03 129.885 148.343 129.885 151.197C129.885 154.051 132.199 156.364 135.054 156.364H198.135C200.989 156.364 203.304 154.051 203.304 151.197C203.304 148.343 200.989 146.03 198.135 146.03Z" fill="#00A3FF"/>
<path d="M153.184 136.946H132.311C131.814 136.946 131.41 137.349 131.41 137.847C131.41 138.344 131.814 138.747 132.311 138.747H153.184C153.681 138.747 154.084 138.344 154.084 137.847C154.084 137.349 153.681 136.946 153.184 136.946Z" fill="#00A3FF"/>
<path d="M198.135 110.838H135.054C132.199 110.838 129.885 113.151 129.885 116.005C129.885 118.859 132.199 121.173 135.054 121.173H198.135C200.989 121.173 203.304 118.859 203.304 116.005C203.304 113.151 200.989 110.838 198.135 110.838Z" fill="#BABBC9"/>
<path d="M153.184 102.246H132.311C131.814 102.246 131.41 102.649 131.41 103.147C131.41 103.644 131.814 104.047 132.311 104.047H153.184C153.681 104.047 154.084 103.644 154.084 103.147C154.084 102.649 153.681 102.246 153.184 102.246Z" fill="#BABBC9"/>
<path d="M198.135 75.8523H135.054C132.199 75.8523 129.885 78.1658 129.885 81.0196C129.885 83.8734 132.199 86.1869 135.054 86.1869H198.135C200.989 86.1869 203.304 83.8734 203.304 81.0196C203.304 78.1658 200.989 75.8523 198.135 75.8523Z" fill="#BABBC9"/>
<path d="M153.184 67.2637H132.311C131.814 67.2637 131.41 67.6669 131.41 68.1643C131.41 68.6617 131.814 69.0649 132.311 69.0649H153.184C153.681 69.0649 154.084 68.6617 154.084 68.1643C154.084 67.6669 153.681 67.2637 153.184 67.2637Z" fill="#BABBC9"/>
<g filter="url(#filter1_b_897_1180)">
<rect x="196.973" y="158.062" width="110.878" height="104.938" rx="16" fill="url(#paint2_linear_897_1180)" fill-opacity="0.3"/>
</g>
<g filter="url(#filter2_b_897_1180)">
<rect width="77.7535" height="77.7535" rx="38.8767" transform="matrix(1 0 0 -1 215.086 249.724)" fill="url(#paint3_linear_897_1180)"/>
</g>
<path d="M235.756 209.34C235.756 223.095 253.62 230.955 253.62 230.955C253.62 230.955 271.483 223.095 271.483 209.34V197.55L253.62 191.655L235.756 197.55V209.34Z" stroke="white" stroke-width="6"/>
<path d="M314.169 79.4537L289.67 55.1293C284.276 59.1297 277.727 61.2982 270.994 61.3138H270.987L270.63 61.317C262.686 61.317 255.067 58.1836 249.449 52.6061C243.832 47.0285 240.676 39.4637 240.676 31.5759L240.679 31.2019V31.2216C240.679 23.131 243.916 15.3718 249.678 9.65088C255.44 3.92997 263.255 0.716003 271.404 0.716003C279.552 0.716003 287.367 3.92997 293.129 9.65088C298.891 15.3718 302.128 23.131 302.128 31.2216C302.043 37.9354 299.843 44.4542 295.836 49.8635L295.899 49.7749L320.398 74.0993L314.169 79.4537ZM271.404 8.95756C265.488 8.76766 259.739 10.917 255.419 14.9334C251.099 18.9499 248.561 24.5048 248.363 30.3778C248.166 36.2508 250.324 41.9615 254.365 46.2553C258.405 50.549 263.997 53.0746 269.912 53.2771C275.827 53.4796 281.581 51.3425 285.91 47.3353C290.239 43.3281 292.789 37.7786 292.999 31.906C293.209 26.0334 291.063 20.3181 287.032 16.0158C283 11.7134 277.414 9.17596 271.499 8.96084L271.404 8.95756Z" fill="url(#paint4_linear_897_1180)"/>
<path d="M240.926 31.5759L240.929 31.2216H240.929C240.929 23.1979 244.14 15.5024 249.854 9.82829C255.569 4.15407 263.321 0.966003 271.404 0.966003C279.486 0.966003 287.238 4.15407 292.953 9.82829C298.667 15.502 301.877 23.1968 301.878 31.2199C301.795 37.7483 299.696 44.091 295.87 49.3938L295.866 49.3896L295.695 49.6304L295.635 49.7147L295.632 49.7189L295.82 49.8548L295.723 49.9523L320.03 74.0861L314.181 79.1135L289.846 54.9519L289.694 54.8005L289.521 54.9285C284.17 58.8969 277.673 61.0484 270.993 61.0638L270.987 61.0637L270.985 61.0638L270.63 61.067C270.63 61.067 270.63 61.067 270.629 61.067C262.751 61.0668 255.196 57.9593 249.626 52.4286C244.055 46.8981 240.926 39.3976 240.926 31.577C240.926 31.5766 240.926 31.5763 240.926 31.5759ZM271.412 8.70771L271.412 8.70769C265.431 8.51568 259.617 10.6889 255.249 14.7503C250.88 18.8119 248.313 24.4296 248.113 30.3694C247.914 36.3092 250.097 42.0846 254.183 46.4266C258.269 50.7686 263.923 53.3222 269.904 53.527C275.884 53.7317 281.703 51.5709 286.08 47.5188C290.457 43.4666 293.036 37.8543 293.249 31.915C293.462 25.9756 291.291 20.1956 287.214 15.8448C283.138 11.4942 277.489 8.92851 271.509 8.711L271.508 8.71099L271.412 8.70771Z" stroke="white" stroke-opacity="0.7" stroke-width="0.5"/>
<defs>
<filter id="filter0_b_897_1180" x="5.60906" y="-6.99574" width="308.721" height="291.005" filterUnits="userSpaceOnUse" color-interpolation-filters="sRGB">
<feFlood flood-opacity="0" result="BackgroundImageFix"/>
<feGaussianBlur in="BackgroundImageFix" stdDeviation="17.1429"/>
<feComposite in2="SourceAlpha" operator="in" result="effect1_backgroundBlur_897_1180"/>
<feBlend mode="normal" in="SourceGraphic" in2="effect1_backgroundBlur_897_1180" result="shape"/>
</filter>
<filter id="filter1_b_897_1180" x="192.973" y="154.062" width="118.878" height="112.938" filterUnits="userSpaceOnUse" color-interpolation-filters="sRGB">
<feFlood flood-opacity="0" result="BackgroundImageFix"/>
<feGaussianBlur in="BackgroundImageFix" stdDeviation="2"/>
<feComposite in2="SourceAlpha" operator="in" result="effect1_backgroundBlur_897_1180"/>
<feBlend mode="normal" in="SourceGraphic" in2="effect1_backgroundBlur_897_1180" result="shape"/>
</filter>
<filter id="filter2_b_897_1180" x="210.8" y="167.685" width="86.3248" height="86.3249" filterUnits="userSpaceOnUse" color-interpolation-filters="sRGB">
<feFlood flood-opacity="0" result="BackgroundImageFix"/>
<feGaussianBlur in="BackgroundImageFix" stdDeviation="2.14286"/>
<feComposite in2="SourceAlpha" operator="in" result="effect1_backgroundBlur_897_1180"/>
<feBlend mode="normal" in="SourceGraphic" in2="effect1_backgroundBlur_897_1180" result="shape"/>
</filter>
<linearGradient id="paint0_linear_897_1180" x1="0" y1="222.434" x2="279.285" y2="87.2175" gradientUnits="userSpaceOnUse">
<stop stop-color="#0084FF" stop-opacity="0.4"/>
<stop offset="0.407091" stop-color="white" stop-opacity="0.726314"/>
<stop offset="1" stop-color="white" stop-opacity="0"/>
</linearGradient>
<linearGradient id="paint1_linear_897_1180" x1="18.0002" y1="146" x2="70.6938" y2="194.86" gradientUnits="userSpaceOnUse">
<stop stop-color="white" stop-opacity="0.12"/>
<stop offset="0.5" stop-color="white" stop-opacity="0.73"/>
<stop offset="1" stop-color="#353535" stop-opacity="0"/>
</linearGradient>
<linearGradient id="paint2_linear_897_1180" x1="193.321" y1="158.062" x2="296.848" y2="276.066" gradientUnits="userSpaceOnUse">
<stop stop-color="white"/>
<stop offset="1" stop-color="white" stop-opacity="0"/>
</linearGradient>
<linearGradient id="paint3_linear_897_1180" x1="75.5694" y1="73.2677" x2="15.0706" y2="-9.90294" gradientUnits="userSpaceOnUse">
<stop offset="0.00104141" stop-color="#0FD3FE"/>
<stop offset="0.730208" stop-color="#0E41ED"/>
</linearGradient>
<linearGradient id="paint4_linear_897_1180" x1="280.556" y1="5.15466" x2="280.556" y2="87.0911" gradientUnits="userSpaceOnUse">
<stop stop-color="white" stop-opacity="0.12"/>
<stop offset="0.5" stop-color="white" stop-opacity="0.73"/>
<stop offset="1" stop-color="#353535" stop-opacity="0"/>
</linearGradient>
</defs>
</svg>
