<svg width="370" height="291" viewBox="0 0 370 291" fill="none" xmlns="http://www.w3.org/2000/svg">
<g clip-path="url(#clip0_269_1396)">
<path d="M29.4065 158.412L46.346 141.473C50.076 144.259 54.6042 145.769 59.2597 145.78H59.2642L59.511 145.782C65.0041 145.782 70.2722 143.6 74.1563 139.716C78.0405 135.832 80.2227 130.563 80.2227 125.07L80.2204 124.81V124.824C80.2204 119.189 77.9822 113.786 73.9981 109.802C70.0141 105.818 64.6106 103.58 58.9763 103.58C53.3421 103.58 47.9386 105.818 43.9545 109.802C39.9705 113.786 37.7323 119.189 37.7323 124.824C37.7913 129.499 39.3125 134.039 42.0826 137.806L42.0391 137.744L25.0997 154.684L29.4065 158.412ZM58.9763 109.319C63.0664 109.187 67.0418 110.684 70.0289 113.481C73.0161 116.278 74.7707 120.146 74.9074 124.236C75.044 128.326 73.5515 132.303 70.7576 135.293C67.9638 138.283 64.0973 140.042 60.0074 140.183C55.9176 140.324 51.9391 138.836 48.9459 136.045C45.9528 133.255 44.1898 129.39 44.0444 125.3C43.899 121.211 45.383 117.23 48.1704 114.234C50.9578 111.238 54.8206 109.471 58.9101 109.321L58.9763 109.319Z" fill="url(#paint0_linear_269_1396)"/>
<path d="M79.9727 125.07L79.9705 124.824H79.9704C79.9704 119.256 77.7585 113.916 73.8214 109.979C69.8842 106.041 64.5443 103.83 58.9763 103.83C53.4084 103.83 48.0685 106.041 44.1313 109.979C40.1946 113.915 37.9827 119.255 37.9823 124.822C38.0394 129.322 39.4666 133.696 42.0692 137.361L42.0725 137.357L42.2436 137.6L42.284 137.658L42.287 137.662L42.0951 137.8L42.2159 137.921L25.4664 154.67L29.3943 158.071L46.1692 141.296L46.3222 141.143L46.4956 141.273C50.1825 144.026 54.6585 145.519 59.2602 145.53L59.2642 145.53L59.2665 145.53L59.511 145.532C59.5113 145.532 59.5117 145.532 59.5121 145.532C64.9384 145.532 70.1425 143.376 73.9796 139.539C77.8166 135.702 79.9724 130.498 79.9727 125.071C79.9727 125.071 79.9727 125.071 79.9727 125.07ZM58.9677 109.069L58.9683 109.069C63.1246 108.935 67.1643 110.456 70.1998 113.298C73.2353 116.14 75.0184 120.071 75.1572 124.228C75.2961 128.384 73.7794 132.425 70.9403 135.464C68.1013 138.502 64.1721 140.29 60.0161 140.433C55.86 140.576 51.8171 139.064 48.7755 136.228C45.7338 133.392 43.9424 129.465 43.7946 125.309C43.6468 121.153 45.1549 117.109 47.9874 114.064C50.8199 111.019 54.7452 109.224 58.9009 109.071L58.9015 109.071L58.9677 109.069Z" stroke="white" stroke-opacity="0.7" stroke-width="0.5"/>
</g>
<path d="M307.678 179.01H301.972C301.058 177.339 299.798 175.877 298.275 174.833L301.586 171.512L298.722 168.567L294.315 173.099C292.426 172.628 290.456 172.628 288.567 173.099L284.14 168.567L281.276 171.512L284.566 174.833C283.043 175.877 281.804 177.36 280.891 179.01H275.184V183.187H279.428C279.306 183.876 279.245 184.565 279.245 185.276V187.364H275.184V191.541H279.245V193.63C279.245 194.34 279.306 195.029 279.428 195.718H275.184V199.895H280.891C281.691 201.318 282.757 202.565 284.026 203.564C285.296 204.564 286.744 205.296 288.289 205.719C289.834 206.141 291.445 206.247 293.029 206.029C294.614 205.811 296.141 205.274 297.524 204.448C299.372 203.362 300.915 201.775 301.972 199.895H307.678V195.718H303.434C303.556 195.029 303.617 194.34 303.617 193.63V191.541H307.678V187.364H303.617V185.276C303.617 184.565 303.556 183.876 303.434 183.187H307.678V179.01ZM299.555 193.63C299.555 195.845 298.699 197.97 297.175 199.537C295.652 201.104 293.586 201.984 291.431 201.984C289.276 201.984 287.21 201.104 285.687 199.537C284.163 197.97 283.307 195.845 283.307 193.63V185.276C283.307 183.06 284.163 180.935 285.687 179.368C287.21 177.801 289.276 176.921 291.431 176.921C293.586 176.921 295.652 177.801 297.175 179.368C298.699 180.935 299.555 183.06 299.555 185.276V193.63ZM295.493 183.187V187.364H287.369V183.187H295.493ZM287.369 191.541H295.493V195.718H287.369V191.541Z" fill="url(#paint1_linear_269_1396)"/>
<path d="M303.617 187.614H307.428V191.291H303.617H303.367V191.541V193.63C303.367 194.325 303.307 195 303.188 195.675L303.136 195.968H303.434H307.428V199.645H301.972H301.825L301.754 199.773C300.719 201.615 299.206 203.17 297.397 204.233L297.396 204.234C296.042 205.042 294.546 205.568 292.995 205.781C291.444 205.995 289.868 205.891 288.355 205.477C286.843 205.063 285.424 204.347 284.181 203.368C282.937 202.389 281.893 201.168 281.108 199.773L281.037 199.645H280.891H275.434V195.968H279.428H279.726L279.674 195.675C279.555 195 279.495 194.325 279.495 193.63V191.541V191.291H279.245H275.434V187.614H279.245H279.495V187.364V185.276C279.495 184.58 279.555 183.905 279.674 183.23L279.726 182.937H279.428H275.434V179.26H280.891H281.038L281.109 179.131C282.008 177.508 283.223 176.057 284.708 175.039L284.955 174.87L284.744 174.657L281.627 171.51L284.14 168.925L288.389 173.274L288.489 173.377L288.628 173.342C290.477 172.881 292.406 172.881 294.254 173.342L294.394 173.377L294.494 173.274L298.722 168.926L301.235 171.51L298.098 174.656L297.886 174.869L298.134 175.039C299.621 176.058 300.855 177.489 301.752 179.13L301.823 179.26H301.972H307.428V182.937H303.434H303.136L303.188 183.23C303.307 183.905 303.367 184.58 303.367 185.276V187.364V187.614H303.617ZM297.355 199.711C298.924 198.097 299.805 195.909 299.805 193.63V185.276C299.805 182.996 298.924 180.808 297.355 179.194C295.785 177.58 293.654 176.671 291.431 176.671C289.208 176.671 287.077 177.58 285.507 179.194C283.938 180.808 283.057 182.996 283.057 185.276V193.63C283.057 195.909 283.938 198.097 285.507 199.711C287.077 201.326 289.208 202.234 291.431 202.234C293.654 202.234 295.785 201.326 297.355 199.711ZM295.243 187.114H287.619V183.437H295.243V187.114ZM295.243 191.791V195.468H287.619V191.791H295.243Z" stroke="white" stroke-opacity="0.7" stroke-width="0.5"/>
<g filter="url(#filter0_b_269_1396)">
<rect y="195" width="101.254" height="95.8293" rx="16" fill="url(#paint2_linear_269_1396)" fill-opacity="0.3"/>
</g>
<path d="M242.897 119.9H121.453C120.88 119.899 120.331 119.671 119.926 119.266C119.522 118.862 119.294 118.313 119.293 117.741V76.7724C119.294 76.2 119.522 75.6514 119.926 75.2466C120.331 74.8419 120.88 74.6141 121.452 74.6133H242.898C243.47 74.6141 244.019 74.8419 244.423 75.2466C244.828 75.6515 245.056 76.2004 245.057 76.773V117.74C245.056 118.313 244.828 118.861 244.423 119.266C244.019 119.671 243.47 119.899 242.897 119.9Z" fill="#191D4B" stroke="white" stroke-width="3"/>
<path d="M169.005 84.0874H136.814V87.7455H169.005V84.0874Z" fill="#00A3FF"/>
<path d="M211.439 88.4771C212.651 88.4771 213.634 87.4944 213.634 86.2822C213.634 85.0701 212.651 84.0874 211.439 84.0874C210.227 84.0874 209.244 85.0701 209.244 86.2822C209.244 87.4944 210.227 88.4771 211.439 88.4771Z" fill="white"/>
<path d="M218.757 88.4771C219.97 88.4771 220.952 87.4944 220.952 86.2822C220.952 85.0701 219.97 84.0874 218.757 84.0874C217.545 84.0874 216.562 85.0701 216.562 86.2822C216.562 87.4944 217.545 88.4771 218.757 88.4771Z" fill="white"/>
<path d="M226.072 88.4771C227.284 88.4771 228.267 87.4944 228.267 86.2822C228.267 85.0701 227.284 84.0874 226.072 84.0874C224.86 84.0874 223.877 85.0701 223.877 86.2822C223.877 87.4944 224.86 88.4771 226.072 88.4771Z" fill="white"/>
<path d="M242.897 177.325H121.453C120.88 177.325 120.331 177.097 119.926 176.692C119.521 176.287 119.294 175.738 119.293 175.166V134.198C119.294 133.626 119.521 133.077 119.926 132.672C120.331 132.267 120.88 132.04 121.452 132.039H242.898C243.47 132.04 244.019 132.267 244.423 132.672C244.828 133.077 245.056 133.626 245.057 134.199V175.165C245.056 175.738 244.828 176.287 244.423 176.692C244.018 177.097 243.469 177.325 242.897 177.325Z" fill="#191D4B" stroke="white" stroke-width="3"/>
<path d="M169.005 141.513H136.814V145.171H169.005V141.513Z" fill="#00A3FF"/>
<path d="M211.439 145.903C212.651 145.903 213.634 144.92 213.634 143.708C213.634 142.496 212.651 141.513 211.439 141.513C210.227 141.513 209.244 142.496 209.244 143.708C209.244 144.92 210.227 145.903 211.439 145.903Z" fill="white"/>
<path d="M218.757 145.903C219.969 145.903 220.952 144.92 220.952 143.708C220.952 142.496 219.969 141.513 218.757 141.513C217.545 141.513 216.562 142.496 216.562 143.708C216.562 144.92 217.545 145.903 218.757 145.903Z" fill="white"/>
<path d="M226.072 145.903C227.284 145.903 228.266 144.92 228.266 143.708C228.266 142.496 227.284 141.513 226.072 141.513C224.859 141.513 223.877 142.496 223.877 143.708C223.877 144.92 224.859 145.903 226.072 145.903Z" fill="white"/>
<path d="M242.897 234.751H121.453C120.88 234.75 120.331 234.522 119.926 234.117C119.521 233.713 119.294 233.164 119.293 232.592V191.623C119.294 191.051 119.521 190.502 119.926 190.098C120.331 189.693 120.88 189.465 121.452 189.464H242.898C243.47 189.465 244.019 189.693 244.423 190.098C244.828 190.503 245.056 191.052 245.057 191.624V232.591C245.056 233.164 244.828 233.713 244.423 234.117C244.018 234.522 243.469 234.75 242.897 234.751Z" fill="#191D4B" stroke="white" stroke-width="3"/>
<path d="M169.005 198.938H136.814V202.597H169.005V198.938Z" fill="#00A3FF"/>
<path d="M211.439 203.328C212.651 203.328 213.634 202.345 213.634 201.133C213.634 199.921 212.651 198.938 211.439 198.938C210.227 198.938 209.244 199.921 209.244 201.133C209.244 202.345 210.227 203.328 211.439 203.328Z" fill="white"/>
<path d="M218.757 203.328C219.969 203.328 220.952 202.345 220.952 201.133C220.952 199.921 219.969 198.938 218.757 198.938C217.545 198.938 216.562 199.921 216.562 201.133C216.562 202.345 217.545 203.328 218.757 203.328Z" fill="white"/>
<path d="M226.072 203.328C227.284 203.328 228.266 202.345 228.266 201.133C228.266 199.921 227.284 198.938 226.072 198.938C224.859 198.938 223.877 199.921 223.877 201.133C223.877 202.345 224.859 203.328 226.072 203.328Z" fill="white"/>
<g filter="url(#filter1_b_269_1396)">
<rect width="193.308" height="99.5088" rx="16" transform="matrix(-1 0 0 1 370 0)" fill="url(#paint3_linear_269_1396)" fill-opacity="0.12"/>
</g>
<rect opacity="0.2" width="142.323" height="52.6932" rx="4" transform="matrix(-1 0 0 1 344.244 23.3557)" fill="url(#paint4_linear_269_1396)"/>
<path fill-rule="evenodd" clip-rule="evenodd" d="M232.599 39.8H230.999C229.58 39.8002 228.201 40.2718 227.08 41.1406C225.958 42.0094 225.156 43.2263 224.801 44.6H224.599C222.902 44.6 221.274 45.2743 220.074 46.4746C218.874 47.6748 218.199 49.3027 218.199 51C218.199 52.6974 218.874 54.3253 220.074 55.5255C221.274 56.7258 222.902 57.4 224.599 57.4H237.399C238.973 57.4023 240.492 56.8248 241.667 55.7777C242.842 54.7306 243.59 53.2874 243.767 51.7238C243.945 50.1602 243.541 48.5859 242.632 47.3016C241.722 46.0173 240.372 45.113 238.838 44.7616C238.512 43.3512 237.718 42.0929 236.585 41.1918C235.452 40.2907 234.047 39.8001 232.599 39.8ZM227.281 47.8L227.9 45.3984C228.078 44.712 228.479 44.1041 229.04 43.67C229.601 43.236 230.29 43.0003 230.999 43H232.599C234.098 43 235.388 44.04 235.719 45.4784L236.167 47.432L238.121 47.88C238.883 48.0608 239.553 48.5148 240.004 49.1561C240.454 49.7975 240.653 50.5817 240.565 51.3603C240.476 52.1389 240.104 52.8579 239.521 53.3812C238.938 53.9045 238.183 54.1959 237.399 54.2H224.599C223.751 54.2 222.937 53.8629 222.336 53.2628C221.736 52.6627 221.399 51.8487 221.399 51C221.399 50.1514 221.736 49.3374 222.336 48.7373C222.937 48.1372 223.751 47.8 224.599 47.8H227.281Z" fill="white"/>
<g filter="url(#filter2_b_269_1396)">
<rect width="69" height="69" rx="34.5" transform="matrix(1 0 0 -1 16 277)" fill="url(#paint5_linear_269_1396)"/>
</g>
<path d="M38.9349 262.619C37.8528 262.619 36.9268 262.24 36.1569 261.483C35.3869 260.726 35.0013 259.815 35 258.75V239.408C35 238.344 35.3856 237.434 36.1569 236.677C36.9281 235.92 37.8541 235.541 38.9349 235.54H40.9024V231.671C40.9024 228.995 41.8619 226.715 43.7808 224.83C45.6997 222.945 48.0194 222.001 50.7397 222C53.4614 222 55.7817 222.943 57.7006 224.83C59.6195 226.716 60.5783 228.997 60.577 231.671V235.54H62.5445C63.6266 235.54 64.5533 235.919 65.3245 236.677C66.0958 237.435 66.4807 238.345 66.4794 239.408V258.75C66.4794 259.814 66.0944 260.725 65.3245 261.483C64.5546 262.241 63.6279 262.62 62.5445 262.619H38.9349ZM38.9349 258.75H62.5445V239.408H38.9349V258.75ZM50.7397 252.948C51.8218 252.948 52.7485 252.569 53.5197 251.812C54.291 251.055 54.6759 250.144 54.6746 249.079C54.6746 248.015 54.2897 247.105 53.5197 246.348C52.7498 245.591 51.8231 245.212 50.7397 245.211C49.6576 245.211 48.7316 245.59 47.9616 246.348C47.1917 247.106 46.8061 248.017 46.8048 249.079C46.8048 250.143 47.1904 251.054 47.9616 251.812C48.7329 252.57 49.6589 252.949 50.7397 252.948ZM44.8373 235.54H56.6421V231.671C56.6421 230.059 56.0682 228.689 54.9206 227.561C53.7729 226.433 52.3793 225.868 50.7397 225.868C49.1002 225.868 47.7065 226.433 46.5588 227.561C45.4112 228.689 44.8373 230.059 44.8373 231.671V235.54Z" fill="white"/>
<path d="M268.452 42.6494H287.645C288.694 42.6494 289.703 43.065 290.466 43.8113C291.23 44.5576 291.689 45.5782 291.751 46.6642L291.757 46.9144V52.601C291.757 53.6888 291.357 54.7356 290.637 55.5271C289.917 56.3186 288.933 56.795 287.886 56.8588L287.645 56.8659H268.452C267.403 56.866 266.394 56.4503 265.631 55.704C264.868 54.9577 264.408 53.9372 264.347 52.8512L264.34 52.601V46.9144C264.34 45.8265 264.741 44.7797 265.46 43.9882C266.18 43.1967 267.164 42.7203 268.211 42.6565L268.452 42.6494ZM287.645 44.7819H268.452C267.907 44.7819 267.384 45.0066 266.998 45.4065C266.613 45.8064 266.396 46.3488 266.396 46.9144V52.601C266.396 53.1665 266.613 53.7089 266.998 54.1089C267.384 54.5088 267.907 54.7334 268.452 54.7334H287.645C288.19 54.7334 288.713 54.5088 289.099 54.1089C289.484 53.7089 289.701 53.1665 289.701 52.601V46.9144C289.701 46.3488 289.484 45.8064 289.099 45.4065C288.713 45.0066 288.19 44.7819 287.645 44.7819ZM286.274 46.9144C286.637 46.9144 286.986 47.0641 287.243 47.3308C287.5 47.5974 287.645 47.959 287.645 48.336C287.645 48.7131 287.5 49.0747 287.243 49.3413C286.986 49.6079 286.637 49.7577 286.274 49.7577C285.91 49.7577 285.562 49.6079 285.305 49.3413C285.047 49.0747 284.903 48.7131 284.903 48.336C284.903 47.959 285.047 47.5974 285.305 47.3308C285.562 47.0641 285.91 46.9144 286.274 46.9144ZM280.79 46.9144C281.154 46.9144 281.503 47.0641 281.76 47.3308C282.017 47.5974 282.161 47.959 282.161 48.336C282.161 48.7131 282.017 49.0747 281.76 49.3413C281.503 49.6079 281.154 49.7577 280.79 49.7577C280.427 49.7577 280.078 49.6079 279.821 49.3413C279.564 49.0747 279.419 48.7131 279.419 48.336C279.419 47.959 279.564 47.5974 279.821 47.3308C280.078 47.0641 280.427 46.9144 280.79 46.9144Z" fill="white"/>
<path d="M326.697 55.0222H322.582C322.013 55.0222 321.553 55.4828 321.553 56.051V60.1663C321.553 60.7346 322.013 61.1952 322.582 61.1952H326.697C327.265 61.1952 327.726 60.7346 327.726 60.1663V56.051C327.726 55.4828 327.265 55.0222 326.697 55.0222Z" fill="white"/>
<path d="M312.295 55.0222H308.179C307.611 55.0222 307.15 55.4828 307.15 56.051V60.1663C307.15 60.7346 307.611 61.1952 308.179 61.1952H312.295C312.863 61.1952 313.323 60.7346 313.323 60.1663V56.051C313.323 55.4828 312.863 55.0222 312.295 55.0222Z" fill="white"/>
<path d="M319.496 40.6187H315.38C314.812 40.6187 314.352 41.0793 314.352 41.6475V45.7628C314.352 46.331 314.812 46.7916 315.38 46.7916H319.496C320.064 46.7916 320.525 46.331 320.525 45.7628V41.6475C320.525 41.0793 320.064 40.6187 319.496 40.6187Z" fill="white"/>
<path d="M310 53V50.75C310 50.5511 310.113 50.3603 310.314 50.2197C310.515 50.079 310.787 50 311.071 50H323.929C324.213 50 324.485 50.079 324.686 50.2197C324.887 50.3603 325 50.5511 325 50.75V53M317.5 50V47V50Z" fill="white"/>
<defs>
<filter id="filter0_b_269_1396" x="-4" y="191" width="109.254" height="103.829" filterUnits="userSpaceOnUse" color-interpolation-filters="sRGB">
<feFlood flood-opacity="0" result="BackgroundImageFix"/>
<feGaussianBlur in="BackgroundImageFix" stdDeviation="2"/>
<feComposite in2="SourceAlpha" operator="in" result="effect1_backgroundBlur_269_1396"/>
<feBlend mode="normal" in="SourceGraphic" in2="effect1_backgroundBlur_269_1396" result="shape"/>
</filter>
<filter id="filter1_b_269_1396" x="172.692" y="-4" width="201.308" height="107.509" filterUnits="userSpaceOnUse" color-interpolation-filters="sRGB">
<feFlood flood-opacity="0" result="BackgroundImageFix"/>
<feGaussianBlur in="BackgroundImageFix" stdDeviation="2"/>
<feComposite in2="SourceAlpha" operator="in" result="effect1_backgroundBlur_269_1396"/>
<feBlend mode="normal" in="SourceGraphic" in2="effect1_backgroundBlur_269_1396" result="shape"/>
</filter>
<filter id="filter2_b_269_1396" x="11.7143" y="203.714" width="77.5714" height="77.5714" filterUnits="userSpaceOnUse" color-interpolation-filters="sRGB">
<feFlood flood-opacity="0" result="BackgroundImageFix"/>
<feGaussianBlur in="BackgroundImageFix" stdDeviation="2.14286"/>
<feComposite in2="SourceAlpha" operator="in" result="effect1_backgroundBlur_269_1396"/>
<feBlend mode="normal" in="SourceGraphic" in2="effect1_backgroundBlur_269_1396" result="shape"/>
</filter>
<linearGradient id="paint0_linear_269_1396" x1="52.6477" y1="106.671" x2="52.6477" y2="163.731" gradientUnits="userSpaceOnUse">
<stop stop-color="white" stop-opacity="0.12"/>
<stop offset="0.5" stop-color="white" stop-opacity="0.73"/>
<stop offset="1" stop-color="#353535" stop-opacity="0"/>
</linearGradient>
<linearGradient id="paint1_linear_269_1396" x1="291.439" y1="170.685" x2="291.439" y2="209.784" gradientUnits="userSpaceOnUse">
<stop stop-color="white" stop-opacity="0.12"/>
<stop offset="0.5" stop-color="white" stop-opacity="0.73"/>
<stop offset="1" stop-color="#353535" stop-opacity="0"/>
</linearGradient>
<linearGradient id="paint2_linear_269_1396" x1="-3.33521" y1="195" x2="91.2055" y2="302.761" gradientUnits="userSpaceOnUse">
<stop stop-color="white"/>
<stop offset="1" stop-color="white" stop-opacity="0"/>
</linearGradient>
<linearGradient id="paint3_linear_269_1396" x1="-6.36741" y1="1.09579e-07" x2="70.6006" y2="161.298" gradientUnits="userSpaceOnUse">
<stop stop-color="white"/>
<stop offset="1" stop-color="white" stop-opacity="0"/>
</linearGradient>
<linearGradient id="paint4_linear_269_1396" x1="2.03911" y1="1.28967e-05" x2="141.922" y2="53.017" gradientUnits="userSpaceOnUse">
<stop stop-color="#FA00FF"/>
<stop offset="1" stop-color="#0084FF"/>
</linearGradient>
<linearGradient id="paint5_linear_269_1396" x1="67.0618" y1="65.0192" x2="13.374" y2="-8.78807" gradientUnits="userSpaceOnUse">
<stop offset="0.00104141" stop-color="#0FD3FE"/>
<stop offset="0.730208" stop-color="#0E41ED"/>
</linearGradient>
<clipPath id="clip0_269_1396">
<rect width="54.8351" height="54.8351" fill="white" transform="matrix(-1 0 0 1 80.2227 103.577)"/>
</clipPath>
</defs>
</svg>
