<svg width="354" height="271" viewBox="0 0 354 271" fill="none" xmlns="http://www.w3.org/2000/svg">
<g filter="url(#filter0_b_897_1463)">
<rect width="202.61" height="165.858" rx="13.1932" transform="matrix(1 0 0 -1 129.715 168.192)" fill="#6660A0" fill-opacity="0.2"/>
<rect x="0.252421" y="-0.252421" width="202.105" height="165.353" rx="12.9408" transform="matrix(1 0 0 -1 129.715 167.687)" stroke="url(#paint0_linear_897_1463)" stroke-width="0.504843"/>
</g>
<g clip-path="url(#clip0_897_1463)">
<path d="M293.84 203.993H60.7344V53.0991C60.7344 49.5313 63.6215 46.6254 67.1747 46.6254H287.399C290.949 46.6254 293.84 49.5275 293.84 53.0991V203.993Z" fill="white" fill-opacity="0.7"/>
<path d="M313.242 220.022H40.751C39.8097 220.022 39.0395 219.435 38.7828 218.522C38.5298 217.614 38.8832 216.705 39.6869 216.215L60.9276 203.189H293.917L293.984 203.23L314.343 216.233C315.128 216.735 315.471 217.64 315.21 218.541C314.95 219.439 314.18 220.022 313.25 220.022H313.242Z" fill="#232868"/>
<path d="M287.189 56.2587H66.5771V194.122H287.189V56.2587Z" fill="#191D4B"/>
<path d="M295.964 211.742H59.406L71.0998 202.205H284.802L295.964 211.742Z" fill="#191D4B"/>
<g filter="url(#filter1_b_897_1463)">
<path fill-rule="evenodd" clip-rule="evenodd" d="M162.524 77.5567C163.115 76.9663 163.916 76.6346 164.752 76.6346C165.588 76.6346 166.389 76.9663 166.98 77.5567L169.705 80.2794C171.687 82.2602 174.556 82.9519 177.358 82.9328C180.221 82.9328 183.13 82.1579 185.155 80.135L187.736 77.5567C188.027 77.2559 188.375 77.016 188.759 76.8509C189.144 76.6858 189.557 76.599 189.976 76.5953C190.394 76.5917 190.809 76.6714 191.197 76.8297C191.584 76.9881 191.936 77.222 192.232 77.5177C192.528 77.8134 192.762 78.165 192.92 78.5521C193.079 78.9391 193.158 79.3538 193.155 79.772C193.151 80.1902 193.064 80.6035 192.899 80.9877C192.734 81.372 192.494 81.7195 192.193 82.01C190.136 84.0666 190.519 87.4953 192.28 89.8098C192.416 89.9893 192.549 90.1715 192.679 90.3563C193.513 91.5463 194.814 92.3811 196.268 92.3811C196.813 92.3811 197.705 92.1921 198.367 91.7134C198.868 91.3544 199.419 90.7245 199.419 89.2317C199.419 88.3964 199.751 87.5953 200.342 87.0047C200.933 86.414 201.735 86.0822 202.571 86.0822C203.407 86.0822 204.208 86.414 204.799 87.0047C205.39 87.5953 205.722 88.3964 205.722 89.2317C205.722 92.7779 204.175 95.2975 202.048 96.8281C200.354 98.0178 198.338 98.6638 196.268 98.68C196.126 98.68 196.018 98.8074 196.039 98.9476C196.198 99.9823 196.268 100.959 196.268 101.829C196.268 103.569 197.678 104.979 199.417 104.979H202.571C203.407 104.979 204.208 105.311 204.799 105.901C205.39 106.492 205.722 107.293 205.722 108.128C205.722 108.964 205.39 109.765 204.799 110.355C204.208 110.946 203.407 111.278 202.571 111.278H199.417C197.678 111.278 196.268 112.688 196.268 114.427C196.268 115.297 196.198 116.274 196.039 117.309C196.018 117.449 196.126 117.577 196.268 117.577C197.821 117.577 200.084 118.017 202.048 119.428C204.178 120.962 205.722 123.482 205.722 127.025C205.722 127.86 205.39 128.661 204.799 129.252C204.208 129.842 203.407 130.174 202.571 130.174C201.735 130.174 200.933 129.842 200.342 129.252C199.751 128.661 199.419 127.86 199.419 127.025C199.419 125.532 198.868 124.902 198.367 124.543C197.746 124.124 197.017 123.892 196.268 123.875C194.814 123.875 193.512 124.709 192.677 125.899C191.659 127.349 190.423 128.64 189.01 129.724C186.075 131.947 182.221 133.324 177.358 133.324C172.495 133.324 168.644 131.947 165.707 129.724C164.214 128.595 163.01 127.281 162.044 125.897C161.211 124.703 159.904 123.875 158.449 123.875C157.903 123.875 157.012 124.064 156.35 124.543C155.849 124.902 155.297 125.532 155.297 127.025C155.297 127.86 154.965 128.661 154.374 129.252C153.783 129.842 152.981 130.174 152.145 130.174C151.31 130.174 150.508 129.842 149.917 129.252C149.326 128.661 148.994 127.86 148.994 127.025C148.994 123.479 150.544 120.959 152.669 119.428C154.362 118.239 156.378 117.593 158.449 117.577C158.591 117.577 158.698 117.449 158.677 117.309C158.518 116.274 158.449 115.297 158.449 114.427C158.449 112.688 157.039 111.278 155.299 111.278H152.145C151.31 111.278 150.508 110.946 149.917 110.355C149.326 109.765 148.994 108.964 148.994 108.128C148.994 107.293 149.326 106.492 149.917 105.901C150.508 105.311 151.31 104.979 152.145 104.979H155.299C157.039 104.979 158.449 103.569 158.449 101.829C158.449 100.804 158.509 99.8231 158.627 98.8831C158.641 98.7755 158.557 98.68 158.449 98.68C156.895 98.68 154.632 98.239 152.669 96.8281C150.544 95.2975 148.994 92.7779 148.994 89.2317C148.994 88.3964 149.326 87.5953 149.917 87.0047C150.508 86.414 151.31 86.0822 152.145 86.0822C152.981 86.0822 153.783 86.414 154.374 87.0047C154.965 87.5953 155.297 88.3964 155.297 89.2317C155.297 90.7245 155.849 91.3544 156.35 91.7134C157.012 92.1921 157.903 92.3811 158.449 92.3811C159.8 92.3811 161.015 91.6189 161.805 90.5227C161.968 90.295 162.138 90.0716 162.313 89.8527C164.142 87.5637 164.596 84.0811 162.524 82.01C161.933 81.4194 161.601 80.6185 161.601 79.7833C161.601 78.9482 161.933 78.1473 162.524 77.5567ZM177.358 95.5305C176.522 95.5305 175.721 95.8623 175.13 96.453C174.539 97.0436 174.207 97.8447 174.207 98.68C174.207 99.5152 174.539 100.316 175.13 100.907C175.721 101.498 176.522 101.829 177.358 101.829H177.361C178.197 101.829 178.999 101.498 179.59 100.907C180.181 100.316 180.513 99.5152 180.513 98.68C180.513 97.8447 180.181 97.0436 179.59 96.453C178.999 95.8623 178.197 95.5305 177.361 95.5305H177.358ZM167.903 108.128C167.903 107.293 168.235 106.492 168.826 105.901C169.418 105.311 170.219 104.979 171.055 104.979H171.058C171.894 104.979 172.696 105.311 173.287 105.901C173.878 106.492 174.21 107.293 174.21 108.128C174.21 108.964 173.878 109.765 173.287 110.355C172.696 110.946 171.894 111.278 171.058 111.278H171.055C170.219 111.278 169.418 110.946 168.826 110.355C168.235 109.765 167.903 108.964 167.903 108.128ZM183.661 104.979C182.825 104.979 182.024 105.311 181.433 105.901C180.842 106.492 180.51 107.293 180.51 108.128C180.51 108.964 180.842 109.765 181.433 110.355C182.024 110.946 182.825 111.278 183.661 111.278H183.664C184.5 111.278 185.302 110.946 185.893 110.355C186.484 109.765 186.816 108.964 186.816 108.128C186.816 107.293 186.484 106.492 185.893 105.901C185.302 105.311 184.5 104.979 183.664 104.979H183.661Z" fill="url(#paint1_linear_897_1463)"/>
</g>
<path d="M163.959 165.67H190.078C191.411 165.67 192.496 166.761 192.496 168.101C192.496 169.441 191.411 170.531 190.078 170.531H163.959C162.626 170.531 161.541 169.441 161.541 168.101C161.541 166.761 162.626 165.67 163.959 165.67Z" fill="#00A3FF"/>
<path d="M169.871 159.186H182.458C183.269 159.186 183.933 159.851 183.933 160.669C183.933 161.487 183.272 162.152 182.458 162.152H169.871C169.059 162.152 168.395 161.487 168.395 160.669C168.395 159.851 169.057 159.186 169.871 159.186Z" fill="#DFDFDF"/>
<path d="M135.484 153.334H217.779C218.591 153.334 219.255 153.998 219.255 154.817C219.255 155.635 218.593 156.3 217.779 156.3H135.484C134.673 156.3 134.009 155.635 134.009 154.817C134.009 153.998 134.67 153.334 135.484 153.334Z" fill="#DFDFDF"/>
<path d="M139.352 149.379H214.568C215.38 149.379 216.044 150.044 216.044 150.862C216.044 151.68 215.383 152.345 214.568 152.345H139.355C138.544 152.345 137.88 151.68 137.88 150.862C137.88 150.044 138.541 149.379 139.355 149.379H139.352Z" fill="#DFDFDF"/>
</g>
<g filter="url(#filter2_b_897_1463)">
<rect x="25.1121" y="176.673" width="99.5715" height="94.2373" rx="14.6238" fill="url(#paint2_linear_897_1463)" fill-opacity="0.3"/>
</g>
<g filter="url(#filter3_b_897_1463)">
<rect width="67.8537" height="67.8537" rx="33.9268" transform="matrix(1 0 0 -1 40.8462 257.311)" fill="url(#paint3_linear_897_1463)"/>
</g>
<path d="M58.6777 222.943C58.6777 235.477 74.6981 242.639 74.6981 242.639C74.6981 242.639 90.7184 235.477 90.7184 222.943V212.2L74.6981 206.829L58.6777 212.2V222.943Z" stroke="white" stroke-width="5.65424"/>
<path d="M67.4522 13.5422H60.1787C59.0139 11.3754 57.4091 9.47951 55.4677 8.12529L59.6869 3.81889L56.0372 0L50.4203 5.8773C48.0134 5.26634 45.5018 5.26634 43.095 5.8773L37.4522 0L33.8024 3.81889L37.9957 8.12529C36.0544 9.47951 34.4754 11.4025 33.3106 13.5422H26.0371V18.959H31.447C31.2917 19.8528 31.214 20.7466 31.214 21.6675V24.3759H26.0371V29.7927H31.214V32.5012C31.214 33.422 31.2917 34.3158 31.447 35.2096H26.0371V40.6265H33.3106C34.3309 42.4719 35.6889 44.0888 37.307 45.3846C38.925 46.6803 40.7713 47.6296 42.7403 48.178C44.7093 48.7264 46.7623 48.8632 48.7819 48.5805C50.8015 48.2979 52.748 47.6014 54.51 46.5309C56.8655 45.1225 58.8327 43.0641 60.1787 40.6265H67.4522V35.2096H62.0424C62.1977 34.3158 62.2754 33.422 62.2754 32.5012V29.7927H67.4522V24.3759H62.2754V21.6675C62.2754 20.7466 62.1977 19.8528 62.0424 18.959H67.4522V13.5422ZM57.0985 32.5012C57.0985 35.3745 56.0076 38.1301 54.0659 40.1618C52.1242 42.1935 49.4907 43.3349 46.7447 43.3349C43.9987 43.3349 41.3652 42.1935 39.4234 40.1618C37.4817 38.1301 36.3909 35.3745 36.3909 32.5012V21.6675C36.3909 18.7942 37.4817 16.0386 39.4234 14.0069C41.3652 11.9751 43.9987 10.8337 46.7447 10.8337C49.4907 10.8337 52.1242 11.9751 54.0659 14.0069C56.0076 16.0386 57.0985 18.7942 57.0985 21.6675V32.5012ZM51.9216 18.959V24.3759H41.5678V18.959H51.9216ZM41.5678 29.7927H51.9216V35.2096H41.5678V29.7927Z" fill="url(#paint4_linear_897_1463)"/>
<path d="M62.2754 24.5834H67.2447V29.5852H62.2754H62.0679V29.7927V32.5012C62.0679 33.4101 61.9912 34.292 61.838 35.1741L61.7957 35.4171H62.0424H67.2447V40.419H60.1787H60.0563L59.9971 40.5262C58.6683 42.9326 56.7266 44.9638 54.4035 46.3528L54.4023 46.3535C52.6641 47.4096 50.7444 48.0964 48.7531 48.375C46.7619 48.6537 44.7376 48.5189 42.796 47.9781C40.8544 47.4373 39.0332 46.5011 37.4367 45.2226C35.8401 43.9441 34.4996 42.3482 33.4922 40.5261L33.433 40.419H33.3106H26.2446V35.4171H31.447H31.6936L31.6514 35.1741C31.4981 34.292 31.4215 33.4101 31.4215 32.5012V29.7927V29.5852H31.214H26.2446V24.5834H31.214H31.4215V24.3759V21.6675C31.4215 20.7585 31.4981 19.8766 31.6514 18.9945L31.6936 18.7515H31.447H26.2446V13.7497H33.3106H33.4339L33.4929 13.6414C34.6457 11.5238 36.2047 9.62763 38.1144 8.29548L38.3149 8.15565L38.1444 7.98054L34.0908 3.81754L37.4525 0.299967L42.9453 6.021L43.0289 6.10814L43.146 6.07842C45.5194 5.47597 47.9959 5.47597 50.3692 6.07842L50.4866 6.10821L50.5703 6.02066L56.0372 0.300327L59.3982 3.81709L55.3195 7.98008L55.1479 8.15521L55.349 8.29548C57.2603 9.62869 58.8445 11.4984 59.9959 13.6404L60.0547 13.7497H60.1787H67.2447V18.7515H62.0424H61.7957L61.838 18.9945C61.9912 19.8766 62.0679 20.7585 62.0679 21.6675V24.3759V24.5834H62.2754ZM54.2159 40.3051C56.1954 38.2339 57.306 35.4265 57.306 32.5012V21.6675C57.306 18.7421 56.1954 15.9348 54.2159 13.8635C52.2361 11.7919 49.5488 10.6262 46.7447 10.6262C43.9405 10.6262 41.2533 11.7919 39.2734 13.8635C37.2939 15.9348 36.1834 18.7421 36.1834 21.6675V32.5012C36.1834 35.4265 37.2939 38.2339 39.2734 40.3051C41.2533 42.3767 43.9405 43.5424 46.7447 43.5424C49.5488 43.5424 52.2361 42.3767 54.2159 40.3051ZM51.7141 24.1684H41.7753V19.1665H51.7141V24.1684ZM51.7141 30.0002V35.0021H41.7753V30.0002H51.7141Z" stroke="white" stroke-opacity="0.7" stroke-width="0.415"/>
<defs>
<filter id="filter0_b_897_1463" x="97.4054" y="-29.9761" width="267.23" height="230.478" filterUnits="userSpaceOnUse" color-interpolation-filters="sRGB">
<feFlood flood-opacity="0" result="BackgroundImageFix"/>
<feGaussianBlur in="BackgroundImageFix" stdDeviation="16.155"/>
<feComposite in2="SourceAlpha" operator="in" result="effect1_backgroundBlur_897_1463"/>
<feBlend mode="normal" in="SourceGraphic" in2="effect1_backgroundBlur_897_1463" result="shape"/>
</filter>
<filter id="filter1_b_897_1463" x="145.077" y="72.6781" width="64.5627" height="64.5627" filterUnits="userSpaceOnUse" color-interpolation-filters="sRGB">
<feFlood flood-opacity="0" result="BackgroundImageFix"/>
<feGaussianBlur in="BackgroundImageFix" stdDeviation="1.95854"/>
<feComposite in2="SourceAlpha" operator="in" result="effect1_backgroundBlur_897_1463"/>
<feBlend mode="normal" in="SourceGraphic" in2="effect1_backgroundBlur_897_1463" result="shape"/>
</filter>
<filter id="filter2_b_897_1463" x="21.4561" y="173.017" width="106.883" height="101.549" filterUnits="userSpaceOnUse" color-interpolation-filters="sRGB">
<feFlood flood-opacity="0" result="BackgroundImageFix"/>
<feGaussianBlur in="BackgroundImageFix" stdDeviation="1.82797"/>
<feComposite in2="SourceAlpha" operator="in" result="effect1_backgroundBlur_897_1463"/>
<feBlend mode="normal" in="SourceGraphic" in2="effect1_backgroundBlur_897_1463" result="shape"/>
</filter>
<filter id="filter3_b_897_1463" x="36.9291" y="185.54" width="75.6879" height="75.6878" filterUnits="userSpaceOnUse" color-interpolation-filters="sRGB">
<feFlood flood-opacity="0" result="BackgroundImageFix"/>
<feGaussianBlur in="BackgroundImageFix" stdDeviation="1.95854"/>
<feComposite in2="SourceAlpha" operator="in" result="effect1_backgroundBlur_897_1463"/>
<feBlend mode="normal" in="SourceGraphic" in2="effect1_backgroundBlur_897_1463" result="shape"/>
</filter>
<linearGradient id="paint0_linear_897_1463" x1="0" y1="165.858" x2="223.722" y2="43.3011" gradientUnits="userSpaceOnUse">
<stop stop-color="#0084FF" stop-opacity="0.4"/>
<stop offset="0.407091" stop-color="white" stop-opacity="0.726314"/>
<stop offset="1" stop-color="white" stop-opacity="0"/>
</linearGradient>
<linearGradient id="paint1_linear_897_1463" x1="204.129" y1="130.051" x2="159.989" y2="69.3701" gradientUnits="userSpaceOnUse">
<stop offset="0.00104141" stop-color="#0FD3FE"/>
<stop offset="0.730208" stop-color="#0E41ED"/>
</linearGradient>
<linearGradient id="paint2_linear_897_1463" x1="57.0253" y1="176.673" x2="83.1806" y2="273.229" gradientUnits="userSpaceOnUse">
<stop stop-color="white"/>
<stop offset="0.542708" stop-color="white" stop-opacity="0.728125"/>
<stop offset="1" stop-color="white" stop-opacity="0"/>
</linearGradient>
<linearGradient id="paint3_linear_897_1463" x1="65.9477" y1="63.9391" x2="13.1518" y2="-8.64207" gradientUnits="userSpaceOnUse">
<stop offset="0.00104141" stop-color="#0FD3FE"/>
<stop offset="0.730208" stop-color="#0E41ED"/>
</linearGradient>
<linearGradient id="paint4_linear_897_1463" x1="46.7548" y1="2.74669" x2="46.7548" y2="53.4498" gradientUnits="userSpaceOnUse">
<stop stop-color="white" stop-opacity="0.12"/>
<stop offset="0.5" stop-color="white" stop-opacity="0.73"/>
<stop offset="1" stop-color="#353535" stop-opacity="0"/>
</linearGradient>
<clipPath id="clip0_897_1463">
<rect width="353.399" height="173.397" fill="white" transform="translate(0.215332 46.6254)"/>
</clipPath>
</defs>
</svg>
