<svg width="348" height="274" viewBox="0 0 348 274" fill="none" xmlns="http://www.w3.org/2000/svg">
<g filter="url(#filter0_b_897_1346)">
<rect width="202" height="260" rx="14" transform="matrix(1 0 0 -1 64 260)" fill="#6660A0" fill-opacity="0.2"/>
<rect x="0.267857" y="-0.267857" width="201.464" height="259.464" rx="13.7321" transform="matrix(1 0 0 -1 64 259.464)" stroke="url(#paint0_linear_897_1346)" stroke-width="0.535714"/>
</g>
<path d="M299.926 224.729H28.9763C27.1267 224.727 25.3535 223.991 24.0456 222.683C22.7378 221.375 22.0021 219.602 22 217.753V50.6797C22.0015 49.3247 22.5404 48.0256 23.4986 47.0675C24.4567 46.1093 25.7558 45.5703 27.1108 45.5687H301.703C303.081 45.5703 304.403 46.1186 305.378 47.0933C306.352 48.0681 306.9 49.3896 306.902 50.7681V217.753C306.9 219.602 306.164 221.375 304.856 222.683C303.549 223.991 301.775 224.727 299.926 224.729Z" fill="#232868"/>
<path d="M291.263 215.921H38.7453C35.0437 215.921 32.0322 213.101 32.0322 209.634V64.1452C32.0322 61.5746 34.2638 59.483 37.0068 59.483H292.919C295.708 59.483 297.976 61.609 297.976 64.222V209.634C297.976 213.101 294.965 215.921 291.263 215.921Z" fill="#191D4B"/>
<path d="M306.903 51.5491H22V47.9973C22.0027 46.1416 22.7414 44.3627 24.054 43.0509C25.3666 41.7391 27.1459 41.0015 29.0016 41H299.901C301.757 41.0015 303.536 41.7391 304.849 43.0509C306.161 44.3627 306.9 46.1416 306.903 47.9973V51.5491Z" fill="white"/>
<path d="M34.7244 48.0961C35.7246 48.0961 36.5354 47.2853 36.5354 46.285C36.5354 45.2848 35.7246 44.474 34.7244 44.474C33.7242 44.474 32.9133 45.2848 32.9133 46.285C32.9133 47.2853 33.7242 48.0961 34.7244 48.0961Z" fill="#0971BB"/>
<path d="M41.5989 48.0961C42.5991 48.0961 43.4099 47.2853 43.4099 46.285C43.4099 45.2848 42.5991 44.474 41.5989 44.474C40.5987 44.474 39.7878 45.2848 39.7878 46.285C39.7878 47.2853 40.5987 48.0961 41.5989 48.0961Z" fill="#0971BB"/>
<path d="M48.4732 48.0961C49.4734 48.0961 50.2842 47.2853 50.2842 46.285C50.2842 45.2848 49.4734 44.474 48.4732 44.474C47.4729 44.474 46.6621 45.2848 46.6621 46.285C46.6621 47.2853 47.4729 48.0961 48.4732 48.0961Z" fill="#0971BB"/>
<path d="M159.014 91.2946H109.627C108.89 91.2946 108.184 91.0021 107.663 90.4814C107.143 89.9608 106.85 89.2547 106.85 88.5184C106.85 87.7821 107.143 87.076 107.663 86.5553C108.184 86.0347 108.89 85.7422 109.627 85.7422H159.014C159.75 85.7422 160.456 86.0347 160.977 86.5553C161.497 87.076 161.79 87.7821 161.79 88.5184C161.79 89.2547 161.497 89.9608 160.977 90.4814C160.456 91.0021 159.75 91.2946 159.014 91.2946Z" fill="white" fill-opacity="0.7"/>
<path d="M220.382 91.2946H170.995C170.259 91.2946 169.553 91.0021 169.032 90.4814C168.511 89.9608 168.219 89.2547 168.219 88.5184C168.219 87.7821 168.511 87.076 169.032 86.5553C169.553 86.0347 170.259 85.7422 170.995 85.7422H220.382C221.118 85.7422 221.824 86.0347 222.345 86.5553C222.866 87.076 223.158 87.7821 223.158 88.5184C223.158 89.2547 222.866 89.9608 222.345 90.4814C221.824 91.0021 221.118 91.2946 220.382 91.2946Z" fill="white" fill-opacity="0.7"/>
<path d="M220.382 101.815H134.466C133.73 101.815 133.024 101.522 132.503 101.002C131.982 100.481 131.69 99.7749 131.69 99.0386C131.69 98.3024 131.982 97.5962 132.503 97.0756C133.024 96.5549 133.73 96.2625 134.466 96.2625H220.382C221.118 96.2625 221.824 96.5549 222.345 97.0756C222.866 97.5962 223.158 98.3024 223.158 99.0386C223.158 99.7749 222.866 100.481 222.345 101.002C221.824 101.522 221.118 101.815 220.382 101.815Z" fill="white" fill-opacity="0.7"/>
<path d="M159.014 80.6281H109.627C108.891 80.6272 108.186 80.3343 107.666 79.8137C107.146 79.2932 106.854 78.5876 106.854 77.8519C106.854 77.1162 107.146 76.4106 107.666 75.89C108.186 75.3695 108.891 75.0766 109.627 75.0757H159.014C159.378 75.0752 159.74 75.1467 160.077 75.286C160.414 75.4253 160.721 75.6298 160.979 75.8876C161.237 76.1454 161.442 76.4516 161.582 76.7887C161.721 77.1257 161.793 77.487 161.793 77.8519C161.793 78.2167 161.721 78.578 161.582 78.9151C161.442 79.2521 161.237 79.5583 160.979 79.8162C160.721 80.074 160.414 80.2784 160.077 80.4177C159.74 80.557 159.378 80.6285 159.014 80.6281Z" fill="white" fill-opacity="0.7"/>
<path d="M186.191 80.7741H172.164C171.428 80.7741 170.721 80.4816 170.201 79.9609C169.68 79.4403 169.388 78.7342 169.388 77.9979C169.388 77.2616 169.68 76.5554 170.201 76.0348C170.721 75.5142 171.428 75.2217 172.164 75.2217H186.191C186.927 75.2217 187.633 75.5142 188.154 76.0348C188.675 76.5554 188.967 77.2616 188.967 77.9979C188.967 78.7342 188.675 79.4403 188.154 79.9609C187.633 80.4816 186.927 80.7741 186.191 80.7741Z" fill="white" fill-opacity="0.7"/>
<path d="M123.654 101.815H109.627C108.891 101.814 108.186 101.521 107.666 101.001C107.146 100.48 106.854 99.7743 106.854 99.0386C106.854 98.3029 107.146 97.5973 107.666 97.0768C108.186 96.5562 108.891 96.2634 109.627 96.2625H123.654C124.018 96.262 124.38 96.3335 124.717 96.4728C125.054 96.6121 125.361 96.8165 125.619 97.0744C125.877 97.3322 126.082 97.6384 126.222 97.9755C126.361 98.3125 126.433 98.6738 126.433 99.0386C126.433 99.4035 126.361 99.7648 126.222 100.102C126.082 100.439 125.877 100.745 125.619 101.003C125.361 101.261 125.054 101.465 124.717 101.604C124.38 101.744 124.018 101.815 123.654 101.815Z" fill="white" fill-opacity="0.7"/>
<path d="M159.014 189.808H109.627C108.89 189.808 108.184 189.516 107.663 188.995C107.143 188.474 106.85 187.768 106.85 187.032C106.85 186.296 107.143 185.589 107.663 185.069C108.184 184.548 108.89 184.256 109.627 184.256H159.014C159.378 184.256 159.739 184.327 160.076 184.467C160.413 184.606 160.719 184.811 160.977 185.069C161.234 185.327 161.439 185.633 161.578 185.969C161.718 186.306 161.79 186.667 161.79 187.032C161.79 187.396 161.718 187.757 161.578 188.094C161.439 188.431 161.234 188.737 160.977 188.995C160.719 189.253 160.413 189.457 160.076 189.597C159.739 189.736 159.378 189.808 159.014 189.808Z" fill="white" fill-opacity="0.7"/>
<path d="M220.382 189.808H170.995C170.259 189.808 169.553 189.516 169.032 188.995C168.511 188.474 168.219 187.768 168.219 187.032C168.219 186.296 168.511 185.589 169.032 185.069C169.553 184.548 170.259 184.256 170.995 184.256H220.382C220.747 184.256 221.108 184.327 221.444 184.467C221.781 184.606 222.087 184.811 222.345 185.069C222.603 185.327 222.807 185.633 222.947 185.969C223.086 186.306 223.158 186.667 223.158 187.032C223.158 187.396 223.086 187.757 222.947 188.094C222.807 188.431 222.603 188.737 222.345 188.995C222.087 189.253 221.781 189.457 221.444 189.597C221.108 189.736 220.747 189.808 220.382 189.808Z" fill="white" fill-opacity="0.7"/>
<path d="M220.382 200.328H134.466C133.73 200.328 133.024 200.036 132.503 199.515C131.982 198.995 131.69 198.288 131.69 197.552C131.69 196.816 131.982 196.11 132.503 195.589C133.024 195.068 133.73 194.776 134.466 194.776H220.382C220.747 194.775 221.108 194.847 221.445 194.986C221.783 195.126 222.089 195.33 222.347 195.588C222.605 195.846 222.81 196.152 222.95 196.489C223.09 196.826 223.162 197.187 223.162 197.552C223.162 197.917 223.09 198.278 222.95 198.615C222.81 198.952 222.605 199.259 222.347 199.516C222.089 199.774 221.783 199.979 221.445 200.118C221.108 200.257 220.747 200.329 220.382 200.328Z" fill="white" fill-opacity="0.7"/>
<path d="M159.014 179.142H109.627C108.89 179.142 108.184 178.849 107.663 178.328C107.143 177.808 106.85 177.102 106.85 176.365C106.85 175.629 107.143 174.923 107.663 174.402C108.184 173.882 108.89 173.589 109.627 173.589H159.014C159.75 173.589 160.456 173.882 160.977 174.402C161.497 174.923 161.79 175.629 161.79 176.365C161.79 177.102 161.497 177.808 160.977 178.328C160.456 178.849 159.75 179.142 159.014 179.142Z" fill="white" fill-opacity="0.7"/>
<path d="M186.191 179.288H172.164C171.428 179.288 170.721 178.995 170.201 178.475C169.68 177.954 169.388 177.248 169.388 176.512C169.388 175.775 169.68 175.069 170.201 174.548C170.721 174.028 171.428 173.735 172.164 173.735H186.191C186.927 173.735 187.633 174.028 188.154 174.548C188.675 175.069 188.967 175.775 188.967 176.512C188.967 177.248 188.675 177.954 188.154 178.475C187.633 178.995 186.927 179.288 186.191 179.288Z" fill="white" fill-opacity="0.7"/>
<path d="M123.654 200.328H109.627C108.89 200.328 108.184 200.036 107.663 199.515C107.143 198.995 106.85 198.288 106.85 197.552C106.85 196.816 107.143 196.11 107.663 195.589C108.184 195.068 108.89 194.776 109.627 194.776H123.654C124.018 194.775 124.38 194.847 124.717 194.986C125.054 195.126 125.361 195.33 125.619 195.588C125.877 195.846 126.082 196.152 126.222 196.489C126.361 196.826 126.433 197.187 126.433 197.552C126.433 197.917 126.361 198.278 126.222 198.615C126.082 198.952 125.877 199.259 125.619 199.516C125.361 199.774 125.054 199.979 124.717 200.118C124.38 200.257 124.018 200.329 123.654 200.328Z" fill="white" fill-opacity="0.7"/>
<path d="M146.115 160.003C145.067 160.006 144.061 159.594 143.315 158.857L124.75 140.525C124.386 140.165 124.096 139.736 123.899 139.264C123.701 138.791 123.6 138.284 123.6 137.772C123.6 137.259 123.701 136.752 123.899 136.28C124.096 135.807 124.386 135.378 124.75 135.019L143.24 116.76C144.01 116.003 145.048 115.58 146.128 115.584C147.208 115.587 148.243 116.016 149.008 116.778C149.775 117.546 150.205 118.587 150.205 119.672C150.205 120.756 149.775 121.797 149.009 122.565L135.269 136.305C134.841 136.734 134.601 137.315 134.601 137.921C134.601 138.527 134.841 139.109 135.269 139.538L148.934 153.203C149.492 153.76 149.872 154.47 150.026 155.243C150.18 156.016 150.102 156.818 149.8 157.546C149.498 158.274 148.987 158.897 148.331 159.334C147.675 159.771 146.904 160.004 146.115 160.003Z" fill="url(#paint1_linear_897_1346)"/>
<path d="M175.697 160.003C174.909 160.004 174.138 159.771 173.482 159.334C172.826 158.897 172.315 158.274 172.013 157.546C171.711 156.818 171.632 156.016 171.786 155.243C171.94 154.47 172.32 153.76 172.878 153.203L186.543 139.538C186.971 139.109 187.212 138.527 187.212 137.921C187.212 137.315 186.971 136.734 186.543 136.305L172.804 122.565C172.424 122.185 172.123 121.734 171.917 121.237C171.711 120.741 171.605 120.209 171.605 119.672C171.605 119.134 171.711 118.602 171.917 118.106C172.123 117.609 172.424 117.158 172.804 116.778C173.57 116.016 174.605 115.587 175.685 115.584C176.765 115.58 177.802 116.003 178.573 116.76L197.062 135.019C197.427 135.378 197.716 135.807 197.914 136.28C198.111 136.752 198.213 137.259 198.213 137.772C198.213 138.284 198.111 138.791 197.914 139.264C197.716 139.736 197.427 140.165 197.062 140.525L178.498 158.857C177.752 159.594 176.745 160.006 175.697 160.003Z" fill="url(#paint2_linear_897_1346)"/>
<g filter="url(#filter1_b_897_1346)">
<rect x="248" y="179" width="99.7116" height="94.3699" rx="16" fill="url(#paint3_linear_897_1346)" fill-opacity="0.3"/>
</g>
<g filter="url(#filter2_b_897_1346)">
<rect width="69.7509" height="69.7509" rx="34.8754" transform="matrix(1 0 0 -1 262 260)" fill="url(#paint4_linear_897_1346)"/>
</g>
<path d="M311.042 208L292.78 232.078L281.982 221.288L277 226.271L293.605 242.875L316.858 212.982L311.042 208Z" fill="white"/>
<path d="M63.075 168.997L42.0491 148.3C37.4192 151.704 31.7987 153.549 26.0201 153.562H26.0144L25.7081 153.565C18.8899 153.565 12.351 150.899 7.52974 146.153C2.70853 141.407 0 134.97 0 128.258L0.00283598 127.94V127.957C0.00283598 121.073 2.78098 114.47 7.72612 109.603C12.6713 104.735 19.3783 102 26.3718 102C33.3652 102 40.0723 104.735 45.0174 109.603C49.9626 114.47 52.7407 121.073 52.7407 127.957C52.6675 133.67 50.7793 139.216 47.341 143.819L47.3949 143.744L68.4208 164.441L63.075 168.997ZM26.3718 109.013C21.295 108.851 16.3606 110.68 12.6529 114.097C8.94508 117.515 6.76714 122.242 6.59754 127.239C6.42794 132.236 8.28055 137.095 11.7484 140.749C15.2161 144.402 20.0155 146.551 25.0919 146.724C30.1684 146.896 35.1067 145.078 38.8219 141.668C42.5371 138.258 44.7253 133.536 44.9058 128.539C45.0863 123.542 43.2443 118.679 39.7845 115.018C36.3247 111.358 31.5301 109.199 26.454 109.015L26.3718 109.013Z" fill="url(#paint5_linear_897_1346)"/>
<path d="M26.0201 153.562H26.0144M26.0201 153.562C31.7987 153.549 37.4192 151.704 42.0491 148.3L26.0144 153.562M26.0201 153.562L26.0195 153.278L26.0144 153.278L26.0119 153.278L25.7081 153.281C25.7077 153.281 25.7073 153.281 25.7068 153.281C18.9629 153.281 12.4961 150.644 7.72874 145.951C2.96151 141.258 0.28401 134.894 0.283671 128.26C0.283671 128.259 0.283671 128.259 0.283671 128.258L0.286369 127.957H0.286507C0.286507 121.149 3.03366 114.62 7.92512 109.805C12.8167 104.99 19.4521 102.284 26.3718 102.284C33.2914 102.284 39.9268 104.99 44.8184 109.805C49.7094 114.619 52.4565 121.148 52.457 127.955C52.386 133.468 50.6065 138.826 47.3613 143.313L47.3572 143.309L47.1641 143.579L47.1102 143.654L47.3271 143.813L47.1959 143.946L68.0012 164.426L63.0888 168.613L42.2481 148.098L42.0758 147.928L41.881 148.071C37.3002 151.439 31.7386 153.265 26.0201 153.278V153.562ZM26.0144 153.562L25.7081 153.565L26.0144 153.562ZM0.00268673 127.957H0.00283598H0.00268673ZM0.00284232 127.939C0.00768369 121.061 2.7853 114.466 7.72612 109.603C12.6713 104.735 19.3783 102 26.3718 102C33.3652 102 40.0723 104.735 45.0174 109.603C49.9626 114.47 52.7407 121.073 52.7407 127.957C52.6691 133.544 50.8615 138.972 47.5657 143.514L0.00284232 127.939ZM26.3814 108.729L26.3808 108.729C21.2303 108.565 16.2235 110.421 12.4606 113.889C8.69755 117.357 6.48624 122.155 6.31404 127.229C6.14184 132.303 8.02292 137.236 11.5426 140.944C15.0621 144.652 19.9321 146.832 25.0823 147.007C30.2324 147.182 35.2432 145.337 39.0137 141.877C42.7843 138.416 45.0061 133.623 45.1893 128.55C45.3726 123.476 43.5023 118.539 39.9907 114.824C36.4792 111.108 31.614 108.918 26.4642 108.732L26.4636 108.732L26.3814 108.729Z" stroke="white" stroke-opacity="0.7" stroke-width="0.567342"/>
<defs>
<filter id="filter0_b_897_1346" x="29.7143" y="-34.2857" width="270.571" height="328.571" filterUnits="userSpaceOnUse" color-interpolation-filters="sRGB">
<feFlood flood-opacity="0" result="BackgroundImageFix"/>
<feGaussianBlur in="BackgroundImageFix" stdDeviation="17.1429"/>
<feComposite in2="SourceAlpha" operator="in" result="effect1_backgroundBlur_897_1346"/>
<feBlend mode="normal" in="SourceGraphic" in2="effect1_backgroundBlur_897_1346" result="shape"/>
</filter>
<filter id="filter1_b_897_1346" x="244" y="175" width="107.712" height="102.37" filterUnits="userSpaceOnUse" color-interpolation-filters="sRGB">
<feFlood flood-opacity="0" result="BackgroundImageFix"/>
<feGaussianBlur in="BackgroundImageFix" stdDeviation="2"/>
<feComposite in2="SourceAlpha" operator="in" result="effect1_backgroundBlur_897_1346"/>
<feBlend mode="normal" in="SourceGraphic" in2="effect1_backgroundBlur_897_1346" result="shape"/>
</filter>
<filter id="filter2_b_897_1346" x="257.714" y="185.963" width="78.3224" height="78.3224" filterUnits="userSpaceOnUse" color-interpolation-filters="sRGB">
<feFlood flood-opacity="0" result="BackgroundImageFix"/>
<feGaussianBlur in="BackgroundImageFix" stdDeviation="2.14286"/>
<feComposite in2="SourceAlpha" operator="in" result="effect1_backgroundBlur_897_1346"/>
<feBlend mode="normal" in="SourceGraphic" in2="effect1_backgroundBlur_897_1346" result="shape"/>
</filter>
<linearGradient id="paint0_linear_897_1346" x1="0" y1="260" x2="258.595" y2="169.905" gradientUnits="userSpaceOnUse">
<stop stop-color="#0084FF" stop-opacity="0.4"/>
<stop offset="0.407091" stop-color="white" stop-opacity="0.726314"/>
<stop offset="1" stop-color="white" stop-opacity="0"/>
</linearGradient>
<linearGradient id="paint1_linear_897_1346" x1="136.902" y1="115.584" x2="136.902" y2="160.003" gradientUnits="userSpaceOnUse">
<stop stop-color="#0FD3FE"/>
<stop offset="1" stop-color="#0084FF"/>
</linearGradient>
<linearGradient id="paint2_linear_897_1346" x1="184.909" y1="115.584" x2="184.909" y2="160.003" gradientUnits="userSpaceOnUse">
<stop stop-color="#0FD3FE"/>
<stop offset="1" stop-color="#0084FF"/>
</linearGradient>
<linearGradient id="paint3_linear_897_1346" x1="244.716" y1="179" x2="337.817" y2="285.12" gradientUnits="userSpaceOnUse">
<stop stop-color="white"/>
<stop offset="1" stop-color="white" stop-opacity="0"/>
</linearGradient>
<linearGradient id="paint4_linear_897_1346" x1="67.7916" y1="65.7268" x2="13.5196" y2="-8.88371" gradientUnits="userSpaceOnUse">
<stop offset="0.00104141" stop-color="#0FD3FE"/>
<stop offset="0.730208" stop-color="#0E41ED"/>
</linearGradient>
<linearGradient id="paint5_linear_897_1346" x1="34.2271" y1="105.777" x2="34.2271" y2="175.496" gradientUnits="userSpaceOnUse">
<stop stop-color="white" stop-opacity="0.12"/>
<stop offset="0.5" stop-color="white" stop-opacity="0.73"/>
<stop offset="1" stop-color="#353535" stop-opacity="0"/>
</linearGradient>
</defs>
</svg>
