<svg width="350" height="286" viewBox="0 0 350 286" fill="none" xmlns="http://www.w3.org/2000/svg">
<g filter="url(#filter0_b_897_1203)">
<rect width="221.065" height="225.652" rx="14" transform="matrix(1 0 0 -1 72 259)" fill="#6660A0" fill-opacity="0.2"/>
<rect x="0.267857" y="-0.267857" width="220.529" height="225.116" rx="13.7321" transform="matrix(1 0 0 -1 72 258.464)" stroke="url(#paint0_linear_897_1203)" stroke-width="0.535714"/>
</g>
<g clip-path="url(#clip0_897_1203)">
<path d="M343.99 196L318.659 170.978C313.081 175.093 306.31 177.324 299.348 177.34H299.341L298.972 177.343C290.758 177.343 282.88 174.12 277.072 168.382C271.263 162.645 268 154.863 268 146.749L268.003 146.364V146.384C268.003 138.061 271.35 130.08 277.308 124.195C283.266 118.31 291.346 115.003 299.772 115.003C308.197 115.003 316.277 118.31 322.235 124.195C328.193 130.08 331.54 138.061 331.54 146.384C331.452 153.291 329.177 159.996 325.034 165.561L325.099 165.47L350.43 190.492L343.99 196ZM299.772 123.481C293.655 123.286 287.711 125.497 283.244 129.629C278.777 133.76 276.153 139.475 275.948 145.516C275.744 151.558 277.976 157.432 282.154 161.849C286.332 166.266 292.114 168.864 298.23 169.072C304.346 169.281 310.295 167.082 314.771 162.96C319.247 158.838 321.883 153.129 322.101 147.088C322.318 141.047 320.099 135.168 315.931 130.742C311.762 126.316 305.986 123.706 299.871 123.485L299.772 123.481Z" fill="url(#paint1_linear_897_1203)"/>
<path d="M268.25 146.749L268.253 146.384H268.253C268.253 138.129 271.573 130.211 277.484 124.372C283.394 118.534 291.411 115.253 299.772 115.253C308.132 115.253 316.149 118.534 322.059 124.372C327.969 130.21 331.289 138.128 331.29 146.382C331.204 153.103 329.031 159.632 325.07 165.09L325.066 165.086L324.896 165.325L324.834 165.412L324.831 165.416L325.018 165.552L324.924 165.648L350.061 190.479L344.002 195.661L318.835 170.8L318.683 170.65L318.51 170.777C312.976 174.86 306.256 177.074 299.347 177.09L299.341 177.09L299.339 177.09L298.972 177.093C298.972 177.093 298.971 177.093 298.971 177.093C290.822 177.093 283.008 173.895 277.247 168.204C271.486 162.514 268.25 154.796 268.25 146.75C268.25 146.749 268.25 146.749 268.25 146.749ZM299.78 123.232L299.78 123.232C293.598 123.034 287.589 125.269 283.074 129.445C278.558 133.622 275.905 139.399 275.699 145.508C275.492 151.616 277.749 157.556 281.972 162.021C286.196 166.486 292.04 169.112 298.221 169.322C304.402 169.533 310.416 167.311 314.94 163.144C319.465 158.977 322.131 153.206 322.35 147.097C322.57 140.989 320.326 135.045 316.113 130.571C311.899 126.097 306.06 123.459 299.88 123.235L299.879 123.235L299.78 123.232Z" stroke="white" stroke-opacity="0.7" stroke-width="0.5"/>
</g>
<path d="M320 16.6763H310.868C309.405 14.0081 307.39 11.6734 304.952 10.0058L310.25 4.70271L305.667 0L298.615 7.2375C295.593 6.48515 292.44 6.48515 289.417 7.2375L282.332 0L277.75 4.70271L283.015 10.0058C280.577 11.6734 278.595 14.0414 277.132 16.6763H268V23.3468H274.793C274.598 24.4474 274.5 25.548 274.5 26.682V30.0173H268V36.6878H274.5V40.0231C274.5 41.157 274.598 42.2577 274.793 43.3583H268V50.0288H277.132C278.414 52.3014 280.119 54.2925 282.15 55.8881C284.182 57.4838 286.5 58.6527 288.972 59.328C291.444 60.0033 294.022 60.1718 296.558 59.8237C299.094 59.4757 301.538 58.618 303.75 57.2997C306.708 55.5653 309.178 53.0305 310.868 50.0288H320V43.3583H313.208C313.403 42.2577 313.5 41.157 313.5 40.0231V36.6878H320V30.0173H313.5V26.682C313.5 25.548 313.403 24.4474 313.208 23.3468H320V16.6763ZM307 40.0231C307 43.5613 305.63 46.9546 303.192 49.4566C300.754 51.9585 297.448 53.3641 294 53.3641C290.552 53.3641 287.246 51.9585 284.808 49.4566C282.37 46.9546 281 43.5613 281 40.0231V26.682C281 23.1438 282.37 19.7504 284.808 17.2485C287.246 14.7466 290.552 13.341 294 13.341C297.448 13.341 300.754 14.7466 303.192 17.2485C305.63 19.7504 307 23.1438 307 26.682V40.0231ZM300.5 23.3468V30.0173H287.5V23.3468H300.5ZM287.5 36.6878H300.5V43.3583H287.5V36.6878Z" fill="url(#paint2_linear_897_1203)"/>
<path d="M313.5 30.2673H319.75V36.4378H313.5H313.25V36.6878V40.0231C313.25 41.1424 313.154 42.2285 312.961 43.3147L312.909 43.6083H313.208H319.75V49.7788H310.868H310.721L310.65 49.9062C308.981 52.8701 306.542 55.3725 303.624 57.084L303.622 57.0849C301.438 58.3862 299.026 59.2326 296.524 59.576C294.022 59.9195 291.478 59.7533 289.038 59.0868C286.598 58.4204 284.31 57.2667 282.305 55.6915C280.299 54.1163 278.615 52.1504 277.35 49.9061L277.279 49.7788H277.132H268.25V43.6083H274.793H275.091L275.039 43.3147C274.846 42.2285 274.75 41.1424 274.75 40.0231V36.6878V36.4378H274.5H268.25V30.2673H274.5H274.75V30.0173V26.682C274.75 25.5627 274.846 24.4766 275.039 23.3904L275.091 23.0968H274.793H268.25V16.9263H277.132H277.28L277.351 16.7976C278.799 14.1896 280.757 11.8536 283.156 10.2121L283.404 10.0426L283.192 9.82962L278.101 4.70107L282.333 0.357799L289.239 7.41239L289.339 7.51468L289.478 7.4801C292.46 6.73762 295.572 6.73762 298.555 7.4801L298.694 7.51477L298.794 7.41198L305.667 0.358221L309.899 4.70053L304.776 9.82908L304.563 10.0421L304.811 10.2121C307.213 11.8549 309.202 14.1583 310.648 16.7964L310.719 16.9263H310.868H319.75V23.0968H313.208H312.909L312.961 23.3904C313.154 24.4766 313.25 25.5627 313.25 26.682V30.0173V30.2673H313.5ZM303.371 49.631C305.856 47.0818 307.25 43.6256 307.25 40.0231V26.682C307.25 23.0795 305.856 19.6233 303.371 17.074C300.887 14.5245 297.516 13.091 294 13.091C290.484 13.091 287.113 14.5245 284.629 17.074C282.144 19.6233 280.75 23.0795 280.75 26.682V40.0231C280.75 43.6256 282.144 47.0818 284.629 49.631C287.113 52.1805 290.484 53.6141 294 53.6141C297.516 53.6141 300.887 52.1805 303.371 49.631ZM300.25 29.7673H287.75V23.5968H300.25V29.7673ZM300.25 36.9378V43.1083H287.75V36.9378H300.25Z" stroke="white" stroke-opacity="0.7" stroke-width="0.5"/>
<path d="M64 100.287H55.57C54.22 97.8407 52.36 95.7006 50.11 94.1719L55 89.3108L50.77 85L44.26 91.6344C41.4705 90.9447 38.5595 90.9447 35.77 91.6344L29.23 85L25 89.3108L29.86 94.1719C27.61 95.7006 25.78 97.8713 24.43 100.287H16V106.401H22.27C22.09 107.41 22 108.419 22 109.459V112.516H16V118.63H22V121.688C22 122.727 22.09 123.736 22.27 124.745H16V130.86H24.43C25.6125 132.943 27.1864 134.768 29.0617 136.231C30.937 137.693 33.0769 138.765 35.359 139.384C37.641 140.003 40.0205 140.157 42.3611 139.838C44.7018 139.519 46.9578 138.733 49 137.525C51.73 135.935 54.01 133.611 55.57 130.86H64V124.745H57.73C57.91 123.736 58 122.727 58 121.688V118.63H64V112.516H58V109.459C58 108.419 57.91 107.41 57.73 106.401H64V100.287ZM52 121.688C52 124.931 50.7357 128.042 48.4853 130.335C46.2348 132.629 43.1826 133.917 40 133.917C36.8174 133.917 33.7652 132.629 31.5147 130.335C29.2643 128.042 28 124.931 28 121.688V109.459C28 106.215 29.2643 103.105 31.5147 100.811C33.7652 98.5177 36.8174 97.2293 40 97.2293C43.1826 97.2293 46.2348 98.5177 48.4853 100.811C50.7357 103.105 52 106.215 52 109.459V121.688ZM46 106.401V112.516H34V106.401H46ZM34 118.63H46V124.745H34V118.63Z" fill="url(#paint3_linear_897_1203)"/>
<path d="M58 112.766H63.75V118.38H58H57.75V118.63V121.688C57.75 122.713 57.6613 123.707 57.4839 124.701L57.4314 124.995H57.73H63.75V130.61H55.57H55.4244L55.3525 130.736C53.814 133.45 51.5654 135.741 48.8742 137.309L48.8727 137.31C46.859 138.501 44.6348 139.276 42.3274 139.591C40.0199 139.905 37.6742 139.753 35.4244 139.143C33.1746 138.532 31.0647 137.476 29.2155 136.034C27.3662 134.591 25.8138 132.791 24.6474 130.736L24.5756 130.61H24.43H16.25V124.995H22.27H22.5686L22.5161 124.701C22.3387 123.707 22.25 122.713 22.25 121.688V118.63V118.38H22H16.25V112.766H22H22.25V112.516V109.459C22.25 108.434 22.3387 107.44 22.5161 106.445L22.5686 106.151H22.27H16.25V100.537H24.43H24.5767L24.6482 100.409C25.9832 98.0202 27.7887 95.8815 30.0005 94.3787L30.2505 94.2089L30.0368 93.9952L25.3519 89.3092L29.2304 85.3565L35.592 91.8099L35.6919 91.9112L35.83 91.8771C38.5801 91.1972 41.4499 91.1972 44.2 91.8771L44.3385 91.9113L44.4384 91.8095L50.77 85.3569L54.6476 89.3086L49.9337 93.9946L49.7188 94.2084L49.9695 94.3787C52.1832 95.8827 54.0178 97.9917 55.3511 100.407L55.4224 100.537H55.57H63.75V106.151H57.73H57.4314L57.4839 106.445C57.6613 107.44 57.75 108.434 57.75 109.459V112.516V112.766H58ZM48.6637 130.51C50.9605 128.17 52.25 124.996 52.25 121.688V109.459C52.25 106.15 50.9605 102.977 48.6637 100.636C46.3668 98.2952 43.2504 96.9793 40 96.9793C36.7496 96.9793 33.6332 98.2952 31.3363 100.636C29.0395 102.977 27.75 106.15 27.75 109.459V121.688C27.75 124.996 29.0395 128.17 31.3363 130.51C33.6332 132.851 36.7496 134.167 40 134.167C43.2504 134.167 46.3668 132.851 48.6637 130.51ZM45.75 112.266H34.25V106.651H45.75V112.266ZM45.75 118.88V124.495H34.25V118.88H45.75Z" stroke="white" stroke-opacity="0.7" stroke-width="0.5"/>
<g filter="url(#filter1_b_897_1203)">
<rect x="-0.00012207" y="190" width="101.254" height="95.8293" rx="16" fill="url(#paint4_linear_897_1203)" fill-opacity="0.3"/>
</g>
<path d="M256.963 142.484L256.966 142.484C258.799 142.482 260.557 141.752 261.853 140.456C263.15 139.16 263.879 137.402 263.881 135.569V135.566V85.4726V85.4698C263.879 83.6365 263.15 81.8788 261.853 80.5824C260.557 79.286 258.799 78.5568 256.966 78.5547H256.963L108.473 78.5547L108.47 78.5547C106.636 78.5568 104.879 79.2861 103.582 80.5824L105.312 82.3115L103.582 80.5824C102.286 81.8788 101.557 83.6364 101.555 85.4698V85.4726L101.555 135.566L101.555 135.569C101.557 137.402 102.286 139.16 103.582 140.456C104.879 141.752 106.636 142.482 108.47 142.484H108.473H256.963Z" fill="#191D4B" stroke="white" stroke-width="4.89069"/>
<path d="M166.616 94.4177H127.257V98.8903H166.616V94.4177Z" fill="#00A3FF"/>
<path d="M218.499 99.7849C219.981 99.7849 221.182 98.5834 221.182 97.1013C221.182 95.6192 219.981 94.4177 218.499 94.4177C217.016 94.4177 215.815 95.6192 215.815 97.1013C215.815 98.5834 217.016 99.7849 218.499 99.7849Z" fill="white"/>
<path d="M227.446 99.7849C228.928 99.7849 230.13 98.5834 230.13 97.1013C230.13 95.6192 228.928 94.4177 227.446 94.4177C225.964 94.4177 224.763 95.6192 224.763 97.1013C224.763 98.5834 225.964 99.7849 227.446 99.7849Z" fill="white"/>
<path d="M236.389 99.7849C237.871 99.7849 239.073 98.5834 239.073 97.1013C239.073 95.6192 237.871 94.4177 236.389 94.4177C234.907 94.4177 233.706 95.6192 233.706 97.1013C233.706 98.5834 234.907 99.7849 236.389 99.7849Z" fill="white"/>
<path d="M256.963 212.696L256.966 212.696C258.799 212.694 260.557 211.965 261.853 210.669C263.15 209.372 263.879 207.615 263.881 205.781V205.778V155.685V155.682C263.879 153.849 263.15 152.091 261.853 150.795C260.557 149.499 258.799 148.769 256.966 148.767H256.963L108.473 148.767L108.47 148.767C106.636 148.769 104.879 149.499 103.582 150.795L105.312 152.524L103.582 150.795C102.286 152.091 101.557 153.849 101.555 155.682V155.685L101.555 205.778L101.555 205.781C101.557 207.615 102.286 209.372 103.582 210.669C104.879 211.965 106.636 212.694 108.47 212.696H108.473H256.963Z" fill="#191D4B" stroke="white" stroke-width="4.89069"/>
<path d="M166.616 164.63H127.257V169.103H166.616V164.63Z" fill="#00A3FF"/>
<path d="M218.499 169.997C219.981 169.997 221.182 168.796 221.182 167.314C221.182 165.832 219.981 164.63 218.499 164.63C217.016 164.63 215.815 165.832 215.815 167.314C215.815 168.796 217.016 169.997 218.499 169.997Z" fill="white"/>
<path d="M227.446 169.997C228.928 169.997 230.13 168.796 230.13 167.314C230.13 165.832 228.928 164.63 227.446 164.63C225.964 164.63 224.763 165.832 224.763 167.314C224.763 168.796 225.964 169.997 227.446 169.997Z" fill="white"/>
<path d="M236.389 169.997C237.871 169.997 239.073 168.796 239.073 167.314C239.073 165.832 237.871 164.63 236.389 164.63C234.907 164.63 233.706 165.832 233.706 167.314C233.706 168.796 234.907 169.997 236.389 169.997Z" fill="white"/>
<g filter="url(#filter2_b_897_1203)">
<rect width="69" height="69" rx="34.5" transform="matrix(1 0 0 -1 16 272)" fill="url(#paint5_linear_897_1203)"/>
</g>
<path d="M38.9349 257.619C37.8528 257.619 36.9268 257.24 36.1569 256.483C35.3869 255.726 35.0013 254.815 35 253.75V234.408C35 233.344 35.3856 232.434 36.1569 231.677C36.9281 230.92 37.8541 230.541 38.9349 230.54H40.9024V226.671C40.9024 223.995 41.8619 221.715 43.7808 219.83C45.6997 217.945 48.0194 217.001 50.7397 217C53.4614 217 55.7817 217.943 57.7006 219.83C59.6195 221.716 60.5783 223.997 60.577 226.671V230.54H62.5445C63.6266 230.54 64.5533 230.919 65.3245 231.677C66.0958 232.435 66.4807 233.345 66.4794 234.408V253.75C66.4794 254.814 66.0944 255.725 65.3245 256.483C64.5546 257.241 63.6279 257.62 62.5445 257.619H38.9349ZM38.9349 253.75H62.5445V234.408H38.9349V253.75ZM50.7397 247.948C51.8218 247.948 52.7485 247.569 53.5197 246.812C54.291 246.055 54.6759 245.144 54.6746 244.079C54.6746 243.015 54.2897 242.105 53.5197 241.348C52.7498 240.591 51.8231 240.212 50.7397 240.211C49.6576 240.211 48.7316 240.59 47.9616 241.348C47.1917 242.106 46.8061 243.017 46.8048 244.079C46.8048 245.143 47.1904 246.054 47.9616 246.812C48.7329 247.57 49.6589 247.949 50.7397 247.948ZM44.8373 230.54H56.6421V226.671C56.6421 225.059 56.0682 223.689 54.9206 222.561C53.7729 221.433 52.3793 220.868 50.7397 220.868C49.1002 220.868 47.7065 221.433 46.5588 222.561C45.4112 223.689 44.8373 225.059 44.8373 226.671V230.54Z" fill="white"/>
<defs>
<filter id="filter0_b_897_1203" x="37.7143" y="-0.937325" width="289.637" height="294.223" filterUnits="userSpaceOnUse" color-interpolation-filters="sRGB">
<feFlood flood-opacity="0" result="BackgroundImageFix"/>
<feGaussianBlur in="BackgroundImageFix" stdDeviation="17.1429"/>
<feComposite in2="SourceAlpha" operator="in" result="effect1_backgroundBlur_897_1203"/>
<feBlend mode="normal" in="SourceGraphic" in2="effect1_backgroundBlur_897_1203" result="shape"/>
</filter>
<filter id="filter1_b_897_1203" x="-4.00012" y="186" width="109.254" height="103.829" filterUnits="userSpaceOnUse" color-interpolation-filters="sRGB">
<feFlood flood-opacity="0" result="BackgroundImageFix"/>
<feGaussianBlur in="BackgroundImageFix" stdDeviation="2"/>
<feComposite in2="SourceAlpha" operator="in" result="effect1_backgroundBlur_897_1203"/>
<feBlend mode="normal" in="SourceGraphic" in2="effect1_backgroundBlur_897_1203" result="shape"/>
</filter>
<filter id="filter2_b_897_1203" x="11.7143" y="198.714" width="77.5714" height="77.5714" filterUnits="userSpaceOnUse" color-interpolation-filters="sRGB">
<feFlood flood-opacity="0" result="BackgroundImageFix"/>
<feGaussianBlur in="BackgroundImageFix" stdDeviation="2.14286"/>
<feComposite in2="SourceAlpha" operator="in" result="effect1_backgroundBlur_897_1203"/>
<feBlend mode="normal" in="SourceGraphic" in2="effect1_backgroundBlur_897_1203" result="shape"/>
</filter>
<linearGradient id="paint0_linear_897_1203" x1="0" y1="225.652" x2="266.012" y2="108.787" gradientUnits="userSpaceOnUse">
<stop stop-color="#0084FF" stop-opacity="0.4"/>
<stop offset="0.407091" stop-color="white" stop-opacity="0.726314"/>
<stop offset="1" stop-color="white" stop-opacity="0"/>
</linearGradient>
<linearGradient id="paint1_linear_897_1203" x1="309.235" y1="119.569" x2="309.235" y2="203.857" gradientUnits="userSpaceOnUse">
<stop stop-color="white" stop-opacity="0.12"/>
<stop offset="0.5" stop-color="white" stop-opacity="0.73"/>
<stop offset="1" stop-color="#353535" stop-opacity="0"/>
</linearGradient>
<linearGradient id="paint2_linear_897_1203" x1="294.013" y1="3.38237" x2="294.013" y2="65.8199" gradientUnits="userSpaceOnUse">
<stop stop-color="white" stop-opacity="0.12"/>
<stop offset="0.5" stop-color="white" stop-opacity="0.73"/>
<stop offset="1" stop-color="#353535" stop-opacity="0"/>
</linearGradient>
<linearGradient id="paint3_linear_897_1203" x1="40.0117" y1="88.1005" x2="40.0117" y2="145.335" gradientUnits="userSpaceOnUse">
<stop stop-color="white" stop-opacity="0.12"/>
<stop offset="0.5" stop-color="white" stop-opacity="0.73"/>
<stop offset="1" stop-color="#353535" stop-opacity="0"/>
</linearGradient>
<linearGradient id="paint4_linear_897_1203" x1="-3.33533" y1="190" x2="91.2054" y2="297.761" gradientUnits="userSpaceOnUse">
<stop stop-color="white"/>
<stop offset="1" stop-color="white" stop-opacity="0"/>
</linearGradient>
<linearGradient id="paint5_linear_897_1203" x1="67.0618" y1="65.0192" x2="13.374" y2="-8.78807" gradientUnits="userSpaceOnUse">
<stop offset="0.00104141" stop-color="#0FD3FE"/>
<stop offset="0.730208" stop-color="#0E41ED"/>
</linearGradient>
<clipPath id="clip0_897_1203">
<rect width="82" height="81" fill="white" transform="translate(268 115)"/>
</clipPath>
</defs>
</svg>
