<svg width="30" height="31" viewBox="0 0 30 31" fill="none" xmlns="http://www.w3.org/2000/svg">
<path d="M25.2704 1.3131L25.2705 1.31307C25.4002 1.16474 25.5578 1.04341 25.7345 0.956004C25.9111 0.868603 26.1032 0.816843 26.2998 0.80368C26.4964 0.790517 26.6937 0.816208 26.8803 0.879287C27.067 0.942366 27.2394 1.0416 27.3878 1.17131C27.5361 1.30103 27.6574 1.45869 27.7448 1.6353C27.8322 1.81191 27.884 2.004 27.8972 2.20061C27.9103 2.39722 27.8846 2.5945 27.8216 2.78118C27.7585 2.96787 27.6593 3.1403 27.5295 3.28863L18.6361 13.4509L18.556 13.5424L18.629 13.6397L29.25 27.8C29.4171 28.0229 29.5189 28.2879 29.5439 28.5653C29.569 28.8428 29.5162 29.1217 29.3916 29.3708C29.2671 29.62 29.0756 29.8295 28.8386 29.976C28.6016 30.1225 28.3286 30.2 28.05 30.2H21.45C21.2171 30.2 20.9875 30.1458 20.7792 30.0417C20.5709 29.9375 20.3897 29.7863 20.25 29.6L20.13 29.69L20.25 29.6L13.0939 20.0597L12.9829 19.9117L12.8611 20.051L4.42956 29.6886L4.42954 29.6886C4.29982 29.837 4.14216 29.9583 3.96555 30.0457C3.78894 30.1331 3.59685 30.1849 3.40024 30.198C3.20362 30.2112 3.00635 30.1855 2.81966 30.1224C2.63298 30.0593 2.46055 29.9601 2.31222 29.8304C2.16389 29.7007 2.04256 29.543 1.95516 29.3664C1.86775 29.1898 1.81599 28.9977 1.80283 28.8011C1.78967 28.6045 1.81536 28.4072 1.87844 28.2205C1.94151 28.0338 2.04073 27.8614 2.17044 27.7131C2.17045 27.7131 2.17046 27.7131 2.17047 27.7131L11.0639 17.5491L11.144 17.4576L11.071 17.3603L0.450001 3.20002C0.45 3.20002 0.449999 3.20002 0.449997 3.20002C0.282859 2.97717 0.181079 2.71217 0.156062 2.43473C0.131045 2.15729 0.18378 1.87836 0.30836 1.6292C0.432939 1.38005 0.62444 1.1705 0.861404 1.02405C1.09837 0.877596 1.37143 0.800024 1.65 0.800024H8.25C8.48287 0.800024 8.71254 0.854242 8.92082 0.958383C9.1291 1.06253 9.31028 1.21373 9.45 1.40002L9.45001 1.40003L16.6061 10.9403L16.7171 11.0884L16.8389 10.9491L25.2704 1.3131Z" fill="url(#paint0_linear_499_3260)" fill-opacity="0.2" stroke="white" stroke-width="0.3"/>
<defs>
<linearGradient id="paint0_linear_499_3260" x1="2.7" y1="2.45462" x2="27.0674" y2="29.0105" gradientUnits="userSpaceOnUse">
<stop stop-color="white"/>
<stop offset="1" stop-color="white" stop-opacity="0"/>
</linearGradient>
</defs>
</svg>
