<svg width="46" height="33" viewBox="0 0 46 33" fill="none" xmlns="http://www.w3.org/2000/svg">
<path d="M44.8139 7.28644H44.8136L44.8143 7.29664C45.0229 10.358 45.1173 13.4164 45.0976 16.4719L45.0976 16.4733C45.1063 19.5378 45.0107 22.5936 44.8021 25.6578L44.8018 25.6578V25.668C44.8018 29.4644 41.9768 32.5217 38.5121 32.5217V32.5215L38.5051 32.5219C33.4372 32.7566 28.2589 32.8654 22.9703 32.8482H22.9696C17.6894 32.8568 12.4965 32.7538 7.43444 32.5219L7.43445 32.5217H7.42758C3.97168 32.5217 1.1466 29.4645 1.1466 25.668H1.14694L1.14626 25.6579C0.940544 22.5964 0.842032 19.5377 0.850725 16.4819L0.850724 16.4812C0.845508 13.4251 0.937658 10.3695 1.15493 7.31513L1.1553 7.31516V7.30449C1.1553 3.5082 3.98015 0.459366 7.43628 0.459366V0.459527L7.44322 0.459206C12.2614 0.235908 17.1845 0.15 22.1953 0.15H23.7617C28.7848 0.15 33.6992 0.235908 38.5174 0.458347L38.5173 0.458507H38.5243C41.9897 0.458507 44.8139 3.49079 44.8139 7.28644ZM18.5644 24.9117V25.1927L18.7979 25.0364L31.4162 16.589L31.6024 16.4643L31.4161 16.3396L18.7978 7.9008L18.5644 7.74471V8.02549V24.9117ZM38.5121 32.6717C42.0713 32.6717 44.9518 29.5351 44.9518 25.668L22.9698 32.9982C28.2608 33.0154 33.4416 32.9066 38.5121 32.6717Z" fill="url(#paint0_linear_499_3261)" fill-opacity="0.2" stroke="white" stroke-width="0.3"/>
<defs>
<linearGradient id="paint0_linear_499_3261" x1="4.7502" y1="2.00501" x2="30.0167" y2="39.18" gradientUnits="userSpaceOnUse">
<stop stop-color="white"/>
<stop offset="1" stop-color="white" stop-opacity="0"/>
</linearGradient>
</defs>
</svg>
