<svg width="24" height="29" viewBox="0 0 24 29" fill="none" xmlns="http://www.w3.org/2000/svg">
<path d="M12.3464 0.762471C14.2775 0.762471 16.0983 1.23292 17.6999 2.06781L18.5798 1.1879C18.7137 1.04922 18.8739 0.938609 19.0511 0.862511C19.2282 0.786414 19.4188 0.746359 19.6115 0.744684C19.8043 0.743008 19.9955 0.779746 20.174 0.852753C20.3524 0.925761 20.5145 1.03358 20.6509 1.16991C20.7872 1.30624 20.895 1.46835 20.968 1.6468C21.041 1.82524 21.0778 2.01644 21.0761 2.20923C21.0744 2.40203 21.0344 2.59256 20.9583 2.76971C20.8822 2.94685 20.7716 3.10707 20.6329 3.24102L20.1247 3.74921C21.3344 4.83746 22.3013 6.1683 22.9625 7.65507C23.6237 9.14184 23.9644 10.7512 23.9623 12.3784V23.9943C23.9623 25.1496 23.5034 26.2575 22.6865 27.0744C21.8696 27.8913 20.7616 28.3503 19.6063 28.3503H5.08644C3.93117 28.3503 2.82321 27.8913 2.00631 27.0744C1.18941 26.2575 0.730475 25.1496 0.730475 23.9943V12.3784C0.728762 10.7513 1.06973 9.14219 1.73118 7.65567C2.39263 6.16916 3.35974 4.83861 4.56953 3.75066L4.05989 3.24247C3.78743 2.97021 3.63429 2.60087 3.63416 2.2157C3.63402 1.83053 3.7869 1.46108 4.05916 1.18863C4.33142 0.916178 4.70076 0.763039 5.08593 0.762903C5.4711 0.762767 5.84054 0.915644 6.113 1.1879L6.9929 2.06781C8.64618 1.20777 10.4828 0.759955 12.3464 0.762471ZM21.0583 16.7343H3.63445V23.9943C3.63445 24.3794 3.78743 24.7487 4.05973 25.021C4.33203 25.2933 4.70135 25.4463 5.08644 25.4463H19.6063C19.9914 25.4463 20.3607 25.2933 20.633 25.021C20.9053 24.7487 21.0583 24.3794 21.0583 23.9943V16.7343ZM12.3464 3.66645C10.0923 3.66637 7.92601 4.53991 6.30252 6.10356C4.67904 7.66721 3.72479 9.79923 3.64026 12.0517L3.63445 12.3784V13.8304H21.0583V12.3784C21.0583 10.0678 20.1405 7.85192 18.5066 6.21811C16.8728 4.58431 14.6569 3.66645 12.3464 3.66645ZM7.99042 8.02241C8.37551 8.02241 8.74483 8.17539 9.01713 8.44769C9.28943 8.71999 9.4424 9.08931 9.4424 9.4744C9.4424 9.85949 9.28943 10.2288 9.01713 10.5011C8.74483 10.7734 8.37551 10.9264 7.99042 10.9264C7.60533 10.9264 7.23601 10.7734 6.96371 10.5011C6.69141 10.2288 6.53843 9.85949 6.53843 9.4744C6.53843 9.08931 6.69141 8.71999 6.96371 8.44769C7.23601 8.17539 7.60533 8.02241 7.99042 8.02241ZM16.7023 8.02241C17.0874 8.02241 17.4568 8.17539 17.7291 8.44769C18.0014 8.71999 18.1543 9.08931 18.1543 9.4744C18.1543 9.85949 18.0014 10.2288 17.7291 10.5011C17.4568 10.7734 17.0874 10.9264 16.7023 10.9264C16.3173 10.9264 15.9479 10.7734 15.6756 10.5011C15.4033 10.2288 15.2504 9.85949 15.2504 9.4744C15.2504 9.08931 15.4033 8.71999 15.6756 8.44769C15.9479 8.17539 16.3173 8.02241 16.7023 8.02241Z" fill="#5C9EFF"/>
</svg>
