<svg width="92" height="37" viewBox="0 0 92 37" fill="none" xmlns="http://www.w3.org/2000/svg">
<path d="M23.9908 0H0.828125V13.3062H8.71329V6.89952H19.5554C22.0887 7.85589 22.7987 9.11189 22.2121 13.3062C25.6225 13.697 26.7709 14.5065 28.4262 16.2632L29.9047 13.3062V6.4067C28.8475 2.8169 27.2915 1.63832 23.9908 0Z" fill="white" fill-opacity="0.8"/>
<path d="M0.828125 15.2775H22.2121C25.867 16.4315 27.4492 17.6955 29.4118 21.1914V27.1053L28.919 30.555H48.6319C52.7173 28.3552 55.3999 21.3459 54.3796 15.2775C54.2668 14.6063 54.1086 13.9466 53.9021 13.3062C53.0475 10.6568 51.3642 8.33756 48.6319 6.89952H42.2252V28.5837H33.3544V0H52.5745C58.4044 3.44918 60.4743 6.35117 62.431 13.3062H53.9021C54.1086 13.9466 54.2668 14.6063 54.3796 15.2775H62.431C62.7339 22.1227 62.2781 24.8657 60.4597 28.0909C56.0406 27.773 54.7562 28.8915 53.0673 31.5407V35.4832C52.1372 36.7417 51.2234 37.0208 49.1248 36.9617H0.828125V30.555H18.5697C23.498 29.0765 23.9908 24.1483 18.5697 22.6698H0.828125V15.2775Z" fill="white" fill-opacity="0.8"/>
<path d="M65.8807 36.9617V0H74.2587V36.9617H65.8807Z" fill="white" fill-opacity="0.8"/>
<path d="M76.23 7.88517V0C86.0205 0.715452 89.0232 3.39387 92.0004 10.3493V36.9617H84.1152V22.6698H76.23V15.2775H84.1152C83.805 9.59233 81.4194 8.63995 76.23 7.88517Z" fill="white" fill-opacity="0.8"/>
</svg>
