<svg width="12" height="13" viewBox="0 0 12 13" fill="none" xmlns="http://www.w3.org/2000/svg">
<path d="M10.6223 7.01029V6.36703L11.4295 5.66071C11.5783 5.52956 11.676 5.35002 11.7052 5.15384C11.7345 4.95766 11.6934 4.75745 11.5893 4.58862L10.5971 2.9069C10.5234 2.7792 10.4174 2.67313 10.2897 2.59934C10.162 2.52554 10.0172 2.48662 9.86975 2.48647C9.77837 2.48577 9.68749 2.49997 9.60068 2.52851L8.57903 2.87326C8.40265 2.75605 8.21865 2.65071 8.02827 2.55794L7.81385 1.49846C7.77541 1.30489 7.6701 1.13102 7.51638 1.00727C7.36265 0.883522 7.1703 0.817784 6.97299 0.821566H5.00538C4.80808 0.817784 4.61572 0.883522 4.462 1.00727C4.30827 1.13102 4.20297 1.30489 4.16453 1.49846L3.95011 2.55794C3.75836 2.65069 3.57297 2.75602 3.39514 2.87326L2.39452 2.51169C2.30677 2.48883 2.21591 2.48031 2.12545 2.48647C1.97799 2.48662 1.83317 2.52554 1.7055 2.59934C1.57784 2.67313 1.47183 2.7792 1.3981 2.9069L0.40589 4.58862C0.307756 4.7572 0.27129 4.95467 0.302737 5.14718C0.334184 5.3397 0.431587 5.5153 0.578265 5.64389L1.37288 6.37124V7.01449L0.578265 7.72082C0.427444 7.85031 0.327377 8.02905 0.295821 8.22531C0.264264 8.42157 0.303261 8.62267 0.40589 8.79291L1.3981 10.4746C1.47183 10.6023 1.57784 10.7084 1.7055 10.7822C1.83317 10.856 1.97799 10.8949 2.12545 10.8951C2.21683 10.8958 2.30771 10.8816 2.39452 10.853L3.41616 10.5083C3.59255 10.6255 3.77654 10.7308 3.96692 10.8236L4.18134 11.8831C4.21979 12.0766 4.32509 12.2505 4.47882 12.3743C4.63254 12.498 4.82489 12.5637 5.0222 12.56H7.00663C7.20394 12.5637 7.39629 12.498 7.55001 12.3743C7.70374 12.2505 7.80904 12.0766 7.84749 11.8831L8.0619 10.8236C8.25365 10.7308 8.43904 10.6255 8.61687 10.5083L9.63431 10.853C9.72112 10.8816 9.81201 10.8958 9.90339 10.8951C10.0508 10.8949 10.1957 10.856 10.3233 10.7822C10.451 10.7084 10.557 10.6023 10.6307 10.4746L11.5893 8.79291C11.6874 8.62432 11.7239 8.42686 11.6925 8.23434C11.661 8.04183 11.5636 7.86623 11.4169 7.73763L10.6223 7.01029ZM9.86975 10.0542L8.42768 9.5665C8.0901 9.85244 7.70429 10.076 7.28831 10.2266L6.98981 11.7359H5.00538L4.70688 10.2434C4.2942 10.0885 3.91047 9.86537 3.57172 9.58332L2.12545 10.0542L1.13323 8.37248L2.2768 7.36345C2.19906 6.92825 2.19906 6.48271 2.2768 6.04751L1.13323 5.00905L2.12545 3.32733L3.56752 3.81502C3.90509 3.52909 4.29091 3.30557 4.70688 3.15495L5.00538 1.64561H6.98981L7.28831 3.13813C7.701 3.29303 8.08473 3.51616 8.42347 3.79821L9.86975 3.32733L10.862 5.00905L9.7184 6.01808C9.79613 6.45328 9.79613 6.89882 9.7184 7.33402L10.862 8.37248L9.86975 10.0542Z" fill="#3879C5"/>
</svg>
