<svg width="45" height="51" viewBox="0 0 45 51" fill="none" xmlns="http://www.w3.org/2000/svg">
<path d="M44.4176 14.3249H36.6589C35.4164 12.1103 33.7046 10.1725 31.6337 8.78841L36.1343 4.38688L32.2412 0.483643L26.2496 6.49076C23.6822 5.86631 21.0032 5.86631 18.4358 6.49076L12.4166 0.483643L8.52348 4.38688L12.9964 8.78841C10.9256 10.1725 9.24136 12.138 7.99888 14.3249H0.240234V19.8614H6.0109C5.84523 20.775 5.7624 21.6885 5.7624 22.6297V25.3979H0.240234V30.9345H5.7624V33.7027C5.7624 34.6439 5.84523 35.5574 6.0109 36.471H0.240234V42.0075H7.99888C9.08719 43.8937 10.5358 45.5463 12.2617 46.8707C13.9877 48.1951 15.9572 49.1653 18.0575 49.7258C20.1578 50.2863 22.3477 50.4261 24.502 50.1372C26.6563 49.8484 28.7326 49.1365 30.6121 48.0423C33.1247 46.6028 35.2232 44.4989 36.6589 42.0075H44.4176V36.471H38.6469C38.8126 35.5574 38.8954 34.6439 38.8954 33.7027V30.9345H44.4176V25.3979H38.8954V22.6297C38.8954 21.6885 38.8126 20.775 38.6469 19.8614H44.4176V14.3249ZM33.3732 33.7027C33.3732 36.6395 32.2096 39.4559 30.1384 41.5325C28.0672 43.6091 25.258 44.7757 22.3289 44.7757C19.3998 44.7757 16.5906 43.6091 14.5194 41.5325C12.4482 39.4559 11.2846 36.6395 11.2846 33.7027V22.6297C11.2846 19.6929 12.4482 16.8765 14.5194 14.7999C16.5906 12.7233 19.3998 11.5567 22.3289 11.5567C25.258 11.5567 28.0672 12.7233 30.1384 14.7999C32.2096 16.8765 33.3732 19.6929 33.3732 22.6297V33.7027ZM27.8511 19.8614V25.3979H16.8067V19.8614H27.8511ZM16.8067 30.9345H27.8511V36.471H16.8067V30.9345Z" fill="#5C9EFF"/>
</svg>
