<svg width="12" height="12" viewBox="0 0 12 12" fill="none" xmlns="http://www.w3.org/2000/svg">
<path d="M9.81487 1.87114H8.69373V1.31057C8.69373 1.1619 8.63467 1.01932 8.52954 0.914188C8.42441 0.80906 8.28183 0.75 8.13316 0.75C7.98448 0.75 7.8419 0.80906 7.73677 0.914188C7.63164 1.01932 7.57258 1.1619 7.57258 1.31057V1.87114H4.20916V1.31057C4.20916 1.1619 4.1501 1.01932 4.04497 0.914188C3.93984 0.80906 3.79726 0.75 3.64858 0.75C3.49991 0.75 3.35733 0.80906 3.2522 0.914188C3.14707 1.01932 3.08801 1.1619 3.08801 1.31057V1.87114H1.96687C1.52085 1.87114 1.0931 2.04832 0.777719 2.36371C0.462336 2.67909 0.285156 3.10684 0.285156 3.55286V10.2797C0.285156 10.7257 0.462336 11.1535 0.777719 11.4689C1.0931 11.7843 1.52085 11.9614 1.96687 11.9614H9.81487C10.2609 11.9614 10.6886 11.7843 11.004 11.4689C11.3194 11.1535 11.4966 10.7257 11.4966 10.2797V3.55286C11.4966 3.10684 11.3194 2.67909 11.004 2.36371C10.6886 2.04832 10.2609 1.87114 9.81487 1.87114ZM10.3754 10.2797C10.3754 10.4284 10.3164 10.571 10.2113 10.6761C10.1061 10.7812 9.96354 10.8403 9.81487 10.8403H1.96687C1.8182 10.8403 1.67561 10.7812 1.57049 10.6761C1.46536 10.571 1.4063 10.4284 1.4063 10.2797V6.35571H10.3754V10.2797ZM10.3754 5.23457H1.4063V3.55286C1.4063 3.40418 1.46536 3.2616 1.57049 3.15647C1.67561 3.05135 1.8182 2.99229 1.96687 2.99229H3.08801V3.55286C3.08801 3.70153 3.14707 3.84411 3.2522 3.94924C3.35733 4.05437 3.49991 4.11343 3.64858 4.11343C3.79726 4.11343 3.93984 4.05437 4.04497 3.94924C4.1501 3.84411 4.20916 3.70153 4.20916 3.55286V2.99229H7.57258V3.55286C7.57258 3.70153 7.63164 3.84411 7.73677 3.94924C7.8419 4.05437 7.98448 4.11343 8.13316 4.11343C8.28183 4.11343 8.42441 4.05437 8.52954 3.94924C8.63467 3.84411 8.69373 3.70153 8.69373 3.55286V2.99229H9.81487C9.96354 2.99229 10.1061 3.05135 10.2113 3.15647C10.3164 3.2616 10.3754 3.40418 10.3754 3.55286V5.23457Z" fill="#3879C5"/>
</svg>
