<svg width="11" height="7" viewBox="0 0 11 7" fill="none" xmlns="http://www.w3.org/2000/svg">
<path d="M2.59971 1.7997V0.678558H10.4477V1.7997H2.59971ZM2.59971 4.04199V2.92084H10.4477V4.04199H2.59971ZM2.59971 6.28427V5.16313H10.4477V6.28427H2.59971ZM0.917994 1.7997C0.759165 1.7997 0.626123 1.74589 0.518867 1.63826C0.411611 1.53063 0.357796 1.39758 0.357422 1.23913C0.357422 1.0803 0.411237 0.947259 0.518867 0.840003C0.626497 0.732747 0.759539 0.678932 0.917994 0.678558C1.07682 0.678558 1.21005 0.732373 1.31768 0.840003C1.42531 0.947633 1.47894 1.08068 1.47857 1.23913C1.47857 1.39796 1.42475 1.53119 1.31712 1.63882C1.20949 1.74645 1.07645 1.80008 0.917994 1.7997ZM0.917994 4.04199C0.759165 4.04199 0.626123 3.98817 0.518867 3.88054C0.411611 3.77291 0.357796 3.63987 0.357422 3.48142C0.357422 3.32259 0.411237 3.18955 0.518867 3.08229C0.626497 2.97503 0.759539 2.92122 0.917994 2.92084C1.07682 2.92084 1.21005 2.97466 1.31768 3.08229C1.42531 3.18992 1.47894 3.32296 1.47857 3.48142C1.47857 3.64024 1.42475 3.77347 1.31712 3.8811C1.20949 3.98873 1.07645 4.04236 0.917994 4.04199ZM0.917994 6.28427C0.759165 6.28427 0.626123 6.23046 0.518867 6.12283C0.411611 6.0152 0.357796 5.88216 0.357422 5.7237C0.357422 5.56487 0.411237 5.43183 0.518867 5.32458C0.626497 5.21732 0.759539 5.1635 0.917994 5.16313C1.07682 5.16313 1.21005 5.21695 1.31768 5.32458C1.42531 5.43221 1.47894 5.56525 1.47857 5.7237C1.47857 5.88253 1.42475 6.01576 1.31712 6.12339C1.20949 6.23102 1.07645 6.28465 0.917994 6.28427Z" fill="#3879C5"/>
</svg>
